<?xml version="1.0" standalone="no"?>
<!DOCTYPE svg PUBLIC "-//W3C//DTD SVG 1.1//EN" "http://www.w3.org/Graphics/SVG/1.1/DTD/svg11.dtd" >
<svg>
<metadata>
Created by FontForge 20120731 at Mon May  9 07:02:58 2016
 By www
Copyright 1990-1999 as an unpublished work by Bitstream Inc.  All rights reserved.  Confidential.
</metadata>
<defs>
<font id="ZurichBT-Roman" horiz-adv-x="500" >
  <font-face 
    font-family="Zurich"
    font-weight="500"
    font-stretch="normal"
    units-per-em="1000"
    panose-1="0 0 0 0 0 0 0 0 0 0"
    ascent="800"
    descent="-200"
    x-height="502"
    cap-height="720"
    bbox="-167 -236 1265 963"
    underline-thickness="62"
    underline-position="-64"
    stemh="66"
    stemv="92"
    unicode-range="U+0020-FB02"
  />
<missing-glyph horiz-adv-x="277" 
 />
    <glyph glyph-name=".notdef" horiz-adv-x="277" 
 />
    <glyph glyph-name="space" unicode=" " horiz-adv-x="277" 
 />
    <glyph glyph-name="exclam" unicode="!" horiz-adv-x="370" 
d="M135 0v101h100v-101h-100zM149 168l-17 552h107l-17 -552h-73z" />
    <glyph glyph-name="quotedbl" unicode="&#x22;" horiz-adv-x="300" 
d="M112 701v-271h-68v271h68zM256 701v-271h-68v271h68z" />
    <glyph glyph-name="numbersign" unicode="#" horiz-adv-x="769" 
d="M451 712l-79 -222h125l80 222h80l-78 -222h147l-25 -71h-148l-45 -129h157l-25 -71h-157l-79 -221h-81l79 221h-126l-79 -221h-81l78 221h-151l26 71h151l45 129h-161l25 71h162l79 222h81zM473 419h-127l-45 -129h127z" />
    <glyph glyph-name="dollar" unicode="$" horiz-adv-x="553" 
d="M252 412v209c-75 -2 -121 -51 -121 -110c0 -47 26 -68 80 -86zM252 316l-92 28c-83 25 -123 78 -123 161c0 105 80 184 215 191v83h49v-82c125 -2 200 -68 200 -169v-8h-89c-3 59 -41 94 -111 101v-221l50 -14c115 -31 171 -80 171 -177c0 -122 -78 -199 -221 -209v-97
h-49v97c-146 0 -221 68 -221 198v10h93c3 -83 42 -122 128 -130v238zM348 294l-47 11v-227c83 6 131 53 131 119c0 49 -30 84 -84 97z" />
    <glyph glyph-name="percent" unicode="%" horiz-adv-x="984" 
d="M86 524c0 119 57 184 158 184s156 -64 156 -175c0 -122 -56 -191 -161 -191c-98 0 -153 66 -153 182zM166 526c0 -79 27 -122 75 -122c50 0 79 45 79 128c0 75 -27 117 -76 117s-78 -42 -78 -123zM666 708h63l-411 -720h-63zM583 170c0 119 57 184 158 184
s157 -64 157 -175c0 -122 -57 -191 -162 -191c-98 0 -153 66 -153 182zM664 172c0 -79 27 -122 75 -122c50 0 79 45 79 128c0 75 -28 117 -77 117s-77 -42 -77 -123z" />
    <glyph glyph-name="ampersand" unicode="&#x26;" horiz-adv-x="606" 
d="M372 639h-72c-90 0 -133 -32 -133 -115c0 -78 44 -118 131 -118h89v109h98v-109h88v-81h-88v-325h-219c-50 0 -94 1 -133 22c-54 28 -89 89 -89 167c0 101 52 167 138 178c-71 18 -114 79 -114 162c0 119 79 192 224 192h80v-82zM387 82v243h-88
c-101 0 -152 -29 -152 -120c0 -102 47 -123 147 -123h93z" />
    <glyph glyph-name="quoteright" unicode="&#x2019;" horiz-adv-x="255" 
d="M37 474l66 246h115l-112 -246h-69z" />
    <glyph glyph-name="parenleft" unicode="(" horiz-adv-x="315" 
d="M194 -140c-63 164 -114 301 -114 442c0 134 42 269 107 429h68c-49 -157 -87 -291 -87 -421c0 -127 38 -273 95 -450h-69z" />
    <glyph glyph-name="parenright" unicode=")" horiz-adv-x="315" 
d="M60 -140c49 157 87 291 87 421c0 127 -38 273 -95 450h69c63 -164 114 -300 114 -441c0 -134 -43 -270 -108 -430h-67z" />
    <glyph glyph-name="asterisk" unicode="*" horiz-adv-x="528" 
d="M193 344l-64 39l102 137l-165 -18v75l165 -18l-102 134l64 38l71 -153l65 153l65 -38l-97 -134l165 18v-75l-165 18l97 -137l-65 -39l-65 157z" />
    <glyph glyph-name="plus" unicode="+" horiz-adv-x="833" 
d="M451 596v-264h258v-68h-258v-264h-69v264h-258v68h258v264h69z" />
    <glyph glyph-name="comma" unicode="," horiz-adv-x="277" 
d="M48 -124l66 246h115l-112 -246h-69z" />
    <glyph glyph-name="hyphen" unicode="-" horiz-adv-x="331" 
d="M47 209v84h237v-84h-237z" />
    <glyph glyph-name="period" unicode="." horiz-adv-x="277" 
d="M84 0v123h109v-123h-109z" />
    <glyph glyph-name="slash" unicode="/" horiz-adv-x="301" 
d="M-16 -72l261 803h60l-261 -803h-60z" />
    <glyph glyph-name="zero" unicode="0" horiz-adv-x="553" 
d="M46 344c0 117 8 205 54 273c42 61 100 92 175 92c83 0 149 -39 189 -111c37 -67 43 -152 43 -264c0 -230 -75 -345 -229 -345c-160 0 -232 114 -232 355zM143 345c0 -187 39 -277 134 -277c94 0 132 96 132 285c0 185 -41 277 -133 277s-133 -96 -133 -285z" />
    <glyph glyph-name="one" unicode="1" horiz-adv-x="553" 
d="M279 0v583c-44 -37 -94 -69 -154 -95v103c63 30 114 63 154 106h96v-697h-96z" />
    <glyph glyph-name="two" unicode="2" horiz-adv-x="553" 
d="M494 0h-435v100c223 202 339 326 339 418c0 66 -46 110 -113 110c-69 0 -109 -42 -109 -119h-106c4 128 81 200 208 200c130 0 217 -73 217 -192c0 -106 -63 -176 -158 -271l-164 -164h321v-82z" />
    <glyph glyph-name="three" unicode="3" horiz-adv-x="553" 
d="M41 185h105c6 -78 45 -114 123 -114c91 0 142 50 142 121c0 82 -59 131 -172 131c-8 0 -16 -1 -24 -1v76c124 3 183 41 183 122c0 65 -45 107 -118 107c-76 0 -124 -41 -126 -104h-100c2 112 84 185 222 185c140 0 222 -78 222 -189c0 -74 -42 -128 -126 -158
c89 -18 138 -83 138 -170c0 -116 -90 -203 -246 -203c-143 0 -222 72 -223 197z" />
    <glyph glyph-name="four" unicode="4" horiz-adv-x="553" 
d="M341 233v363l-240 -363h240zM341 0v150h-316v122l298 425h111v-464h94v-83h-94v-150h-93z" />
    <glyph glyph-name="five" unicode="5" horiz-adv-x="553" 
d="M54 170h106c12 -66 51 -98 118 -98c81 0 131 58 131 163c0 93 -49 144 -135 144c-64 0 -107 -34 -118 -94h-90l16 412h384v-79h-300l-9 -222c45 44 86 61 143 61c123 0 209 -91 209 -225c0 -141 -98 -244 -249 -244c-123 0 -201 71 -206 182z" />
    <glyph glyph-name="six" unicode="6" horiz-adv-x="553" 
d="M150 223c0 -97 58 -155 133 -155c77 0 133 57 133 156c0 95 -55 154 -130 154c-76 0 -136 -59 -136 -155zM142 366c33 57 90 89 161 89c117 0 206 -85 206 -220c0 -155 -97 -245 -229 -245c-160 0 -238 112 -238 337c0 252 87 382 251 382c114 0 195 -68 201 -172h-100
c-8 62 -48 98 -104 98c-99 0 -147 -89 -148 -269z" />
    <glyph glyph-name="seven" unicode="7" horiz-adv-x="553" 
d="M132 0l269 611h-354v86h446v-94l-243 -603h-118z" />
    <glyph glyph-name="eight" unicode="8" horiz-adv-x="553" 
d="M141 194c0 -72 52 -126 134 -126s138 51 138 127c0 75 -50 130 -135 130c-87 0 -137 -58 -137 -131zM149 523c0 -59 47 -113 127 -113c82 0 130 46 130 113c0 65 -49 111 -131 111c-73 0 -126 -49 -126 -111zM191 367c-89 21 -141 82 -141 162c0 102 94 179 226 179
c134 0 228 -76 228 -179c0 -82 -51 -144 -138 -162c95 -20 149 -88 149 -177c0 -117 -91 -202 -238 -202c-148 0 -238 81 -238 206c0 89 51 147 152 173z" />
    <glyph glyph-name="nine" unicode="9" horiz-adv-x="553" 
d="M400 475c0 96 -55 156 -130 156c-81 0 -136 -58 -136 -158c0 -94 55 -152 131 -152c75 0 135 59 135 154zM409 334c-34 -59 -91 -91 -163 -91c-115 0 -205 84 -205 225c0 150 99 240 228 240c160 0 239 -111 239 -335c0 -254 -86 -384 -248 -384c-118 0 -196 67 -202 171
h101c8 -61 48 -96 103 -96c100 0 147 89 147 270z" />
    <glyph glyph-name="colon" unicode=":" horiz-adv-x="370" 
d="M131 0v123h108v-123h-108zM131 502h108v-123h-108v123z" />
    <glyph glyph-name="semicolon" unicode=";" horiz-adv-x="370" 
d="M240 502v-123h-109v123h109zM69 -124l66 246h115l-112 -246h-69z" />
    <glyph glyph-name="less" unicode="&#x3c;" horiz-adv-x="833" 
d="M704 491l-473 -193l473 -192v-75l-575 236v63l575 236v-75z" />
    <glyph glyph-name="equal" unicode="=" horiz-adv-x="833" 
d="M709 429v-68h-585v68h585zM709 235v-68h-585v68h585z" />
    <glyph glyph-name="greater" unicode="&#x3e;" horiz-adv-x="833" 
d="M704 330v-63l-575 -236v75l474 192l-474 193v75z" />
    <glyph glyph-name="question" unicode="?" horiz-adv-x="491" 
d="M159 0v104h104v-104h-104zM168 166v97c0 51 5 55 28 78c82 84 134 134 134 198c0 63 -49 108 -133 108c-44 0 -89 -10 -133 -29v91c47 15 92 23 136 23c144 0 234 -75 234 -180c0 -91 -59 -145 -136 -218c-43 -41 -47 -35 -47 -83v-85h-83z" />
    <glyph glyph-name="at" unicode="@" horiz-adv-x="1000" 
d="M581 232l29 115c-11 58 -46 90 -97 90c-90 0 -159 -97 -159 -219c0 -69 33 -107 91 -107c62 0 118 48 136 121zM627 417l28 56h64l-71 -281c-3 -12 -4 -22 -4 -29c0 -30 17 -46 49 -46c30 0 67 17 102 50c51 48 83 123 83 205c0 166 -132 284 -337 284
c-86 0 -159 -18 -223 -56c-124 -74 -196 -200 -196 -346c0 -115 39 -198 124 -263c63 -48 154 -78 256 -78c110 0 217 33 303 93l27 -40c-97 -73 -206 -109 -324 -109c-125 0 -228 31 -307 91c-100 77 -149 178 -149 307c0 107 34 205 99 284c94 115 230 177 394 177
c111 0 209 -33 275 -84c84 -65 129 -152 129 -251c0 -114 -42 -207 -121 -269c-45 -36 -100 -55 -154 -55c-65 0 -98 26 -98 77v9c-36 -58 -83 -85 -147 -85c-99 0 -153 57 -153 162c0 155 103 270 233 270c56 0 95 -25 118 -73z" />
    <glyph glyph-name="A" unicode="A" horiz-adv-x="713" 
d="M107 0h-100l306 720h103l289 -720h-112l-72 186h-334zM491 268l-132 355l-140 -355h272z" />
    <glyph glyph-name="B" unicode="B" horiz-adv-x="641" 
d="M318 414c102 0 149 28 149 111c0 77 -49 115 -149 115h-139v-226h139zM327 80c109 0 160 34 160 126c0 86 -53 128 -160 128h-148v-254h148zM83 0v720h245c57 0 103 -3 143 -21c62 -29 99 -87 99 -162c0 -79 -41 -135 -117 -159c89 -25 136 -90 136 -187
c0 -145 -83 -191 -248 -191h-258z" />
    <glyph glyph-name="C" unicode="C" horiz-adv-x="662" 
d="M619 194c-2 -124 -101 -206 -263 -206c-194 0 -300 128 -300 368s113 375 309 375c156 0 249 -76 252 -200h-102c-6 73 -69 124 -159 124c-120 0 -197 -104 -197 -296c0 -185 72 -288 197 -288c91 0 149 46 156 123h107z" />
    <glyph glyph-name="D" unicode="D" horiz-adv-x="718" 
d="M311 0h-228v720h202c104 0 183 -5 255 -62c80 -63 125 -171 125 -308c0 -113 -34 -207 -89 -265c-68 -71 -148 -85 -265 -85zM333 86c154 0 231 88 231 264c0 187 -89 291 -248 291h-137v-555h154z" />
    <glyph glyph-name="E" unicode="E" horiz-adv-x="604" 
d="M83 0v720h447v-85h-351v-219h336v-85h-336v-245h359v-86h-455z" />
    <glyph glyph-name="F" unicode="F" horiz-adv-x="550" 
d="M83 0v720h419v-86h-323v-221h306v-86h-306v-327h-96z" />
    <glyph glyph-name="G" unicode="G" horiz-adv-x="744" 
d="M661 33c-91 -30 -174 -46 -253 -46c-220 0 -353 137 -353 365c0 234 132 379 353 379c155 0 249 -73 253 -190h-105c-2 65 -67 116 -161 116c-147 0 -238 -110 -238 -301c0 -185 94 -289 255 -289c45 0 93 10 147 26v214h-150v81h252v-355z" />
    <glyph glyph-name="H" unicode="H" horiz-adv-x="714" 
d="M181 0h-98v720h98v-307h354v307h96v-720h-96v327h-354v-327z" />
    <glyph glyph-name="I" unicode="I" horiz-adv-x="263" 
d="M179 0h-96v720h96v-720z" />
    <glyph glyph-name="J" unicode="J" horiz-adv-x="528" 
d="M353 244v476h96v-493c0 -159 -75 -239 -219 -239c-133 0 -208 68 -208 186c0 7 1 14 1 21h95c0 -5 -1 -11 -1 -16c0 -70 39 -107 108 -107c100 0 128 57 128 172z" />
    <glyph glyph-name="K" unicode="K" horiz-adv-x="650" 
d="M83 0v720h96v-309l296 309h129l-313 -320l351 -400h-138l-325 381v-381h-96z" />
    <glyph glyph-name="L" unicode="L" horiz-adv-x="535" 
d="M83 0v720h95v-634h328v-86h-423z" />
    <glyph glyph-name="M" unicode="M" horiz-adv-x="909" 
d="M731 0v644l-230 -644h-83l-238 637v-637h-96v720h164l214 -587l204 587h159v-720h-94z" />
    <glyph glyph-name="N" unicode="N" horiz-adv-x="734" 
d="M84 0v720h137l341 -587v587h87v-720h-118l-358 611v-611h-89z" />
    <glyph glyph-name="O" unicode="O" horiz-adv-x="771" 
d="M57 358c0 241 121 373 329 373c209 0 328 -131 328 -373c0 -238 -120 -370 -328 -370c-206 0 -329 133 -329 370zM160 363c0 -188 81 -292 225 -292c145 0 225 101 225 290c0 190 -82 291 -225 291s-225 -101 -225 -289z" />
    <glyph glyph-name="P" unicode="P" horiz-adv-x="603" 
d="M83 0v720h251c157 0 235 -65 235 -198c0 -146 -94 -206 -282 -206h-108v-316h-96zM318 405c102 0 149 30 149 115c0 88 -46 117 -149 117h-139v-232h139z" />
    <glyph glyph-name="Q" unicode="Q" horiz-adv-x="771" 
d="M160 366c0 -186 80 -288 225 -288s225 100 225 287c0 188 -82 288 -225 288s-225 -101 -225 -287zM756 0h-251c-38 0 -75 -7 -112 -7c-213 0 -336 131 -336 368c0 239 121 371 329 371c207 0 328 -132 328 -361c0 -127 -35 -221 -108 -284h150v-87z" />
    <glyph glyph-name="R" unicode="R" horiz-adv-x="648" 
d="M83 0v720h254c160 0 239 -64 239 -188c0 -85 -48 -148 -132 -170c68 -16 89 -45 103 -108c13 -61 14 -149 45 -254h-103c-29 117 -26 205 -43 252c-20 57 -56 73 -146 73h-121v-325h-96zM320 413c104 0 153 27 153 109c0 93 -55 107 -153 107h-141v-216h141z" />
    <glyph glyph-name="S" unicode="S" horiz-adv-x="656" 
d="M159 211c3 -95 56 -138 166 -138c109 0 175 48 175 125c0 90 -76 101 -197 132c-62 16 -117 27 -161 53c-49 29 -78 83 -78 145c0 120 97 203 272 203c152 0 240 -70 240 -178v-11h-97c-3 70 -57 110 -152 110c-97 0 -161 -45 -161 -118c0 -78 69 -87 197 -120
c151 -39 237 -75 237 -207c0 -134 -97 -219 -272 -219c-183 0 -272 67 -272 213v10h103z" />
    <glyph glyph-name="T" unicode="T" horiz-adv-x="603" 
d="M349 0h-96v634h-239v86h575v-86h-240v-634z" />
    <glyph glyph-name="U" unicode="U" horiz-adv-x="728" 
d="M74 720h99v-425c0 -148 56 -220 189 -220c146 0 198 77 198 235v410h93v-470c0 -164 -111 -261 -300 -261c-183 0 -279 96 -279 288v443z" />
    <glyph glyph-name="V" unicode="V" horiz-adv-x="657" 
d="M373 0h-106l-251 720h108l200 -608l214 608h104z" />
    <glyph glyph-name="W" unicode="W" horiz-adv-x="977" 
d="M212 0l-196 720h95l155 -576l174 576h109l158 -589l162 589h92l-208 -720h-101l-163 613l-183 -613h-94z" />
    <glyph glyph-name="X" unicode="X" horiz-adv-x="700" 
d="M22 0l274 378l-240 342h113l191 -277l190 277h113l-250 -342l265 -378h-116l-210 312l-217 -312h-113z" />
    <glyph glyph-name="Y" unicode="Y" horiz-adv-x="657" 
d="M379 0h-96v284l-274 436h119l208 -351l202 351h110l-269 -436v-284z" />
    <glyph glyph-name="Z" unicode="Z" horiz-adv-x="602" 
d="M566 0h-530v102l413 532h-396v86h500v-103l-409 -528h422v-89z" />
    <glyph glyph-name="bracketleft" unicode="[" horiz-adv-x="315" 
d="M274 -152h-170v872h170v-54h-92v-764h92v-54z" />
    <glyph glyph-name="backslash" unicode="\" horiz-adv-x="301" 
d="M245 -72l-261 803h60l260 -803h-59z" />
    <glyph glyph-name="bracketright" unicode="]" horiz-adv-x="315" 
d="M41 720h170v-872h-170v54h91v764h-91v54z" />
    <glyph glyph-name="asciicircum" unicode="^" horiz-adv-x="1000" 
d="M545 712l249 -272h-88l-206 205l-207 -205h-88l249 272h91z" />
    <glyph glyph-name="underscore" unicode="_" 
d="M500 -166v-70h-500v70h500z" />
    <glyph glyph-name="quoteleft" unicode="&#x2018;" horiz-adv-x="255" 
d="M218 720l-67 -246h-114l112 246h69z" />
    <glyph glyph-name="a" unicode="a" horiz-adv-x="531" 
d="M365 249h-78c-101 0 -151 -41 -151 -101c0 -48 39 -85 95 -85c86 0 134 47 134 136v50zM463 0h-83c-5 16 -7 42 -10 79c-25 -59 -81 -91 -161 -91c-104 0 -168 62 -168 151c0 103 86 173 237 173h87v61c0 54 -33 82 -99 82c-62 0 -100 -32 -102 -86h-89v8
c0 88 65 137 185 137c143 0 198 -50 198 -156v-310c0 -6 1 -22 5 -48z" />
    <glyph glyph-name="b" unicode="b" horiz-adv-x="602" 
d="M169 242c0 -122 61 -193 145 -193c81 0 143 72 143 208c0 122 -61 192 -145 192c-80 0 -143 -71 -143 -207zM77 720h92v-294c50 57 103 84 170 84c132 0 213 -90 213 -260c0 -165 -85 -262 -219 -262c-72 0 -127 28 -164 81l-4 -69h-94c5 41 6 74 6 100v620z" />
    <glyph glyph-name="c" unicode="c" horiz-adv-x="516" 
d="M467 169c-8 -118 -77 -181 -196 -181c-143 0 -223 91 -223 252c0 173 85 274 230 274c112 0 185 -65 185 -168v-2h-90c0 61 -45 105 -102 105c-76 0 -127 -67 -127 -187c0 -135 43 -204 125 -204c64 0 107 43 108 111h90z" />
    <glyph glyph-name="d" unicode="d" horiz-adv-x="602" 
d="M437 0l-4 74c-47 -61 -94 -86 -161 -86c-138 0 -223 98 -223 259c0 167 84 263 220 263c69 0 125 -29 164 -84v294h92v-620c0 -26 1 -59 6 -100h-94zM145 257c0 -136 63 -208 143 -208c84 0 145 69 145 192c0 136 -62 208 -143 208c-84 0 -145 -70 -145 -192z" />
    <glyph glyph-name="e" unicode="e" horiz-adv-x="551" 
d="M491 161c-1 -105 -82 -173 -203 -173c-156 0 -238 87 -238 253c0 180 85 273 231 273c136 0 219 -83 219 -217c0 -20 0 -40 -2 -61h-356v-30c0 -96 52 -149 140 -149c74 0 120 40 121 104h88zM147 301h259v11c0 86 -53 139 -124 139c-78 0 -135 -59 -135 -150z" />
    <glyph glyph-name="f" unicode="f" horiz-adv-x="308" 
d="M88 434h-92v68h92v80c0 101 46 150 139 150c23 0 51 -3 84 -9v-74c-24 6 -44 11 -63 11c-43 0 -67 -28 -67 -80v-78h116v-68h-116v-434h-93v434z" />
    <glyph glyph-name="g" unicode="g" horiz-adv-x="593" 
d="M418 95c-19 -38 -83 -72 -149 -72c-140 0 -219 85 -219 245c0 154 87 245 214 245c78 0 131 -24 161 -73l3 62h87c-4 -42 -4 -72 -4 -89v-397c0 -151 -73 -215 -233 -215c-140 0 -202 50 -203 168h100c1 -68 40 -103 112 -103c91 0 131 45 131 135v94zM429 273
c0 112 -59 177 -142 177c-79 0 -140 -66 -140 -192c0 -112 58 -177 142 -177c80 0 140 67 140 192z" />
    <glyph glyph-name="h" unicode="h" horiz-adv-x="588" 
d="M174 419c22 53 82 89 157 89c67 0 125 -26 156 -68c23 -31 24 -71 24 -129v-311h-92v317c0 82 -33 123 -112 123c-78 0 -133 -47 -133 -114v-326h-93v720h93v-301z" />
    <glyph glyph-name="i" unicode="i" horiz-adv-x="250" 
d="M79 0v502h93v-502h-93zM179 618h-108v102h108v-102z" />
    <glyph glyph-name="j" unicode="j" horiz-adv-x="250" 
d="M77 -35v537h93v-556c0 -97 -39 -143 -134 -143c-12 0 -28 2 -49 4v68c84 0 90 19 90 90zM177 618h-107v102h107v-102z" />
    <glyph glyph-name="k" unicode="k" horiz-adv-x="492" 
d="M169 0h-93v720h93v-423l190 206h113l-209 -217l224 -286h-114l-204 269v-269z" />
    <glyph glyph-name="l" unicode="l" horiz-adv-x="250" 
d="M172 0h-93v720h93v-720z" />
    <glyph glyph-name="m" unicode="m" horiz-adv-x="912" 
d="M174 0h-93v398c0 14 -1 49 -4 104h94l3 -85c25 54 83 91 152 91s122 -29 165 -88c50 61 98 88 168 88c72 0 134 -33 159 -81c13 -25 16 -64 16 -120v-307h-90v320c0 78 -37 117 -110 117c-74 0 -128 -51 -128 -126v-311h-94v303c0 88 -31 135 -110 135
c-77 0 -128 -46 -128 -135v-303z" />
    <glyph glyph-name="n" unicode="n" horiz-adv-x="588" 
d="M174 420c22 53 82 88 157 88c67 0 125 -26 156 -68c23 -31 24 -70 24 -128v-312h-92v317c0 82 -33 123 -112 123c-78 0 -133 -47 -133 -114v-326h-93v399c0 32 -1 67 -4 103h94z" />
    <glyph glyph-name="o" unicode="o" horiz-adv-x="602" 
d="M52 241c0 168 95 272 250 272s247 -94 247 -258c0 -169 -94 -267 -256 -267c-150 0 -241 97 -241 253zM302 447c-95 0 -155 -77 -155 -201c0 -119 55 -188 153 -188c94 0 155 70 155 196c0 124 -57 193 -153 193z" />
    <glyph glyph-name="p" unicode="p" horiz-adv-x="602" 
d="M77 -190v593c0 25 -1 57 -6 99h94l4 -75c38 59 92 87 162 87c138 0 221 -96 221 -261c0 -170 -79 -261 -219 -261c-68 0 -125 30 -164 85v-267h-92zM169 261c0 -136 63 -208 143 -208c84 0 145 70 145 193c0 136 -62 207 -143 207c-84 0 -145 -70 -145 -192z" />
    <glyph glyph-name="q" unicode="q" horiz-adv-x="602" 
d="M525 -190h-93v267c-39 -55 -96 -85 -163 -85c-140 0 -220 91 -220 261c0 165 84 261 222 261c70 0 123 -28 161 -87l4 75h94c-5 -42 -5 -74 -5 -99v-593zM432 261c0 122 -61 192 -145 192c-81 0 -142 -71 -142 -207c0 -123 61 -193 145 -193c80 0 142 72 142 208z" />
    <glyph glyph-name="r" unicode="r" horiz-adv-x="370" 
d="M76 0v423c0 17 0 44 -3 79h93l2 -96c18 64 66 96 141 96c13 0 26 -1 38 -3v-87c-20 4 -37 6 -50 6c-81 0 -129 -47 -129 -136v-282h-92z" />
    <glyph glyph-name="s" unicode="s" horiz-adv-x="491" 
d="M41 151h93v-2c0 -55 42 -91 106 -91s105 33 105 79c0 35 -19 56 -60 66l-107 25c-89 21 -133 64 -133 131c0 88 77 154 203 154c114 0 182 -51 182 -132c0 -5 0 -10 -1 -15h-92v4c0 49 -37 78 -96 78c-60 0 -100 -33 -100 -73c0 -33 22 -51 74 -65l114 -31
c78 -21 116 -64 116 -135c0 -93 -75 -156 -201 -156c-139 0 -203 46 -203 151v12z" />
    <glyph glyph-name="t" unicode="t" horiz-adv-x="317" 
d="M10 502h85v103l92 31v-134h112v-66h-112v-308c0 -50 11 -64 64 -64c16 0 31 3 46 7v-70c-30 -8 -54 -12 -73 -12c-90 0 -129 26 -129 106v341h-85v66z" />
    <glyph glyph-name="u" unicode="u" horiz-adv-x="588" 
d="M414 79c-22 -53 -83 -89 -158 -89c-67 0 -124 27 -155 69c-23 31 -24 70 -24 128v315h92v-321c0 -82 33 -123 112 -123c78 0 133 48 133 115v329h93v-403c0 -35 1 -68 4 -99h-94z" />
    <glyph glyph-name="v" unicode="v" horiz-adv-x="543" 
d="M221 0l-205 502h94l160 -398l162 398h92l-212 -502h-91z" />
    <glyph glyph-name="w" unicode="w" horiz-adv-x="810" 
d="M466 502l114 -403l128 403h90l-174 -502h-97l-121 422l-132 -422h-98l-165 502h91l125 -403l126 403h113z" />
    <glyph glyph-name="x" unicode="x" horiz-adv-x="546" 
d="M13 0l193 264l-180 238h118l132 -188l138 188h107l-191 -242l192 -260h-119l-143 202l-141 -202h-106z" />
    <glyph glyph-name="y" unicode="y" horiz-adv-x="543" 
d="M221 0l-205 502h94l160 -398l162 398h92l-294 -692h-86z" />
    <glyph glyph-name="z" unicode="z" horiz-adv-x="439" 
d="M32 0v93l268 340h-251v69h353v-81l-275 -350h274v-71h-369z" />
    <glyph glyph-name="braceleft" unicode="{" 
d="M423 648h-20c-83 0 -99 -26 -99 -112v-118c0 -93 -17 -138 -98 -159c82 -21 98 -66 98 -159v-118c0 -85 15 -112 100 -112h19v-72h-21c-58 0 -101 4 -133 24c-44 27 -49 74 -49 150v120c0 95 -30 132 -117 132c-7 0 -14 -1 -21 -1v73c8 0 15 -1 22 -1
c86 0 116 36 116 131v120c0 76 5 123 49 150c33 20 76 25 136 25h18v-73z" />
    <glyph glyph-name="bar" unicode="|" 
d="M287 764v-1000h-73v1000h73z" />
    <glyph glyph-name="braceright" unicode="}" 
d="M281 546v-120c0 -95 30 -131 116 -131c7 0 14 1 22 1v-73c-7 0 -15 1 -21 1c-88 0 -117 -37 -117 -132v-120c0 -76 -5 -123 -49 -150c-32 -20 -75 -24 -133 -24h-21v72h19c84 0 100 27 100 113v117c0 93 17 138 98 159c-81 21 -98 66 -98 159v118c0 85 -16 112 -100 112
h-19v73h18c60 0 104 -5 136 -25c44 -27 49 -74 49 -150z" />
    <glyph glyph-name="asciitilde" unicode="~" horiz-adv-x="833" 
d="M747 300c-66 -46 -127 -69 -190 -69c-51 0 -95 18 -141 34c-47 16 -91 32 -141 32c-59 0 -117 -27 -188 -77v76c69 47 131 70 189 70c52 0 97 -14 142 -30c49 -17 93 -35 140 -35c62 0 120 26 189 75v-76z" />
    <glyph glyph-name="exclamdown" unicode="&#xa1;" horiz-adv-x="370" 
d="M235 720v-101h-100v101h100zM221 552l18 -552h-107l16 552h73z" />
    <glyph glyph-name="cent" unicode="&#xa2;" horiz-adv-x="553" 
d="M224 93l102 364c-14 5 -27 7 -39 7c-72 0 -124 -66 -124 -186c0 -90 16 -150 61 -185zM202 16c-87 32 -135 115 -135 239c0 172 88 275 220 275c17 0 36 -3 59 -6l35 123l50 -14l-37 -125c60 -30 87 -76 88 -148h-90c-1 29 -7 49 -21 65l-100 -350c6 0 13 -1 22 -1
c58 0 102 43 103 110h90c-5 -116 -87 -184 -192 -184c-11 0 -25 2 -42 5l-38 -135l-50 15z" />
    <glyph glyph-name="sterling" unicode="&#xa3;" horiz-adv-x="553" 
d="M516 0h-482v76h71v261h-71v68h71v85c0 147 66 218 215 218c139 0 213 -55 215 -161h-98c-3 62 -43 95 -112 95c-72 0 -121 -44 -121 -115v-122h137v-68h-137v-261h312v-76z" />
    <glyph glyph-name="fraction" unicode="&#x2044;" horiz-adv-x="167" 
d="M-167 -12l439 720h61l-439 -720h-61z" />
    <glyph glyph-name="yen" unicode="&#xa5;" horiz-adv-x="605" 
d="M350 0h-93v275l-8 13h-237v47h206l-64 100h-142v47h112l-140 215h110l214 -348l207 348h103l-136 -215h111v-47h-142l-63 -100h205v-47h-236l-7 -13v-275z" />
    <glyph glyph-name="florin" unicode="&#x192;" horiz-adv-x="553" 
d="M36 -161l14 71h3c76 0 81 39 97 120l70 349h-92l13 66h91l19 107c19 106 67 156 157 156c17 0 37 -2 61 -5l-11 -71c-15 3 -28 6 -39 6c-54 0 -71 -32 -82 -88l-20 -105h103l-13 -66h-103l-68 -354c-26 -130 -61 -188 -167 -188c-10 0 -21 1 -33 2z" />
    <glyph glyph-name="section" unicode="&#xa7;" horiz-adv-x="528" 
d="M108 9v85c47 -21 89 -33 126 -33c65 0 104 29 104 78c0 51 -37 58 -100 78c-88 28 -147 49 -147 128c0 60 38 107 109 135c-61 20 -94 60 -94 114c0 81 63 137 180 137c34 0 73 -7 117 -18v-76c-46 19 -86 27 -116 27c-52 0 -82 -25 -82 -67c0 -50 36 -57 103 -78
c83 -26 122 -57 122 -125c0 -53 -36 -104 -102 -130c71 -17 109 -61 109 -127c0 -91 -75 -149 -203 -149c-41 0 -83 8 -126 21zM262 293c31 0 87 48 87 88c0 41 -60 76 -95 76c-26 0 -79 -47 -79 -86c0 -38 51 -78 87 -78z" />
    <glyph glyph-name="currency" unicode="&#xa4;" horiz-adv-x="553" 
d="M72 267h-69l26 59h40c-1 24 -1 38 -1 43c0 3 0 12 1 27h-80l25 57h58c13 182 101 278 244 278c125 0 199 -73 203 -204h-97c-6 80 -50 125 -111 125c-76 0 -131 -69 -141 -199h216l-25 -57h-195c-1 -24 -1 -38 -1 -43c0 -3 0 -12 1 -27h163l-26 -59h-133
c10 -131 60 -200 141 -200c61 0 105 47 108 126h102c-1 -125 -84 -205 -212 -205c-134 0 -221 99 -237 279z" />
    <glyph glyph-name="quotesingle" unicode="'" horiz-adv-x="155" 
d="M112 701v-271h-68v271h68z" />
    <glyph glyph-name="quotedblleft" unicode="&#x201c;" horiz-adv-x="438" 
d="M218 720l-67 -246h-114l112 246h69zM401 720l-67 -246h-114l112 246h69z" />
    <glyph glyph-name="guillemotleft" unicode="&#xab;" horiz-adv-x="489" 
d="M245 55h-79l-110 200l104 192h80l-89 -192zM434 55h-79l-111 200l104 192h80l-89 -192z" />
    <glyph glyph-name="guilsinglleft" unicode="&#x2039;" horiz-adv-x="301" 
d="M245 55h-79l-110 200l104 192h80l-89 -192z" />
    <glyph glyph-name="guilsinglright" unicode="&#x203a;" horiz-adv-x="301" 
d="M56 55l94 200l-89 192h80l104 -192l-111 -200h-78z" />
    <glyph glyph-name="fi" unicode="&#xfb01;" horiz-adv-x="581" 
d="M412 0v502h93v-502h-93zM96 434h-92v68h92v80c0 101 46 150 139 150c23 0 51 -3 84 -9v-74c-24 6 -43 11 -62 11c-43 0 -68 -28 -68 -80v-78h116v-68h-116v-434h-93v434zM512 618h-107v102h107v-102z" />
    <glyph glyph-name="fl" unicode="&#xfb02;" horiz-adv-x="581" 
d="M412 0v720h93v-720h-93zM96 434h-92v68h92v80c0 101 46 150 139 150c23 0 51 -3 84 -9v-74c-24 6 -43 11 -62 11c-43 0 -68 -28 -68 -80v-78h116v-68h-116v-434h-93v434z" />
    <glyph glyph-name="endash" unicode="&#x2013;" 
d="M0 220v62h500v-62h-500z" />
    <glyph glyph-name="dagger" unicode="&#x2020;" horiz-adv-x="528" 
d="M306 0h-84v490h-179v76h179v154h84v-154h178v-76h-178v-490z" />
    <glyph glyph-name="daggerdbl" unicode="&#x2021;" horiz-adv-x="528" 
d="M306 0h-84v166h-179v75h179v249h-179v76h179v154h84v-154h178v-76h-178v-249h178v-75h-178v-166z" />
    <glyph glyph-name="periodcentered" unicode="&#xb7;" horiz-adv-x="277" 
d="M70 349c0 38 30 68 68 68s69 -31 69 -68c0 -38 -32 -69 -69 -69c-38 0 -68 30 -68 69z" />
    <glyph glyph-name="paragraph" unicode="&#xb6;" 
d="M468 680h-59v-680h-54v680h-87v-680h-54v382c-113 5 -182 73 -182 170c0 100 74 170 192 170h244v-42z" />
    <glyph glyph-name="bullet" unicode="&#x2022;" horiz-adv-x="590" 
d="M150 372c0 80 65 144 145 144c79 0 144 -64 144 -144c0 -79 -65 -145 -145 -145s-144 65 -144 145z" />
    <glyph glyph-name="quotesinglbase" unicode="&#x201a;" horiz-adv-x="255" 
d="M37 -123l66 246h115l-112 -246h-69z" />
    <glyph glyph-name="quotedblbase" unicode="&#x201e;" horiz-adv-x="438" 
d="M37 -121l66 245h115l-112 -245h-69zM220 -121l67 245h114l-112 -245h-69z" />
    <glyph glyph-name="quotedblright" unicode="&#x201d;" horiz-adv-x="438" 
d="M37 474l66 246h115l-112 -246h-69zM220 474l67 246h114l-112 -246h-69z" />
    <glyph glyph-name="guillemotright" unicode="&#xbb;" horiz-adv-x="489" 
d="M244 55l94 200l-89 192h80l104 -192l-111 -200h-78zM55 55l95 200l-89 192h80l104 -192l-111 -200h-79z" />
    <glyph glyph-name="ellipsis" unicode="&#x2026;" horiz-adv-x="1000" 
d="M112 0v123h109v-123h-109zM445 0v123h109v-123h-109zM779 0v123h109v-123h-109z" />
    <glyph glyph-name="perthousand" unicode="&#x2030;" horiz-adv-x="1331" 
d="M66 524c0 119 57 184 158 184s157 -64 157 -175c0 -122 -57 -191 -162 -191c-98 0 -153 66 -153 182zM147 526c0 -79 27 -122 75 -122c50 0 78 45 78 128c0 75 -27 117 -76 117s-77 -42 -77 -123zM638 708h64l-410 -720h-64zM557 170c0 119 56 184 157 184
s157 -64 157 -175c0 -122 -57 -191 -162 -191c-98 0 -152 66 -152 182zM637 172c0 -79 27 -122 75 -122c50 0 79 45 79 128c0 75 -28 117 -77 117s-77 -42 -77 -123zM950 170c0 119 57 184 158 184s157 -64 157 -175c0 -122 -57 -191 -162 -191c-98 0 -153 66 -153 182z
M1031 172c0 -79 27 -122 75 -122c50 0 78 45 78 128c0 75 -27 117 -76 117s-77 -42 -77 -123z" />
    <glyph glyph-name="questiondown" unicode="&#xbf;" horiz-adv-x="491" 
d="M332 720v-104h-104v104h104zM323 554v-97c0 -51 -5 -56 -28 -79c-82 -84 -134 -133 -134 -197c0 -63 49 -109 133 -109c44 0 89 11 133 30v-92c-47 -15 -93 -22 -137 -22c-144 0 -234 75 -234 180c0 93 63 147 144 224c37 35 40 31 40 77v85h83z" />
    <glyph glyph-name="grave" unicode="`" 
d="M320 568h-59l-139 170h98z" />
    <glyph glyph-name="acute" unicode="&#xb4;" 
d="M180 568l100 170h98l-139 -170h-59z" />
    <glyph glyph-name="circumflex" unicode="&#x2c6;" 
d="M106 568l96 170h96l96 -170h-60l-84 112l-85 -112h-59z" />
    <glyph glyph-name="tilde" unicode="&#x2dc;" 
d="M393 704c-13 -67 -47 -102 -96 -102c-10 0 -21 2 -32 5l-47 13c-10 3 -18 4 -24 4c-20 0 -35 -11 -44 -33h-43c12 65 46 100 94 100c10 0 20 -1 29 -4l48 -14c11 -3 20 -5 26 -5c22 0 37 12 46 36h43z" />
    <glyph glyph-name="macron" unicode="&#xaf;" 
d="M118 614v68h264v-68h-264z" />
    <glyph glyph-name="breve" unicode="&#x2d8;" 
d="M108 721h53c4 -48 31 -68 89 -68s86 21 89 68h53c-7 -95 -50 -136 -142 -136c-91 0 -135 42 -142 136z" />
    <glyph glyph-name="dotaccent" unicode="&#x2d9;" 
d="M203 594v108h94v-108h-94z" />
    <glyph glyph-name="dieresis" unicode="&#xa8;" 
d="M125 597v102h89v-102h-89zM286 597v102h89v-102h-89z" />
    <glyph glyph-name="ring" unicode="&#x2da;" 
d="M138 659c0 62 50 112 112 112s112 -50 112 -112s-50 -111 -112 -111s-112 49 -112 111zM194 659c0 -32 25 -56 56 -56c30 0 57 25 57 56c0 30 -28 57 -57 57c-31 0 -56 -26 -56 -57z" />
    <glyph glyph-name="cedilla" unicode="&#xb8;" 
d="M125 -208v49c61 -15 101 -19 120 -19c39 0 59 12 59 40s-22 42 -62 42c-7 0 -16 0 -29 -1v97h37v-50h14c72 0 109 -31 109 -88c0 -58 -41 -92 -122 -92c-30 0 -73 7 -126 22z" />
    <glyph glyph-name="hungarumlaut" unicode="&#x2dd;" 
d="M152 568l67 170h87l-107 -170h-47zM278 568l81 170h86l-120 -170h-47z" />
    <glyph glyph-name="ogonek" unicode="&#x2db;" 
d="M296 0c-44 -39 -67 -72 -67 -108c0 -29 13 -38 47 -38h41v-70h-42c-73 0 -110 27 -110 82c0 47 32 85 91 134h40z" />
    <glyph glyph-name="caron" unicode="&#x2c7;" 
d="M106 738h59l85 -111l84 111h60l-96 -170h-96z" />
    <glyph glyph-name="emdash" unicode="&#x2014;" horiz-adv-x="1000" 
d="M0 220v62h1000v-62h-1000z" />
    <glyph glyph-name="AE" unicode="&#xc6;" horiz-adv-x="984" 
d="M511 281l-59 365l-201 -365h260zM95 0h-105l406 720h512v-87h-361l37 -220h310v-86h-295l42 -240h279v-87h-364l-31 195h-323z" />
    <glyph glyph-name="ordfeminine" unicode="&#xaa;" horiz-adv-x="398" 
d="M348 619v-195c0 -15 0 -34 5 -59h-72c-3 10 -5 25 -7 43c-23 -34 -62 -52 -118 -52c-80 0 -130 45 -130 109c0 73 67 126 183 126h60v38c0 36 -22 54 -69 54c-45 0 -72 -23 -73 -61h-77v4c0 67 51 106 145 106c107 0 153 -35 153 -113zM215 539c-72 0 -109 -26 -109 -67
c0 -34 27 -56 72 -56c57 0 91 33 91 92v31h-54zM50 294h278v-55h-278v55z" />
    <glyph glyph-name="Lslash" unicode="&#x141;" horiz-adv-x="539" 
d="M90 0v301l-90 -63v85l90 64v333h95v-287l171 120v-86l-171 -120v-261h328v-86h-423z" />
    <glyph glyph-name="Oslash" unicode="&#xd8;" horiz-adv-x="771" 
d="M514 615c-40 25 -81 37 -127 37c-143 0 -225 -101 -225 -289c0 -79 14 -152 53 -211zM253 113c41 -31 82 -42 134 -42c147 0 226 101 226 296c0 101 -19 172 -60 212zM161 66c-71 67 -104 163 -104 292c0 241 121 373 329 373c67 0 123 -11 175 -42l68 106l45 -28
l-71 -109c75 -62 111 -161 111 -300c0 -238 -120 -370 -328 -370c-70 0 -127 14 -183 48l-81 -125l-43 28z" />
    <glyph glyph-name="OE" unicode="&#x152;" horiz-adv-x="995" 
d="M945 0h-375c-53 0 -111 -6 -172 -6c-229 0 -342 121 -342 370c0 239 118 363 350 363c50 0 101 -6 152 -6h387v-85h-338v-221h319v-86h-319v-244h338v-85zM507 85v550c-48 5 -80 7 -98 7c-170 0 -254 -92 -254 -280c0 -185 87 -283 251 -283c25 0 58 2 101 6z" />
    <glyph glyph-name="ordmasculine" unicode="&#xba;" horiz-adv-x="451" 
d="M227 731c119 0 190 -69 190 -184c0 -119 -73 -191 -192 -191c-121 0 -191 68 -191 181c0 118 74 194 193 194zM226 677c-68 0 -111 -51 -111 -136c0 -82 39 -129 110 -129c68 0 111 49 111 133c0 86 -40 132 -110 132zM63 294h326v-55h-326v55z" />
    <glyph glyph-name="ae" unicode="&#xe6;" horiz-adv-x="898" 
d="M444 427c43 62 96 88 173 88c142 0 227 -82 227 -218c0 -20 -1 -40 -3 -61h-355c0 -9 -1 -20 -1 -33c0 -94 55 -146 141 -146c74 0 119 40 120 104h89c-2 -107 -80 -173 -211 -173c-85 0 -143 29 -187 98c-52 -70 -114 -98 -204 -98c-118 0 -189 62 -189 160
c0 109 79 153 234 153h115v4c0 97 -34 146 -122 146c-65 0 -105 -33 -105 -77v-2h-94c5 90 73 142 192 142c92 0 149 -26 180 -87zM393 236h-115c-95 0 -141 -28 -141 -90c0 -52 42 -89 109 -89c81 0 143 51 146 143zM486 301h264v11c0 86 -53 139 -124 139
c-77 0 -131 -54 -140 -150z" />
    <glyph glyph-name="dotlessi" unicode="&#x131;" horiz-adv-x="250" 
d="M79 0v502h93v-502h-93z" />
    <glyph glyph-name="lslash" unicode="&#x142;" horiz-adv-x="256" 
d="M178 414l86 60v-63l-86 -60v-351h-92v314l-86 -60v63l86 60v343h92v-306z" />
    <glyph glyph-name="oslash" unicode="&#xf8;" horiz-adv-x="602" 
d="M188 102l194 324c-22 12 -47 21 -80 21c-95 0 -155 -77 -155 -199c0 -61 15 -112 41 -146zM420 388l-189 -317c20 -9 41 -13 63 -13c105 0 160 69 160 205c0 49 -11 90 -34 125zM80 -76l62 101c-60 54 -90 126 -90 216c0 167 97 273 246 273c44 0 82 -6 121 -26l55 95
l46 -23l-56 -97c55 -40 85 -112 85 -209c0 -168 -96 -266 -254 -266c-34 0 -68 5 -104 15l-63 -106z" />
    <glyph glyph-name="oe" unicode="&#x153;" horiz-adv-x="937" 
d="M880 161c-1 -105 -82 -173 -203 -173c-88 0 -148 25 -193 84c-54 -59 -115 -84 -199 -84c-149 0 -235 96 -235 253c0 170 89 273 244 273c84 0 144 -27 195 -87c47 60 104 87 180 87c136 0 220 -83 220 -217c0 -20 0 -40 -2 -61h-356v-41c0 -86 56 -139 140 -139
c74 0 120 41 121 105h88zM295 451c-92 0 -151 -81 -151 -205c0 -120 54 -190 150 -190c91 0 151 71 151 197c0 125 -57 198 -150 198zM534 302h260v11c0 86 -53 138 -124 138c-78 0 -136 -58 -136 -149z" />
    <glyph glyph-name="germandbls" unicode="&#xdf;" horiz-adv-x="644" 
d="M169 0h-93v519c0 145 64 213 224 213c133 0 212 -58 212 -148c0 -39 -16 -70 -49 -95c-43 -34 -74 -48 -74 -83c0 -45 45 -56 97 -90c70 -46 103 -92 103 -160c0 -94 -77 -165 -197 -165c-100 0 -155 52 -159 152h93c2 -54 30 -83 79 -83c60 0 96 38 96 91
c0 43 -31 75 -87 107c-69 40 -118 71 -118 135c0 44 22 67 62 98c40 30 63 53 63 90c0 49 -46 88 -119 88c-93 0 -133 -49 -133 -148v-521z" />
    <glyph glyph-name="Aacute" unicode="&#xc1;" horiz-adv-x="713" 
d="M107 0h-100l306 720h103l289 -720h-112l-72 186h-334zM491 268l-132 355l-140 -355h272zM296 786l100 170h98l-139 -170h-59z" />
    <glyph glyph-name="Acircumflex" unicode="&#xc2;" horiz-adv-x="713" 
d="M107 0h-100l306 720h103l289 -720h-112l-72 186h-334zM491 268l-132 355l-140 -355h272zM222 786l96 170h96l96 -170h-60l-84 112l-85 -112h-59z" />
    <glyph glyph-name="Adieresis" unicode="&#xc4;" horiz-adv-x="713" 
d="M107 0h-100l306 720h103l289 -720h-112l-72 186h-334zM491 268l-132 355l-140 -355h272zM241 815v102h89v-102h-89zM402 815v102h89v-102h-89z" />
    <glyph glyph-name="Agrave" unicode="&#xc0;" horiz-adv-x="713" 
d="M107 0h-100l306 720h103l289 -720h-112l-72 186h-334zM491 268l-132 355l-140 -355h272zM436 786h-59l-139 170h98z" />
    <glyph glyph-name="Aring" unicode="&#xc5;" horiz-adv-x="713" 
d="M107 0h-100l306 711h103l289 -711h-112l-72 186h-334zM491 268l-132 355l-140 -355h272zM253 851c0 62 50 112 112 112s111 -50 111 -112s-49 -111 -111 -111s-112 49 -112 111zM309 852c0 -32 25 -57 56 -57c30 0 57 26 57 57c0 30 -28 57 -57 57c-31 0 -56 -26 -56 -57
z" />
    <glyph glyph-name="Atilde" unicode="&#xc3;" horiz-adv-x="713" 
d="M107 0h-100l306 720h103l289 -720h-112l-72 186h-334zM491 268l-132 355l-140 -355h272zM509 922c-13 -67 -47 -102 -96 -102c-10 0 -21 2 -32 5l-47 13c-10 3 -18 4 -24 4c-20 0 -35 -11 -44 -33h-43c12 65 46 100 94 100c10 0 20 -1 29 -4l48 -14c11 -3 20 -5 26 -5
c22 0 37 12 46 36h43z" />
    <glyph glyph-name="Ccedilla" unicode="&#xc7;" horiz-adv-x="662" 
d="M619 194c-2 -124 -101 -206 -263 -206c-194 0 -300 128 -300 368s113 375 309 375c156 0 249 -76 252 -200h-102c-6 73 -69 124 -159 124c-120 0 -197 -104 -197 -296c0 -185 72 -288 197 -288c91 0 149 46 156 123h107zM233 -208v49c61 -15 101 -19 120 -19
c39 0 59 12 59 40s-22 42 -62 42c-7 0 -16 0 -29 -1v97h37v-50h14c72 0 109 -31 109 -88c0 -58 -41 -92 -122 -92c-30 0 -73 7 -126 22z" />
    <glyph glyph-name="Eacute" unicode="&#xc9;" horiz-adv-x="604" 
d="M83 0v720h447v-85h-351v-219h336v-85h-336v-245h359v-86h-455zM238 786l100 170h98l-139 -170h-59z" />
    <glyph glyph-name="Ecircumflex" unicode="&#xca;" horiz-adv-x="604" 
d="M83 0v720h447v-85h-351v-219h336v-85h-336v-245h359v-86h-455zM164 786l96 170h96l96 -170h-60l-84 112l-85 -112h-59z" />
    <glyph glyph-name="Edieresis" unicode="&#xcb;" horiz-adv-x="604" 
d="M83 0v720h447v-85h-351v-219h336v-85h-336v-245h359v-86h-455zM183 815v102h89v-102h-89zM344 815v102h89v-102h-89z" />
    <glyph glyph-name="Egrave" unicode="&#xc8;" horiz-adv-x="604" 
d="M83 0v720h447v-85h-351v-219h336v-85h-336v-245h359v-86h-455zM378 786h-59l-139 170h98z" />
    <glyph glyph-name="Eth" unicode="&#xd0;" horiz-adv-x="723" 
d="M318 0h-227v332h-91v76h91v314h201c104 0 183 -7 255 -63c79 -62 126 -170 126 -308c0 -114 -34 -208 -89 -266c-68 -72 -150 -85 -266 -85zM340 86c154 0 231 88 231 264c0 187 -89 291 -248 291h-137v-233h168v-76h-168v-246h154z" />
    <glyph glyph-name="Euro" unicode="&#x20ac;" horiz-adv-x="553" 
d="M72 267h-69l26 59h40c-1 24 -1 38 -1 43c0 3 0 12 1 27h-80l25 57h58c13 182 101 278 244 278c125 0 199 -73 203 -204h-97c-6 80 -50 125 -111 125c-76 0 -131 -69 -141 -199h216l-25 -57h-195c-1 -24 -1 -38 -1 -43c0 -3 0 -12 1 -27h163l-26 -59h-133
c10 -131 60 -200 141 -200c61 0 105 47 108 126h102c-1 -125 -84 -205 -212 -205c-134 0 -221 99 -237 279z" />
    <glyph glyph-name="Iacute" unicode="&#xcd;" horiz-adv-x="263" 
d="M179 0h-96v720h96v-720zM62 786l100 170h98l-139 -170h-59z" />
    <glyph glyph-name="Icircumflex" unicode="&#xce;" horiz-adv-x="263" 
d="M179 0h-96v720h96v-720zM-12 786l96 170h96l96 -170h-60l-84 112l-85 -112h-59z" />
    <glyph glyph-name="Idieresis" unicode="&#xcf;" horiz-adv-x="263" 
d="M179 0h-96v720h96v-720zM7 815v102h89v-102h-89zM168 815v102h89v-102h-89z" />
    <glyph glyph-name="Igrave" unicode="&#xcc;" horiz-adv-x="263" 
d="M179 0h-96v720h96v-720zM202 786h-59l-139 170h98z" />
    <glyph glyph-name="Ntilde" unicode="&#xd1;" horiz-adv-x="734" 
d="M84 0v720h137l341 -587v587h87v-720h-118l-358 611v-611h-89zM521 922c-13 -67 -47 -102 -96 -102c-10 0 -21 2 -32 5l-47 13c-10 3 -18 4 -24 4c-20 0 -35 -11 -44 -33h-43c12 65 46 100 94 100c10 0 20 -1 29 -4l48 -14c11 -3 20 -5 26 -5c22 0 37 12 46 36h43z" />
    <glyph glyph-name="Oacute" unicode="&#xd3;" horiz-adv-x="771" 
d="M57 358c0 241 121 373 329 373c209 0 328 -131 328 -373c0 -238 -120 -370 -328 -370c-206 0 -329 133 -329 370zM160 363c0 -188 81 -292 225 -292c145 0 225 101 225 290c0 190 -82 291 -225 291s-225 -101 -225 -289zM316 786l100 170h98l-139 -170h-59z" />
    <glyph glyph-name="Ocircumflex" unicode="&#xd4;" horiz-adv-x="771" 
d="M57 358c0 241 121 373 329 373c209 0 328 -131 328 -373c0 -238 -120 -370 -328 -370c-206 0 -329 133 -329 370zM160 363c0 -188 81 -292 225 -292c145 0 225 101 225 290c0 190 -82 291 -225 291s-225 -101 -225 -289zM242 786l96 170h96l96 -170h-60l-84 112l-85 -112
h-59z" />
    <glyph glyph-name="Odieresis" unicode="&#xd6;" horiz-adv-x="771" 
d="M57 358c0 241 121 373 329 373c209 0 328 -131 328 -373c0 -238 -120 -370 -328 -370c-206 0 -329 133 -329 370zM160 363c0 -188 81 -292 225 -292c145 0 225 101 225 290c0 190 -82 291 -225 291s-225 -101 -225 -289zM261 815v102h89v-102h-89zM422 815v102h89v-102
h-89z" />
    <glyph glyph-name="Ograve" unicode="&#xd2;" horiz-adv-x="771" 
d="M57 358c0 241 121 373 329 373c209 0 328 -131 328 -373c0 -238 -120 -370 -328 -370c-206 0 -329 133 -329 370zM160 363c0 -188 81 -292 225 -292c145 0 225 101 225 290c0 190 -82 291 -225 291s-225 -101 -225 -289zM456 786h-59l-139 170h98z" />
    <glyph glyph-name="Otilde" unicode="&#xd5;" horiz-adv-x="771" 
d="M57 358c0 241 121 373 329 373c209 0 328 -131 328 -373c0 -238 -120 -370 -328 -370c-206 0 -329 133 -329 370zM160 363c0 -188 81 -292 225 -292c145 0 225 101 225 290c0 190 -82 291 -225 291s-225 -101 -225 -289zM529 922c-13 -67 -47 -102 -96 -102
c-10 0 -21 2 -32 5l-47 13c-10 3 -18 4 -24 4c-20 0 -35 -11 -44 -33h-43c12 65 46 100 94 100c10 0 20 -1 29 -4l48 -14c11 -3 20 -5 26 -5c22 0 37 12 46 36h43z" />
    <glyph glyph-name="Scaron" unicode="&#x160;" horiz-adv-x="656" 
d="M159 211c3 -95 56 -138 166 -138c109 0 175 48 175 125c0 90 -76 101 -197 132c-62 16 -117 27 -161 53c-49 29 -78 83 -78 145c0 120 97 203 272 203c152 0 240 -70 240 -178v-11h-97c-3 70 -57 110 -152 110c-97 0 -161 -45 -161 -118c0 -78 69 -87 197 -120
c151 -39 237 -75 237 -207c0 -134 -97 -219 -272 -219c-183 0 -272 67 -272 213v10h103zM184 956h59l85 -111l84 111h60l-96 -170h-96z" />
    <glyph glyph-name="Thorn" unicode="&#xde;" horiz-adv-x="603" 
d="M83 0v720h96v-146h155c157 0 235 -65 235 -198c0 -146 -94 -206 -282 -206h-108v-170h-96zM318 259c102 0 149 30 149 115c0 88 -46 117 -149 117h-139v-232h139z" />
    <glyph glyph-name="Uacute" unicode="&#xda;" horiz-adv-x="728" 
d="M74 720h99v-425c0 -148 56 -220 189 -220c146 0 198 77 198 235v410h93v-470c0 -164 -111 -261 -300 -261c-183 0 -279 96 -279 288v443zM294 786l100 170h98l-139 -170h-59z" />
    <glyph glyph-name="Ucircumflex" unicode="&#xdb;" horiz-adv-x="728" 
d="M74 720h99v-425c0 -148 56 -220 189 -220c146 0 198 77 198 235v410h93v-470c0 -164 -111 -261 -300 -261c-183 0 -279 96 -279 288v443zM220 786l96 170h96l96 -170h-60l-84 112l-85 -112h-59z" />
    <glyph glyph-name="Udieresis" unicode="&#xdc;" horiz-adv-x="728" 
d="M74 720h99v-425c0 -148 56 -220 189 -220c146 0 198 77 198 235v410h93v-470c0 -164 -111 -261 -300 -261c-183 0 -279 96 -279 288v443zM239 815v102h89v-102h-89zM400 815v102h89v-102h-89z" />
    <glyph glyph-name="Ugrave" unicode="&#xd9;" horiz-adv-x="728" 
d="M74 720h99v-425c0 -148 56 -220 189 -220c146 0 198 77 198 235v410h93v-470c0 -164 -111 -261 -300 -261c-183 0 -279 96 -279 288v443zM434 786h-59l-139 170h98z" />
    <glyph glyph-name="Yacute" unicode="&#xdd;" horiz-adv-x="657" 
d="M379 0h-96v284l-274 436h119l208 -351l202 351h110l-269 -436v-284zM259 786l100 170h98l-139 -170h-59z" />
    <glyph glyph-name="Ydieresis" unicode="&#x178;" horiz-adv-x="657" 
d="M379 0h-96v284l-274 436h119l208 -351l202 351h110l-269 -436v-284zM204 815v102h89v-102h-89zM365 815v102h89v-102h-89z" />
    <glyph glyph-name="Zcaron" unicode="&#x17d;" horiz-adv-x="602" 
d="M566 0h-530v102l413 532h-396v86h500v-103l-409 -528h422v-89zM157 956h59l85 -111l84 111h60l-96 -170h-96z" />
    <glyph glyph-name="aacute" unicode="&#xe1;" horiz-adv-x="531" 
d="M365 249h-78c-101 0 -151 -41 -151 -101c0 -48 39 -85 95 -85c86 0 134 47 134 136v50zM463 0h-83c-5 16 -7 42 -10 79c-25 -59 -81 -91 -161 -91c-104 0 -168 62 -168 151c0 103 86 173 237 173h87v61c0 54 -33 82 -99 82c-62 0 -100 -32 -102 -86h-89v8
c0 88 65 137 185 137c143 0 198 -50 198 -156v-310c0 -6 1 -22 5 -48zM196 568l100 170h98l-139 -170h-59z" />
    <glyph glyph-name="acircumflex" unicode="&#xe2;" horiz-adv-x="531" 
d="M365 249h-78c-101 0 -151 -41 -151 -101c0 -48 39 -85 95 -85c86 0 134 47 134 136v50zM463 0h-83c-5 16 -7 42 -10 79c-25 -59 -81 -91 -161 -91c-104 0 -168 62 -168 151c0 103 86 173 237 173h87v61c0 54 -33 82 -99 82c-62 0 -100 -32 -102 -86h-89v8
c0 88 65 137 185 137c143 0 198 -50 198 -156v-310c0 -6 1 -22 5 -48zM122 568l96 170h96l96 -170h-60l-84 112l-85 -112h-59z" />
    <glyph glyph-name="adieresis" unicode="&#xe4;" horiz-adv-x="531" 
d="M365 249h-78c-101 0 -151 -41 -151 -101c0 -48 39 -85 95 -85c86 0 134 47 134 136v50zM463 0h-83c-5 16 -7 42 -10 79c-25 -59 -81 -91 -161 -91c-104 0 -168 62 -168 151c0 103 86 173 237 173h87v61c0 54 -33 82 -99 82c-62 0 -100 -32 -102 -86h-89v8
c0 88 65 137 185 137c143 0 198 -50 198 -156v-310c0 -6 1 -22 5 -48zM141 597v102h89v-102h-89zM302 597v102h89v-102h-89z" />
    <glyph glyph-name="agrave" unicode="&#xe0;" horiz-adv-x="531" 
d="M365 249h-78c-101 0 -151 -41 -151 -101c0 -48 39 -85 95 -85c86 0 134 47 134 136v50zM463 0h-83c-5 16 -7 42 -10 79c-25 -59 -81 -91 -161 -91c-104 0 -168 62 -168 151c0 103 86 173 237 173h87v61c0 54 -33 82 -99 82c-62 0 -100 -32 -102 -86h-89v8
c0 88 65 137 185 137c143 0 198 -50 198 -156v-310c0 -6 1 -22 5 -48zM336 568h-59l-139 170h98z" />
    <glyph glyph-name="aring" unicode="&#xe5;" horiz-adv-x="531" 
d="M365 249h-78c-101 0 -151 -41 -151 -101c0 -48 39 -85 95 -85c86 0 134 47 134 136v50zM463 0h-83c-5 16 -7 42 -10 79c-25 -59 -81 -91 -161 -91c-104 0 -168 62 -168 151c0 103 86 173 237 173h87v61c0 54 -33 82 -99 82c-62 0 -100 -32 -102 -86h-89v8
c0 88 65 137 185 137c143 0 198 -50 198 -156v-310c0 -6 1 -22 5 -48zM166 659c0 62 48 112 110 112s112 -50 112 -112s-50 -111 -112 -111s-110 49 -110 111zM221 659c0 -32 25 -56 56 -56c30 0 56 25 56 56c0 30 -27 57 -56 57c-31 0 -56 -26 -56 -57z" />
    <glyph glyph-name="atilde" unicode="&#xe3;" horiz-adv-x="531" 
d="M365 249h-78c-101 0 -151 -41 -151 -101c0 -48 39 -85 95 -85c86 0 134 47 134 136v50zM463 0h-83c-5 16 -7 42 -10 79c-25 -59 -81 -91 -161 -91c-104 0 -168 62 -168 151c0 103 86 173 237 173h87v61c0 54 -33 82 -99 82c-62 0 -100 -32 -102 -86h-89v8
c0 88 65 137 185 137c143 0 198 -50 198 -156v-310c0 -6 1 -22 5 -48zM409 704c-13 -67 -47 -102 -96 -102c-10 0 -21 2 -32 5l-47 13c-10 3 -18 4 -24 4c-20 0 -35 -11 -44 -33h-43c12 65 46 100 94 100c10 0 20 -1 29 -4l48 -14c11 -3 20 -5 26 -5c22 0 37 12 46 36h43z
" />
    <glyph glyph-name="brokenbar" unicode="&#xa6;" 
d="M287 699v-370h-73v370h73zM287 199v-370h-73v370h73z" />
    <glyph glyph-name="ccedilla" unicode="&#xe7;" horiz-adv-x="516" 
d="M467 169c-8 -118 -77 -181 -196 -181c-143 0 -223 91 -223 252c0 173 85 274 230 274c112 0 185 -65 185 -168v-2h-90c0 61 -45 105 -102 105c-76 0 -127 -67 -127 -187c0 -135 43 -204 125 -204c64 0 107 43 108 111h90zM142 -208v49c61 -15 101 -19 120 -19
c39 0 59 12 59 40s-22 42 -62 42c-7 0 -16 0 -29 -1v97h37v-50h14c72 0 109 -31 109 -88c0 -58 -41 -92 -122 -92c-30 0 -73 7 -126 22z" />
    <glyph glyph-name="copyright" unicode="&#xa9;" horiz-adv-x="833" 
d="M416 715c98 0 187 -36 256 -105c67 -67 105 -158 105 -255c0 -98 -37 -186 -104 -252c-71 -69 -162 -108 -257 -108s-184 38 -253 107s-106 158 -106 253s37 185 107 256c67 67 155 104 252 104zM729 355c0 85 -32 163 -90 221c-60 60 -137 92 -222 92s-161 -32 -219 -90
c-61 -61 -94 -141 -94 -223s33 -160 93 -220s137 -92 220 -92c82 0 160 33 222 93c58 57 90 133 90 219zM514 443c-8 50 -44 78 -100 78c-66 0 -110 -59 -110 -166c0 -104 44 -162 115 -162c53 0 91 32 100 86h71c-6 -85 -76 -143 -174 -143c-117 0 -190 81 -190 222
c0 132 79 217 193 217c93 0 160 -54 167 -132h-72z" />
    <glyph glyph-name="degree" unicode="&#xb0;" horiz-adv-x="329" 
d="M165 711c77 0 140 -63 140 -141c0 -76 -61 -140 -141 -140c-79 0 -140 62 -140 140c0 79 64 141 141 141zM259 571c0 52 -41 94 -94 94c-52 0 -95 -41 -95 -94s42 -96 95 -96c54 0 94 44 94 96z" />
    <glyph glyph-name="divide" unicode="&#xf7;" horiz-adv-x="833" 
d="M417 540c33 0 61 -28 61 -62c0 -33 -27 -61 -61 -61s-61 27 -61 61s28 62 61 62zM709 332v-68h-585v68h585zM417 179c33 0 61 -27 61 -61c0 -33 -27 -61 -61 -61c-35 0 -61 27 -61 61s28 61 61 61z" />
    <glyph glyph-name="eacute" unicode="&#xe9;" horiz-adv-x="551" 
d="M491 161c-1 -105 -82 -173 -203 -173c-156 0 -238 87 -238 253c0 180 85 273 231 273c136 0 219 -83 219 -217c0 -20 0 -40 -2 -61h-356v-30c0 -96 52 -149 140 -149c74 0 120 40 121 104h88zM147 301h259v11c0 86 -53 139 -124 139c-78 0 -135 -59 -135 -150zM206 568
l100 170h98l-139 -170h-59z" />
    <glyph glyph-name="ecircumflex" unicode="&#xea;" horiz-adv-x="551" 
d="M491 161c-1 -105 -82 -173 -203 -173c-156 0 -238 87 -238 253c0 180 85 273 231 273c136 0 219 -83 219 -217c0 -20 0 -40 -2 -61h-356v-30c0 -96 52 -149 140 -149c74 0 120 40 121 104h88zM147 301h259v11c0 86 -53 139 -124 139c-78 0 -135 -59 -135 -150zM132 568
l96 170h96l96 -170h-60l-84 112l-85 -112h-59z" />
    <glyph glyph-name="edieresis" unicode="&#xeb;" horiz-adv-x="551" 
d="M491 161c-1 -105 -82 -173 -203 -173c-156 0 -238 87 -238 253c0 180 85 273 231 273c136 0 219 -83 219 -217c0 -20 0 -40 -2 -61h-356v-30c0 -96 52 -149 140 -149c74 0 120 40 121 104h88zM147 301h259v11c0 86 -53 139 -124 139c-78 0 -135 -59 -135 -150zM151 597
v102h89v-102h-89zM312 597v102h89v-102h-89z" />
    <glyph glyph-name="egrave" unicode="&#xe8;" horiz-adv-x="551" 
d="M491 161c-1 -105 -82 -173 -203 -173c-156 0 -238 87 -238 253c0 180 85 273 231 273c136 0 219 -83 219 -217c0 -20 0 -40 -2 -61h-356v-30c0 -96 52 -149 140 -149c74 0 120 40 121 104h88zM147 301h259v11c0 86 -53 139 -124 139c-78 0 -135 -59 -135 -150zM346 568
h-59l-139 170h98z" />
    <glyph glyph-name="eth" unicode="&#xf0;" horiz-adv-x="602" 
d="M422 424c-31 53 -69 98 -115 140l-149 -62l-25 47l126 53c-35 23 -68 44 -104 63l45 55c46 -21 95 -50 146 -85l141 59l25 -47l-118 -50c103 -93 158 -217 158 -350c0 -165 -91 -259 -252 -259c-159 0 -248 87 -248 227c0 149 98 246 238 246c46 0 88 -12 132 -37z
M302 397c-97 0 -155 -68 -155 -175c0 -103 55 -165 149 -165c100 0 159 62 159 171c0 108 -56 169 -153 169z" />
    <glyph glyph-name="iacute" unicode="&#xed;" horiz-adv-x="250" 
d="M79 0v502h93v-502h-93zM55 568l100 170h98l-139 -170h-59z" />
    <glyph glyph-name="icircumflex" unicode="&#xee;" horiz-adv-x="250" 
d="M79 0v502h93v-502h-93zM-19 568l96 170h96l96 -170h-60l-84 112l-85 -112h-59z" />
    <glyph glyph-name="idieresis" unicode="&#xef;" horiz-adv-x="250" 
d="M79 0v502h93v-502h-93zM0 597v102h89v-102h-89zM161 597v102h89v-102h-89z" />
    <glyph glyph-name="igrave" unicode="&#xec;" horiz-adv-x="250" 
d="M79 0v502h93v-502h-93zM195 568h-59l-139 170h98z" />
    <glyph glyph-name="logicalnot" unicode="&#xac;" horiz-adv-x="833" 
d="M709 420v-245h-67v177h-518v68h585z" />
    <glyph glyph-name="minus" unicode="&#x2212;" horiz-adv-x="833" 
d="M709 333v-69h-585v69h585z" />
    <glyph glyph-name="mu" unicode="&#xb5;" horiz-adv-x="562" 
d="M188 523l-63 -293c-5 -22 -7 -43 -7 -65c0 -65 36 -101 98 -101c90 0 133 62 162 197l56 262h87l-76 -357c-6 -29 -11 -51 -11 -65c0 -24 10 -33 35 -33c5 0 10 0 16 1l-15 -70c-19 -4 -36 -5 -53 -5c-42 0 -61 18 -73 63c-29 -43 -73 -64 -132 -64c-53 0 -91 17 -125 57
l-54 -259h-88l155 732h88z" />
    <glyph glyph-name="multiply" unicode="&#xd7;" horiz-adv-x="833" 
d="M420 346l229 229l48 -48l-229 -229l229 -229l-48 -47l-229 228l-229 -228l-48 47l229 229l-229 229l48 48z" />
    <glyph glyph-name="ntilde" unicode="&#xf1;" horiz-adv-x="588" 
d="M174 420c22 53 82 88 157 88c67 0 125 -26 156 -68c23 -31 24 -70 24 -128v-312h-92v317c0 82 -33 123 -112 123c-78 0 -133 -47 -133 -114v-326h-93v399c0 32 -1 67 -4 103h94zM437 704c-13 -67 -47 -102 -96 -102c-10 0 -21 2 -32 5l-47 13c-10 3 -18 4 -24 4
c-20 0 -35 -11 -44 -33h-43c12 65 46 100 94 100c10 0 20 -1 29 -4l48 -14c11 -3 20 -5 26 -5c22 0 37 12 46 36h43z" />
    <glyph glyph-name="oacute" unicode="&#xf3;" horiz-adv-x="602" 
d="M52 241c0 168 95 272 250 272s247 -94 247 -258c0 -169 -94 -267 -256 -267c-150 0 -241 97 -241 253zM302 447c-95 0 -155 -77 -155 -201c0 -119 55 -188 153 -188c94 0 155 70 155 196c0 124 -57 193 -153 193zM231 568l100 170h98l-139 -170h-59z" />
    <glyph glyph-name="ocircumflex" unicode="&#xf4;" horiz-adv-x="602" 
d="M52 241c0 168 95 272 250 272s247 -94 247 -258c0 -169 -94 -267 -256 -267c-150 0 -241 97 -241 253zM302 447c-95 0 -155 -77 -155 -201c0 -119 55 -188 153 -188c94 0 155 70 155 196c0 124 -57 193 -153 193zM157 568l96 170h96l96 -170h-60l-84 112l-85 -112h-59z
" />
    <glyph glyph-name="odieresis" unicode="&#xf6;" horiz-adv-x="602" 
d="M52 241c0 168 95 272 250 272s247 -94 247 -258c0 -169 -94 -267 -256 -267c-150 0 -241 97 -241 253zM302 447c-95 0 -155 -77 -155 -201c0 -119 55 -188 153 -188c94 0 155 70 155 196c0 124 -57 193 -153 193zM176 597v102h89v-102h-89zM337 597v102h89v-102h-89z" />
    <glyph glyph-name="ograve" unicode="&#xf2;" horiz-adv-x="602" 
d="M52 241c0 168 95 272 250 272s247 -94 247 -258c0 -169 -94 -267 -256 -267c-150 0 -241 97 -241 253zM302 447c-95 0 -155 -77 -155 -201c0 -119 55 -188 153 -188c94 0 155 70 155 196c0 124 -57 193 -153 193zM371 568h-59l-139 170h98z" />
    <glyph glyph-name="onehalf" unicode="&#xbd;" horiz-adv-x="864" 
d="M176 307v326c-28 -20 -60 -38 -97 -53v58c39 17 71 35 97 59h60v-390h-60zM182 -12l439 720h61l-439 -720h-61zM827 0h-274v56c141 113 214 183 214 234c0 37 -29 62 -71 62c-44 0 -69 -24 -69 -67h-67c3 72 51 112 131 112c82 0 137 -41 137 -107
c0 -60 -40 -99 -100 -152l-103 -92h202v-46z" />
    <glyph glyph-name="onequarter" unicode="&#xbc;" horiz-adv-x="864" 
d="M176 307v326c-28 -20 -60 -38 -97 -53v58c39 17 71 35 97 59h60v-390h-60zM182 -12l439 720h61l-439 -720h-61zM731 130v204l-151 -204h151zM731 0v84h-199v68l187 238h70v-260h60v-46h-60v-84h-58z" />
    <glyph glyph-name="onesuperior" unicode="&#xb9;" horiz-adv-x="365" 
d="M184 279v350c-29 -22 -62 -42 -101 -57v62c41 18 75 37 101 63h64v-418h-64z" />
    <glyph glyph-name="otilde" unicode="&#xf5;" horiz-adv-x="602" 
d="M52 241c0 168 95 272 250 272s247 -94 247 -258c0 -169 -94 -267 -256 -267c-150 0 -241 97 -241 253zM302 447c-95 0 -155 -77 -155 -201c0 -119 55 -188 153 -188c94 0 155 70 155 196c0 124 -57 193 -153 193zM444 704c-13 -67 -47 -102 -96 -102c-10 0 -21 2 -32 5
l-47 13c-10 3 -18 4 -24 4c-20 0 -35 -11 -44 -33h-43c12 65 46 100 94 100c10 0 20 -1 29 -4l48 -14c11 -3 20 -5 26 -5c22 0 37 12 46 36h43z" />
    <glyph glyph-name="plusminus" unicode="&#xb1;" horiz-adv-x="833" 
d="M451 582v-166h258v-68h-258v-166h-69v166h-258v68h258v166h69zM709 83v-69h-585v69h585z" />
    <glyph glyph-name="registered" unicode="&#xae;" horiz-adv-x="833" 
d="M416 715c98 0 188 -37 257 -107c66 -67 104 -157 104 -253c0 -99 -37 -187 -105 -253c-71 -69 -162 -107 -256 -107c-96 0 -185 38 -254 108c-68 69 -105 157 -105 252s39 187 109 258c66 67 153 102 250 102zM729 352c0 87 -31 165 -89 223c-60 61 -137 93 -223 93
c-84 0 -161 -31 -218 -89c-61 -62 -95 -142 -95 -224s33 -159 92 -219s138 -93 218 -93c85 0 162 32 224 92c59 57 91 134 91 217zM426 566c114 0 170 -38 170 -112c0 -58 -34 -98 -93 -110l91 -186h-86l-83 174h-76v-174h-77v408h154zM412 516h-63v-135h65
c70 0 103 17 103 65c0 50 -33 70 -105 70z" />
    <glyph glyph-name="scaron" unicode="&#x161;" horiz-adv-x="491" 
d="M41 151h93v-2c0 -55 42 -91 106 -91s105 33 105 79c0 35 -19 56 -60 66l-107 25c-89 21 -133 64 -133 131c0 88 77 154 203 154c114 0 182 -51 182 -132c0 -5 0 -10 -1 -15h-92v4c0 49 -37 78 -96 78c-60 0 -100 -33 -100 -73c0 -33 22 -51 74 -65l114 -31
c78 -21 116 -64 116 -135c0 -93 -75 -156 -201 -156c-139 0 -203 46 -203 151v12zM102 738h59l85 -111l84 111h60l-96 -170h-96z" />
    <glyph glyph-name="thorn" unicode="&#xfe;" horiz-adv-x="602" 
d="M77 -190v910h92v-293c38 58 92 87 162 87c138 0 221 -96 221 -261c0 -170 -79 -261 -219 -261c-68 0 -125 30 -164 85v-267h-92zM169 261c0 -136 62 -208 143 -208c84 0 145 70 145 193c0 136 -62 207 -143 207c-84 0 -145 -70 -145 -192z" />
    <glyph glyph-name="threequarters" unicode="&#xbe;" horiz-adv-x="864" 
d="M26 411h66c4 -44 28 -64 77 -64c58 0 90 28 90 68c0 45 -37 73 -108 73c-5 0 -11 -1 -16 -1v43c79 2 116 23 116 68c0 37 -29 60 -75 60c-47 0 -78 -23 -79 -58h-63c1 63 53 103 140 103c88 0 140 -43 140 -105c0 -42 -27 -72 -80 -89c56 -10 87 -46 87 -95
c0 -65 -56 -114 -155 -114c-90 0 -140 41 -140 111zM181 -12l439 720h61l-439 -720h-61zM730 130v204l-151 -204h151zM730 0v84h-199v68l187 238h70v-260h60v-46h-60v-84h-58z" />
    <glyph glyph-name="threesuperior" unicode="&#xb3;" horiz-adv-x="365" 
d="M27 390h69c4 -47 30 -68 82 -68c60 0 93 30 93 72c0 49 -39 79 -113 79c-6 0 -11 -1 -16 -1v46c82 2 121 24 121 73c0 39 -30 64 -78 64c-50 0 -82 -24 -83 -62h-66c1 67 55 111 146 111c93 0 147 -47 147 -114c0 -44 -28 -76 -83 -94c58 -11 91 -50 91 -102
c0 -70 -60 -122 -163 -122c-94 0 -146 43 -147 118z" />
    <glyph glyph-name="trademark" unicode="&#x2122;" horiz-adv-x="833" 
d="M339 712v-39h-84v-224h-53v224h-84v39h221zM470 712l74 -188l69 188h73v-263h-48v217l-81 -217h-27l-85 217v-217h-48v263h73z" />
    <glyph glyph-name="twosuperior" unicode="&#xb2;" horiz-adv-x="365" 
d="M326 279h-287v60c147 121 224 196 224 251c0 39 -31 66 -75 66c-45 0 -72 -25 -72 -72h-70c3 77 54 120 137 120c86 0 144 -43 144 -115c0 -63 -42 -105 -105 -162l-108 -99h212v-49z" />
    <glyph glyph-name="uacute" unicode="&#xfa;" horiz-adv-x="588" 
d="M414 79c-22 -53 -83 -89 -158 -89c-67 0 -124 27 -155 69c-23 31 -24 70 -24 128v315h92v-321c0 -82 33 -123 112 -123c78 0 133 48 133 115v329h93v-403c0 -35 1 -68 4 -99h-94zM220 568l100 170h98l-139 -170h-59z" />
    <glyph glyph-name="ucircumflex" unicode="&#xfb;" horiz-adv-x="588" 
d="M414 79c-22 -53 -83 -89 -158 -89c-67 0 -124 27 -155 69c-23 31 -24 70 -24 128v315h92v-321c0 -82 33 -123 112 -123c78 0 133 48 133 115v329h93v-403c0 -35 1 -68 4 -99h-94zM146 568l96 170h96l96 -170h-60l-84 112l-85 -112h-59z" />
    <glyph glyph-name="udieresis" unicode="&#xfc;" horiz-adv-x="588" 
d="M414 79c-22 -53 -83 -89 -158 -89c-67 0 -124 27 -155 69c-23 31 -24 70 -24 128v315h92v-321c0 -82 33 -123 112 -123c78 0 133 48 133 115v329h93v-403c0 -35 1 -68 4 -99h-94zM165 597v102h89v-102h-89zM326 597v102h89v-102h-89z" />
    <glyph glyph-name="ugrave" unicode="&#xf9;" horiz-adv-x="588" 
d="M414 79c-22 -53 -83 -89 -158 -89c-67 0 -124 27 -155 69c-23 31 -24 70 -24 128v315h92v-321c0 -82 33 -123 112 -123c78 0 133 48 133 115v329h93v-403c0 -35 1 -68 4 -99h-94zM360 568h-59l-139 170h98z" />
    <glyph glyph-name="yacute" unicode="&#xfd;" horiz-adv-x="543" 
d="M221 0l-205 502h94l160 -398l162 398h92l-294 -692h-86zM202 568l100 170h98l-139 -170h-59z" />
    <glyph glyph-name="ydieresis" unicode="&#xff;" horiz-adv-x="543" 
d="M221 0l-205 502h94l160 -398l162 398h92l-294 -692h-86zM147 597v102h89v-102h-89zM308 597v102h89v-102h-89z" />
    <glyph glyph-name="zcaron" unicode="&#x17e;" horiz-adv-x="439" 
d="M32 0v93l268 340h-251v69h353v-81l-275 -350h274v-71h-369zM76 738h59l85 -111l84 111h60l-96 -170h-96z" />
  </font>
</defs>
</svg>
