<?xml version="1.0" encoding="utf-8"?>
<!-- Generator: Adobe Illustrator 19.0.0, SVG Export Plug-In . SVG Version: 6.00 Build 0)  -->
<svg version="1.1" id="lm-pattern" xmlns="http://www.w3.org/2000/svg" xmlns:xlink="http://www.w3.org/1999/xlink" x="0px" y="0px"
	 viewBox="-221.5 76 1050 1050" style="enable-background:new -221.5 76 1050 1050;" xml:space="preserve">
<style type="text/css">
	.st0{fill:none;}
	.st1{fill:#EE425B;}
	.st2{fill:url(#XMLID_2_);}
</style>
<pattern  x="-208" y="1126" width="252.7" height="318" patternUnits="userSpaceOnUse" id="New_Pattern_4" viewBox="113.1 -423.8 252.7 318" style="overflow:visible;">
	<g id="lm-pattern-red-sandi">
		<polygon id="XMLID_349_" class="st0" points="113.1,-423.8 365.8,-423.8 365.8,-105.8 113.1,-105.8 		"/>
		<g id="XMLID_342_">
			<path id="XMLID_344_" class="st1" d="M451.1-58.3h-79.4V-102h107.1v-7.5H371.7v-43.8h79.4c4.8,0,9.7-2.7,9.7-7.7v-12.2
				c0-4-2.3-8.3-7.3-8.3c-1.6,0-40.9,0-81.8,0v-30h-11.8v30c-40.9,0-80.1,0-81.8,0c-5,0-7.3,4.3-7.3,8.3v12.2c0,5.1,4.9,7.7,9.7,7.7
				h79.4v43.8H252.7v7.5h107.2v43.8h-79.4c-4.8,0-9.7,2.7-9.7,7.7v12.2c0,4,2.3,8.3,7.3,8.3c1.6,0,40.9,0,81.8,0V0h11.8v-30
				c40.9,0,80.1,0,81.8,0c5,0,7.3-4.3,7.3-8.3v-12.2C460.8-55.6,455.9-58.3,451.1-58.3z M281.8-161.8c0-0.5,0-6.1,0-7h167.9
				c0,0.9,0,6.5,0,7C449.7-161.8,281.8-161.8,281.8-161.8z M449.7-42.8H281.8c0-0.9,0-6.5,0-7c0,0,167.9,0,167.9,0
				C449.7-49.3,449.7-43.7,449.7-42.8z"/>
			<path id="XMLID_343_" class="st1" d="M352.4-74.3v-12.2c0-5.1-4.9-7.7-9.7-7.7h-97.4v-11.5v-11.5h97.4c4.8,0,9.7-2.7,9.7-7.7
				v-12.2c0-4-2.3-8.3-7.3-8.3c-1.9,0-53.2,0-99.8,0v-23.2h-11.8v31.2c0,6.2,2.5,6.3,4.6,6.3c24.7,0,102.6,0,102.6,0s0.1,3.6,0,5.5
				c0,0-0.1,0-0.1,0c0,0-102.5,0-102.5,0c-4,0-4.6,1.1-4.6,7.8h0v12.2v12.2h0c0,6.8,0.6,7.8,4.6,7.8c0,0,102.5,0,102.5,0
				c0,0,0.1,0,0.1,0c0.1,1.8,0,5.5,0,5.5s-77.9,0-102.6,0c-2.1,0-4.6,0.1-4.6,6.3v31.2h11.8V-66c46.6,0,97.8,0,99.8,0
				C350.1-66,352.4-70.3,352.4-74.3z"/>
		</g>
		<g id="XMLID_336_">
			<path id="XMLID_338_" class="st1" d="M198.4-58.3H119V-102h107.1v-7.5H119v-43.8h79.4c4.8,0,9.7-2.7,9.7-7.7v-12.2
				c0-4-2.3-8.3-7.3-8.3c-1.6,0-40.9,0-81.8,0v-30h-11.8v30c-40.9,0-80.1,0-81.8,0c-5,0-7.3,4.3-7.3,8.3v12.2c0,5.1,4.9,7.7,9.7,7.7
				h79.4v43.8H0v7.5h107.2v43.8H27.7c-4.8,0-9.7,2.7-9.7,7.7v12.2c0,4,2.3,8.3,7.3,8.3c1.6,0,40.9,0,81.8,0V0H119v-30
				c40.9,0,80.1,0,81.8,0c5,0,7.3-4.3,7.3-8.3v-12.2C208.1-55.6,203.2-58.3,198.4-58.3z M29.1-161.8c0-0.5,0-6.1,0-7H197
				c0,0.9,0,6.5,0,7C197-161.8,29.1-161.8,29.1-161.8z M197-42.8H29.1c0-0.9,0-6.5,0-7c0,0,167.9,0,167.9,0
				C197-49.3,197-43.7,197-42.8z"/>
			<path id="XMLID_337_" class="st1" d="M240.7-131.3c2.1,0,4.6-0.1,4.6-6.3v-31.2h-11.8v23.2c-46.6,0-97.8,0-99.8,0
				c-5,0-7.3,4.3-7.3,8.3v12.2c0,5.1,4.9,7.7,9.7,7.7h97.4v11.5v11.5h-97.4c-4.8,0-9.7,2.7-9.7,7.7v12.2c0,4,2.3,8.3,7.3,8.3
				c1.9,0,53.2,0,99.8,0v23.2h11.8V-74c0-6.2-2.5-6.3-4.6-6.3c-24.7,0-102.6,0-102.6,0s-0.1-3.6,0-5.5c0,0,0.1,0,0.1,0
				c0,0,102.5,0,102.5,0c4,0,4.6-1.1,4.6-7.8h0v-12.2V-118h0c0-6.8-0.6-7.8-4.6-7.8c0,0-102.5,0-102.5,0c0,0-0.1,0-0.1,0
				c-0.1-1.8,0-5.5,0-5.5S216-131.3,240.7-131.3z"/>
		</g>
		<g id="XMLID_334_">
			<path id="XMLID_335_" class="st1" d="M478.7-233.3v-12.2c0-5.1-4.9-7.7-9.7-7.7h-97.4v-11.5v-11.5h97.4c4.8,0,9.7-2.7,9.7-7.7
				v-12.2c0-4-2.3-8.3-7.3-8.3c-1.9,0-53.2,0-99.8,0v-23.2h-11.8v31.2c0,6.2,2.5,6.3,4.6,6.3c24.7,0,102.6,0,102.6,0s0.1,3.6,0,5.5
				c0,0-0.1,0-0.1,0c0,0-102.5,0-102.5,0c-4,0-4.6,1.1-4.6,7.8h0v12.2v12.2h0c0,6.8,0.6,7.8,4.6,7.8c0,0,102.5,0,102.5,0
				c0,0,0.1,0,0.1,0c0.1,1.8,0,5.5,0,5.5s-77.9,0-102.6,0c-2.1,0-4.6,0.1-4.6,6.3v31.2h11.8V-225c46.6,0,97.8,0,99.8,0
				C476.4-225,478.7-229.3,478.7-233.3z"/>
		</g>
		<g id="XMLID_270_">
			<path id="XMLID_273_" class="st1" d="M324.8-217.3h-79.4V-261h107.1v-7.5H245.3v-43.8h79.4c4.8,0,9.7-2.7,9.7-7.7v-12.2
				c0-4-2.3-8.3-7.3-8.3c-1.6,0-40.9,0-81.8,0v-30h-11.8v30c-40.9,0-80.1,0-81.8,0c-5,0-7.3,4.3-7.3,8.3v12.2c0,5.1,4.9,7.7,9.7,7.7
				h79.4v43.8H126.4v7.5h107.2v43.8h-79.4c-4.8,0-9.7,2.7-9.7,7.7v12.2c0,4,2.3,8.3,7.3,8.3c1.6,0,40.9,0,81.8,0v30h11.8v-30
				c40.9,0,80.1,0,81.8,0c5,0,7.3-4.3,7.3-8.3v-12.2C334.4-214.6,329.6-217.3,324.8-217.3z M155.5-320.8c0-0.5,0-6.1,0-7h167.9
				c0,0.9,0,6.5,0,7C323.4-320.8,155.5-320.8,155.5-320.8z M323.4-201.8H155.5c0-0.9,0-6.5,0-7c0,0,167.9,0,167.9,0
				C323.4-208.3,323.4-202.7,323.4-201.8z"/>
			<path id="XMLID_272_" class="st1" d="M367.1-290.3c2.1,0,4.6-0.1,4.6-6.3v-31.2h-11.8v23.2c-46.6,0-97.8,0-99.8,0
				c-5,0-7.3,4.3-7.3,8.3v12.2c0,5.1,4.9,7.7,9.7,7.7h97.4v11.5v11.5h-97.4c-4.8,0-9.7,2.7-9.7,7.7v12.2c0,4,2.3,8.3,7.3,8.3
				c1.9,0,53.2,0,99.8,0v23.2h11.8V-233c0-6.2-2.5-6.3-4.6-6.3c-24.7,0-102.6,0-102.6,0s-0.1-3.6,0-5.5c0,0,0.1,0,0.1,0
				c0,0,102.5,0,102.5,0c4,0,4.6-1.1,4.6-7.8h0v-12.2V-277h0c0-6.8-0.6-7.8-4.6-7.8c0,0-102.5,0-102.5,0c0,0-0.1,0-0.1,0
				c-0.1-1.8,0-5.5,0-5.5S342.4-290.3,367.1-290.3z"/>
			<path id="XMLID_271_" class="st1" d="M226-233.3v-12.2c0-5.1-4.9-7.7-9.7-7.7H119v-11.5v-11.5h97.4c4.8,0,9.7-2.7,9.7-7.7v-12.2
				c0-4-2.3-8.3-7.3-8.3c-1.9,0-53.2,0-99.8,0v-23.2h-11.8v31.2c0,6.2,2.5,6.3,4.6,6.3c24.7,0,102.6,0,102.6,0s0.1,3.6,0,5.5
				c0,0-0.1,0-0.1,0c0,0-102.5,0-102.5,0c-4,0-4.6,1.1-4.6,7.8h0v12.2v12.2h0c0,6.8,0.6,7.8,4.6,7.8c0,0,102.5,0,102.5,0
				c0,0,0.1,0,0.1,0c0.1,1.8,0,5.5,0,5.5s-77.9,0-102.6,0c-2.1,0-4.6,0.1-4.6,6.3v31.2H119V-225c46.6,0,97.8,0,99.8,0
				C223.7-225,226-229.3,226-233.3z"/>
		</g>
		<g id="XMLID_215_">
			<path id="XMLID_219_" class="st1" d="M114.4-290.3c2.1,0,4.6-0.1,4.6-6.3v-31.2h-11.8v23.2c-46.6,0-97.8,0-99.8,0
				c-5,0-7.3,4.3-7.3,8.3v12.2c0,5.1,4.9,7.7,9.7,7.7h97.4v11.5v11.5H9.8c-4.8,0-9.7,2.7-9.7,7.7v12.2c0,4,2.3,8.3,7.3,8.3
				c1.9,0,53.2,0,99.8,0v23.2H119V-233c0-6.2-2.5-6.3-4.6-6.3c-24.7,0-102.6,0-102.6,0s-0.1-3.6,0-5.5c0,0,0.1,0,0.1,0
				c0,0,102.5,0,102.5,0c4,0,4.6-1.1,4.6-7.8h0v-12.2V-277h0c0-6.8-0.6-7.8-4.6-7.8c0,0-102.5,0-102.5,0c0,0-0.1,0-0.1,0
				c-0.1-1.8,0-5.5,0-5.5S89.7-290.3,114.4-290.3z"/>
		</g>
		<g id="XMLID_205_">
			<path id="XMLID_207_" class="st1" d="M451.1-376.3h-79.4V-420h107.1v-7.5H371.7v-43.8h79.4c4.8,0,9.7-2.7,9.7-7.7v-12.2
				c0-4-2.3-8.3-7.3-8.3c-1.6,0-40.9,0-81.8,0v-30h-11.8v30c-40.9,0-80.1,0-81.8,0c-5,0-7.3,4.3-7.3,8.3v12.2c0,5.1,4.9,7.7,9.7,7.7
				h79.4v43.8H252.7v7.5h107.2v43.8h-79.4c-4.8,0-9.7,2.7-9.7,7.7v12.2c0,4,2.3,8.3,7.3,8.3c1.6,0,40.9,0,81.8,0v30h11.8v-30
				c40.9,0,80.1,0,81.8,0c5,0,7.3-4.3,7.3-8.3v-12.2C460.8-373.6,455.9-376.3,451.1-376.3z M281.8-479.8c0-0.5,0-6.1,0-7h167.9
				c0,0.9,0,6.5,0,7C449.7-479.8,281.8-479.8,281.8-479.8z M449.7-360.8H281.8c0-0.9,0-6.5,0-7c0,0,167.9,0,167.9,0
				C449.7-367.3,449.7-361.7,449.7-360.8z"/>
			<path id="XMLID_206_" class="st1" d="M352.4-392.3v-12.2c0-5.1-4.9-7.7-9.7-7.7h-97.4v-11.5v-11.5h97.4c4.8,0,9.7-2.7,9.7-7.7
				v-12.2c0-4-2.3-8.3-7.3-8.3c-1.9,0-53.2,0-99.8,0v-23.2h-11.8v31.2c0,6.2,2.5,6.3,4.6,6.3c24.7,0,102.6,0,102.6,0s0.1,3.6,0,5.5
				c0,0-0.1,0-0.1,0c0,0-102.5,0-102.5,0c-4,0-4.6,1.1-4.6,7.8h0v12.2v12.2h0c0,6.8,0.6,7.8,4.6,7.8c0,0,102.5,0,102.5,0
				c0,0,0.1,0,0.1,0c0.1,1.8,0,5.5,0,5.5s-77.9,0-102.6,0c-2.1,0-4.6,0.1-4.6,6.3v31.2h11.8V-384c46.6,0,97.8,0,99.8,0
				C350.1-384,352.4-388.3,352.4-392.3z"/>
		</g>
		<g id="XMLID_164_">
			<path id="XMLID_168_" class="st1" d="M198.4-376.3H119V-420h107.1v-7.5H119v-43.8h79.4c4.8,0,9.7-2.7,9.7-7.7v-12.2
				c0-4-2.3-8.3-7.3-8.3c-1.6,0-40.9,0-81.8,0v-30h-11.8v30c-40.9,0-80.1,0-81.8,0c-5,0-7.3,4.3-7.3,8.3v12.2c0,5.1,4.9,7.7,9.7,7.7
				h79.4v43.8H0v7.5h107.2v43.8H27.7c-4.8,0-9.7,2.7-9.7,7.7v12.2c0,4,2.3,8.3,7.3,8.3c1.6,0,40.9,0,81.8,0v30H119v-30
				c40.9,0,80.1,0,81.8,0c5,0,7.3-4.3,7.3-8.3v-12.2C208.1-373.6,203.2-376.3,198.4-376.3z M29.1-479.8c0-0.5,0-6.1,0-7H197
				c0,0.9,0,6.5,0,7C197-479.8,29.1-479.8,29.1-479.8z M197-360.8H29.1c0-0.9,0-6.5,0-7c0,0,167.9,0,167.9,0
				C197-367.3,197-361.7,197-360.8z"/>
			<path id="XMLID_165_" class="st1" d="M240.7-449.3c2.1,0,4.6-0.1,4.6-6.3v-31.2h-11.8v23.2c-46.6,0-97.8,0-99.8,0
				c-5,0-7.3,4.3-7.3,8.3v12.2c0,5.1,4.9,7.7,9.7,7.7h97.4v11.5v11.5h-97.4c-4.8,0-9.7,2.7-9.7,7.7v12.2c0,4,2.3,8.3,7.3,8.3
				c1.9,0,53.2,0,99.8,0v23.2h11.8V-392c0-6.2-2.5-6.3-4.6-6.3c-24.7,0-102.6,0-102.6,0s-0.1-3.6,0-5.5c0,0,0.1,0,0.1,0
				c0,0,102.5,0,102.5,0c4,0,4.6-1.1,4.6-7.8h0v-12.2V-436h0c0-6.8-0.6-7.8-4.6-7.8c0,0-102.5,0-102.5,0c0,0-0.1,0-0.1,0
				c-0.1-1.8,0-5.5,0-5.5S216-449.3,240.7-449.3z"/>
		</g>
	</g>
</pattern>
<pattern  id="XMLID_2_" xlink:href="#New_Pattern_4" patternTransform="matrix(0.2841 0 0 0.4289 -5372.9434 -5263.6553)">
</pattern>
<rect id="XMLID_44_" x="-221.5" y="76" class="st2" width="1050" height="1050"/>
</svg>
