<?xml version="1.0" encoding="utf-8"?>
<!-- Generator: Adobe Illustrator 19.0.0, SVG Export Plug-In . SVG Version: 6.00 Build 0)  -->
<svg version="1.1" id="lm-pattern" xmlns="http://www.w3.org/2000/svg" xmlns:xlink="http://www.w3.org/1999/xlink" x="0px" y="0px"
	 viewBox="-221.5 76 1050 1050" style="enable-background:new -221.5 76 1050 1050;" xml:space="preserve">
<style type="text/css">
	.st0{fill:none;}
	.st1{fill:#EE425B;}
	.st2{fill:url(#XMLID_2_);}
</style>
<pattern  x="-208" y="1126" width="233.5" height="214.5" patternUnits="userSpaceOnUse" id="New_Pattern_11" viewBox="113 -228.6 233.5 214.5" style="overflow:visible;">
	<g id="lm-pattern-red-sesami">
		<polygon id="XMLID_330_" class="st0" points="113,-228.6 346.5,-228.6 346.5,-14.1 113,-14.1 		"/>
		<path id="XMLID_282_" class="st1" d="M243.2,0c-4.8,0-9.7-2.7-9.7-7.7V-20c0-4,2.3-8.3,7.3-8.3c1.9,0,209.4,0,211.3,0
			c5,0,7.3,4.3,7.3,8.3v12.2c0,5.1-4.9,7.7-9.7,7.7H243.2z M346.5-8.5c11.7,0,101.2,0,101.3,0c0,0,0.1,0,0.1,0c0.1-1.8,0-5.5,0-5.5
			s-75.4,0-101.4,0c-26,0-101.4,0-101.4,0s-0.1,3.6,0,5.5c0,0,0.1,0,0.1,0C245.3-8.5,334.8-8.5,346.5-8.5z"/>
		<path id="XMLID_278_" class="st1" d="M9.7,0C4.9,0,0-2.7,0-7.7V-20c0-4,2.3-8.3,7.3-8.3c1.9,0,209.4,0,211.3,0
			c5,0,7.3,4.3,7.3,8.3v12.2c0,5.1-4.9,7.7-9.7,7.7H9.7z M113-8.5c11.7,0,101.2,0,101.3,0c0,0,0.1,0,0.1,0c0.1-1.8,0-5.5,0-5.5
			S139-14,113-14c-26,0-101.4,0-101.4,0s-0.1,3.6,0,5.5c0,0,0.1,0,0.1,0C11.8-8.5,101.3-8.5,113-8.5z"/>
		<path id="XMLID_246_" class="st1" d="M126.4-35.8c-4.8,0-9.7-2.7-9.7-7.7v-12.2c0-4,2.3-8.3,7.3-8.3c1.9,0,209.4,0,211.3,0
			c5,0,7.3,4.3,7.3,8.3v12.2c0,5.1-4.9,7.7-9.7,7.7H126.4z M229.7-44.3c11.7,0,101.2,0,101.3,0c0,0,0.1,0,0.1,0c0.1-1.8,0-5.5,0-5.5
			s-75.4,0-101.4,0c-26,0-101.4,0-101.4,0s-0.1,3.6,0,5.5c0,0,0.1,0,0.1,0C128.5-44.3,218-44.3,229.7-44.3z"/>
		<path id="XMLID_238_" class="st1" d="M243.2-71.5c-4.8,0-9.7-2.7-9.7-7.7v-12.2c0-4,2.3-8.3,7.3-8.3c1.9,0,209.4,0,211.3,0
			c5,0,7.3,4.3,7.3,8.3v12.2c0,5.1-4.9,7.7-9.7,7.7H243.2z M346.5-80c11.7,0,101.2,0,101.3,0c0,0,0.1,0,0.1,0c0.1-1.8,0-5.5,0-5.5
			s-75.4,0-101.4,0c-26,0-101.4,0-101.4,0s-0.1,3.6,0,5.5c0,0,0.1,0,0.1,0C245.3-80,334.8-80,346.5-80z"/>
		<path id="XMLID_233_" class="st1" d="M9.7-71.5c-4.8,0-9.7-2.7-9.7-7.7v-12.2c0-4,2.3-8.3,7.3-8.3c1.9,0,209.4,0,211.3,0
			c5,0,7.3,4.3,7.3,8.3v12.2c0,5.1-4.9,7.7-9.7,7.7H9.7z M113-80c11.7,0,101.2,0,101.3,0c0,0,0.1,0,0.1,0c0.1-1.8,0-5.5,0-5.5
			s-75.4,0-101.4,0c-26,0-101.4,0-101.4,0s-0.1,3.6,0,5.5c0,0,0.1,0,0.1,0C11.8-80,101.3-80,113-80z"/>
		<path id="XMLID_229_" class="st1" d="M126.4-107.2c-4.8,0-9.7-2.7-9.7-7.7v-12.2c0-4,2.3-8.3,7.3-8.3c1.9,0,209.4,0,211.3,0
			c5,0,7.3,4.3,7.3,8.3v12.2c0,5.1-4.9,7.7-9.7,7.7H126.4z M229.7-115.8c11.7,0,101.2,0,101.3,0c0,0,0.1,0,0.1,0
			c0.1-1.8,0-5.5,0-5.5s-75.4,0-101.4,0c-26,0-101.4,0-101.4,0s-0.1,3.6,0,5.5c0,0,0.1,0,0.1,0C128.5-115.8,218-115.8,229.7-115.8z"
			/>
		<path id="XMLID_226_" class="st1" d="M243.2-143c-4.8,0-9.7-2.7-9.7-7.7V-163c0-4,2.3-8.3,7.3-8.3c1.9,0,209.4,0,211.3,0
			c5,0,7.3,4.3,7.3,8.3v12.2c0,5.1-4.9,7.7-9.7,7.7H243.2z M346.5-151.5c11.7,0,101.2,0,101.3,0c0,0,0.1,0,0.1,0
			c0.1-1.8,0-5.5,0-5.5s-75.4,0-101.4,0c-26,0-101.4,0-101.4,0s-0.1,3.6,0,5.5c0,0,0.1,0,0.1,0C245.3-151.5,334.8-151.5,346.5-151.5
			z"/>
		<path id="XMLID_204_" class="st1" d="M9.7-143c-4.8,0-9.7-2.7-9.7-7.7V-163c0-4,2.3-8.3,7.3-8.3c1.9,0,209.4,0,211.3,0
			c5,0,7.3,4.3,7.3,8.3v12.2c0,5.1-4.9,7.7-9.7,7.7H9.7z M113-151.5c11.7,0,101.2,0,101.3,0c0,0,0.1,0,0.1,0c0.1-1.8,0-5.5,0-5.5
			s-75.4,0-101.4,0c-26,0-101.4,0-101.4,0s-0.1,3.6,0,5.5c0,0,0.1,0,0.1,0C11.8-151.5,101.3-151.5,113-151.5z"/>
		<path id="XMLID_201_" class="st1" d="M126.4-178.8c-4.8,0-9.7-2.7-9.7-7.7v-12.2c0-4,2.3-8.3,7.3-8.3c1.9,0,209.4,0,211.3,0
			c5,0,7.3,4.3,7.3,8.3v12.2c0,5.1-4.9,7.7-9.7,7.7H126.4z M229.7-187.3c11.7,0,101.2,0,101.3,0c0,0,0.1,0,0.1,0
			c0.1-1.8,0-5.5,0-5.5s-75.4,0-101.4,0c-26,0-101.4,0-101.4,0s-0.1,3.6,0,5.5c0,0,0.1,0,0.1,0C128.5-187.3,218-187.3,229.7-187.3z"
			/>
		<path id="XMLID_21_" class="st1" d="M243.2-214.5c-4.8,0-9.7-2.7-9.7-7.7v-12.2c0-4,2.3-8.3,7.3-8.3c1.9,0,209.4,0,211.3,0
			c5,0,7.3,4.3,7.3,8.3v12.2c0,5.1-4.9,7.7-9.7,7.7H243.2z M346.5-223c11.7,0,101.2,0,101.3,0c0,0,0.1,0,0.1,0c0.1-1.8,0-5.5,0-5.5
			s-75.4,0-101.4,0c-26,0-101.4,0-101.4,0s-0.1,3.6,0,5.5c0,0,0.1,0,0.1,0C245.3-223,334.8-223,346.5-223z"/>
		<path id="XMLID_16_" class="st1" d="M9.7-214.5c-4.8,0-9.7-2.7-9.7-7.7v-12.2c0-4,2.3-8.3,7.3-8.3c1.9,0,209.4,0,211.3,0
			c5,0,7.3,4.3,7.3,8.3v12.2c0,5.1-4.9,7.7-9.7,7.7H9.7z M113-223c11.7,0,101.2,0,101.3,0c0,0,0.1,0,0.1,0c0.1-1.8,0-5.5,0-5.5
			s-75.4,0-101.4,0c-26,0-101.4,0-101.4,0s-0.1,3.6,0,5.5c0,0,0.1,0,0.1,0C11.8-223,101.3-223,113-223z"/>
	</g>
</pattern>
<pattern  id="XMLID_2_" xlink:href="#New_Pattern_11" patternTransform="matrix(0.2841 0 0 0.4289 -5411.8892 -5113.729)">
</pattern>
<rect id="XMLID_411_" x="-221.5" y="76" class="st2" width="1050" height="1050"/>
</svg>
