<?xml version="1.0" encoding="utf-8"?>
<!-- Generator: Adobe Illustrator 19.0.0, SVG Export Plug-In . SVG Version: 6.00 Build 0)  -->
<svg version="1.1" id="lm-pattern" xmlns="http://www.w3.org/2000/svg" xmlns:xlink="http://www.w3.org/1999/xlink" x="0px" y="0px"
	 viewBox="-221.5 76 1050 1050" style="enable-background:new -221.5 76 1050 1050;" xml:space="preserve">
<style type="text/css">
	.st0{fill:none;}
	.st1{fill:#EE425C;}
	.st2{fill:url(#XMLID_2_);}
</style>
<pattern  x="-208" y="1126" width="334" height="496.9" patternUnits="userSpaceOnUse" id="New_Pattern_10" viewBox="174.3 -607.7 334 496.9" style="overflow:visible;">
	<g id="lm-pattern-red-ll">
		<polygon id="XMLID_3139_" class="st0" points="174.3,-607.7 508.3,-607.7 508.3,-110.8 174.3,-110.8 		"/>
		<g id="XMLID_2373_">
			<path id="XMLID_2382_" class="st1" d="M544.3-17.2V-107H588V0l7.5,0v-107h43.8v89.9c0,4.8,2.7,9.7,7.7,9.7h12.2
				c4,0,8.3-2.3,8.3-7.3c0-1.7,0-50.5,0-92.2h15v-7.5h-15c0-41.7,0-90.5,0-92.2c0-5-4.3-7.3-8.3-7.3H647c-5.1,0-7.7,4.9-7.7,9.7
				v89.9h-43.8v-107.1H588v107.1h-43.8v-89.9c0-4.8-2.7-9.7-7.7-9.7h-12.2c-4,0-8.3,2.3-8.3,7.3c0,1.7,0,50.6,0,92.2h-15v7.5h15
				c0,41.7,0,90.5,0,92.2c0,5,4.3,7.3,8.3,7.3h12.2C541.6-7.5,544.3-12.4,544.3-17.2z M647.8-203.1c0.5,0,6.1,0,7,0v184.5
				c-0.9,0-6.5,0-7,0C647.8-18.5,647.8-203.1,647.8-203.1z M528.8-18.5v-184.5c0.9,0,6.5,0,7,0c0,0,0,184.5,0,184.5
				C535.3-18.5,529.7-18.5,528.8-18.5z"/>
		</g>
		<g id="XMLID_2349_">
			<path id="XMLID_2353_" class="st1" d="M377.3-17.2V-107H421V0l7.5,0v-107h43.8v89.9c0,4.8,2.7,9.7,7.7,9.7h12.2
				c4,0,8.3-2.3,8.3-7.3c0-1.7,0-50.5,0-92.2h15v-7.5h-15c0-41.7,0-90.5,0-92.2c0-5-4.3-7.3-8.3-7.3H480c-5.1,0-7.7,4.9-7.7,9.7
				v89.9h-43.8v-107.1H421v107.1h-43.8v-89.9c0-4.8-2.7-9.7-7.7-9.7h-12.2c-4,0-8.3,2.3-8.3,7.3c0,1.7,0,50.6,0,92.2h-15v7.5h15
				c0,41.7,0,90.5,0,92.2c0,5,4.3,7.3,8.3,7.3h12.2C374.6-7.5,377.3-12.4,377.3-17.2z M480.8-203.1c0.5,0,6.1,0,7,0v184.5
				c-0.9,0-6.5,0-7,0C480.8-18.5,480.8-203.1,480.8-203.1z M361.8-18.5v-184.5c0.9,0,6.5,0,7,0c0,0,0,184.5,0,184.5
				C368.3-18.5,362.7-18.5,361.8-18.5z"/>
			<path id="XMLID_2352_" class="st1" d="M393.3-122h12.2c5.1,0,7.7-4.9,7.7-9.7v-97.4h11.5h11.5v97.4c0,4.8,2.7,9.7,7.7,9.7h12.2
				c4,0,8.3-2.3,8.3-7.3c0-1.9,0-53.2,0-99.8h7.5v-11.8h-15.5c-6.2,0-6.3,2.5-6.3,4.6c0,24.7,0,102.6,0,102.6s-3.6,0.1-5.5,0
				c0,0,0-0.1,0-0.1c0,0,0-102.5,0-102.5c0-4-1.1-4.6-7.8-4.6v0h-12.2h-12.2v0c-6.8,0-7.8,0.6-7.8,4.6c0,0,0,102.5,0,102.5
				c0,0,0,0.1,0,0.1c-1.8,0.1-5.5,0-5.5,0s0-77.9,0-102.6c0-2.1-0.1-4.6-6.3-4.6h-15.5v11.8h7.5c0,46.6,0,97.8,0,99.8
				C385-124.3,389.3-122,393.3-122z"/>
		</g>
		<g id="XMLID_2321_">
			<path id="XMLID_2331_" class="st1" d="M210.3-17.2V-107H254V0l7.5,0v-107h43.8v89.9c0,4.8,2.7,9.7,7.7,9.7h12.2
				c4,0,8.3-2.3,8.3-7.3c0-1.7,0-50.5,0-92.2h15v-7.5h-15c0-41.7,0-90.5,0-92.2c0-5-4.3-7.3-8.3-7.3H313c-5.1,0-7.7,4.9-7.7,9.7
				v89.9h-43.8v-107.1H254v107.1h-43.8v-89.9c0-4.8-2.7-9.7-7.7-9.7h-12.2c-4,0-8.3,2.3-8.3,7.3c0,1.7,0,50.6,0,92.2h-15v7.5h15
				c0,41.7,0,90.5,0,92.2c0,5,4.3,7.3,8.3,7.3h12.2C207.6-7.5,210.3-12.4,210.3-17.2z M313.8-203.1c0.5,0,6.1,0,7,0v184.5
				c-0.9,0-6.5,0-7,0C313.8-18.5,313.8-203.1,313.8-203.1z M194.8-18.5v-184.5c0.9,0,6.5,0,7,0c0,0,0,184.5,0,184.5
				C201.3-18.5,195.7-18.5,194.8-18.5z"/>
			<path id="XMLID_2330_" class="st1" d="M226.3-122h12.2c5.1,0,7.7-4.9,7.7-9.7v-97.4h11.5h11.5v97.4c0,4.8,2.7,9.7,7.7,9.7h12.2
				c4,0,8.3-2.3,8.3-7.3c0-1.9,0-53.2,0-99.8h7.5v-11.8h-15.5c-6.2,0-6.3,2.5-6.3,4.6c0,24.7,0,102.6,0,102.6s-3.6,0.1-5.5,0
				c0,0,0-0.1,0-0.1c0,0,0-102.5,0-102.5c0-4-1.1-4.6-7.8-4.6v0h-12.2h-12.2v0c-6.8,0-7.8,0.6-7.8,4.6c0,0,0,102.5,0,102.5
				c0,0,0,0.1,0,0.1c-1.8,0.1-5.5,0-5.5,0s0-77.9,0-102.6c0-2.1-0.1-4.6-6.3-4.6h-15.5v11.8h7.5c0,46.6,0,97.8,0,99.8
				C218-124.3,222.3-122,226.3-122z"/>
		</g>
		<g id="XMLID_938_">
			<path id="XMLID_946_" class="st1" d="M43.3-17.2V-107H87V0l7.5,0v-107h43.8v89.9c0,4.8,2.7,9.7,7.7,9.7h12.2c4,0,8.3-2.3,8.3-7.3
				c0-1.7,0-50.5,0-92.2h15v-7.5h-15c0-41.7,0-90.5,0-92.2c0-5-4.3-7.3-8.3-7.3H146c-5.1,0-7.7,4.9-7.7,9.7v89.9H94.5v-107.1H87
				v107.1H43.3v-89.9c0-4.8-2.7-9.7-7.7-9.7H23.3c-4,0-8.3,2.3-8.3,7.3c0,1.7,0,50.6,0,92.2H0l0,7.5h15c0,41.7,0,90.5,0,92.2
				c0,5,4.3,7.3,8.3,7.3h12.2C40.6-7.5,43.3-12.4,43.3-17.2z M146.8-203.1c0.5,0,6.1,0,7,0v184.5c-0.9,0-6.5,0-7,0
				C146.8-18.5,146.8-203.1,146.8-203.1z M27.8-18.5v-184.5c0.9,0,6.5,0,7,0c0,0,0,184.5,0,184.5C34.3-18.5,28.7-18.5,27.8-18.5z"/>
		</g>
		<g id="XMLID_592_">
			<path id="XMLID_640_" class="st1" d="M460.8-265.6v-89.9h43.8v107h7.5v-107h43.8v89.9c0,4.8,2.7,9.7,7.7,9.7h12.2
				c4,0,8.3-2.3,8.3-7.3c0-1.7,0-50.5,0-92.2h15v-7.5h-15c0-41.7,0-90.5,0-92.2c0-5-4.3-7.3-8.3-7.3h-12.2c-5.1,0-7.7,4.9-7.7,9.7
				v89.9H512V-470h-7.5V-363h-43.8v-89.9c0-4.8-2.7-9.7-7.7-9.7h-12.2c-4,0-8.3,2.3-8.3,7.3c0,1.7,0,50.6,0,92.2h-15v7.5h15
				c0,41.7,0,90.5,0,92.2c0,5,4.3,7.3,8.3,7.3h12.2C458.1-255.9,460.8-260.8,460.8-265.6z M564.3-451.5c0.5,0,6.1,0,7,0V-267
				c-0.9,0-6.5,0-7,0C564.3-267,564.3-451.5,564.3-451.5z M445.3-267v-184.5c0.9,0,6.5,0,7,0c0,0,0,184.5,0,184.5
				C451.8-267,446.2-267,445.3-267z"/>
			<path id="XMLID_636_" class="st1" d="M533.8-233.7c0,2.1,0.1,4.6,6.3,4.6h15.5v-11.8h-7.5c0-46.6,0-97.8,0-99.8
				c0-5-4.3-7.3-8.3-7.3h-12.2c-5.1,0-7.7,4.9-7.7,9.7v97.4h-11.5h-11.5v-97.4c0-4.8-2.7-9.7-7.7-9.7h-12.2c-4,0-8.3,2.3-8.3,7.3
				c0,1.9,0,53.2,0,99.8H461v11.8h15.5c6.2,0,6.3-2.5,6.3-4.6c0-24.7,0-102.6,0-102.6s3.6-0.1,5.5,0c0,0,0,0.1,0,0.1
				c0,0,0,102.5,0,102.5c0,4,1.1,4.6,7.8,4.6v0h12.2h12.2v0c6.8,0,7.8-0.6,7.8-4.6c0,0,0-102.5,0-102.5c0,0,0-0.1,0-0.1
				c1.8-0.1,5.5,0,5.5,0S533.8-258.4,533.8-233.7z"/>
			<path id="XMLID_594_" class="st1" d="M476.8-370.5h12.2c5.1,0,7.7-4.9,7.7-9.7v-97.4h11.5h11.5v97.4c0,4.8,2.7,9.7,7.7,9.7h12.2
				c4,0,8.3-2.3,8.3-7.3c0-1.9,0-53.2,0-99.8h7.5v-11.8H540c-6.2,0-6.3,2.5-6.3,4.6c0,24.7,0,102.6,0,102.6s-3.6,0.1-5.5,0
				c0,0,0-0.1,0-0.1c0,0,0-102.5,0-102.5c0-4-1.1-4.6-7.8-4.6v0h-12.2h-12.2v0c-6.8,0-7.8,0.6-7.8,4.6c0,0,0,102.5,0,102.5
				c0,0,0,0.1,0,0.1c-1.8,0.1-5.5,0-5.5,0s0-77.9,0-102.6c0-2.1-0.1-4.6-6.3-4.6H461v11.8h7.5c0,46.6,0,97.8,0,99.8
				C468.5-372.8,472.8-370.5,476.8-370.5z"/>
		</g>
		<g id="XMLID_526_">
			<path id="XMLID_532_" class="st1" d="M293.8-265.6v-89.9h43.8v107h7.5v-107h43.8v89.9c0,4.8,2.7,9.7,7.7,9.7h12.2
				c4,0,8.3-2.3,8.3-7.3c0-1.7,0-50.5,0-92.2h15v-7.5h-15c0-41.7,0-90.5,0-92.2c0-5-4.3-7.3-8.3-7.3h-12.2c-5.1,0-7.7,4.9-7.7,9.7
				v89.9H345V-470h-7.5V-363h-43.8v-89.9c0-4.8-2.7-9.7-7.7-9.7h-12.2c-4,0-8.3,2.3-8.3,7.3c0,1.7,0,50.6,0,92.2h-15v7.5h15
				c0,41.7,0,90.5,0,92.2c0,5,4.3,7.3,8.3,7.3h12.2C291.1-255.9,293.8-260.8,293.8-265.6z M397.3-451.5c0.5,0,6.1,0,7,0V-267
				c-0.9,0-6.5,0-7,0C397.3-267,397.3-451.5,397.3-451.5z M278.3-267v-184.5c0.9,0,6.5,0,7,0c0,0,0,184.5,0,184.5
				C284.8-267,279.2-267,278.3-267z"/>
			<path id="XMLID_531_" class="st1" d="M366.8-233.7c0,2.1,0.1,4.6,6.3,4.6h15.5v-11.8h-7.5c0-46.6,0-97.8,0-99.8
				c0-5-4.3-7.3-8.3-7.3h-12.2c-5.1,0-7.7,4.9-7.7,9.7v97.4h-11.5h-11.5v-97.4c0-4.8-2.7-9.7-7.7-9.7h-12.2c-4,0-8.3,2.3-8.3,7.3
				c0,1.9,0,53.2,0,99.8H294v11.8h15.5c6.2,0,6.3-2.5,6.3-4.6c0-24.7,0-102.6,0-102.6s3.6-0.1,5.5,0c0,0,0,0.1,0,0.1
				c0,0,0,102.5,0,102.5c0,4,1.1,4.6,7.8,4.6v0h12.2h12.2v0c6.8,0,7.8-0.6,7.8-4.6c0,0,0-102.5,0-102.5c0,0,0-0.1,0-0.1
				c1.8-0.1,5.5,0,5.5,0S366.8-258.4,366.8-233.7z"/>
			<path id="XMLID_527_" class="st1" d="M309.8-370.5h12.2c5.1,0,7.7-4.9,7.7-9.7v-97.4h11.5h11.5v97.4c0,4.8,2.7,9.7,7.7,9.7h12.2
				c4,0,8.3-2.3,8.3-7.3c0-1.9,0-53.2,0-99.8h7.5v-11.8H373c-6.2,0-6.3,2.5-6.3,4.6c0,24.7,0,102.6,0,102.6s-3.6,0.1-5.5,0
				c0,0,0-0.1,0-0.1c0,0,0-102.5,0-102.5c0-4-1.1-4.6-7.8-4.6v0h-12.2h-12.2v0c-6.8,0-7.8,0.6-7.8,4.6c0,0,0,102.5,0,102.5
				c0,0,0,0.1,0,0.1c-1.8,0.1-5.5,0-5.5,0s0-77.9,0-102.6c0-2.1-0.1-4.6-6.3-4.6H294v11.8h7.5c0,46.6,0,97.8,0,99.8
				C301.5-372.8,305.8-370.5,309.8-370.5z"/>
		</g>
		<g id="XMLID_504_">
			<path id="XMLID_514_" class="st1" d="M126.8-265.6v-89.9h43.8v107h7.5v-107h43.8v89.9c0,4.8,2.7,9.7,7.7,9.7h12.2
				c4,0,8.3-2.3,8.3-7.3c0-1.7,0-50.5,0-92.2h15v-7.5h-15c0-41.7,0-90.5,0-92.2c0-5-4.3-7.3-8.3-7.3h-12.2c-5.1,0-7.7,4.9-7.7,9.7
				v89.9H178V-470h-7.5V-363h-43.8v-89.9c0-4.8-2.7-9.7-7.7-9.7h-12.2c-4,0-8.3,2.3-8.3,7.3c0,1.7,0,50.6,0,92.2h-15v7.5h15
				c0,41.7,0,90.5,0,92.2c0,5,4.3,7.3,8.3,7.3h12.2C124.1-255.9,126.8-260.8,126.8-265.6z M230.3-451.5c0.5,0,6.1,0,7,0V-267
				c-0.9,0-6.5,0-7,0C230.3-267,230.3-451.5,230.3-451.5z M111.3-267v-184.5c0.9,0,6.5,0,7,0c0,0,0,184.5,0,184.5
				C117.8-267,112.2-267,111.3-267z"/>
			<path id="XMLID_506_" class="st1" d="M199.8-233.7c0,2.1,0.1,4.6,6.3,4.6h15.5v-11.8h-7.5c0-46.6,0-97.8,0-99.8
				c0-5-4.3-7.3-8.3-7.3h-12.2c-5.1,0-7.7,4.9-7.7,9.7v97.4h-11.5h-11.5v-97.4c0-4.8-2.7-9.7-7.7-9.7h-12.2c-4,0-8.3,2.3-8.3,7.3
				c0,1.9,0,53.2,0,99.8H127v11.8h15.5c6.2,0,6.3-2.5,6.3-4.6c0-24.7,0-102.6,0-102.6s3.6-0.1,5.5,0c0,0,0,0.1,0,0.1
				c0,0,0,102.5,0,102.5c0,4,1.1,4.6,7.8,4.6v0h12.2h12.2v0c6.8,0,7.8-0.6,7.8-4.6c0,0,0-102.5,0-102.5c0,0,0-0.1,0-0.1
				c1.8-0.1,5.5,0,5.5,0S199.8-258.4,199.8-233.7z"/>
			<path id="XMLID_505_" class="st1" d="M142.8-370.5h12.2c5.1,0,7.7-4.9,7.7-9.7v-97.4h11.5h11.5v97.4c0,4.8,2.7,9.7,7.7,9.7h12.2
				c4,0,8.3-2.3,8.3-7.3c0-1.9,0-53.2,0-99.8h7.5v-11.8H206c-6.2,0-6.3,2.5-6.3,4.6c0,24.7,0,102.6,0,102.6s-3.6,0.1-5.5,0
				c0,0,0-0.1,0-0.1c0,0,0-102.5,0-102.5c0-4-1.1-4.6-7.8-4.6v0h-12.2h-12.2v0c-6.8,0-7.8,0.6-7.8,4.6c0,0,0,102.5,0,102.5
				c0,0,0,0.1,0,0.1c-1.8,0.1-5.5,0-5.5,0s0-77.9,0-102.6c0-2.1-0.1-4.6-6.3-4.6H127v11.8h7.5c0,46.6,0,97.8,0,99.8
				C134.5-372.8,138.8-370.5,142.8-370.5z"/>
		</g>
		<g id="XMLID_499_">
			<path id="XMLID_500_" class="st1" d="M544.3-514v-89.9H588v107h7.5v-107h43.8v89.9c0,4.8,2.7,9.7,7.7,9.7h12.2
				c4,0,8.3-2.3,8.3-7.3c0-1.7,0-50.5,0-92.2h15v-7.5h-15c0-41.7,0-90.5,0-92.2c0-5-4.3-7.3-8.3-7.3H647c-5.1,0-7.7,4.9-7.7,9.7
				v89.9h-43.8v-107.1H588v107.1h-43.8v-89.9c0-4.8-2.7-9.7-7.7-9.7h-12.2c-4,0-8.3,2.3-8.3,7.3c0,1.7,0,50.6,0,92.2h-15v7.5h15
				c0,41.7,0,90.5,0,92.2c0,5,4.3,7.3,8.3,7.3h12.2C541.6-504.4,544.3-509.2,544.3-514z M647.8-699.9c0.5,0,6.1,0,7,0v184.5
				c-0.9,0-6.5,0-7,0C647.8-515.4,647.8-699.9,647.8-699.9z M528.8-515.4v-184.5c0.9,0,6.5,0,7,0c0,0,0,184.5,0,184.5
				C535.3-515.4,529.7-515.4,528.8-515.4z"/>
		</g>
		<g id="XMLID_281_">
			<path id="XMLID_495_" class="st1" d="M377.3-514v-89.9H421v107h7.5v-107h43.8v89.9c0,4.8,2.7,9.7,7.7,9.7h12.2
				c4,0,8.3-2.3,8.3-7.3c0-1.7,0-50.5,0-92.2h15v-7.5h-15c0-41.7,0-90.5,0-92.2c0-5-4.3-7.3-8.3-7.3H480c-5.1,0-7.7,4.9-7.7,9.7
				v89.9h-43.8v-107.1H421v107.1h-43.8v-89.9c0-4.8-2.7-9.7-7.7-9.7h-12.2c-4,0-8.3,2.3-8.3,7.3c0,1.7,0,50.6,0,92.2h-15v7.5h15
				c0,41.7,0,90.5,0,92.2c0,5,4.3,7.3,8.3,7.3h12.2C374.6-504.4,377.3-509.2,377.3-514z M480.8-699.9c0.5,0,6.1,0,7,0v184.5
				c-0.9,0-6.5,0-7,0C480.8-515.4,480.8-699.9,480.8-699.9z M361.8-515.4v-184.5c0.9,0,6.5,0,7,0c0,0,0,184.5,0,184.5
				C368.3-515.4,362.7-515.4,361.8-515.4z"/>
			<path id="XMLID_283_" class="st1" d="M450.3-482.1c0,2.1,0.1,4.6,6.3,4.6h15.5v-11.8h-7.5c0-46.6,0-97.8,0-99.8
				c0-5-4.3-7.3-8.3-7.3H444c-5.1,0-7.7,4.9-7.7,9.7v97.4h-11.5h-11.5v-97.4c0-4.8-2.7-9.7-7.7-9.7h-12.2c-4,0-8.3,2.3-8.3,7.3
				c0,1.9,0,53.2,0,99.8h-7.5v11.8H393c6.2,0,6.3-2.5,6.3-4.6c0-24.7,0-102.6,0-102.6s3.6-0.1,5.5,0c0,0,0,0.1,0,0.1
				c0,0,0,102.5,0,102.5c0,4,1.1,4.6,7.8,4.6v0h12.2H437v0c6.8,0,7.8-0.6,7.8-4.6c0,0,0-102.5,0-102.5c0,0,0-0.1,0-0.1
				c1.8-0.1,5.5,0,5.5,0S450.3-506.8,450.3-482.1z"/>
		</g>
		<g id="XMLID_249_">
			<path id="XMLID_254_" class="st1" d="M210.3-514v-89.9H254v107h7.5v-107h43.8v89.9c0,4.8,2.7,9.7,7.7,9.7h12.2
				c4,0,8.3-2.3,8.3-7.3c0-1.7,0-50.5,0-92.2h15v-7.5h-15c0-41.7,0-90.5,0-92.2c0-5-4.3-7.3-8.3-7.3H313c-5.1,0-7.7,4.9-7.7,9.7
				v89.9h-43.8v-107.1H254v107.1h-43.8v-89.9c0-4.8-2.7-9.7-7.7-9.7h-12.2c-4,0-8.3,2.3-8.3,7.3c0,1.7,0,50.6,0,92.2h-15v7.5h15
				c0,41.7,0,90.5,0,92.2c0,5,4.3,7.3,8.3,7.3h12.2C207.6-504.4,210.3-509.2,210.3-514z M313.8-699.9c0.5,0,6.1,0,7,0v184.5
				c-0.9,0-6.5,0-7,0C313.8-515.4,313.8-699.9,313.8-699.9z M194.8-515.4v-184.5c0.9,0,6.5,0,7,0c0,0,0,184.5,0,184.5
				C201.3-515.4,195.7-515.4,194.8-515.4z"/>
			<path id="XMLID_253_" class="st1" d="M283.3-482.1c0,2.1,0.1,4.6,6.3,4.6h15.5v-11.8h-7.5c0-46.6,0-97.8,0-99.8
				c0-5-4.3-7.3-8.3-7.3H277c-5.1,0-7.7,4.9-7.7,9.7v97.4h-11.5h-11.5v-97.4c0-4.8-2.7-9.7-7.7-9.7h-12.2c-4,0-8.3,2.3-8.3,7.3
				c0,1.9,0,53.2,0,99.8h-7.5v11.8H226c6.2,0,6.3-2.5,6.3-4.6c0-24.7,0-102.6,0-102.6s3.6-0.1,5.5,0c0,0,0,0.1,0,0.1
				c0,0,0,102.5,0,102.5c0,4,1.1,4.6,7.8,4.6v0h12.2H270v0c6.8,0,7.8-0.6,7.8-4.6c0,0,0-102.5,0-102.5c0,0,0-0.1,0-0.1
				c1.8-0.1,5.5,0,5.5,0S283.3-506.8,283.3-482.1z"/>
		</g>
		<g id="XMLID_232_">
			<path id="XMLID_234_" class="st1" d="M43.3-514v-89.9H87v107h7.5v-107h43.8v89.9c0,4.8,2.7,9.7,7.7,9.7h12.2c4,0,8.3-2.3,8.3-7.3
				c0-1.7,0-50.5,0-92.2h15v-7.5h-15c0-41.7,0-90.5,0-92.2c0-5-4.3-7.3-8.3-7.3H146c-5.1,0-7.7,4.9-7.7,9.7v89.9H94.5v-107.1H87
				v107.1H43.3v-89.9c0-4.8-2.7-9.7-7.7-9.7H23.3c-4,0-8.3,2.3-8.3,7.3c0,1.7,0,50.6,0,92.2H0l0,7.5h15c0,41.7,0,90.5,0,92.2
				c0,5,4.3,7.3,8.3,7.3h12.2C40.6-504.4,43.3-509.2,43.3-514z M146.8-699.9c0.5,0,6.1,0,7,0v184.5c-0.9,0-6.5,0-7,0
				C146.8-515.4,146.8-699.9,146.8-699.9z M27.8-515.4v-184.5c0.9,0,6.5,0,7,0c0,0,0,184.5,0,184.5
				C34.3-515.4,28.7-515.4,27.8-515.4z"/>
		</g>
	</g>
</pattern>
<pattern  id="XMLID_2_" xlink:href="#New_Pattern_10" patternTransform="matrix(0.2841 0 0 0.4289 -5138.0977 -5016.4048)">
</pattern>
<rect id="XMLID_732_" x="-221.5" y="76" class="st2" width="1050" height="1050"/>
</svg>
