<?xml version="1.0" encoding="utf-8"?>
<!-- Generator: Adobe Illustrator 19.0.0, SVG Export Plug-In . SVG Version: 6.00 Build 0)  -->
<svg version="1.1" id="lm-pattern" xmlns="http://www.w3.org/2000/svg" xmlns:xlink="http://www.w3.org/1999/xlink" x="0px" y="0px"
	 viewBox="-221.5 76 1050 1050" style="enable-background:new -221.5 76 1050 1050;" xml:space="preserve">
<style type="text/css">
	.st0{fill:none;}
	.st1{fill:#EE425C;}
	.st2{fill:url(#XMLID_2_);}
</style>
<pattern  x="-208" y="1126" width="179.8" height="202.3" patternUnits="userSpaceOnUse" id="lm-pattern-lakon-red" viewBox="57.1 -299.5 179.8 202.3" style="overflow:visible;">
	<g id="lm-pattern-red-lakon">
		<polygon id="XMLID_3208_" class="st0" points="57.1,-299.5 236.9,-299.5 236.9,-97.2 57.1,-97.2 		"/>
		<g id="XMLID_3199_">
			<path id="XMLID_3207_" class="st1" d="M278.9-13.2c0,0,0-87.9,0-92.5c0-6.1-5.2-8.9-10-8.9h-14.8c-6.1,0-9.3,5.9-9.3,11.7l0,89.6
				h-15.8c0,0,0-87.9,0-92.5c0-6.1-5.2-8.9-10-8.9h-14.8c-6.1,0-9.3,5.9-9.3,11.7l0,89.6c-1.9,0-12.1,0-15,0V0c3.1,0,16.7,0,18.5,0
				c5.6,0,6.6-0.4,6.7-4.6c0-0.1,0-96.7,0-96.7c0.6,0,7.3,0,8.4,0c0,0,0.1,90.1,0.1,96.7c0,0-0.4,4.6,8.1,4.6c6.5,0,21.4,0,23.2,0
				c7.1,0,10.1-0.4,10.3-4.6c0-0.1,0-96.7,0-96.7c0.6,0,7.3,0,8.4,0c0,0,0.1,90.1,0.1,96.7c0,0-0.4,4.6,8.1,4.6c6.5,0,22.4,0,22.4,0
				c0-5.1,0-13.2,0-13.2H278.9z"/>
			<path id="XMLID_3203_" class="st1" d="M237-194.3c-13.9,0-25.2,9.1-25.2,20.4s11.3,20.4,25.2,20.4c13.9,0,25.2-9.2,25.2-20.4
				S250.9-194.3,237-194.3z M237-161.8c-6,0-10.8-3.9-10.8-8.7c0-4.8,4.8-8.7,10.8-8.7c6,0,10.8,3.9,10.8,8.7
				C247.8-165.7,243-161.8,237-161.8z"/>
			<path id="XMLID_3200_" class="st1" d="M210.7-142.9c-6.9,0-12.6,4.6-12.6,10.2s5.7,10.2,12.6,10.2c7,0,12.6-4.6,12.6-10.2
				S217.7-142.9,210.7-142.9z M210.7-126.7c-3,0-5.4-2-5.4-4.4c0-2.4,2.4-4.4,5.4-4.4c3,0,5.4,2,5.4,4.4
				C216.1-128.6,213.7-126.7,210.7-126.7z"/>
		</g>
		<g id="XMLID_3190_">
			<path id="XMLID_3198_" class="st1" d="M99.2-13.2c0,0,0-87.9,0-92.5c0-6.1-5.2-8.9-10-8.9H74.3c-6.1,0-9.3,5.9-9.3,11.7l0,89.6
				H49.2c0,0,0-87.9,0-92.5c0-6.1-5.2-8.9-10-8.9H24.3c-6.1,0-9.3,5.9-9.3,11.7l0,89.6c-1.9,0-12.1,0-15,0V0c3.1,0,16.7,0,18.5,0
				c5.6,0,6.6-0.4,6.7-4.6c0-0.1,0-96.7,0-96.7c0.6,0,7.3,0,8.4,0c0,0,0.1,90.1,0.1,96.7c0,0-0.4,4.6,8.1,4.6C48.3,0,63.2,0,65,0
				c7.1,0,10.1-0.4,10.3-4.6c0-0.1,0-96.7,0-96.7c0.6,0,7.3,0,8.4,0c0,0,0.1,90.1,0.1,96.7c0,0-0.4,4.6,8.1,4.6c6.5,0,22.4,0,22.4,0
				c0-5.1,0-13.2,0-13.2H99.2z"/>
			<path id="XMLID_3195_" class="st1" d="M57.2-194.3c-13.9,0-25.2,9.1-25.2,20.4s11.3,20.4,25.2,20.4c13.9,0,25.2-9.2,25.2-20.4
				S71.2-194.3,57.2-194.3z M57.2-161.8c-6,0-10.8-3.9-10.8-8.7c0-4.8,4.8-8.7,10.8-8.7c6,0,10.8,3.9,10.8,8.7
				C68-165.7,63.2-161.8,57.2-161.8z"/>
			<path id="XMLID_3191_" class="st1" d="M81-142.9c-6.9,0-12.6,4.6-12.6,10.2S74-122.5,81-122.5c7,0,12.6-4.6,12.6-10.2
				S87.9-142.9,81-142.9z M81-126.7c-3,0-5.4-2-5.4-4.4c0-2.4,2.4-4.4,5.4-4.4c3,0,5.4,2,5.4,4.4C86.4-128.6,83.9-126.7,81-126.7z"
				/>
		</g>
		<g id="XMLID_3188_">
			<path id="XMLID_3189_" class="st1" d="M278.9-215.6c0,0,0-87.9,0-92.5c0-6.1-5.2-8.9-10-8.9h-14.8c-6.1,0-9.3,5.9-9.3,11.7
				l0,89.6h-15.8c0,0,0-87.9,0-92.5c0-6.1-5.2-8.9-10-8.9h-14.8c-6.1,0-9.3,5.9-9.3,11.7l0,89.6c-1.9,0-12.1,0-15,0v13.3
				c3.1,0,16.7,0,18.5,0c5.6,0,6.6-0.4,6.7-4.6c0-0.1,0-96.7,0-96.7c0.6,0,7.3,0,8.4,0c0,0,0.1,90.1,0.1,96.7c0,0-0.4,4.6,8.1,4.6
				c6.5,0,21.4,0,23.2,0c7.1,0,10.1-0.4,10.3-4.6c0-0.1,0-96.7,0-96.7c0.6,0,7.3,0,8.4,0c0,0,0.1,90.1,0.1,96.7c0,0-0.4,4.6,8.1,4.6
				c6.5,0,22.4,0,22.4,0c0-5.1,0-13.2,0-13.2H278.9z"/>
		</g>
		<g id="XMLID_3160_">
			<path id="XMLID_3187_" class="st1" d="M189.1-114.4c0,0,0-87.9,0-92.5c0-6.1-5.2-8.9-10-8.9h-14.8c-6.1,0-9.3,5.9-9.3,11.7
				l0,89.6h-15.8c0,0,0-87.9,0-92.5c0-6.1-5.2-8.9-10-8.9h-14.8c-6.1,0-9.3,5.9-9.3,11.7l0,89.6c-1.9,0-12.1,0-15,0v13.3
				c3.1,0,16.7,0,18.5,0c5.6,0,6.6-0.4,6.7-4.6c0-0.1,0-96.7,0-96.7c0.6,0,7.3,0,8.4,0c0,0,0.1,90.1,0.1,96.7c0,0-0.4,4.6,8.1,4.6
				c6.5,0,21.4,0,23.2,0c7.1,0,10.1-0.4,10.3-4.6c0-0.1,0-96.7,0-96.7c0.6,0,7.3,0,8.4,0c0,0,0.1,90.1,0.1,96.7c0,0-0.4,4.6,8.1,4.6
				c6.5,0,22.4,0,22.4,0c0-5.1,0-13.2,0-13.2H189.1z"/>
			<path id="XMLID_3184_" class="st1" d="M147.1-295.5c-13.9,0-25.2,9.1-25.2,20.4s11.3,20.4,25.2,20.4c13.9,0,25.2-9.2,25.2-20.4
				S161-295.5,147.1-295.5z M147.1-263c-6,0-10.8-3.9-10.8-8.7c0-4.8,4.8-8.7,10.8-8.7c6,0,10.8,3.9,10.8,8.7
				C157.9-266.9,153.1-263,147.1-263z"/>
			<path id="XMLID_3167_" class="st1" d="M170.9-244.1c-6.9,0-12.6,4.6-12.6,10.2s5.7,10.2,12.6,10.2c7,0,12.6-4.6,12.6-10.2
				S177.8-244.1,170.9-244.1z M170.9-227.8c-3,0-5.4-2-5.4-4.4c0-2.4,2.4-4.4,5.4-4.4c3,0,5.4,2,5.4,4.4
				C176.3-229.8,173.8-227.8,170.9-227.8z"/>
			<path id="XMLID_3163_" class="st1" d="M120.8-244.1c-6.9,0-12.6,4.6-12.6,10.2s5.7,10.2,12.6,10.2c7,0,12.6-4.6,12.6-10.2
				S127.8-244.1,120.8-244.1z M120.8-227.8c-3,0-5.4-2-5.4-4.4c0-2.4,2.4-4.4,5.4-4.4c3,0,5.4,2,5.4,4.4
				C126.2-229.8,123.8-227.8,120.8-227.8z"/>
		</g>
		<g id="XMLID_3138_">
			<path id="XMLID_3140_" class="st1" d="M99.2-215.6c0,0,0-87.9,0-92.5c0-6.1-5.2-8.9-10-8.9H74.3c-6.1,0-9.3,5.9-9.3,11.7l0,89.6
				H49.2c0,0,0-87.9,0-92.5c0-6.1-5.2-8.9-10-8.9H24.3c-6.1,0-9.3,5.9-9.3,11.7l0,89.6c-1.9,0-12.1,0-15,0v13.3c3.1,0,16.7,0,18.5,0
				c5.6,0,6.6-0.4,6.7-4.6c0-0.1,0-96.7,0-96.7c0.6,0,7.3,0,8.4,0c0,0,0.1,90.1,0.1,96.7c0,0-0.4,4.6,8.1,4.6c6.5,0,21.4,0,23.2,0
				c7.1,0,10.1-0.4,10.3-4.6c0-0.1,0-96.7,0-96.7c0.6,0,7.3,0,8.4,0c0,0,0.1,90.1,0.1,96.7c0,0-0.4,4.6,8.1,4.6c6.5,0,22.4,0,22.4,0
				c0-5.1,0-13.2,0-13.2H99.2z"/>
		</g>
	</g>
</pattern>
<pattern  id="XMLID_2_" xlink:href="#lm-pattern-lakon-red" patternTransform="matrix(0.2841 0 0 0.4289 -5511.6372 -5074.2725)">
</pattern>
<rect id="XMLID_136_" x="-221.5" y="76" class="st2" width="1050" height="1050"/>
</svg>
