<?xml version="1.0" encoding="utf-8"?>
<!-- Generator: Adobe Illustrator 19.0.0, SVG Export Plug-In . SVG Version: 6.00 Build 0)  -->
<svg version="1.1" id="lm-pattern" xmlns="http://www.w3.org/2000/svg" xmlns:xlink="http://www.w3.org/1999/xlink" x="0px" y="0px"
	 viewBox="-221.5 76 1050 1050" style="enable-background:new -221.5 76 1050 1050;" xml:space="preserve">
<style type="text/css">
	.st0{fill:none;}
	.st1{fill:#EE425B;}
	.st2{fill:url(#XMLID_2_);}
</style>
<pattern  x="-208" y="1126" width="180.5" height="202.6" patternUnits="userSpaceOnUse" id="New_Pattern_5" viewBox="57.1 -259.9 180.5 202.6" style="overflow:visible;">
	<g id="lm-pattern-red-lakon-bait">
		<polygon id="XMLID_3386_" class="st0" points="57.1,-259.9 237.6,-259.9 237.6,-57.3 57.1,-57.3 		"/>
		<path id="XMLID_3385_" class="st1" d="M279.7-13.2c0,0,0-87.9,0-92.5c0-6.1-5.2-8.9-10-8.9h-14.8c-6.1,0-9.3,5.9-9.3,11.7l0,89.6
			h-15.8c0,0,0-87.9,0-92.5c0-6.1-5.2-8.9-10-8.9h-14.8c-6.1,0-9.3,5.9-9.3,11.7l0,89.6c-1.9,0-12.1,0-15,0V0c3.1,0,16.7,0,18.5,0
			c5.6,0,6.6-0.4,6.7-4.6c0-0.1,0-96.7,0-96.7c0.6,0,7.3,0,8.4,0c0,0,0.1,90.1,0.1,96.7c0,0-0.4,4.6,8.1,4.6c6.5,0,21.4,0,23.2,0
			c7.1,0,10.1-0.4,10.3-4.6c0-0.1,0-96.7,0-96.7c0.6,0,7.3,0,8.4,0c0,0,0.1,90.1,0.1,96.7c0,0-0.4,4.6,8.1,4.6c6.5,0,22.4,0,22.4,0
			c0-5.1,0-13.2,0-13.2H279.7z"/>
		<path id="XMLID_3384_" class="st1" d="M99.2-13.2c0,0,0-87.9,0-92.5c0-6.1-5.2-8.9-10-8.9H74.3c-6.1,0-9.3,5.9-9.3,11.7l0,89.6
			H49.2c0,0,0-87.9,0-92.5c0-6.1-5.2-8.9-10-8.9H24.3c-6.1,0-9.3,5.9-9.3,11.7l0,89.6c-1.9,0-12.1,0-15,0V0c3.1,0,16.7,0,18.5,0
			c5.6,0,6.6-0.4,6.7-4.6c0-0.1,0-96.7,0-96.7c0.6,0,7.3,0,8.4,0c0,0,0.1,90.1,0.1,96.7c0,0-0.4,4.6,8.1,4.6C48.3,0,63.2,0,65,0
			c7.1,0,10.1-0.4,10.3-4.6c0-0.1,0-96.7,0-96.7c0.6,0,7.3,0,8.4,0c0,0,0.1,90.1,0.1,96.7c0,0-0.4,4.6,8.1,4.6c6.5,0,22.4,0,22.4,0
			c0-5.1,0-13.2,0-13.2H99.2z"/>
		<path id="XMLID_3383_" class="st1" d="M279.7-215.8c0,0,0-87.9,0-92.5c0-6.1-5.2-8.9-10-8.9h-14.8c-6.1,0-9.3,5.9-9.3,11.7l0,89.6
			h-15.8c0,0,0-87.9,0-92.5c0-6.1-5.2-8.9-10-8.9h-14.8c-6.1,0-9.3,5.9-9.3,11.7l0,89.6c-1.9,0-12.1,0-15,0v13.3
			c3.1,0,16.7,0,18.5,0c5.6,0,6.6-0.4,6.7-4.6c0-0.1,0-96.7,0-96.7c0.6,0,7.3,0,8.4,0c0,0,0.1,90.1,0.1,96.7c0,0-0.4,4.6,8.1,4.6
			c6.5,0,21.4,0,23.2,0c7.1,0,10.1-0.4,10.3-4.6c0-0.1,0-96.7,0-96.7c0.6,0,7.3,0,8.4,0c0,0,0.1,90.1,0.1,96.7c0,0-0.4,4.6,8.1,4.6
			c6.5,0,22.4,0,22.4,0c0-5.1,0-13.2,0-13.2H279.7z"/>
		<path id="XMLID_3382_" class="st1" d="M189.4-114.5c0,0,0-87.9,0-92.5c0-6.1-5.2-8.9-10-8.9h-14.8c-6.1,0-9.3,5.9-9.3,11.7l0,89.6
			h-15.8c0,0,0-87.9,0-92.5c0-6.1-5.2-8.9-10-8.9h-14.8c-6.1,0-9.3,5.9-9.3,11.7l0,89.6c-1.9,0-12.1,0-15,0v13.3
			c3.1,0,16.7,0,18.5,0c5.6,0,6.6-0.4,6.7-4.6c0-0.1,0-96.7,0-96.7c0.6,0,7.3,0,8.4,0c0,0,0.1,90.1,0.1,96.7c0,0-0.4,4.6,8.1,4.6
			c6.5,0,21.4,0,23.2,0c7.1,0,10.1-0.4,10.3-4.6c0-0.1,0-96.7,0-96.7c0.6,0,7.3,0,8.4,0c0,0,0.1,90.1,0.1,96.7c0,0-0.4,4.6,8.1,4.6
			c6.5,0,22.4,0,22.4,0c0-5.1,0-13.2,0-13.2H189.4z"/>
		<path id="XMLID_3381_" class="st1" d="M99.2-215.8c0,0,0-87.9,0-92.5c0-6.1-5.2-8.9-10-8.9H74.3c-6.1,0-9.3,5.9-9.3,11.7l0,89.6
			H49.2c0,0,0-87.9,0-92.5c0-6.1-5.2-8.9-10-8.9H24.3c-6.1,0-9.3,5.9-9.3,11.7l0,89.6c-1.9,0-12.1,0-15,0v13.3c3.1,0,16.7,0,18.5,0
			c5.6,0,6.6-0.4,6.7-4.6c0-0.1,0-96.7,0-96.7c0.6,0,7.3,0,8.4,0c0,0,0.1,90.1,0.1,96.7c0,0-0.4,4.6,8.1,4.6c6.5,0,21.4,0,23.2,0
			c7.1,0,10.1-0.4,10.3-4.6c0-0.1,0-96.7,0-96.7c0.6,0,7.3,0,8.4,0c0,0,0.1,90.1,0.1,96.7c0,0-0.4,4.6,8.1,4.6c6.5,0,22.4,0,22.4,0
			c0-5.1,0-13.2,0-13.2H99.2z"/>
	</g>
</pattern>
<pattern  id="XMLID_2_" xlink:href="#New_Pattern_5" patternTransform="matrix(0.2841 0 0 0.4289 -5477.9048 -5090.6772)">
</pattern>
<rect id="XMLID_597_" x="-221.5" y="76" class="st2" width="1050" height="1050"/>
</svg>
