<?xml version="1.0" encoding="utf-8"?>
<!-- Generator: Adobe Illustrator 19.0.0, SVG Export Plug-In . SVG Version: 6.00 Build 0)  -->
<svg version="1.1" id="lm-pattern" xmlns="http://www.w3.org/2000/svg" xmlns:xlink="http://www.w3.org/1999/xlink" x="0px" y="0px"
	 viewBox="-221.5 76 1050 1050" style="enable-background:new -221.5 76 1050 1050;" xml:space="preserve">
<style type="text/css">
	.st0{fill:none;}
	.st1{fill:#EE425B;}
	.st2{fill:url(#XMLID_36_);}
</style>
<pattern  x="-208" y="1126" width="253.1" height="253.7" patternUnits="userSpaceOnUse" id="New_Pattern_9" viewBox="259.1 -323 253.1 253.7" style="overflow:visible;">
	<g id="XMLID_90_">
		<polygon id="lm-pattern-red-pamulangane" class="st0" points="259.1,-323 512.2,-323 512.2,-69.3 259.1,-69.3 		"/>
		<g id="XMLID_265_">
			<path id="XMLID_266_" class="st1" d="M771.3-11.8c0-2.3,0-51.4,0-51.4c0-6.2-2.5-6.3-4.6-6.3c-24.7,0-102.6,0-102.6,0
				s-0.1-3.6,0-5.5c0,0,0.1,0,0.1,0c0,0,102.5,0,102.5,0c4,0,4.6-1.1,4.6-7.8h0c0,0,0-37.1,0-44.1c0-7-0.1-11.8-11.8-11.8
				c-7.6,0-233.8,0-241.4,0c-11.7,0-11.8,4.8-11.8,11.8c0,7,0,44.1,0,44.1h0c0,6.8,0.6,7.8,4.6,7.8c0,0,102.5,0,102.5,0
				c0,0,0.1,0,0.1,0c0.1,1.8,0,5.5,0,5.5s-77.9,0-102.6,0c-2.1,0-4.6,0.1-4.6,6.3c0,0,0,49.1,0,51.4S505.1,0,517.4,0
				c1.7,0,241,0,242.7,0C772.5,0,771.3-9.5,771.3-11.8z M759.5-11.8H518.1v-43.3c46.6,0,97.8,0,99.8,0c5,0,7.3-4.3,7.3-8.3v-12.2
				c0-5.1-4.9-7.7-9.7-7.7h-97.4v-43.4h241.4v43.4h-97.4c-4.8,0-9.7,2.7-9.7,7.7v12.2c0,4,2.3,8.3,7.3,8.3c1.9,0,53.2,0,99.8,0
				V-11.8z"/>
		</g>
		<g id="XMLID_241_">
			<path id="XMLID_252_" class="st1" d="M518.1-11.8c0-2.3,0-51.4,0-51.4c0-6.2-2.5-6.3-4.6-6.3c-24.7,0-102.6,0-102.6,0
				s-0.1-3.6,0-5.5c0,0,0.1,0,0.1,0c0,0,102.5,0,102.5,0c4,0,4.6-1.1,4.6-7.8h0c0,0,0-37.1,0-44.1c0-7-0.1-11.8-11.8-11.8
				c-7.6,0-233.8,0-241.4,0c-11.7,0-11.8,4.8-11.8,11.8c0,7,0,44.1,0,44.1h0c0,6.8,0.6,7.8,4.6,7.8c0,0,102.5,0,102.5,0
				c0,0,0.1,0,0.1,0c0.1,1.8,0,5.5,0,5.5s-77.9,0-102.6,0c-2.1,0-4.6,0.1-4.6,6.3c0,0,0,49.1,0,51.4S251.9,0,264.3,0
				c1.7,0,241,0,242.7,0C519.4,0,518.1-9.5,518.1-11.8z M506.3-11.8H265v-43.3c46.6,0,97.8,0,99.8,0c5,0,7.3-4.3,7.3-8.3v-12.2
				c0-5.1-4.9-7.7-9.7-7.7H265v-43.4h241.4v43.4h-97.4c-4.8,0-9.7,2.7-9.7,7.7v12.2c0,4,2.3,8.3,7.3,8.3c1.9,0,53.2,0,99.8,0V-11.8z
				"/>
			<path id="XMLID_242_" class="st1" d="M280-119.2c-5,0-7.3,4.3-7.3,8.3v12.2c0,5.1,4.9,7.7,9.7,7.7h97.4v43.4
				c-46.6,0-97.8,0-99.8,0c-5,0-7.3,4.3-7.3,8.3V-27c0,5.1,4.9,7.7,9.7,7.7H489c4.8,0,9.7-2.7,9.7-7.7v-12.2c0-4-2.3-8.3-7.3-8.3
				c-1.9,0-53.2,0-99.8,0v-43.4H489c4.8,0,9.7-2.7,9.7-7.7v-12.2c0-4-2.3-8.3-7.3-8.3C489.4-119.2,281.9-119.2,280-119.2z M487-33.2
				c0,0,0.1,3.6,0,5.5c0,0-0.1,0-0.1,0c0,0-89.6,0-101.3,0c-11.7,0-101.2,0-101.3,0c0,0-0.1,0-0.1,0c-0.1-1.8,0-5.5,0-5.5
				s75.4,0,101.4,0C411.6-33.2,487-33.2,487-33.2z M487-104.9c0,0,0.1,3.6,0,5.5c0,0-0.1,0-0.1,0c0,0-89.6,0-101.3,0
				c-11.7,0-101.2,0-101.3,0c0,0-0.1,0-0.1,0c-0.1-1.8,0-5.5,0-5.5s75.4,0,101.4,0C411.6-104.9,487-104.9,487-104.9z"/>
		</g>
		<g id="XMLID_221_">
			<path id="XMLID_222_" class="st1" d="M265-11.8c0-2.3,0-51.4,0-51.4c0-6.2-2.5-6.3-4.6-6.3c-24.7,0-102.6,0-102.6,0
				s-0.1-3.6,0-5.5c0,0,0.1,0,0.1,0c0,0,102.5,0,102.5,0c4,0,4.6-1.1,4.6-7.8h0c0,0,0-37.1,0-44.1c0-7-0.1-11.8-11.8-11.8
				c-7.6,0-233.8,0-241.4,0C0.1-138.6,0-133.8,0-126.8c0,7,0,44.1,0,44.1h0c0,6.8,0.6,7.8,4.6,7.8c0,0,102.5,0,102.5,0
				c0,0,0.1,0,0.1,0c0.1,1.8,0,5.5,0,5.5s-77.9,0-102.6,0c-2.1,0-4.6,0.1-4.6,6.3c0,0,0,49.1,0,51.4S-1.2,0,11.1,0
				c1.7,0,241,0,242.7,0C266.2,0,265-9.5,265-11.8z M253.2-11.8H11.8v-43.3c46.6,0,97.8,0,99.8,0c5,0,7.3-4.3,7.3-8.3v-12.2
				c0-5.1-4.9-7.7-9.7-7.7H11.8v-43.4h241.4v43.4h-97.4c-4.8,0-9.7,2.7-9.7,7.7v12.2c0,4,2.3,8.3,7.3,8.3c1.9,0,53.2,0,99.8,0V-11.8
				z"/>
		</g>
		<g id="XMLID_216_">
			<path id="XMLID_217_" class="st1" d="M771.3-138.6c0-2.3,0-51.4,0-51.4c0-6.2-2.5-6.3-4.6-6.3c-24.7,0-102.6,0-102.6,0
				s-0.1-3.6,0-5.5c0,0,0.1,0,0.1,0c0,0,102.5,0,102.5,0c4,0,4.6-1.1,4.6-7.8h0c0,0,0-37.1,0-44.1c0-7-0.1-11.8-11.8-11.8
				c-7.6,0-233.8,0-241.4,0c-11.7,0-11.8,4.8-11.8,11.8c0,7,0,44.1,0,44.1h0c0,6.8,0.6,7.8,4.6,7.8c0,0,102.5,0,102.5,0
				c0,0,0.1,0,0.1,0c0.1,1.8,0,5.5,0,5.5s-77.9,0-102.6,0c-2.1,0-4.6,0.1-4.6,6.3c0,0,0,49.1,0,51.4s-1.3,11.8,11.1,11.8
				c1.7,0,241,0,242.7,0C772.5-126.8,771.3-136.3,771.3-138.6z M759.5-138.6H518.1V-182c46.6,0,97.8,0,99.8,0c5,0,7.3-4.3,7.3-8.3
				v-12.2c0-5.1-4.9-7.7-9.7-7.7h-97.4v-43.4h241.4v43.4h-97.4c-4.8,0-9.7,2.7-9.7,7.7v12.2c0,4,2.3,8.3,7.3,8.3
				c1.9,0,53.2,0,99.8,0V-138.6z"/>
		</g>
		<g id="XMLID_33_">
			<path id="XMLID_195_" class="st1" d="M518.1-138.6c0-2.3,0-51.4,0-51.4c0-6.2-2.5-6.3-4.6-6.3c-24.7,0-102.6,0-102.6,0
				s-0.1-3.6,0-5.5c0,0,0.1,0,0.1,0c0,0,102.5,0,102.5,0c4,0,4.6-1.1,4.6-7.8h0c0,0,0-37.1,0-44.1c0-7-0.1-11.8-11.8-11.8
				c-7.6,0-233.8,0-241.4,0c-11.7,0-11.8,4.8-11.8,11.8c0,7,0,44.1,0,44.1h0c0,6.8,0.6,7.8,4.6,7.8c0,0,102.5,0,102.5,0
				c0,0,0.1,0,0.1,0c0.1,1.8,0,5.5,0,5.5s-77.9,0-102.6,0c-2.1,0-4.6,0.1-4.6,6.3c0,0,0,49.1,0,51.4s-1.3,11.8,11.1,11.8
				c1.7,0,241,0,242.7,0C519.4-126.8,518.1-136.3,518.1-138.6z M506.3-138.6H265V-182c46.6,0,97.8,0,99.8,0c5,0,7.3-4.3,7.3-8.3
				v-12.2c0-5.1-4.9-7.7-9.7-7.7H265v-43.4h241.4v43.4h-97.4c-4.8,0-9.7,2.7-9.7,7.7v12.2c0,4,2.3,8.3,7.3,8.3c1.9,0,53.2,0,99.8,0
				V-138.6z"/>
			<path id="XMLID_34_" class="st1" d="M280-246c-5,0-7.3,4.3-7.3,8.3v12.2c0,5.1,4.9,7.7,9.7,7.7h97.4v43.4c-46.6,0-97.8,0-99.8,0
				c-5,0-7.3,4.3-7.3,8.3v12.2c0,5.1,4.9,7.7,9.7,7.7H489c4.8,0,9.7-2.7,9.7-7.7v-12.2c0-4-2.3-8.3-7.3-8.3c-1.9,0-53.2,0-99.8,0
				v-43.4H489c4.8,0,9.7-2.7,9.7-7.7v-12.2c0-4-2.3-8.3-7.3-8.3C489.4-246,281.9-246,280-246z M487-160.1c0,0,0.1,3.6,0,5.5
				c0,0-0.1,0-0.1,0c0,0-89.6,0-101.3,0c-11.7,0-101.2,0-101.3,0c0,0-0.1,0-0.1,0c-0.1-1.8,0-5.5,0-5.5s75.4,0,101.4,0
				C411.6-160.1,487-160.1,487-160.1z M487-231.7c0,0,0.1,3.6,0,5.5c0,0-0.1,0-0.1,0c0,0-89.6,0-101.3,0c-11.7,0-101.2,0-101.3,0
				c0,0-0.1,0-0.1,0c-0.1-1.8,0-5.5,0-5.5s75.4,0,101.4,0C411.6-231.7,487-231.7,487-231.7z"/>
		</g>
		<g id="XMLID_29_">
			<path id="XMLID_30_" class="st1" d="M265-138.6c0-2.3,0-51.4,0-51.4c0-6.2-2.5-6.3-4.6-6.3c-24.7,0-102.6,0-102.6,0
				s-0.1-3.6,0-5.5c0,0,0.1,0,0.1,0c0,0,102.5,0,102.5,0c4,0,4.6-1.1,4.6-7.8h0c0,0,0-37.1,0-44.1c0-7-0.1-11.8-11.8-11.8
				c-7.6,0-233.8,0-241.4,0C0.1-265.5,0-260.7,0-253.7c0,7,0,44.1,0,44.1h0c0,6.8,0.6,7.8,4.6,7.8c0,0,102.5,0,102.5,0
				c0,0,0.1,0,0.1,0c0.1,1.8,0,5.5,0,5.5s-77.9,0-102.6,0c-2.1,0-4.6,0.1-4.6,6.3c0,0,0,49.1,0,51.4s-1.3,11.8,11.1,11.8
				c1.7,0,241,0,242.7,0C266.2-126.8,265-136.3,265-138.6z M253.2-138.6H11.8V-182c46.6,0,97.8,0,99.8,0c5,0,7.3-4.3,7.3-8.3v-12.2
				c0-5.1-4.9-7.7-9.7-7.7H11.8v-43.4h241.4v43.4h-97.4c-4.8,0-9.7,2.7-9.7,7.7v12.2c0,4,2.3,8.3,7.3,8.3c1.9,0,53.2,0,99.8,0
				V-138.6z"/>
		</g>
		<g id="XMLID_113_">
			<path id="XMLID_149_" class="st1" d="M771.3-265.5c0-2.3,0-51.4,0-51.4c0-6.2-2.5-6.3-4.6-6.3c-24.7,0-102.6,0-102.6,0
				s-0.1-3.6,0-5.5c0,0,0.1,0,0.1,0c0,0,102.5,0,102.5,0c4,0,4.6-1.1,4.6-7.8h0c0,0,0-37.1,0-44.1c0-7-0.1-11.8-11.8-11.8
				c-7.6,0-233.8,0-241.4,0c-11.7,0-11.8,4.8-11.8,11.8c0,7,0,44.1,0,44.1h0c0,6.8,0.6,7.8,4.6,7.8c0,0,102.5,0,102.5,0
				c0,0,0.1,0,0.1,0c0.1,1.8,0,5.5,0,5.5s-77.9,0-102.6,0c-2.1,0-4.6,0.1-4.6,6.3c0,0,0,49.1,0,51.4s-1.3,11.8,11.1,11.8
				c1.7,0,241,0,242.7,0C772.5-253.7,771.3-263.2,771.3-265.5z M759.5-265.5H518.1v-43.3c46.6,0,97.8,0,99.8,0c5,0,7.3-4.3,7.3-8.3
				v-12.2c0-5.1-4.9-7.7-9.7-7.7h-97.4v-43.4h241.4v43.4h-97.4c-4.8,0-9.7,2.7-9.7,7.7v12.2c0,4,2.3,8.3,7.3,8.3
				c1.9,0,53.2,0,99.8,0V-265.5z"/>
		</g>
		<g id="XMLID_98_">
			<path id="XMLID_109_" class="st1" d="M518.1-265.5c0-2.3,0-51.4,0-51.4c0-6.2-2.5-6.3-4.6-6.3c-24.7,0-102.6,0-102.6,0
				s-0.1-3.6,0-5.5c0,0,0.1,0,0.1,0c0,0,102.5,0,102.5,0c4,0,4.6-1.1,4.6-7.8h0c0,0,0-37.1,0-44.1c0-7-0.1-11.8-11.8-11.8
				c-7.6,0-233.8,0-241.4,0c-11.7,0-11.8,4.8-11.8,11.8c0,7,0,44.1,0,44.1h0c0,6.8,0.6,7.8,4.6,7.8c0,0,102.5,0,102.5,0
				c0,0,0.1,0,0.1,0c0.1,1.8,0,5.5,0,5.5s-77.9,0-102.6,0c-2.1,0-4.6,0.1-4.6,6.3c0,0,0,49.1,0,51.4s-1.3,11.8,11.1,11.8
				c1.7,0,241,0,242.7,0C519.4-253.7,518.1-263.2,518.1-265.5z M506.3-265.5H265v-43.3c46.6,0,97.8,0,99.8,0c5,0,7.3-4.3,7.3-8.3
				v-12.2c0-5.1-4.9-7.7-9.7-7.7H265v-43.4h241.4v43.4h-97.4c-4.8,0-9.7,2.7-9.7,7.7v12.2c0,4,2.3,8.3,7.3,8.3c1.9,0,53.2,0,99.8,0
				V-265.5z"/>
			<path id="XMLID_99_" class="st1" d="M280-372.9c-5,0-7.3,4.3-7.3,8.3v12.2c0,5.1,4.9,7.7,9.7,7.7h97.4v43.4
				c-46.6,0-97.8,0-99.8,0c-5,0-7.3,4.3-7.3,8.3v12.2c0,5.1,4.9,7.7,9.7,7.7H489c4.8,0,9.7-2.7,9.7-7.7v-12.2c0-4-2.3-8.3-7.3-8.3
				c-1.9,0-53.2,0-99.8,0v-43.4H489c4.8,0,9.7-2.7,9.7-7.7v-12.2c0-4-2.3-8.3-7.3-8.3C489.4-372.9,281.9-372.9,280-372.9z
				 M487-286.9c0,0,0.1,3.6,0,5.5c0,0-0.1,0-0.1,0c0,0-89.6,0-101.3,0c-11.7,0-101.2,0-101.3,0c0,0-0.1,0-0.1,0
				c-0.1-1.8,0-5.5,0-5.5s75.4,0,101.4,0C411.6-286.9,487-286.9,487-286.9z M487-358.6c0,0,0.1,3.6,0,5.5c0,0-0.1,0-0.1,0
				c0,0-89.6,0-101.3,0c-11.7,0-101.2,0-101.3,0c0,0-0.1,0-0.1,0c-0.1-1.8,0-5.5,0-5.5s75.4,0,101.4,0
				C411.6-358.6,487-358.6,487-358.6z"/>
		</g>
		<g id="XMLID_91_">
			<path id="XMLID_92_" class="st1" d="M265-265.5c0-2.3,0-51.4,0-51.4c0-6.2-2.5-6.3-4.6-6.3c-24.7,0-102.6,0-102.6,0
				s-0.1-3.6,0-5.5c0,0,0.1,0,0.1,0c0,0,102.5,0,102.5,0c4,0,4.6-1.1,4.6-7.8h0c0,0,0-37.1,0-44.1c0-7-0.1-11.8-11.8-11.8
				c-7.6,0-233.8,0-241.4,0C0.1-392.3,0-387.5,0-380.5c0,7,0,44.1,0,44.1h0c0,6.8,0.6,7.8,4.6,7.8c0,0,102.5,0,102.5,0
				c0,0,0.1,0,0.1,0c0.1,1.8,0,5.5,0,5.5s-77.9,0-102.6,0c-2.1,0-4.6,0.1-4.6,6.3c0,0,0,49.1,0,51.4s-1.3,11.8,11.1,11.8
				c1.7,0,241,0,242.7,0C266.2-253.7,265-263.2,265-265.5z M253.2-265.5H11.8v-43.3c46.6,0,97.8,0,99.8,0c5,0,7.3-4.3,7.3-8.3v-12.2
				c0-5.1-4.9-7.7-9.7-7.7H11.8v-43.4h241.4v43.4h-97.4c-4.8,0-9.7,2.7-9.7,7.7v12.2c0,4,2.3,8.3,7.3,8.3c1.9,0,53.2,0,99.8,0
				V-265.5z"/>
		</g>
	</g>
</pattern>
<pattern  id="XMLID_36_" xlink:href="#New_Pattern_9" patternTransform="matrix(0.2841 0 0 0.4289 -5206.4731 -5021.6475)">
</pattern>
<rect id="XMLID_182_" x="-221.5" y="76" class="st2" width="1050" height="1050"/>
</svg>
