<?xml version="1.0" encoding="utf-8"?>
<!-- Generator: Adobe Illustrator 19.0.0, SVG Export Plug-In . SVG Version: 6.00 Build 0)  -->
<svg version="1.1" id="lm-pattern" xmlns="http://www.w3.org/2000/svg" xmlns:xlink="http://www.w3.org/1999/xlink" x="0px" y="0px"
	 viewBox="-221.5 76 1050 1050" style="enable-background:new -221.5 76 1050 1050;" xml:space="preserve">
<style type="text/css">
	.st0{fill:none;}
	.st1{fill:#EE425B;}
	.st2{fill:url(#XMLID_2_);}
</style>
<pattern  x="-208" y="1126" width="290" height="214.7" patternUnits="userSpaceOnUse" id="New_Pattern_8" viewBox="88 -288.1 290 214.7" style="overflow:visible;">
	<g id="lm-pattern-red-nyanding">
		<polygon id="XMLID_329_" class="st0" points="88,-288.1 378,-288.1 378,-73.5 88,-73.5 		"/>
		<g id="XMLID_200_">
			<path id="XMLID_213_" class="st1" d="M442.1-132.9c2.1,0,4.6-0.1,4.6-6.3v-31.2H435v23.2c-46.6,0-97.8,0-99.8,0
				c-5,0-7.3,4.3-7.3,8.3v12.2c0,5.1,4.9,7.7,9.7,7.7H435v43.2h-97.4c-4.8,0-9.7,2.7-9.7,7.7v12.2c0,4,2.3,8.3,7.3,8.3
				c1.9,0,53.2,0,99.8,0v23.2h11.8v-31.2c0-6.2-2.5-6.3-4.6-6.3c-24.7,0-102.6,0-102.6,0s-0.1-3.6,0-5.5c0,0,0.1,0,0.1,0
				c0,0,102.5,0,102.5,0c4,0,4.6-1.1,4.6-7.8h0v-44.6h0c0-6.8-0.6-7.8-4.6-7.8c0,0-102.5,0-102.5,0c0,0-0.1,0-0.1,0
				c-0.1-1.8,0-5.5,0-5.5S417.4-132.8,442.1-132.9z"/>
			<path id="XMLID_211_" class="st1" d="M428.1-19.2v-12.2c0-4-2.3-8.3-7.3-8.3c-1.9,0-53.2,0-99.8,0v-20.1V-63v-20.1
				c46.6,0,97.8,0,99.8,0c5,0,7.3-4.3,7.3-8.3v-12.2c0-5.1-4.9-7.7-9.7-7.7H321v-11.5h-4.4h-24.2v7.5h16.9v4.7h0
				c0,6.8,0.6,7.8,4.6,7.8c0,0,102.5,0,102.5,0c0,0,0.1,0,0.1,0c0.1,1.8,0,5.5,0,5.5s-77.9,0-102.6,0c-2.1,0-4.6,0.1-4.6,6.3V-63
				v3.1v28.1c0,6.2,2.5,6.3,4.6,6.3c24.7,0,102.6,0,102.6,0s0.1,3.6,0,5.5c0,0-0.1,0-0.1,0c0,0-102.5,0-102.5,0
				c-4,0-4.6,1.1-4.6,7.8h0V0H321v-11.5h97.4C423.2-11.5,428.1-14.1,428.1-19.2z"/>
			<path id="XMLID_210_" class="st1" d="M314.2-131.5h6.8v-23.2c46.6,0,97.8,0,99.8,0c5,0,7.3-4.3,7.3-8.3v-12.2
				c0-5.1-4.9-7.7-9.7-7.7H321v-11.5h-11.8v12.2h0c0,6.8,0.6,7.8,4.6,7.8c0,0,102.5,0,102.5,0c0,0,0.1,0,0.1,0c0.1,1.8,0,5.5,0,5.5
				s-77.9,0-102.6,0c-2.1,0-4.6,0.1-4.6,6.3v19.5H290v11.8H314.2z"/>
		</g>
		<g id="XMLID_190_">
			<path id="XMLID_191_" class="st1" d="M169.2-24.2h6.8v-23.2c46.6,0,97.8,0,99.8,0c5,0,7.3-4.3,7.3-8.3v-12.2
				c0-5.1-4.9-7.7-9.7-7.7H176v-11.5h-11.8V-75h0c0,6.8,0.6,7.8,4.6,7.8c0,0,102.5,0,102.5,0c0,0,0.1,0,0.1,0c0.1,1.8,0,5.5,0,5.5
				s-77.9,0-102.6,0c-2.1,0-4.6,0.1-4.6,6.3v19.5H145v11.8H169.2z"/>
		</g>
		<g id="XMLID_178_">
			<path id="XMLID_189_" class="st1" d="M152.1-132.9c2.1,0,4.6-0.1,4.6-6.3v-31.2H145v23.2c-46.6,0-97.8,0-99.8,0
				c-5,0-7.3,4.3-7.3,8.3v12.2c0,5.1,4.9,7.7,9.7,7.7H145v43.2H47.6c-4.8,0-9.7,2.7-9.7,7.7v12.2c0,4,2.3,8.3,7.3,8.3
				c1.9,0,53.2,0,99.8,0v23.2h11.8v-31.2c0-6.2-2.5-6.3-4.6-6.3c-24.7,0-102.6,0-102.6,0s-0.1-3.6,0-5.5c0,0,0.1,0,0.1,0
				c0,0,102.5,0,102.5,0c4,0,4.6-1.1,4.6-7.8h0v-44.6h0c0-6.8-0.6-7.8-4.6-7.8c0,0-102.5,0-102.5,0c0,0-0.1,0-0.1,0
				c-0.1-1.8,0-5.5,0-5.5S127.4-132.8,152.1-132.9z"/>
			<path id="XMLID_180_" class="st1" d="M138.1-19.2v-12.2c0-4-2.3-8.3-7.3-8.3c-1.9,0-53.2,0-99.8,0v-20.1V-63v-20.1
				c46.6,0,97.8,0,99.8,0c5,0,7.3-4.3,7.3-8.3v-12.2c0-5.1-4.9-7.7-9.7-7.7H31v-11.5h-4.4H2.4v7.5h16.9v4.7h0c0,6.8,0.6,7.8,4.6,7.8
				c0,0,102.5,0,102.5,0c0,0,0.1,0,0.1,0c0.1,1.8,0,5.5,0,5.5s-77.9,0-102.6,0c-2.1,0-4.6,0.1-4.6,6.3V-63v3.1v28.1
				c0,6.2,2.5,6.3,4.6,6.3c24.7,0,102.6,0,102.6,0s0.1,3.6,0,5.5c0,0-0.1,0-0.1,0c0,0-102.5,0-102.5,0c-4,0-4.6,1.1-4.6,7.8h0V0H31
				v-11.5h97.4C133.2-11.5,138.1-14.1,138.1-19.2z"/>
			<path id="XMLID_179_" class="st1" d="M24.2-131.5H31v-23.2c46.6,0,97.8,0,99.8,0c5,0,7.3-4.3,7.3-8.3v-12.2
				c0-5.1-4.9-7.7-9.7-7.7H31v-11.5H19.2v12.2h0c0,6.8,0.6,7.8,4.6,7.8c0,0,102.5,0,102.5,0c0,0,0.1,0,0.1,0c0.1,1.8,0,5.5,0,5.5
				s-77.9,0-102.6,0c-2.1,0-4.6,0.1-4.6,6.3v19.5H0v11.8H24.2z"/>
		</g>
		<g id="XMLID_174_">
			<path id="XMLID_177_" class="st1" d="M435-218.6h-97.4c-4.8,0-9.7,2.7-9.7,7.7v12.2c0,4,2.3,8.3,7.3,8.3c1.9,0,53.2,0,99.8,0
				v23.2h11.8v-31.2c0-6.2-2.5-6.3-4.6-6.3c-24.7,0-102.6,0-102.6,0s-0.1-3.6,0-5.5c0,0,0.1,0,0.1,0c0,0,102.5,0,102.5,0
				c4,0,4.6-1.1,4.6-7.8h0v-12.2H435V-218.6z"/>
			<path id="XMLID_176_" class="st1" d="M442.1-347.5c2.1,0,4.6-0.1,4.6-6.3V-385H435v23.2c-46.6,0-97.8,0-99.8,0
				c-5,0-7.3,4.3-7.3,8.3v12.2c0,5.1,4.9,7.7,9.7,7.7H435v43.2h-97.4c-4.8,0-9.7,2.7-9.7,7.7v12.2c0,4,2.3,8.3,7.3,8.3
				c1.9,0,53.2,0,99.8,0v23.2h11.8v-31.2c0-6.2-2.5-6.3-4.6-6.3c-24.7,0-102.6,0-102.6,0s-0.1-3.6,0-5.5c0,0,0.1,0,0.1,0
				c0,0,102.5,0,102.5,0c4,0,4.6-1.1,4.6-7.8h0v-44.6h0c0-6.8-0.6-7.8-4.6-7.8c0,0-102.5,0-102.5,0c0,0-0.1,0-0.1,0
				c-0.1-1.8,0-5.5,0-5.5S417.4-347.5,442.1-347.5z"/>
			<path id="XMLID_175_" class="st1" d="M428.1-233.9v-12.2c0-4-2.3-8.3-7.3-8.3c-1.9,0-53.2,0-99.8,0v-20.1v-3.1v-20.1
				c46.6,0,97.8,0,99.8,0c5,0,7.3-4.3,7.3-8.3v-12.2c0-5.1-4.9-7.7-9.7-7.7H321v-11.5h-4.4h-24.2v7.5h16.9v4.7h0
				c0,6.8,0.6,7.8,4.6,7.8c0,0,102.5,0,102.5,0c0,0,0.1,0,0.1,0c0.1,1.8,0,5.5,0,5.5s-77.9,0-102.6,0c-2.1,0-4.6,0.1-4.6,6.3v28.1
				v3.1v28.1c0,6.2,2.5,6.3,4.6,6.3c24.7,0,102.6,0,102.6,0s0.1,3.6,0,5.5c0,0-0.1,0-0.1,0c0,0-102.5,0-102.5,0
				c-4,0-4.6,1.1-4.6,7.8h0v12.2H321v-11.5h97.4C423.2-226.2,428.1-228.8,428.1-233.9z"/>
		</g>
		<g id="XMLID_169_">
			<path id="XMLID_173_" class="st1" d="M290-111.3h-97.4c-4.8,0-9.7,2.7-9.7,7.7v12.2c0,4,2.3,8.3,7.3,8.3c1.9,0,53.2,0,99.8,0
				v23.2h11.8V-91c0-6.2-2.5-6.3-4.6-6.3c-24.7,0-102.6,0-102.6,0s-0.1-3.6,0-5.5c0,0,0.1,0,0.1,0c0,0,102.5,0,102.5,0
				c4,0,4.6-1.1,4.6-7.8h0v-12.2H290V-111.3z"/>
			<path id="XMLID_172_" class="st1" d="M297.1-240.2c2.1,0,4.6-0.1,4.6-6.3v-31.2H290v23.2c-46.6,0-97.8,0-99.8,0
				c-5,0-7.3,4.3-7.3,8.3v12.2c0,5.1,4.9,7.7,9.7,7.7H290v43.2h-97.4c-4.8,0-9.7,2.7-9.7,7.7v12.2c0,4,2.3,8.3,7.3,8.3
				c1.9,0,53.2,0,99.8,0v23.2h11.8v-31.2c0-6.2-2.5-6.3-4.6-6.3c-24.7,0-102.6,0-102.6,0s-0.1-3.6,0-5.5c0,0,0.1,0,0.1,0
				c0,0,102.5,0,102.5,0c4,0,4.6-1.1,4.6-7.8h0v-44.6h0c0-6.8-0.6-7.8-4.6-7.8c0,0-102.5,0-102.5,0c0,0-0.1,0-0.1,0
				c-0.1-1.8,0-5.5,0-5.5S272.4-240.2,297.1-240.2z"/>
			<path id="XMLID_171_" class="st1" d="M283.1-126.6v-12.2c0-4-2.3-8.3-7.3-8.3c-1.9,0-53.2,0-99.8,0v-20.1v-3.1v-20.1
				c46.6,0,97.8,0,99.8,0c5,0,7.3-4.3,7.3-8.3v-12.2c0-5.1-4.9-7.7-9.7-7.7H176v-11.5h-4.4h-24.2v7.5h16.9v4.7h0
				c0,6.8,0.6,7.8,4.6,7.8c0,0,102.5,0,102.5,0c0,0,0.1,0,0.1,0c0.1,1.8,0,5.5,0,5.5s-77.9,0-102.6,0c-2.1,0-4.6,0.1-4.6,6.3v28.1
				v3.1v28.1c0,6.2,2.5,6.3,4.6,6.3c24.7,0,102.6,0,102.6,0s0.1,3.6,0,5.5c0,0-0.1,0-0.1,0c0,0-102.5,0-102.5,0
				c-4,0-4.6,1.1-4.6,7.8h0v12.2H176v-11.5h97.4C278.2-118.8,283.1-121.5,283.1-126.6z"/>
			<path id="XMLID_170_" class="st1" d="M169.2-238.8h6.8V-262c46.6,0,97.8,0,99.8,0c5,0,7.3-4.3,7.3-8.3v-12.2
				c0-5.1-4.9-7.7-9.7-7.7H176v-11.5h-11.8v12.2h0c0,6.8,0.6,7.8,4.6,7.8c0,0,102.5,0,102.5,0c0,0,0.1,0,0.1,0c0.1,1.8,0,5.5,0,5.5
				s-77.9,0-102.6,0c-2.1,0-4.6,0.1-4.6,6.3v19.5H145v11.8H169.2z"/>
		</g>
		<g id="XMLID_138_">
			<path id="XMLID_163_" class="st1" d="M145-218.6H47.6c-4.8,0-9.7,2.7-9.7,7.7v12.2c0,4,2.3,8.3,7.3,8.3c1.9,0,53.2,0,99.8,0v23.2
				h11.8v-31.2c0-6.2-2.5-6.3-4.6-6.3c-24.7,0-102.6,0-102.6,0s-0.1-3.6,0-5.5c0,0,0.1,0,0.1,0c0,0,102.5,0,102.5,0
				c4,0,4.6-1.1,4.6-7.8h0v-12.2H145V-218.6z"/>
			<path id="XMLID_150_" class="st1" d="M152.1-347.5c2.1,0,4.6-0.1,4.6-6.3V-385H145v23.2c-46.6,0-97.8,0-99.8,0
				c-5,0-7.3,4.3-7.3,8.3v12.2c0,5.1,4.9,7.7,9.7,7.7H145v43.2H47.6c-4.8,0-9.7,2.7-9.7,7.7v12.2c0,4,2.3,8.3,7.3,8.3
				c1.9,0,53.2,0,99.8,0v23.2h11.8v-31.2c0-6.2-2.5-6.3-4.6-6.3c-24.7,0-102.6,0-102.6,0s-0.1-3.6,0-5.5c0,0,0.1,0,0.1,0
				c0,0,102.5,0,102.5,0c4,0,4.6-1.1,4.6-7.8h0v-44.6h0c0-6.8-0.6-7.8-4.6-7.8c0,0-102.5,0-102.5,0c0,0-0.1,0-0.1,0
				c-0.1-1.8,0-5.5,0-5.5S127.4-347.5,152.1-347.5z"/>
			<path id="XMLID_148_" class="st1" d="M138.1-233.9v-12.2c0-4-2.3-8.3-7.3-8.3c-1.9,0-53.2,0-99.8,0v-20.1v-3.1v-20.1
				c46.6,0,97.8,0,99.8,0c5,0,7.3-4.3,7.3-8.3v-12.2c0-5.1-4.9-7.7-9.7-7.7H31v-11.5h-4.4H2.4v7.5h16.9v4.7h0c0,6.8,0.6,7.8,4.6,7.8
				c0,0,102.5,0,102.5,0c0,0,0.1,0,0.1,0c0.1,1.8,0,5.5,0,5.5s-77.9,0-102.6,0c-2.1,0-4.6,0.1-4.6,6.3v28.1v3.1v28.1
				c0,6.2,2.5,6.3,4.6,6.3c24.7,0,102.6,0,102.6,0s0.1,3.6,0,5.5c0,0-0.1,0-0.1,0c0,0-102.5,0-102.5,0c-4,0-4.6,1.1-4.6,7.8h0v12.2
				H31v-11.5h97.4C133.2-226.2,138.1-228.8,138.1-233.9z"/>
		</g>
		<g id="XMLID_134_">
			<path id="XMLID_137_" class="st1" d="M290-325.9h-97.4c-4.8,0-9.7,2.7-9.7,7.7v12.2c0,4,2.3,8.3,7.3,8.3c1.9,0,53.2,0,99.8,0
				v23.2h11.8v-31.2c0-6.2-2.5-6.3-4.6-6.3c-24.7,0-102.6,0-102.6,0s-0.1-3.6,0-5.5c0,0,0.1,0,0.1,0c0,0,102.5,0,102.5,0
				c4,0,4.6-1.1,4.6-7.8h0v-12.2H290V-325.9z"/>
		</g>
	</g>
</pattern>
<pattern  id="XMLID_2_" xlink:href="#New_Pattern_8" patternTransform="matrix(0.2841 0 0 0.4289 -5311.1831 -4715.8364)">
</pattern>
<rect id="XMLID_166_" x="-221.5" y="76" class="st2" width="1050" height="1050"/>
</svg>
