<?xml version="1.0" encoding="utf-8"?>
<!-- Generator: Adobe Illustrator 19.0.0, SVG Export Plug-In . SVG Version: 6.00 Build 0)  -->
<svg version="1.1" id="lm-pattern" xmlns="http://www.w3.org/2000/svg" xmlns:xlink="http://www.w3.org/1999/xlink" x="0px" y="0px"
	 viewBox="-221.5 76 1050 1050" style="enable-background:new -221.5 76 1050 1050;" xml:space="preserve">
<style type="text/css">
	.st0{fill:none;}
	.st1{fill:#EE435B;}
	.st2{fill:url(#XMLID_2_);}
</style>
<pattern  x="-208" y="1126" width="103" height="120" patternUnits="userSpaceOnUse" id="lm-pattern-red-sugeng" viewBox="108 -284.9 103 120" style="overflow:visible;">
	<g id="lm-pattern-red-lakon-sugeng">
		<polygon id="XMLID_3396_" class="st0" points="108,-284.9 211,-284.9 211,-164.9 108,-164.9 		"/>
		<path id="XMLID_3392_" class="st1" d="M307.9-10.2c0,0,0-87.9,0-92.5c0-6.1-5.2-8.9-10-8.9c0,0-15.8,0-16.9,0
			c0,0-0.1-87.1-0.1-93.6c0,0,0.4-4.6-8.1-4.6c-6.5,0-15.4,0-15.4,0c0,0,0,0,0,0c-3.1,0-5.9,0-7.7,0c-7.1,0-10.1,0.4-10.3,4.6
			c0,0.1,0,93.6,0,93.6c-0.6,0-13.4,0-13.4,0c-6.1,0-9.3,5.9-9.3,11.7l0,89.6c-1.9,0-7.9,0.1-10.7,0.1V0c3.1,0,8.9,0,10.7,0
			c7,0,10.1-0.4,10.3-4.5v-93.7h13.4c6.1,0,9.3-5.9,9.3-11.7l0-89.6c0,0,4.9,0,7.7,0h8.1c0,0,0,87.9,0,92.5c0,6.1,5.2,8.9,10,8.9
			c0,0,16.8,0,16.9,0c0,0,0.1,87.1,0.1,93.6c0,0-0.4,4.6,8.1,4.6C307,0,319,0,319,0c0-5.1,0-10.2,0-10.2H307.9z"/>
		<path id="XMLID_3391_" class="st1" d="M204.9-10.2c0,0,0-87.9,0-92.5c0-6.1-5.2-8.9-10-8.9c0,0-15.8,0-16.9,0
			c0,0-0.1-87.1-0.1-93.6c0,0,0.4-4.6-8.1-4.6c-6.5,0-15.4,0-15.4,0c0,0,0,0,0,0c-3.1,0-5.9,0-7.7,0c-7.1,0-10.1,0.4-10.3,4.6
			c0,0.1,0,93.6,0,93.6c-0.6,0-13.4,0-13.4,0c-6.1,0-9.3,5.9-9.3,11.7l0,89.6c-1.9,0-7.9,0.1-10.7,0.1V0c3.1,0,8.9,0,10.7,0
			c7,0,10.1-0.4,10.3-4.5v-93.7h13.4c6.1,0,9.3-5.9,9.3-11.7l0-89.6c0,0,4.9,0,7.7,0h8.1c0,0,0,87.9,0,92.5c0,6.1,5.2,8.9,10,8.9
			c0,0,16.8,0,16.9,0c0,0,0.1,87.1,0.1,93.6c0,0-0.4,4.6,8.1,4.6C204,0,216,0,216,0c0-5.1,0-10.2,0-10.2H204.9z"/>
		<path id="XMLID_3390_" class="st1" d="M101.9-10.2c0,0,0-87.9,0-92.5c0-6.1-5.2-8.9-10-8.9c0,0-15.8,0-16.9,0
			c0,0-0.1-87.1-0.1-93.6c0,0,0.4-4.6-8.1-4.6c-6.5,0-15.4,0-15.4,0c0,0,0,0,0,0c-3.1,0-5.9,0-7.7,0c-7.1,0-10.1,0.4-10.3,4.6
			c0,0.1,0,93.6,0,93.6c-0.6,0-13.4,0-13.4,0c-6.1,0-9.3,5.9-9.3,11.7l0,89.6c-1.9,0-7.9,0.1-10.7,0.1V0c3.1,0,8.9,0,10.7,0
			c7,0,10.1-0.4,10.3-4.5v-93.7h13.4c6.1,0,9.3-5.9,9.3-11.7l0-89.6c0,0,4.9,0,7.7,0h8.1c0,0,0,87.9,0,92.5c0,6.1,5.2,8.9,10,8.9
			c0,0,16.8,0,16.9,0c0,0,0.1,87.1,0.1,93.6c0,0-0.4,4.6,8.1,4.6C101,0,113,0,113,0c0-5.1,0-10.2,0-10.2H101.9z"/>
		<path id="XMLID_3389_" class="st1" d="M307.9-130.2c0,0,0-87.9,0-92.5c0-6.1-5.2-8.9-10-8.9c0,0-15.8,0-16.9,0
			c0,0-0.1-87.1-0.1-93.6c0,0,0.4-4.6-8.1-4.6c-6.5,0-15.4,0-15.4,0c0,0,0,0,0,0c-3.1,0-5.9,0-7.7,0c-7.1,0-10.1,0.4-10.3,4.6
			c0,0.1,0,93.6,0,93.6c-0.6,0-13.4,0-13.4,0c-6.1,0-9.3,5.9-9.3,11.7l0,89.6c-1.9,0-7.9,0.1-10.7,0.1v10.2c3.1,0,8.9,0,10.7,0
			c7,0,10.1-0.4,10.3-4.5v-93.7h13.4c6.1,0,9.3-5.9,9.3-11.7l0-89.6c0,0,4.9,0,7.7,0h8.1c0,0,0,87.9,0,92.5c0,6.1,5.2,8.9,10,8.9
			c0,0,16.8,0,16.9,0c0,0,0.1,87.1,0.1,93.6c0,0-0.4,4.6,8.1,4.6c6.5,0,18.4,0,18.4,0c0-5.1,0-10.2,0-10.2H307.9z"/>
		<path id="XMLID_3388_" class="st1" d="M204.9-130.2c0,0,0-87.9,0-92.5c0-6.1-5.2-8.9-10-8.9c0,0-15.8,0-16.9,0
			c0,0-0.1-87.1-0.1-93.6c0,0,0.4-4.6-8.1-4.6c-6.5,0-15.4,0-15.4,0c0,0,0,0,0,0c-3.1,0-5.9,0-7.7,0c-7.1,0-10.1,0.4-10.3,4.6
			c0,0.1,0,93.6,0,93.6c-0.6,0-13.4,0-13.4,0c-6.1,0-9.3,5.9-9.3,11.7l0,89.6c-1.9,0-7.9,0.1-10.7,0.1v10.2c3.1,0,8.9,0,10.7,0
			c7,0,10.1-0.4,10.3-4.5v-93.7h13.4c6.1,0,9.3-5.9,9.3-11.7l0-89.6c0,0,4.9,0,7.7,0h8.1c0,0,0,87.9,0,92.5c0,6.1,5.2,8.9,10,8.9
			c0,0,16.8,0,16.9,0c0,0,0.1,87.1,0.1,93.6c0,0-0.4,4.6,8.1,4.6c6.5,0,18.4,0,18.4,0c0-5.1,0-10.2,0-10.2H204.9z"/>
		<path id="XMLID_3387_" class="st1" d="M101.9-130.2c0,0,0-87.9,0-92.5c0-6.1-5.2-8.9-10-8.9c0,0-15.8,0-16.9,0
			c0,0-0.1-87.1-0.1-93.6c0,0,0.4-4.6-8.1-4.6c-6.5,0-15.4,0-15.4,0c0,0,0,0,0,0c-3.1,0-5.9,0-7.7,0c-7.1,0-10.1,0.4-10.3,4.6
			c0,0.1,0,93.6,0,93.6c-0.6,0-13.4,0-13.4,0c-6.1,0-9.3,5.9-9.3,11.7l0,89.6c-1.9,0-7.9,0.1-10.7,0.1v10.2c3.1,0,8.9,0,10.7,0
			c7,0,10.1-0.4,10.3-4.5v-93.7h13.4c6.1,0,9.3-5.9,9.3-11.7l0-89.6c0,0,4.9,0,7.7,0h8.1c0,0,0,87.9,0,92.5c0,6.1,5.2,8.9,10,8.9
			c0,0,16.8,0,16.9,0c0,0,0.1,87.1,0.1,93.6c0,0-0.4,4.6,8.1,4.6c6.5,0,18.4,0,18.4,0c0-5.1,0-10.2,0-10.2H101.9z"/>
		<path id="XMLID_3380_" class="st1" d="M307.9-250.2c0,0,0-87.9,0-92.5c0-6.1-5.2-8.9-10-8.9c0,0-15.8,0-16.9,0
			c0,0-0.1-87.1-0.1-93.6c0,0,0.4-4.6-8.1-4.6c-6.5,0-15.4,0-15.4,0c0,0,0,0,0,0c-3.1,0-5.9,0-7.7,0c-7.1,0-10.1,0.4-10.3,4.6
			c0,0.1,0,93.6,0,93.6c-0.6,0-13.4,0-13.4,0c-6.1,0-9.3,5.9-9.3,11.7l0,89.6c-1.9,0-7.9,0.1-10.7,0.1v10.2c3.1,0,8.9,0,10.7,0
			c7,0,10.1-0.4,10.3-4.5v-93.7h13.4c6.1,0,9.3-5.9,9.3-11.7l0-89.6c0,0,4.9,0,7.7,0h8.1c0,0,0,87.9,0,92.5c0,6.1,5.2,8.9,10,8.9
			c0,0,16.8,0,16.9,0c0,0,0.1,87.1,0.1,93.6c0,0-0.4,4.6,8.1,4.6c6.5,0,18.4,0,18.4,0c0-5.1,0-10.2,0-10.2H307.9z"/>
		<path id="XMLID_3375_" class="st1" d="M204.9-250.2c0,0,0-87.9,0-92.5c0-6.1-5.2-8.9-10-8.9c0,0-15.8,0-16.9,0
			c0,0-0.1-87.1-0.1-93.6c0,0,0.4-4.6-8.1-4.6c-6.5,0-15.4,0-15.4,0c0,0,0,0,0,0c-3.1,0-5.9,0-7.7,0c-7.1,0-10.1,0.4-10.3,4.6
			c0,0.1,0,93.6,0,93.6c-0.6,0-13.4,0-13.4,0c-6.1,0-9.3,5.9-9.3,11.7l0,89.6c-1.9,0-7.9,0.1-10.7,0.1v10.2c3.1,0,8.9,0,10.7,0
			c7,0,10.1-0.4,10.3-4.5v-93.7h13.4c6.1,0,9.3-5.9,9.3-11.7l0-89.6c0,0,4.9,0,7.7,0h8.1c0,0,0,87.9,0,92.5c0,6.1,5.2,8.9,10,8.9
			c0,0,16.8,0,16.9,0c0,0,0.1,87.1,0.1,93.6c0,0-0.4,4.6,8.1,4.6c6.5,0,18.4,0,18.4,0c0-5.1,0-10.2,0-10.2H204.9z"/>
		<path id="XMLID_3374_" class="st1" d="M101.9-250.2c0,0,0-87.9,0-92.5c0-6.1-5.2-8.9-10-8.9c0,0-15.8,0-16.9,0
			c0,0-0.1-87.1-0.1-93.6c0,0,0.4-4.6-8.1-4.6c-6.5,0-15.4,0-15.4,0c0,0,0,0,0,0c-3.1,0-5.9,0-7.7,0c-7.1,0-10.1,0.4-10.3,4.6
			c0,0.1,0,93.6,0,93.6c-0.6,0-13.4,0-13.4,0c-6.1,0-9.3,5.9-9.3,11.7l0,89.6c-1.9,0-7.9,0.1-10.7,0.1v10.2c3.1,0,8.9,0,10.7,0
			c7,0,10.1-0.4,10.3-4.5v-93.7h13.4c6.1,0,9.3-5.9,9.3-11.7l0-89.6c0,0,4.9,0,7.7,0h8.1c0,0,0,87.9,0,92.5c0,6.1,5.2,8.9,10,8.9
			c0,0,16.8,0,16.9,0c0,0,0.1,87.1,0.1,93.6c0,0-0.4,4.6,8.1,4.6c6.5,0,18.4,0,18.4,0c0-5.1,0-10.2,0-10.2H101.9z"/>
	</g>
</pattern>
<pattern  id="XMLID_2_" xlink:href="#lm-pattern-red-sugeng" patternTransform="matrix(0.2841 0 0 0.4289 -5449.9829 -5073.6592)">
</pattern>
<rect id="XMLID_14_" x="-221.5" y="76" class="st2" width="1050" height="1050"/>
</svg>
