<?xml version="1.0" encoding="utf-8"?>
<!-- Generator: Adobe Illustrator 19.0.0, SVG Export Plug-In . SVG Version: 6.00 Build 0)  -->
<svg version="1.1" id="lm-pattern" xmlns="http://www.w3.org/2000/svg" xmlns:xlink="http://www.w3.org/1999/xlink" x="0px" y="0px"
	 viewBox="-221.5 76 1050 1050" style="enable-background:new -221.5 76 1050 1050;" xml:space="preserve">
<style type="text/css">
	.st0{fill:none;}
	.st1{fill:#EE415B;}
	.st2{fill:url(#XMLID_27_);}
</style>
<pattern  x="-208" y="1126" width="212.5" height="158.1" patternUnits="userSpaceOnUse" id="lm-pattern-red" viewBox="154.1 -161.9 212.5 158.1" style="overflow:visible;">
	<g id="lm-pattern-red">
		<polygon id="XMLID_3182_" class="st0" points="154.1,-161.9 366.6,-161.9 366.6,-3.8 154.1,-3.8 		"/>
		<g id="XMLID_3180_">
			<polygon id="XMLID_3181_" class="st1" points="202.5,-7.5 0,-7.5 0,0 202.5,0 			"/>
		</g>
		<g id="XMLID_3178_">
			<polygon id="XMLID_3179_" class="st1" points="415,-7.5 212.5,-7.5 212.5,0 415,0 			"/>
		</g>
		<g id="XMLID_3166_">
			<path id="XMLID_3175_" class="st1" d="M6.2-59.1v-12.2c0-5.1,4.9-7.7,9.7-7.7h170.7c4.8,0,9.7,2.7,9.7,7.7v12.2
				c0,4-2.3,8.3-7.3,8.3c-3.5,0-171.8,0-175.3,0C8.5-50.8,6.2-55.1,6.2-59.1z M17.3-63.6h167.9c0-0.9,0-6.5,0-7c0,0-167.9,0-167.9,0
				C17.3-70.1,17.3-64.5,17.3-63.6z"/>
			<path id="XMLID_3172_" class="st1" d="M196.2-106.6v12.2c0,5.1-4.9,7.7-9.7,7.7H15.9c-4.8,0-9.7-2.7-9.7-7.7v-12.2
				c0-4,2.3-8.3,7.3-8.3c3.5,0,171.8,0,175.3,0C194-114.9,196.2-110.6,196.2-106.6z M185.2-102.1H17.3c0,0.9,0,6.5,0,7
				c0,0,167.9,0,167.9,0C185.2-95.6,185.2-101.2,185.2-102.1z"/>
			<polygon id="XMLID_3171_" class="st1" points="196.2,0 6.2,0 6.2,-7.5 196.2,-7.5 			"/>
			<polygon id="XMLID_3170_" class="st1" points="202.5,-165.7 0,-165.7 0,-158.2 202.5,-158.2 			"/>
		</g>
		<g id="XMLID_3143_">
			<path id="XMLID_3159_" class="st1" d="M218.7-59.1v-12.2c0-5.1,4.9-7.7,9.7-7.7h170.7c4.8,0,9.7,2.7,9.7,7.7v12.2
				c0,4-2.3,8.3-7.3,8.3c-3.5,0-171.8,0-175.3,0C221-50.8,218.7-55.1,218.7-59.1z M229.8-63.6h167.9c0-0.9,0-6.5,0-7
				c0,0-167.9,0-167.9,0C229.8-70.1,229.8-64.5,229.8-63.6z"/>
			<path id="XMLID_3156_" class="st1" d="M408.7-106.6v12.2c0,5.1-4.9,7.7-9.7,7.7H228.4c-4.8,0-9.7-2.7-9.7-7.7v-12.2
				c0-4,2.3-8.3,7.3-8.3c3.5,0,171.8,0,175.3,0C406.5-114.9,408.7-110.6,408.7-106.6z M397.7-102.1H229.8c0,0.9,0,6.5,0,7
				c0,0,167.9,0,167.9,0C397.7-95.6,397.7-101.2,397.7-102.1z"/>
			<polygon id="XMLID_3155_" class="st1" points="408.7,0 218.7,0 218.7,-7.5 408.7,-7.5 			"/>
			<path id="XMLID_3154_" class="st1" d="M318-91.6h-8.5v12.5h8.5C318-82.2,318-87,318-91.6z"/>
			<path id="XMLID_3153_" class="st1" d="M318-51.7h-8.5v45h8.5C318-14.3,318-40.6,318-51.7z"/>
			<path id="XMLID_3150_" class="st1" d="M111.9-23.3v-12.2c0-5.1,4.9-7.7,9.7-7.7h170.7c4.8,0,9.7,2.7,9.7,7.7v12.2
				c0,4-2.3,8.3-7.3,8.3c-3.5,0-171.8,0-175.3,0C114.2-15,111.9-19.3,111.9-23.3z M122.9-27.8h167.9c0-0.9,0-6.5,0-7
				c0,0-167.9,0-167.9,0C122.9-34.3,122.9-28.7,122.9-27.8z"/>
			<path id="XMLID_3149_" class="st1" d="M211.1-123.2h-8.5v79.9h8.5C211.1-56.8,211.1-103.4,211.1-123.2z"/>
			<path id="XMLID_3146_" class="st1" d="M119.2-151.5c3.5,0,171.9,0,175.3,0c5,0,7.3,4.3,7.3,8.3v12.2c0,5.1-4.9,7.7-9.7,7.7H121.5
				c-4.8,0-9.7-2.7-9.7-7.7v-12.2C111.9-147.1,114.2-151.5,119.2-151.5z M122.9-131.7c0,0,167.9,0,167.9,0c0-0.5,0-6.1,0-7H122.9
				C122.9-137.8,122.9-132.1,122.9-131.7z"/>
			<polygon id="XMLID_3145_" class="st1" points="415,-165.7 212.5,-165.7 212.5,-158.2 415,-158.2 			"/>
			<path id="XMLID_3144_" class="st1" d="M318-114.5h-8.5v-45h8.5C318-151.8,318-125.6,318-114.5z"/>
		</g>
		<g id="XMLID_3127_">
			<path id="XMLID_3131_" class="st1" d="M324.4-23.3v-12.2c0-5.1,4.9-7.7,9.7-7.7h170.7c4.8,0,9.7,2.7,9.7,7.7v12.2
				c0,4-2.3,8.3-7.3,8.3c-3.5,0-171.8,0-175.3,0C326.7-15,324.4-19.3,324.4-23.3z M335.4-27.8h167.9c0-0.9,0-6.5,0-7
				c0,0-167.9,0-167.9,0C335.4-34.3,335.4-28.7,335.4-27.8z"/>
			<path id="XMLID_3128_" class="st1" d="M331.7-151.5c3.5,0,171.9,0,175.3,0c5,0,7.3,4.3,7.3,8.3v12.2c0,5.1-4.9,7.7-9.7,7.7H334
				c-4.8,0-9.7-2.7-9.7-7.7v-12.2C324.4-147.1,326.7-151.5,331.7-151.5z M335.4-131.7c0,0,167.9,0,167.9,0c0-0.5,0-6.1,0-7H335.4
				C335.4-137.8,335.4-132.1,335.4-131.7z"/>
		</g>
		<g id="XMLID_3125_">
			<polygon id="XMLID_3126_" class="st1" points="196.2,-158.1 6.2,-158.1 6.2,-165.6 196.2,-165.6 			"/>
		</g>
		<g id="XMLID_3122_">
			<polygon id="XMLID_3123_" class="st1" points="408.7,-158.1 218.7,-158.1 218.7,-165.6 408.7,-165.6 			"/>
		</g>
	</g>
</pattern>
<pattern  id="XMLID_27_" xlink:href="#lm-pattern-red" patternTransform="matrix(0.2841 0 0 0.4289 -5358.3389 -4912.6743)">
</pattern>
<rect id="XMLID_182_" x="-221.5" y="76" class="st2" width="1050" height="1050"/>
</svg>
