<?xml version="1.0" encoding="utf-8"?>
<!-- Generator: Adobe Illustrator 19.0.0, SVG Export Plug-In . SVG Version: 6.00 Build 0)  -->
<svg version="1.1" id="lm-hd-iconmenu" xmlns="http://www.w3.org/2000/svg" xmlns:xlink="http://www.w3.org/1999/xlink" x="0px"
	 y="0px" viewBox="-622.6 429.7 11.1 20" style="enable-background:new -622.6 429.7 11.1 20;" xml:space="preserve">
<style type="text/css">
	.st0{fill:#858585;}
</style>
<path id="lm-login-hd-iconleftrow" class="st0" d="M-617.5,441.1c-1.5,1.5-4.3,4.3-4.5,4.5c-0.3,0.3-0.2,0.9,0,1.1l1.1,1.1
	c0.3,0.4,0.8,0.3,1.1,0c0,0,7.6-7.6,7.6-7.7c0.2-0.3,0.1-0.6,0-0.8c0,0-7.6-7.6-7.6-7.6c-0.3-0.3-0.7-0.4-1.1,0l-1.1,1.1
	c-0.3,0.3-0.3,0.8,0,1.1c0.2,0.1,2.8,2.8,4.2,4.2C-616.3,439.6-616,439.6-617.5,441.1z M-614.7,439.2c-0.3-0.3-6.2-6.2-6.2-6.2
	c0.1-0.1,0.6-0.6,0.6-0.6c0,0,7.3,7.3,7.3,7.3c0,0-7.2,7.2-7.3,7.3c0,0-0.6-0.6-0.6-0.6c0,0,6-6,6.2-6.2
	C-614.4,439.9-614.4,439.6-614.7,439.2z"/>
</svg>
