<?xml version="1.0" encoding="utf-8"?>
<!-- Generator: Adobe Illustrator 19.0.0, SVG Export Plug-In . SVG Version: 6.00 Build 0)  -->
<svg version="1.1" id="lm-iconbars" xmlns="http://www.w3.org/2000/svg" xmlns:xlink="http://www.w3.org/1999/xlink" x="0px" y="0px"
	 viewBox="-627 428.7 20 22" style="enable-background:new -627 428.7 20 22;" xml:space="preserve">
<style type="text/css">
	.lm-icon-butterfly{fill:#858585;}
</style>
<g>
	<path id="lm-icon-butterfly" class="lm-icon-butterfly" d="M-608.4,431c-1.6-1.6-4.6-1.4-6.5,0.6c-2,2-2.2,4.9-0.6,6.5c1.6,1.6,4.6,1.4,6.5-0.6
		C-607,435.6-606.8,432.7-608.4,431 M-614.4,437.5c-1-1-0.6-3,0.8-4.5c1.5-1.5,3.5-1.8,4.5-0.8c1,1,0.6,3-0.8,4.5
		C-611.4,438.2-613.4,438.5-614.4,437.5"/>
	<path id="XMLID_7_" class="lm-icon-butterfly" d="M-625.6,431c-1.6,1.6-1.4,4.6,0.6,6.5c2,2,4.9,2.2,6.5,0.6c1.6-1.6,1.4-4.6-0.6-6.5
		C-621,429.6-623.9,429.4-625.6,431 M-619.6,437.5c-1,1-3,0.6-4.5-0.8c-1.5-1.5-1.8-3.5-0.8-4.5c1-1,3-0.6,4.5,0.8
		C-618.9,434.5-618.6,436.5-619.6,437.5"/>
	<path id="XMLID_4_" class="lm-icon-butterfly" d="M-625.6,448.5c1.6,1.6,4.6,1.4,6.5-0.6c2-2,2.2-4.9,0.6-6.5c-1.6-1.6-4.6-1.4-6.5,0.6
		C-627,443.9-627.2,446.8-625.6,448.5 M-619.6,442c1,1,0.6,3-0.8,4.5c-1.5,1.5-3.5,1.8-4.5,0.8c-1-1-0.6-3,0.8-4.5
		C-622.6,441.3-620.6,440.9-619.6,442"/>
	<path id="XMLID_1_" class="lm-icon-butterfly" d="M-608.4,448.5c1.6-1.6,1.4-4.6-0.6-6.5c-2-2-4.9-2.2-6.5-0.6c-1.6,1.6-1.4,4.6,0.6,6.5
		C-613,449.9-610.1,450.1-608.4,448.5 M-614.4,442c1-1,3-0.6,4.5,0.8c1.5,1.5,1.8,3.5,0.8,4.5c-1,1-3,0.6-4.5-0.8
		C-615.1,445-615.4,443-614.4,442"/>
</g>
</svg>
