<svg version="1.1" id="lm-hd-iconmenu" xmlns="http://www.w3.org/2000/svg" xmlns:xlink="http://www.w3.org/1999/xlink" x="0px" y="0px" width="20" height="20"
	 viewBox="0 0 120 120" style="enable-background:new 0 0 120 120;" xml:space="preserve">

<path id="lm-login-hd-iconleftrow" class="lm-login-hd-iconleftrow lm-iconcg" fill="#858585" d="M114.7,51.8l-80.6,0c10.3-10.3,25.8-25.8,26.7-26.7c1.7-1.7,1.5-5.1-0.2-6.8l-6.7-6.7
	c-2.1-2.1-4.9-1.6-6.5,0.1c0,0-45.5,45.6-45.7,46c-0.9,1.6-0.8,3.4,0,4.7c0.2,0.3,45.7,45.9,45.7,45.9c1.6,1.6,4.4,2.2,6.5,0.1
	l6.7-6.7c1.7-1.7,1.9-5,0.2-6.8C59.9,94,45.7,79.8,35.4,69.5c0.1,0,0.2,0,0.3,0c0.1,0,77.3,0,79,0c2.3,0,4.3-2.4,4.3-4.6v-8.8
	C119,53.3,116.8,51.8,114.7,51.8z M114,62.1c0,0-93.5,0-97.2,0c1.7,1.7,37.9,37.9,37.9,37.9c-0.4,0.4-3.7,3.7-3.7,3.7
	C50.8,103.5,7.3,60.1,7.3,60C7.4,59.9,50.7,16.5,51,16.3c0,0,3.4,3.4,3.7,3.7c0,0-35.8,35.8-37.2,37.2c3.5,0,96.1,0,96.5,0
	C114,57.2,114.1,61.6,114,62.1z"/>
</svg>