<?xml version="1.0" encoding="utf-8"?>
<!-- Generator: Adobe Illustrator 19.0.0, SVG Export Plug-In . SVG Version: 6.00 Build 0)  -->
<svg version="1.1" id="lm-hd-iconmenu" xmlns="http://www.w3.org/2000/svg" xmlns:xlink="http://www.w3.org/1999/xlink" x="0px"
	 y="0px" viewBox="-627 429.7 20 20" style="enable-background:new -627 429.7 20 20;" xml:space="preserve">
<style type="text/css">
	.lm-icon-explore{fill:#FFF;}
</style>
<path id="lm-login-hd-iconleftrow" class="lm-icon-explore" d="M-626.1,441.1h13.4c-1.7,1.7-4.3,4.3-4.4,4.5c-0.3,0.3-0.2,0.9,0,1.1l1.1,1.1
	c0.4,0.4,0.8,0.3,1.1,0c0,0,7.6-7.6,7.6-7.7c0.2-0.3,0.1-0.6,0-0.8c0,0-7.6-7.6-7.6-7.6c-0.3-0.3-0.7-0.4-1.1,0l-1.1,1.1
	c-0.3,0.3-0.3,0.8,0,1.1c0.1,0.1,2.5,2.5,4.2,4.2c0,0,0,0-0.1,0s-12.9,0-13.2,0c-0.4,0-0.7,0.4-0.7,0.8v1.5
	C-626.8,440.9-626.5,441.1-626.1,441.1z M-626,439.4c0,0,15.6,0,16.2,0c-0.3-0.3-6.3-6.3-6.3-6.3c0.1-0.1,0.6-0.6,0.6-0.6
	c0,0,7.3,7.3,7.3,7.3c0,0-7.2,7.2-7.3,7.3c0,0-0.6-0.6-0.6-0.6c0,0,6-6,6.2-6.2c-0.6,0-16,0-16.1,0C-626,440.2-626,439.5-626,439.4z
	"/>
</svg>
