<svg version="1.1" id="lm-iconbars" class="lm-hd-svg-icon lm-svg-icon" xmlns="http://www.w3.org/2000/svg" xmlns:xlink="http://www.w3.org/1999/xlink" x="0px" y="0px" viewBox="0 0 120 120" style="enable-background:new 0 0 120 120;" xml:space="preserve">
<path fill="none" stroke="#858585" stroke-width="2" stroke-linecap="round" stroke-linejoin="round" stroke-miterlimit="10" d="
	M10,1L10,1c2.3,0,4,1.9,4,4.1v1.7C14,9.1,12.2,11,10,11H10C7.8,11,6,9.1,6,6.9V5.1C6,2.9,7.8,1,10,1z"/>
<path fill="none" stroke="#858585" stroke-width="2" stroke-linecap="round" stroke-linejoin="round" stroke-miterlimit="10" d="
	M13.7,9c1.9,0,3.6,1.4,4,3.3l0.4,1.9c0.5,2.5-1.4,4.8-4,4.8H6c-2.6,0-4.5-2.3-4-4.8l0.4-1.9c0.4-1.9,2-3.3,4-3.3"/>
</svg>
