<svg version="1.1" id="lm-iconclose" class="lm-svg-icon" xmlns="http://www.w3.org/2000/svg" xmlns:xlink="http://www.w3.org/1999/xlink" x="0px" y="0px" viewBox="0 0 120 120" style="enable-background:new 0 0 120 120;" xml:space="preserve">
<path id="lm-login-hd-iconclose" class="lm-login-hd-iconclose lm-iconcg" fill="#858585" d="M114.8,90.7L85.3,61.2c11.8-11.9,28.5-28.5,30-30c3.2-3.2,2.8-9.6-0.3-12.7L102.3,5.8
	c-4-4-9.2-3-12.3,0.1L60,35.9L30,5.9c-3.1-3.1-8.3-4.1-12.3-0.1L5.1,18.4c-3.1,3.1-3.6,9.5-0.3,12.7c1.5,1.5,18.2,18.2,30,30
	L5.2,90.7c-3.1,3.1-4.1,8.3-0.1,12.3l12.6,12.6c3.1,3.1,9.5,3.6,12.7,0.3C32,114.4,48.2,98.2,60,86.4c11.8,11.8,28,28,29.5,29.5
	c3.2,3.2,9.6,2.8,12.7-0.3l12.6-12.6C118.9,99,117.9,93.7,114.8,90.7z M99.2,104.5c0,0-36.5-36.5-39.1-39.1
	c-2.6,2.6-39.1,39.1-39.1,39.1c-0.7-0.7-7-7-7-7c0.5-0.5,36-36,39.1-39.1c-2.2-2.2-36.8-36.8-36.8-36.8c0.7-0.7,7-7,7-7
	c0.5,0.5,34.4,34.4,36.8,36.8c2.4-2.4,36.4-36.4,36.8-36.8c0,0,6.4,6.3,7,7c0,0-34.6,34.6-36.8,36.8c3.2,3.2,38.7,38.7,39.1,39.1
	C106.2,97.5,99.9,103.8,99.2,104.5z"/>
</svg>
