<svg version="1.1" id="lm-iconbars" class="lm-hd-svg-icon lm-svg-icon" xmlns="http://www.w3.org/2000/svg" xmlns:xlink="http://www.w3.org/1999/xlink" x="0px" y="0px" viewBox="0 0 120 120" style="enable-background:new 0 0 120 120;" xml:space="preserve">
<path id="lm-hd-iconbars" class="lm-hd-iconbars lm-iconcg" fill="#858585" d="M103.6,8.8L60,8.8l-43.6,0c-3.2,0-6.4,2.1-6.4,6.3v13c0,3.2,3.1,6.7,6.4,6.7
	c2.5,0,43.1,0,43.1,0c0.2,0,0.3,0,0.5,0c0.2,0,0.3,0,0.5,0c0,0,40.7,0,43.1,0c3.3,0,6.4-3.5,6.4-6.7V15
	C110,10.9,106.8,8.8,103.6,8.8z M102.7,23.9c0,0-32,0-41.6,0c-1,0-1.7,0-2.2,0c-9.7,0-41.6,0-41.6,0c0-0.7,0-7.2,0-7.2
	c0.6,0,27,0,41.6,0c0.7,0,1.4,0,2.2,0c14.6,0,41,0,41.6,0C102.7,16.7,102.7,23.2,102.7,23.9z"/>
<path id="lm-hd-iconbars" class="lm-hd-iconbars lm-iconcg" fill="#858585" d="M103.6,47L60,47l-43.6,0c-3.2,0-6.4,2.1-6.4,6.3v13c0,3.2,3.1,6.7,6.4,6.7c2.5,0,43.1,0,43.1,0
	c0.2,0,0.3,0,0.5,0c0.2,0,0.3,0,0.5,0c0,0,40.7,0,43.1,0c3.3,0,6.4-3.5,6.4-6.7v-13C110,49.2,106.8,47,103.6,47z M102.7,62.2
	c0,0-32,0-41.6,0c-1,0-1.7,0-2.2,0c-9.7,0-41.6,0-41.6,0c0-0.7,0-7.2,0-7.2c0.6,0,27,0,41.6,0c0.7,0,1.4,0,2.2,0c14.6,0,41,0,41.6,0
	C102.7,54.9,102.7,61.5,102.7,62.2z"/>
<path id="lm-hd-iconbars" class="lm-hd-iconbars lm-iconcg" fill="#858585" d="M103.6,85.3l-43.6,0l-43.6,0c-3.2,0-6.4,2.1-6.4,6.3v13c0,3.2,3.1,6.7,6.4,6.7
	c2.5,0,43.1,0,43.1,0c0.2,0,0.3,0,0.5,0c0.2,0,0.3,0,0.5,0c0,0,40.7,0,43.1,0c3.3,0,6.4-3.5,6.4-6.7v-13
	C110,87.4,106.8,85.3,103.6,85.3z M102.7,100.4c0,0-32,0-41.6,0c-1,0-1.7,0-2.2,0c-9.7,0-41.6,0-41.6,0c0-0.7,0-7.2,0-7.2
	c0.6,0,27,0,41.6,0c0.7,0,1.4,0,2.2,0c14.6,0,41,0,41.6,0C102.7,93.2,102.7,99.7,102.7,100.4z"/>
</svg>