<?xml version="1.0" encoding="utf-8"?>
<!-- Generator: Adobe Illustrator 19.0.0, SVG Export Plug-In . SVG Version: 6.00 Build 0)  -->
<svg version="1.1" id="lm-icondropdown" xmlns="http://www.w3.org/2000/svg" xmlns:xlink="http://www.w3.org/1999/xlink" x="0px"
	 y="0px" viewBox="-622 433.7 30 12" style="enable-background:new -622 433.7 30 12;" xml:space="preserve">
<style type="text/css">
	.st0{fill:#858585;}
</style>
<path id="lm-icondropdown_1_" class="st0" d="M-613.6,445.3c0.2-0.2,5.5-5.5,6.6-6.6c1.1,1.1,6.4,6.4,6.6,6.6c0.3,0.3,1,0.3,1.3,0
	l1.3-1.3c0.4-0.4,0.3-0.9,0-1.2l-8.5-8.5c-0.4-0.4-1-0.3-1.2,0l-8.6,8.6c-0.3,0.3-0.4,0.8,0,1.2l1.3,1.3
	C-614.6,445.6-613.9,445.6-613.6,445.3z M-615.3,443.4c0.1-0.1,8.2-8.2,8.3-8.3c0.1,0.1,8.2,8.2,8.3,8.3c0,0-0.6,0.6-0.7,0.7
	c0,0-7.3-7.3-7.6-7.6c-0.3,0.3-7.6,7.6-7.6,7.6C-614.7,444.1-615.3,443.4-615.3,443.4z"/>
</svg>
