<?xml version="1.0" encoding="utf-8"?>
<!-- Generator: Adobe Illustrator 19.0.0, SVG Export Plug-In . SVG Version: 6.00 Build 0)  -->
<svg version="1.1" id="lm-lm-iconupload" xmlns="http://www.w3.org/2000/svg" xmlns:xlink="http://www.w3.org/1999/xlink" x="0px"
	 y="0px" width="30" height="25" viewBox="-622 433.7 30 16.5" style="enable-background:new -622 433.7 30 16.5;" xml:space="preserve">
	 <style type="text/css">
	.lm-iconupload{fill:#858585;}
</style>
<path class="lm-iconupload" d="M-597.9,442.6l-8.5-8.5c-0.4-0.4-1-0.3-1.2,0l-8.6,8.6c-0.3,0.3-0.4,0.8,0,1.2l1.3,1.3c0.3,0.3,1,0.4,1.3,0
	c0.2-0.2,2.6-2.6,4.5-4.5c0.1-0.1,0.3,0,0.3,0.1c0,3.7,0,8.3,0,8.5c0,0.5,0.5,0.9,0.9,0.9h1.8c0.6,0,0.8-0.5,0.8-0.9v-8.4
	c0-0.2,0.2-0.3,0.3-0.1c1.9,1.9,4.4,4.4,4.5,4.5c0.3,0.3,1,0.3,1.3,0l1.3-1.3C-597.4,443.5-597.5,443-597.9,442.6z M-599.4,444
	l-5.8-5.8c-0.4-0.4-1.1-0.1-1.1,0.4c0,2.7,0,8.4,0,10c0,0.3-0.2,0.5-0.5,0.5c-0.2,0-0.4,0-0.5,0c-0.3,0-0.5-0.2-0.5-0.5l0-10
	c0-0.6-0.7-0.8-1.1-0.4c-1.9,1.9-5.8,5.8-5.8,5.8c-0.1-0.1-0.7-0.7-0.7-0.7c0,0,7.1-7.1,8.2-8.2c0.1-0.1,0.2-0.1,0.3,0
	c1.1,1.1,8.1,8.1,8.2,8.1C-598.7,443.3-599.4,444-599.4,444z"/>
</svg>
