<svg version="1.1" id="lm-iconsearch" class="lm-hd-svg-icon lm-svg-icon" xmlns="http://www.w3.org/2000/svg" xmlns:xlink="http://www.w3.org/1999/xlink" x="0px" y="0px" width="20px" height="20px"
	 viewBox="0 0 120 120" style="enable-background:new 0 0 120 120;" xml:space="preserve">
<path  id="lm-hd-iconsearch" class="lm-hd-iconsearch lm-iconcg" fill="#858585" d="M116.5,98.6L60.9,42.9c2.2-10-1.2-21.9-10.1-30.7C38.2-0.4,19.1-2,8.4,8.7
	C-2.3,19.4-0.7,38.4,12,51.1c9,9,21.2,12.4,31.3,9.9c22.4,22.4,54.2,54.1,55.4,55.4c2.4,2.4,7.1,2.1,9.5-0.2l8.5-8.5
	C119.6,104.7,118.8,100.8,116.5,98.6z M26.3,44c-1.3-1-2.5-2-3.7-3.2c-8.7-8.7-11.3-20.2-5.8-25.7c5.5-5.5,17-2.9,25.7,5.8
	c3.3,3.3,5.8,7.1,7.2,10.8c1.7,4.4,1.9,8.7,0.5,12c-0.5,1.1-1.1,2.1-1.9,3c-1,1-2.1,1.7-3.4,2.1C39.8,50.6,32.7,48.8,26.3,44z
	 M104.9,108.9c0,0-30.1-30.1-52.4-52.4c0.7-0.5,1.3-1.1,1.9-1.7c1.2-1.2,2.2-2.4,3-3.8c22.2,22.2,52.3,52.3,52.6,52.6
	C110.2,103.6,105.4,108.3,104.9,108.9z"/>
</svg>