<?xml version="1.0" encoding="utf-8"?>
<!-- Generator: Adobe Illustrator 19.0.0, SVG Export Plug-In . SVG Version: 6.00 Build 0)  -->
<svg version="1.1" id="lm-icon-social" xmlns="http://www.w3.org/2000/svg" xmlns:xlink="http://www.w3.org/1999/xlink" x="0px"
	 y="0px" viewBox="-52 24.9 8.8 8.8" style="enable-background:new -52 24.9 8.8 8.8;" xml:space="preserve">
<style type="text/css">
	.lm-icon-twitter{fill:#676767;}
</style>
<path class="lm-icon-twitter" d="M-43.3,26.7c-0.3,0.1-0.6,0.2-1,0.3c0.4-0.2,0.6-0.6,0.8-1c-0.3,0.2-0.7,0.3-1.1,0.4c-0.3-0.3-0.8-0.6-1.3-0.6
	c-1,0-1.7,0.8-1.7,1.7c0,0.1,0,0.3,0,0.4c-1.5-0.1-2.7-0.8-3.6-1.8c-0.1,0.3-0.2,0.6-0.2,0.9c0,0.6,0.3,1.1,0.8,1.5
	c-0.3,0-0.6-0.1-0.8-0.2l0,0c0,0.8,0.6,1.6,1.4,1.7c-0.1,0-0.3,0.1-0.5,0.1c-0.1,0-0.2,0-0.3,0c0.2,0.7,0.9,1.2,1.6,1.2
	c-0.6,0.5-1.3,0.7-2.2,0.7c-0.1,0-0.3,0-0.4,0c0.8,0.5,1.7,0.8,2.7,0.8c3.2,0,5-2.7,5-5c0-0.1,0-0.2,0-0.2
	C-43.8,27.3-43.5,27-43.3,26.7z"/>
</svg>
