<?xml version="1.0" encoding="utf-8"?>
<!-- Generator: Adobe Illustrator 19.0.0, SVG Export Plug-In . SVG Version: 6.00 Build 0)  -->
<svg version="1.1" id="lm-icon-social" xmlns="http://www.w3.org/2000/svg" xmlns:xlink="http://www.w3.org/1999/xlink" x="0px"
	 y="0px" viewBox="-52 24.9 8.8 8.8" style="enable-background:new -52 24.9 8.8 8.8;" xml:space="preserve">
<style type="text/css">
	.lm-icon-vimeo{fill:#676767;}
</style>
<path class="lm-icon-vimeo" d="M-51.8,27.7c0.1,0.4,0.4,0.4,0.9,0.2s0.6-0.2,1.2,1.9c0.4,1.5,0.5,3.2,1.7,3.2c2.2,0,5.8-6.3,4.4-7.1
	c-1.7-1.1-3.4,1.3-3.3,1.7c0,0.1,1.4-0.5,1,1.2c-0.5,1.3-1.3,2.3-1.8,0.8c-0.4-1.6-0.1-2.8-0.9-3.5c-0.3-0.3-1.1-0.3-1.7,0.3
	C-51.1,27-51.9,27.5-51.8,27.7z"/>
</svg>
