<svg version="1.1" id="lm-logo-limononoto" class="lm-hd-svg-icon lm-svg-icon" xmlns="http://www.w3.org/2000/svg" xmlns:xlink="http://www.w3.org/1999/xlink" x="0px" y="0px"
	 viewBox="0 0 835 120" style="enable-background:new 0 0 835 120;" xml:space="preserve">
	 <style>
		 .lm-primary-logo {
		 	fill="#F31F29";
		 }
	 </style>
<g id="lm-iconprimlogo">
	<path id="lm-primary-logo" class="lm-primary-logo" fill="#F31F29" d="M56.5,109.6c-20.4,0-18.9-7.5-18.9-13c0,0,0-81.5,0-86.2C37.6,3.9,32.1,1,27,1H11.4
		C4.9,1,1.5,7.2,1.5,13.3l0,105.3c4,1.2,10.7-0.5,10.8-4.8c0-0.1,0-98.7,0-98.7c0.6,0,7.7,0,8.9,0c0,0,0.1,78.2,0.1,85.2
		c0,13.1,5.8,18.8,24.3,18.8c9.9,0,12-4.7,12.6-6.5C58.5,111.9,59.1,109.6,56.5,109.6"/>
	<path  id="lm-primary-logo" class="lm-primary-logo" fill="#F31F29" d="M319.8,107.8c-9.1,0-16.6-11.1-16.6-24.6c0-13.6,7.4-24.6,16.6-24.6
		c9.2,0,16.6,11.1,16.6,24.6C336.5,96.7,329,107.8,319.8,107.8 M317.3,46.9c-16.8,0-30.4,16.1-30.4,36c0,19.9,13.6,36.1,30.4,36.1
		c16.8,0,30.4-16.2,30.4-36.1C347.7,63,334.1,46.9,317.3,46.9"/>
	<path  id="lm-primary-logo" class="lm-primary-logo" fill="#F31F29" d="M116.7,110c-0.4,12.5-25.5,11.8-25.5-2l0-31.3l0-16.8h-8.9v49.6c0,9.6-10.7,9.5-10.7,9.5
		V60.6c0-0.9,0.1-1.9,0.3-2.9c0.2-1.1,0.6-2.2,1.1-3.2c1-2.1,2.9-5.8,6.7-7.4c0.1-0.1,0.2-0.1,0.4-0.2c0.3-0.1,17.8-0.3,18.6,0
		c5.5,2.2,8.3,8.5,8.4,17.4v43.9c0.6,0.5,1.1,1.2,2.7,1.1c1.1,0,2.3-0.3,3.3-1C114.6,107.3,116.7,107.8,116.7,110z"/>
	<path  id="lm-primary-logo" class="lm-primary-logo" fill="#F31F29" d="M489.1,107.8c-9.1,0-16.6-11.1-16.6-24.6c0-13.6,7.4-24.6,16.6-24.6
		c9.2,0,16.6,11.1,16.6,24.6C505.7,96.7,498.3,107.8,489.1,107.8 M486.6,46.9c-16.8,0-30.4,16.1-30.4,36c0,19.9,13.6,36.1,30.4,36.1
		c16.8,0,30.4-16.2,30.4-36.1C517,63,503.3,46.9,486.6,46.9"/>
	<path  id="lm-primary-logo" class="lm-primary-logo" fill="#F31F29" d="M270.5,67.4c-0.1-0.8-1.6-20.6-27-20.6c-24.7,0-25.7,18.7-25.7,20.9v40.7H208l0-41.1
		c-0.1-2.1-1.8-20.6-26.7-20.6c-24.7,0-26,18.7-26.1,20.9v40.8h-9l0-6.2c0-9.6-0.1-30.7-0.1-44.1c0-6.8,0.2-11.4-6.7-11.4
		c-4.1,0-8.7,2.4-11.7,5.6c-2.2,2.4-3.3,5.2-3.1,7.8c0.1,1.1,1,1.8,2.1,1.8c2.7,0,5.3-4.6,8.7-1.2c0,7.5,0,58,0,58h30.5l0-51.2
		c0-0.8,0.8-7.7,13.9-7.7c7.2,0,12.7,0.6,12.7,7.6V119h36.1l0-51.1c0.1-0.8,0.9-7.7,13.9-7.7c1.3,0,12.6,0.2,12.6,7.6l-0.1,51.2
		h15.6C270.5,118.9,270.5,73.7,270.5,67.4"/>
	<path  id="lm-primary-logo" class="lm-primary-logo" fill="#F31F29" d="M414.9,46.7c-24.7,0-25.9,18.6-26,20.8v40.9h-8.6c0-7.7,0-35.5,0-50.3
		c0-11.2-4.2-11.1-6.8-11.1c-4.1,0-8.6,2.1-11.6,5.4c-2.2,2.4-3.3,5.2-3.1,7.8c0.1,1.1,1.1,1.8,2.3,1.8c2.1,0,5.2-4.5,8.5-1.2
		c0,7.5,0,58.1,0,58.1h30l0-51.3c0-0.3,0.5-7.7,13.9-7.7c7.2,0,12.7,0.6,12.7,7.6V119h15.6l0-51.8C441.6,65.1,439.7,46.7,414.9,46.7
		"/>
	<path  id="lm-primary-logo" class="lm-primary-logo" fill="#F31F29" d="M658.4,107.8c-9.1,0-16.6-11.1-16.6-24.6c0-13.6,7.4-24.6,16.6-24.6
		c9.2,0,16.6,11.1,16.6,24.6C675,96.7,667.5,107.8,658.4,107.8 M655.8,46.9c-16.8,0-30.4,16.1-30.4,36c0,19.9,13.6,36.1,30.4,36.1
		c16.8,0,30.4-16.2,30.4-36.1C686.2,63,672.6,46.9,655.8,46.9"/>
	<path id="lm-primary-logo" class="lm-primary-logo" fill="#F31F29" d="M584.2,46.7c-24.7,0-25.9,18.6-26,20.8v40.9h-8.6c0-7.7,0-35.5,0-50.3
		c0-11.2-4.2-11.1-6.8-11.1c-4.1,0-8.6,2.1-11.6,5.4c-2.2,2.4-3.3,5.2-3.1,7.8c0.1,1.1,1.1,1.8,2.3,1.8c2.1,0,5.2-4.5,8.5-1.2
		c0,7.5,0,58.1,0,58.1h30l0-51.3c0-0.3,0.5-7.7,13.9-7.7c7.2,0,12.7,0.6,12.7,7.6V119H611l0-51.8C610.9,65.1,609,46.7,584.2,46.7"/>
	<path id="lm-primary-logo" class="lm-primary-logo" fill="#F31F29" d="M87.2,17.7c-7.1,0-12.9,4.7-12.9,10.5S80,38.6,87.2,38.6c7.1,0,12.9-4.7,12.9-10.5
		S94.3,17.7,87.2,17.7z M87.2,34.3c-3.1,0-5.5-2-5.5-4.5c0-2.5,2.5-4.5,5.5-4.5c3.1,0,5.5,2,5.5,4.5C92.7,32.3,90.2,34.3,87.2,34.3z
		"/>
	<path  id="lm-primary-logo" class="lm-primary-logo" fill="#F31F29" d="M805.6,107.8c-9.1,0-16.6-11.1-16.6-24.6c0-13.6,7.4-24.6,16.6-24.6
		c9.2,0,16.6,11.1,16.6,24.6C822.2,96.7,814.8,107.8,805.6,107.8 M803.1,46.9c-16.8,0-30.4,16.1-30.4,36c0,19.9,13.6,36.1,30.4,36.1
		c16.8,0,30.4-16.2,30.4-36.1C833.5,63,819.8,46.9,803.1,46.9"/>
	<path  id="lm-primary-logo" class="lm-primary-logo" fill="#F31F29" d="M764,109.1c-19.3,3-28.1-5.1-28.1-9.8c0,0,0-17.2,0-35c13.6,0,17.1,0,17.2,0
		c3.7-0.1,5.1-7.2,4.1-10.6l-21.3,0c0-13.9,0-26.1,0-27.7c0-5.5-4.7-7.9-9-7.9L709,18.4c-5.5,0-8.4,5.3-8.4,10.5l0,89.5
		c3.4,1,10.5-0.4,10.6-4.1c0-0.1-0.3-0.6-0.3-84c0,0,8.4,0,9.4,0c0,0,0.1,66.5,0.1,72.4c0,12.2,11.5,17.3,31.4,15.9
		c13.1-0.9,15.1-4.4,15.6-5.9C767.4,112.9,768.3,108.4,764,109.1z"/>
</g>
</svg>
