<?xml version="1.0" encoding="utf-8"?>
<!-- Generator: Adobe Illustrator 19.0.0, SVG Export Plug-In . SVG Version: 6.00 Build 0)  -->
<svg version="1.1" id="lm-logo-limononoto" xmlns="http://www.w3.org/2000/svg" xmlns:xlink="http://www.w3.org/1999/xlink" x="0px"
	 y="0px" viewBox="-629 424.7 16 30" style="enable-background:new -629 424.7 16 30;" xml:space="preserve">
<style type="text/css">
	.lm-secondary-logo{fill:#F31F29;}
</style>
<path id="lm-secondary-logo" class="lm-secondary-logo" d="M-614.4,452.1c-5.1,0-4.7-1.9-4.7-3.2c0,0,0-20.3,0-21.5c0-1.7-1.4-2.4-2.6-2.4h-3.9
	c-1.7,0-2.5,1.5-2.5,3.1v26.2c0.9,0.4,2.6-0.1,2.7-1.2v-24.5c0.1,0,1.9,0,2.3,0c0,0,0,19.4,0,21.2c0,3.2,1.4,4.6,6,4.6
	c2.5,0,3-1.2,3.1-1.7C-613.9,452.7-613.7,452.1-614.4,452.1"/>
</svg>
