<?xml version="1.0" encoding="utf-8"?>
<!-- Generator: Adobe Illustrator 19.0.0, SVG Export Plug-In . SVG Version: 6.00 Build 0)  -->
<svg version="1.1" id="Layer_1" xmlns="http://www.w3.org/2000/svg" xmlns:xlink="http://www.w3.org/1999/xlink" x="0px" y="0px"
	 viewBox="-120.8 -3.5 326.8 62.4" style="enable-background:new -120.8 -3.5 326.8 62.4;" xml:space="preserve">
<path fill-opacity="0" stroke-width="1" stroke="#BBBBBB" class="lm-loading-path" d="M202.8,20.1c0-4-4.7-20.8-28.6-20.8c-23.3,0-26.6,15.7-27.1,20.8l-0.1,19.6c0,8.5-10.4,8.1-10.4,0V20.1
	c0-4.4-4.1-20.9-28.2-20.9c-23.5,0-27.6,15.9-27.6,20.9v19.6c0,8.3-10.4,8.4-10.4,0V20.1c0-4.4-2.7-20.9-26.9-20.9
	C20-0.7,14.8,15.5,14.8,20.1v19.6c0,8.3-10.4,8.2-10.4,0V20.1c0-5.1-4.1-20.9-27.6-20.9c-24.1,0-28.2,16.3-28.2,20.9v19.5
	c0,8.5-10.4,8.7-10.4,0.1V20.1c0-4.9-3.8-20.8-27.1-20.8c-23.8,0-28.6,15.9-28.6,20.8c0,0,0,23.8,0,30.8c0,2.9,2.3,5.2,5.2,5.2l6,0
	c2.9,0,5.2-2.3,5.2-5.2l-0.1-30.1c0.7-7.1,11.9-7.3,13.3-7.3c10.3,0,13.8,4.1,14.7,6.5c0.3,0.8,0,22.4,0,30.9c0,2.9,2.3,5.2,5.2,5.2
	h27.7c2.9,0,5.2-2.3,5.2-5.2V21.1c0-7.4,5.8-8,13.4-8c13.8,0,14.7,7.3,14.7,8.1v29.7c0,2.9,2.3,5.2,5.2,5.2h28
	c2.9,0,5.2-2.3,5.2-5.2V21.3c0-0.3,1.2-8.1,12.1-8.1c10,0,10.6,6.7,10.6,7.8v29.9c0,2.9,2.3,5.2,5.2,5.2h27.7c2.9,0,5.2-2.3,5.2-5.2
	V21.2c0-0.8,0.8-8.1,14.7-8.1c7.6,0,13.4,0.6,13.4,8v29.8c0,2.9,2.3,5.2,5.2,5.2h27.7c2.9,0,5.2-2.3,5.2-5.2c0,0,0-29.8,0-32.2
	c1.5-2.3,6.1-5.2,14.7-5.2c1.3,0,12.6,0.2,13.3,7.3l-0.1,30.1c0,2.9,2.3,5.2,5.2,5.2l6,0c2.9,0,5.2-2.3,5.2-5.2
	C202.8,43.9,202.8,20.1,202.8,20.1z"/>
<path id="lm-loading-path" fill-opacity="0" stroke-width="3" stroke="#F31F29" class="lm-loading-path" d="M202.8,20.1c0-4-4.7-20.8-28.6-20.8c-23.3,0-26.6,15.7-27.1,20.8l-0.1,19.6c0,8.5-10.4,8.1-10.4,0V20.1
	c0-4.4-4.1-20.9-28.2-20.9c-23.5,0-27.6,15.9-27.6,20.9v19.6c0,8.3-10.4,8.4-10.4,0V20.1c0-4.4-2.7-20.9-26.9-20.9
	C20-0.7,14.8,15.5,14.8,20.1v19.6c0,8.3-10.4,8.2-10.4,0V20.1c0-5.1-4.1-20.9-27.6-20.9c-24.1,0-28.2,16.3-28.2,20.9v19.5
	c0,8.5-10.4,8.7-10.4,0.1V20.1c0-4.9-3.8-20.8-27.1-20.8c-23.8,0-28.6,15.9-28.6,20.8c0,0,0,23.8,0,30.8c0,2.9,2.3,5.2,5.2,5.2l6,0
	c2.9,0,5.2-2.3,5.2-5.2l-0.1-30.1c0.7-7.1,11.9-7.3,13.3-7.3c10.3,0,13.8,4.1,14.7,6.5c0.3,0.8,0,22.4,0,30.9c0,2.9,2.3,5.2,5.2,5.2
	h27.7c2.9,0,5.2-2.3,5.2-5.2V21.1c0-7.4,5.8-8,13.4-8c13.8,0,14.7,7.3,14.7,8.1v29.7c0,2.9,2.3,5.2,5.2,5.2h28
	c2.9,0,5.2-2.3,5.2-5.2V21.3c0-0.3,1.2-8.1,12.1-8.1c10,0,10.6,6.7,10.6,7.8v29.9c0,2.9,2.3,5.2,5.2,5.2h27.7c2.9,0,5.2-2.3,5.2-5.2
	V21.2c0-0.8,0.8-8.1,14.7-8.1c7.6,0,13.4,0.6,13.4,8v29.8c0,2.9,2.3,5.2,5.2,5.2h27.7c2.9,0,5.2-2.3,5.2-5.2c0,0,0-29.8,0-32.2
	c1.5-2.3,6.1-5.2,14.7-5.2c1.3,0,12.6,0.2,13.3,7.3l-0.1,30.1c0,2.9,2.3,5.2,5.2,5.2l6,0c2.9,0,5.2-2.3,5.2-5.2
	C202.8,43.9,202.8,20.1,202.8,20.1z"/>
</svg>
