<svg version="1.1" id="lm-hd-seclogo" class="lm-hd-svg-icon lm-svg-icon" xmlns="http://www.w3.org/2000/svg" xmlns:xlink="http://www.w3.org/1999/xlink" x="0px" y="0px" width="12" height="22"
	 viewBox="0 0 60 120" style="enable-background:new 0 0 60 120;" xml:space="preserve">
<path id="lm-hd-seclogo" class="lm-hd-seclogo lm-iconcg"  fill="#F31F29" d="M56.4,109.7c-20.4,0-18.9-7.5-18.9-13c0,0,0-81.5,0-86.2c0-6.4-5.5-9.3-10.6-9.3H11.4
	c-6.5,0-9.9,6.2-9.9,12.3l0,105.3c4,1.2,10.7-0.5,10.8-4.8c0-0.1,0-98.7,0-98.7c0.6,0,7.7,0,8.9,0c0,0,0.1,78.2,0.1,85.2
	c0,13.1,5.8,18.8,24.3,18.8c9.9,0,12-4.7,12.6-6.5C58.5,112.1,59.1,109.7,56.4,109.7"/>
</svg>