<?xml version="1.0" encoding="utf-8"?>
<!-- Generator: Adobe Illustrator 19.0.0, SVG Export Plug-In . SVG Version: 6.00 Build 0)  -->
<svg version="1.1" id="lm-gapura" xmlns="http://www.w3.org/2000/svg" xmlns:xlink="http://www.w3.org/1999/xlink" x="0px" y="0px"
	 viewBox="-140.5 116 1023 1050" style="enable-background:new -140.5 116 1023 1050;" xml:space="preserve">
<style type="text/css">
	.st0{fill:#DEBEBD;}
</style>
<g>
	<path class="st0" d="M883.2,630.3c0,0.1,0,0.2,0.1,0.3c0.1,0,0.2,0.1,0.3,0.1h42.1c0.1,0,0.2,0,0.3-0.1s0.1-0.2,0.1-0.3
		c-0.5-4.9,0.3-10.2,2.2-15.3c4.6-12.6,19.3-17.7,30.5-18.3c0.2,0,0.3-0.2,0.3-0.4v-55.4c0-0.2-0.1-0.4-0.3-0.4
		c-11.8-0.5-20.8-4.8-26.7-13c-6.6-9.1-7.2-20.3-6.3-23.5c0-0.1,0-0.2-0.1-0.3c-0.1,0-0.2-0.1-0.3-0.1h-42.1c-0.1,0-0.2,0-0.3,0.1
		c-0.1,0.1-0.1,0.2-0.1,0.3c0.5,4.9-0.3,10.2-2.2,15.3c-4.6,12.3-18.8,16.3-24.7,17.4c-0.2,0.1-0.3,0.2-0.3,0.4V594
		c0,0.2,0.1,0.4,0.3,0.4c9.7,1.9,17.1,6.8,22,14.7C883.4,617.7,884,627.3,883.2,630.3z M878.7,608.5c-4.9-7.8-12.6-13-22.2-14.9
		v-56.3c6.2-1.2,20.3-5.4,24.9-17.8c1.9-5,2.7-10.3,2.3-15.2h41.2c-0.6,3.5-0.2,14.3,6.6,23.7c6,8.2,15,12.7,26.9,13.3v54.6
		c-11.3,0.7-26.1,6-30.8,18.7c-1.9,5-2.7,10.3-2.3,15.2H884C884.7,626.2,883.9,616.9,878.7,608.5z"/>
	<path class="st0" d="M753.1,191.7c2.8,0,5.1-2.3,5.1-5.1c0-2.8-2.3-5.1-5.1-5.1c-2.8,0-5.1,2.3-5.1,5.1
		C748,189.4,750.3,191.7,753.1,191.7z M753.1,182.2c2.4,0,4.4,1.9,4.4,4.4c0,2.4-2,4.4-4.4,4.4s-4.4-2-4.4-4.4
		C748.7,184.2,750.7,182.2,753.1,182.2z"/>
	<path class="st0" d="M754.4,471c-4,1.5-8.2,2.4-12.1,2.8c-0.2,0.1-0.3,0.2-0.3,0.4v90.6c0,0.2,0.1,0.4,0.3,0.4
		c4.4,0.4,8.5,1.3,12.1,2.8c0.2,0.1,0.3,0.1,0.4,0.2c0.2,0.1,0.3,0.1,0.4,0.2c5.2,2.3,9.5,5.9,12.9,10.7c3.5,4.9,5.1,10.1,5.8,13.5
		c0.9,4.2,0.8,7.6,0.4,9.1c0,0.1,0,0.2,0.1,0.3c0.1,0,0.2,0.1,0.3,0.1h42.1c0.1,0,0.2,0,0.3-0.1c0.1-0.1,0.1-0.2,0.1-0.3
		c-0.5-4.9,0.3-10.2,2.2-15.3c4.1-11,16.5-16.4,27.3-17.9c0.2,0,1.5-0.1,1.9-0.1c0.2,0,0.2-0.3,0.2-0.5v-76.8v-0.4v-0.4v-13.1
		c0-0.2-0.1-0.4-0.3-0.4c-11.3-0.9-20-5.6-25.7-13.8c-3.4-4.9-5-10.1-5.7-13.5c-0.9-4.2-0.8-7.6-0.4-9.1c0-0.1,0-0.2-0.1-0.3
		c-0.1,0-0.2-0.1-0.3-0.1h-42.1c-0.1,0-0.2,0-0.3,0.1c-0.1,0.1-0.1,0.2-0.1,0.3c0.5,4.9-0.3,10.2-2.2,15.3
		c-2.7,7.4-9.2,12.3-16.4,15.1c-0.2,0-0.2,0.1-0.4,0.1C754.6,470.9,754.5,471,754.4,471z M755.3,471.6c7.5-2.9,14.2-7.9,17.1-15.6
		c1.9-5,2.7-10.3,2.3-15.2H816c-0.8,3.9,0.2,14.1,6.3,22.8c5.9,8.3,14.6,13.1,25.9,14.1v90.1c-0.2,0-1.3,0.1-1.4,0.1
		c-11.1,1.5-23.8,7-28,18.3c-1.9,5-2.7,10.3-2.3,15.2h-41.3c0.7-3.9-0.3-14.1-6.4-22.8c-3.5-5-8-8.7-13.5-11.1
		c-0.2-0.1-0.3-0.1-0.4-0.2c-0.2-0.1-0.3-0.2-0.4-0.2c-3.5-1.4-7.4-2.3-11.7-2.7v-89.9c3.8-0.4,7.8-1.3,11.7-2.7
		c0.2,0,0.3-0.1,0.4-0.1C755.1,471.7,755.2,471.6,755.3,471.6z"/>
	<path class="st0" d="M906,605.9c0.1,0,0.2,0,0.2-0.1l37.6-37.1c0.1-0.1,0.1-0.2,0.1-0.3s0-0.2-0.1-0.3L906.2,530
		c-0.1-0.1-0.4-0.1-0.5,0l-37.6,38.1c-0.1,0.1-0.1,0.2-0.1,0.3s0,0.2,0.1,0.3l37.6,37.1C905.8,605.9,905.9,605.9,906,605.9z
		 M906.1,530.9l37.1,37.4l-37.1,36.6L869,568.3L906.1,530.9z"/>
	<path class="st0" d="M793.5,561.1c21,0,38-17,38-38s-17-38-38-38s-38,17-38,38S772.5,561.1,793.5,561.1z M793.5,485.8
		c20.6,0,37.3,16.7,37.3,37.3s-16.7,37.3-37.3,37.3s-37.3-16.7-37.3-37.3S772.9,485.8,793.5,485.8z"/>
	<path class="st0" d="M793.5,541.1c10,0,18-8,18-18c0-9.9-8.1-18-18-18s-18,8.1-18,18S783.6,541.1,793.5,541.1z M793.5,505.8
		c9.6,0,17.3,7.8,17.3,17.3s-7.8,17.3-17.3,17.3s-17.3-7.8-17.3-17.3S784,505.8,793.5,505.8z"/>
	<path class="st0" d="M906.4,586l17.7-17.5c0.2-0.2,0.2-0.3,0.2-0.4c0-0.2,0-0.2-0.2-0.4l-17.8-18.1c-0.1-0.1-0.2-0.1-0.3-0.1
		s-0.2,0-0.3,0.1l-17.8,18.1c-0.1,0.1-0.2,0.2-0.2,0.4s0,0.2,0.2,0.4l17.8,17.6c0.1,0.1,0.2,0.2,0.4,0.2
		C906.2,586.2,906.4,586.2,906.4,586z M906,585.2l-17.2-17.1l17.2-17.4l17.2,17.4L906,585.2z"/>
	<path class="st0" d="M1020.5,942.9h-2.5v-48.4c0,0,0-50.1,0-50.7l-32.5-38v-14.4c0-0.2-0.2-0.5-0.4-0.5h-4V788
		c0-0.2-0.2-0.6-0.4-0.6h-2.9v-3.1h7.2c0.2,0,0.4-0.2,0.4-0.4v-31c0-0.2-0.2-0.5-0.4-0.6l-12.8-5.8v-30.3V685v-8.1
		c0-1,0.4-23.8-3.1-27.8v-5.6c0-0.2-0.2-0.4-0.4-0.4H962V491.2l7.8-2.9c0.1-0.1,2.2-0.5,2.2-0.6h12c0.2,0,0.4-0.2,0.4-0.4v-80.5
		c0-0.1,0-0.9-0.1-1c-0.1-0.1-0.2-0.1-0.3-0.1s-7.4,0.3-14.7,5.1c-0.4,0.3-0.6,0.3-1.3,1.1h-18v-4.6c0-0.2-0.2-0.4-0.4-0.4H920
		c1.1-0.9,1.7-1.6,3-3c1.5-1.7,3.3-3.7,5.9-5.9c13.6-11.6,14.4-40.8,14.4-41.1c0-0.1-0.1-0.2-0.2-0.3c-0.1-0.1-0.3-0.1-0.4,0
		l-9.4,6.1c12.2-12.3,9.2-30.3,9.2-30.5s-0.1-0.2-0.2-0.3c-0.1,0-0.2,0-0.3,0l-4.9,2.2c-0.1-0.2-0.1-0.4-0.2-0.4l-2.1-0.5
		c4.3-3.9,6.6-9.3,6.6-15.1c0-11.5-9.5-20.9-21.1-20.9c-11.6,0-21.1,9.4-21.1,20.9c0,3.1,0.7,6.1,2,8.9c-2.1,0.2-10.1,0.8-14,7.6
		c-1.5,2.3-2.3,4.2-2.5,4.9h-1v-21.1c0-0.1,0-0.4-0.1-0.5c-0.1-0.1-0.4-0.1-0.5-0.1c-0.2,0-14.3,0.7-23.4,12.8h-27.4v-6.1
		c0-0.2-0.2-0.5-0.4-0.5H824v-1.4l6.4-3.2h1.5c0.2,0,0.4-0.2,0.4-0.4v-65.7c0-0.1,0-0.5-0.1-0.6c-0.1-0.1-0.2-0.1-0.3-0.1
		c-0.2,0-6.2,1.7-12.2,6.5h-9.3v-3.3c0-0.2-0.2-0.4-0.4-0.4h-2.2l1.2-4.2h5.9c0.2,0,0.4-0.2,0.4-0.4V196c0-0.1,0-0.2-0.1-0.3
		c-0.1-0.1-0.2-0.1-0.3-0.1c-0.1,0-7.4,2.3-13.2,8.4h-12.5v-3.7c0-0.2-0.2-0.4-0.4-0.4h-12.2v-5.3v-0.2c0-0.2-0.2-0.4-0.4-0.4h-2.5
		c1.1-2.5,1.7-5.1,1.7-7.8c0-1.5-0.2-3-0.6-4.5c-2-8.1-9.3-13.7-17.6-13.7c-0.4,0-0.8,0-1.2,0c1.1-2.4,1.6-5.1,1.6-7.8
		c0-10.1-7.3-18.3-16.3-18.3c-3.4,0-6.6,1.2-9.2,3.2v-4.3c0-0.2-0.2-0.4-0.4-0.4h-3.3h-3.2c-0.1,0-0.2,0.1-0.3,0.2l-2.4,5.8v0.1
		v54.1l-0.6,0.6c-0.1,0.1-0.1,0.2-0.1,0.3V257v0.1v0.1l1.8,3.7v5.1l-1.7,1.7c-0.1,0.1-0.1,0.2-0.1,0.3v522.3H716c-0.1,0-0.1,0-0.1,0
		c-0.1,0-0.1,0-0.1,0l-0.1,0.1v0.1v76.7H689c-0.1,0-0.1,0-0.1,0c-0.1,0-0.1,0-0.1,0l-0.1,0.1v0.1v36.1H506h-95.6h-357v-36.1v-0.1
		l-0.1-0.1c0,0,0,0-0.1,0c0,0,0,0-0.1,0H26.3v-76.7v-0.1l-0.1-0.1c0,0,0,0-0.1,0c0,0,0,0-0.1,0h-5.8V268c0-0.1,0-0.2-0.1-0.3
		l-1.7-1.7v-5.1l1.8-3.7v-0.1V257v-55.5c0-0.1,0-0.2-0.1-0.3l-0.6-0.6v-54.1v-0.1l-2.4-5.8c-0.1-0.1-0.2-0.2-0.3-0.2h-3.2h-3.3
		c-0.2,0-0.4,0.2-0.4,0.4v4.3c-2.6-2-5.8-3.2-9.2-3.2c-9,0-16.3,8.2-16.3,18.3c0,2.7,0.5,5.4,1.6,7.8c-0.4,0-0.8,0-1.2,0
		c-8.3,0-15.6,5.6-17.6,13.7c-0.4,1.5-0.6,3-0.6,4.5c0,2.7,0.6,5.3,1.7,7.8h-2.5c-0.2,0-0.4,0.2-0.4,0.4v0.2v5.3h-12.2
		c-0.2,0-0.4,0.2-0.4,0.4v3.7h-12.5c-5.8-6.1-13.1-8.4-13.2-8.4c-0.1,0-0.2,0-0.3,0.1c-0.1,0.1-0.1,0.2-0.1,0.3v54.8
		c0,0.2,0.2,0.4,0.4,0.4h5.9l1.2,4.2H-68c-0.2,0-0.4,0.2-0.4,0.4v3.3h-9.3c-6-4.8-12-6.5-12.2-6.5c-0.1,0-0.2,0-0.3,0.1
		c-0.1,0.1-0.1,0.5-0.1,0.6V319c0,0.2,0.2,0.4,0.4,0.4h1.5l6.4,3.2v1.4h-7.9c-0.2,0-0.4,0.3-0.4,0.5v6.1h-27.4
		c-9.1-12.1-23.2-12.8-23.4-12.8c-0.1,0-0.4,0-0.5,0.1c-0.1,0.1-0.1,0.4-0.1,0.5v21.1h-1c-0.2-0.7-1-2.6-2.5-4.9
		c-3.9-6.8-11.9-7.4-14-7.6c1.3-2.8,2-5.8,2-8.9c0-11.5-9.5-20.9-21.1-20.9c-11.6,0-21.1,9.4-21.1,20.9c0,5.8,2.3,11.2,6.6,15.1
		l-2.1,0.5c-0.1,0-0.1,0.2-0.2,0.4l-4.9-2.2c-0.1,0-0.2,0-0.3,0c-0.1,0.1-0.2,0.1-0.2,0.3c0,0.2-3,18.2,9.2,30.5l-9.4-6.1
		c-0.1-0.1-0.3-0.1-0.4,0c-0.1,0.1-0.2,0.2-0.2,0.3c0,0.3,0.8,29.5,14.4,41.1c2.6,2.2,4.4,4.2,5.9,5.9c1.3,1.4,1.9,2.1,3,3h-29.6
		c-0.2,0-0.4,0.2-0.4,0.4v4.6h-18c-0.7-0.7-0.9-0.8-1.3-1.1c-7.3-4.8-14.6-5.1-14.7-5.1c-0.1,0-0.2,0-0.3,0.1
		c-0.1,0.1-0.1,0.9-0.1,1v80.5c0,0.2,0.2,0.4,0.4,0.4h12c0,0.1,2.1,0.5,2.2,0.6l7.8,2.9v151.9h-6.7c-0.2,0-0.4,0.2-0.4,0.4v5.6
		c-3.5,4-3.1,26.8-3.1,27.8v8.1v31.2v30.3l-12.8,5.8c-0.2,0.1-0.4,0.4-0.4,0.6v31c0,0.2,0.2,0.4,0.4,0.4h7.2v3.1h-2.9
		c-0.2,0-0.4,0.4-0.4,0.6v2.9h-4c-0.2,0-0.4,0.3-0.4,0.5v14.4l-32.5,38c0,0.6,0,50.7,0,50.7v48.4h-2.5c-0.2,0-0.4,0.2-0.4,0.4V960
		c0,0.2,0.2,0.4,0.4,0.4h77.8v58.6h-2.5c-0.2,0-0.4,0.2-0.4,0.4v17c0,0.2,0.2,0.4,0.4,0.4H-0.9l-7,13v26.4l-22.8,41.9v23.1
		c0,0.2,0.2,0.4,0.4,0.4h440.6H506h266.3c0.2,0,0.4-0.2,0.4-0.4v-23.1l-22.8-41.9v-26.4l-7-13h202.3c0.2,0,0.4-0.2,0.4-0.4v-17
		c0-0.2-0.2-0.4-0.4-0.4h-2.5v-58.6h77.8c0.2,0,0.4-0.2,0.4-0.4v-16.7C1020.9,943.1,1020.7,942.9,1020.5,942.9z M942.4,919.4
		l-9.3-10.6v-14.9h57.8h26.2v49h-74.6v-19L942.4,919.4z M720.8,969.9h67.9h23v49.2H733l-3.2-5.9v-26.3c0-0.1,0-0.1,0-0.1
		c0-0.1,0-0.1,0-0.2L720.8,969.9z M410.3,962H506h209.9l13.1,24.4H506h-95.6H13L26.1,962H410.3z M26.3,961.4v-7.1h384H506h209.7v7.1
		H506h-95.6H26.3z M716.3,961.6v-7.1v-0.7v-29.5h72v18.6v0.4v0.4V959v0.4v0.4v9.3h-67.9L716.3,961.6z M21.6,969.1h-67.9v-9.3v-0.4
		V959v-15.3v-0.4v-0.4v-18.6h72v29.5v0.7v7.1L21.6,969.1z M25.8,923.7h-225.6V920H25.8V923.7z M-134.7,924.3V943v0.4v0.4v15.3v0.4
		v0.4v9.3h-65.1v-44.8L-134.7,924.3z M-134.3,969.9h63.8v49.1h-129.3v-49.1H-134.3z M-134,969.2v-9.4v-0.4V959v-15.3v-0.4v-0.4
		v-18.6h86.9v18.6v0.4v0.4V959v0.4v0.4v9.3h-23.1L-134,969.2z M-69.7,969.9h23h67.9l-9,16.7c0,0.1,0,0.1,0,0.2c0,0,0,0,0,0.1v26.3
		l-3.2,5.9h-78.7V969.9z M12.7,987.1h12.9H26h0.4h383.9H506h223.2h0.1v25.7H506h-95.6h-384h-0.4h-0.4H12.7V987.1z M789.1,969.1
		L789.1,969.1v-9.3v-0.4V959v-15.3v-0.4v-0.4v-18.6H876v18.6v0.4v0.4V959v0.4v0.4v9.4l-63.8-0.1H789.1z M812.5,969.9h63.8h65.5v49.1
		H812.5V969.9z M876.7,969.2v-9.3v-0.4v-0.4v-15.3v-0.4V943v-18.7l65.1,0.1v44.8H876.7z M716.2,923.7V920h225.6v3.7H716.2z
		 M919.4,893.3L919.4,893.3l-13-14.8V868c0-0.2-0.2-0.4-0.4-0.4h-6.2v-7.9h6.2c0.2,0,0.3-0.2,0.3-0.4v-14.8h84.2v48.8H919.4z
		 M932.4,893.9V908L920,893.9H932.4z M734.3,867.5v-7.8h164.8v7.9L734.3,867.5z M881.2,868.2v44.5h-93.3v-44.5H881.2z M787.3,868.2
		v44.5h-14.7h-0.4h-0.4h-37.4v-44.5H787.3z M734.4,858.9v-30.5h45.2v14.9v0.4v0.4v14.8L734.4,858.9z M780.1,858.9v-14.7v-0.4v-0.4
		v-15.1h2.9h0.4h0.4h28.7h0.4h0.4h33.2h0.4h0.4h31.1v7.5v0.4v0.4v6.7v0.3v0.1v0.3v0.1v0.3v14.5L780.1,858.9z M906.2,827.7l-11.9-6
		v-30.2h46.4V836h-34.3v-8v-0.1C906.3,827.8,906.3,827.8,906.2,827.7z M879.1,858.9v-30.6h26.6v30.6H879.1z M882,868.2h14.4h0.5h0.5
		h1.3h0.4h0.4h6.2v9.4v0.5v0.5v14.5v0.4v0.4v18.8h-13.2h-0.4h-0.4H882V868.2z M991.2,893.3v-48.9h25.9v48.8L991.2,893.3z
		 M985.4,836.4v-29.6l31.4,36.7H906.4v-6.7H941h44C985.2,836.8,985.4,836.6,985.4,836.4z M984.7,791.6V836h-43.3v-44.4H984.7z
		 M980.3,788.1v2.8l-86.1-0.1v-2.7H980.3z M894.3,787.4v-3.1h71.8h0.5h0.5h10.1v3.1h-7.5h-0.5h-0.5H894.3z M984.7,783.6h-90.4v-5.9
		v-0.4v-0.4V761c0-0.1,0-0.1,0-0.1c0-0.1-0.1-0.2-0.1-0.2l-8.1-7.7h98.6V783.6z M738.6,615.3c0,0,124.8-0.1,125.3,0
		c2.2,0,8.1,3.1,10.7,7.9c2.7,4.3,3.4,7.7,3.7,9.1h-26.1h-0.4h-0.4h-3.9h-0.4h-0.4H738.5C738.7,626.6,739,617.7,738.6,615.3z
		 M772.2,376.8v-8.3h80v8.3H772.2z M852.1,377.5v18.7v0.4v0.4v2.8h-80v-22.3H852.1z M772.1,367.8v-6.2c0-1.6-0.1-3.2-0.2-4.7h80.3
		v10.9H772.1z M771.8,356.2c-0.3-2.9-0.9-5.6-1.7-8.1h82.5c-0.4,2.1-0.4,8.1-0.4,8.1H771.8z M769.9,347.4c-0.3-0.8-0.6-1.5-0.9-2.3
		h84.1c-0.1,0.7-0.3,1.5-0.4,2.3H769.9z M771.6,361.6v38.2h-32.9v-78C739.6,322,771.6,328.5,771.6,361.6z M852.2,400.5
		c0,0.2,0.1,0.3,0.3,0.3h20.3l-1.1,1.1l-19.1,7.5H738.7v-0.3v-0.4v-0.4v-7.8H852.2z M868.2,403.9v2.9h-7.6L868.2,403.9z
		 M886.1,463.9v-8.3h68.5v8.3H886.1z M954.6,464.6v22.2h-68.5v-22.2H954.6z M886.1,454.9v-6.8c0-1.4-0.1-2.8-0.2-4.1h68.7v10.9
		H886.1z M885.9,443.3c-0.3-2.9-0.9-5.6-1.6-8.1h70.9c-0.4,2.8-0.6,5.6-0.6,8.1H885.9z M885.2,443.2c0,0.2,0,0.3,0,0.4
		c0,0.2,0,0.3,0,0.4c0.1,1.3,0.2,2.7,0.2,4.1v6.8v0.4v0.1v8.3v0.4v0.4v22.3l-32.2-0.1v-59.3l0.1-7c0-0.2-0.2-0.4-0.4-0.4h-0.7v-4.2
		h0.7c0.2,0,0.4-0.2,0.4-0.4v-3V412v-0.4v-1.8l2.9-1.2c2,0.7,4.2,1.5,7.1,2.9c0.2,0.2,0.5,0.3,0.7,0.4c0.3,0.2,0.5,0.3,0.7,0.4
		c1.3,0.7,2.7,1.5,4,2.4c5.4,3.7,11.6,9.9,14.7,19.5c0,0.2,0.1,0.3,0.1,0.4c0,0.2,0.1,0.3,0.1,0.4
		C884.4,437.6,884.9,440.3,885.2,443.2z M874.5,621.8c-1.8-2.7-6.6-7.3-11.3-7.3h-10.1l0.1-123.3h108.2v151.9H880
		c-0.3-0.9-0.5-1.6-0.8-2c0-0.1,0-0.1,0-0.2v-8.2C879.1,632.6,878.1,626.8,874.5,621.8z M738.6,427.1v-6.3h113.8v6.3H738.6z
		 M852.4,427.7v186.8H738.6V427.7h15.9h0.4h0.4H852.4z M842.8,420.1v-4.2h8.6v4.2H842.8z M852.6,410.2v4.9h-114v-4.9H852.6z
		 M842.2,415.9v4.2h-86.7h-0.4h-0.4h-16.1v-4.2H842.2z M738.5,633.1h140v7.5h-140V633.1z M754.5,641.2L754.5,641.2l0.4,0h0.4h91.4
		h0.4h0.4h3.9h0.4h0.4h26.2c0.3,0.4,0.5,1,0.8,1.8c0,0.2,0.1,0.3,0.1,0.4c0,0.2,0.1,0.3,0.1,0.4c0.3,1.2,0.7,2.9,0.9,4.8
		c0.1,0.2,0.1,0.3,0.1,0.4c0.1,0.2,0.1,0.3,0.1,0.4c0.9,6.1,1.4,15,1.5,26.4c0,0.2,0,0.3,0,0.4c0,0.2,0,0.3,0,0.4c0,0.4,0,0.7,0,1.1
		c0,2.2-0.1,4.3-0.1,6.3c0,0.1,0,0.2,0,0.3s0,0.2,0,0.3c-0.4,18.6-2.4,28.6-4.2,28.6h-2.5h-58.5h-0.4h-0.4h-60.4h-0.4h-0.4h-15.5
		c3.3-6.2,2.2-59.9-0.5-72H754.5z M971.5,684.7v61.8h-85.3c-0.2-7-0.8-17.5-3.2-19.9c-0.1-0.1-0.2-0.1-0.3-0.1h-3.5v-6.2
		c0-0.2-0.2-0.4-0.4-0.4h-3.5V716v-0.4v-0.4V714h2.4c0.6,0,2.5,0,3.8-11.5c0.6-4.9,1-11,1.1-17.8H971.5z M882.6,683.9c0-2,0-7,0-7.4
		h88.9v7.4H882.6z M754.5,713.9L754.5,713.9l0.4,0h0.4h60.4h0.4h0.4h58.1v1.2v0.4v0.4v3.8h-58.2H816h-0.4h-19h-0.4h-0.4h-40.5h-0.4
		h-0.4h-16v-5.8H754.5z M754.5,720.5h0.4h0.4h40.9h0.4h0.4h18.7h0.4h0.4h58.4h3.5v5.9h-61.9h-0.4h-0.4h-15.8h-0.4h-0.4h-43.8h-0.4
		h-0.4h-16v-5.9H754.5z M754.5,727L754.5,727l0.4,0h0.4h44.2h0.4h0.4h15.4h0.4h0.4v-0.1h62.2h3.7c2.2,2.4,2.8,12.5,2.9,19.3
		c0,0.2,0,0.3,0,0.4c0,0.2,0,0.3,0,0.4c0,2.4,0,5.4,0,5.5h-72.6h-0.4h-56.8h-0.4h-0.4h-15.1c2.3-3.7-0.5-22.4-1-25.5H754.5z
		 M754.5,753.3h0.4h0.4h57.3h0.4h0.4l71.9-0.3l7.8,7.7h-79.6h-0.4h-0.4h-57.4h-0.4h-0.4h-16v-7.4H754.5z M738.5,791.3v-0.4v-0.4
		v-29.1h16h0.4h0.4h57.3h0.4h0.4v-0.1h80.3v60.4H738.5V791.3z M983.5,752.3l-97.4,0.2c0-0.9,0-3.1,0-5.5h85.7L983.5,752.3z
		 M971.5,675.9h-88.8c-0.1-8.9-0.5-17.5-1.2-23.8c-0.1-1-0.2-1.8-0.3-2.6h87.4C971.7,653,971.5,672.9,971.5,675.9z M968.4,643.8v5
		h-87.3c-0.3-2.2-0.7-3.8-1-5h81.6H968.4z M961.7,490.5H853.2v-2.8h116.3L961.7,490.5z M968.2,412.5c0.2-0.2,1.3-1,1.5-1.1
		c6.2-4,12.4-4.8,14-4.9v80.2h-13.8l-14.7,0.1V465v-0.4v-0.4v-8.3v-0.4v-0.4v-10.9v-0.4v-0.1c0-0.1,0-0.2,0-0.3
		c0-2.5,0.2-5.3,0.6-8.1c0.1-0.2,0.1-0.3,0.1-0.4c0.1-0.2,0.1-0.3,0.1-0.4C957.3,426.6,960.6,418.2,968.2,412.5z M949.8,412.6H967
		c-7.2,5.9-10.4,14.2-11.7,22h-71.2c-3.5-11.1-11.1-17.9-18.1-22h2.6H949.8z M949.4,407.5v4.4h-80.5h-0.4h-0.4h-3.5
		c-2.9-1.6-5.7-2.7-7.9-3.5l2.3-0.9h9.1h0.4h0.4h49.8H949.4z M916.2,328.6c0.5,0.1,1,0.2,1.4,0.2c0.5,0.1,1,0.2,1.6,0.2
		c4,0,7.3-3.3,7.3-7.3c0-0.2,0-0.3,0-0.5c-0.1-0.2-0.1-0.4-0.1-0.6c0-0.1,0-0.1,0-0.1c-0.5-3.5-3.6-6.2-7.2-6.2
		c-4,0-7.3,3.3-7.3,7.3c0,2.5,1.2,4.8,3.2,6.1c-5.2-0.8-9.5-1.2-12.9-1c-1.5-2.9-2.2-5.9-2.2-9.1c0-11.1,9.2-20.2,20.4-20.2
		c11.2,0,20.4,9.1,20.4,20.2c0,5.8-2.5,11.4-6.9,15.2c-0.1,0,0,0.4,0.1,0.5l2,0.5c-1.4,0.8-2.6,1.5-3.9,2.1
		c-2.9,1.5-5.7,2.7-8.2,3.7c-0.1,0.1-0.3,0.1-0.4,0.2c-15,5.5-23.1,1.8-26.2-0.4c-3.4-2.4-4.6-5.5-4.2-7.4c0-0.3,0.1-0.6,0.2-0.8
		c0-0.1,0.1-0.1,0.1-0.2c0.1-0.2,0.3-0.4,0.4-0.6c2.4-2.4,4.9-2.5,5.3-2.6C903,327.1,908.7,327.4,916.2,328.6z M912.7,321.6
		c0-3.6,3-6.6,6.6-6.6c3.3,0,6,2.4,6.5,5.6c0,0.5,0.1,3.8-2.1,5.8c-1.4,1.3-3.4,1.8-6,1.6C914.8,327.3,912.6,324.7,912.7,321.6z
		 M883.7,400.3v-60.2h1.5c0.1,0,0.2-0.1,0.3-0.4c0,0,2.4-7.7,8.3-10.4l-0.1,0.1c-0.1,0.1-4.6,4.9,4,11.1c0.1,0.1,0.3,0.2,0.4,0.3
		c2.2,1.3,5.7,2.6,10.9,2.6c4.7,0,10.7-1.1,18.2-4.3c1.1-0.4,2.2-0.9,3.3-1.5c0.7-0.3,1.3-0.7,2-1l9.6-4.3c0.4,3.2,2.1,22.3-13.4,33
		l-1.9,1.2c-0.2,0.1-0.2,0.3-0.1,0.5c0.1,0.1,0.3,0.2,0.5,0.1c0.6-0.4,1.3-0.8,1.9-1.2l13.7-8.8c-0.2,4.4-1.9,29.4-14.1,39.9
		c-2.7,2.2-4.5,4.3-6,5.9c-1.6,1.7-2.8,3-4.2,4h-49.7v-3.2l3-1.2l0.1-0.1l1.7-1.7h9.7C883.5,400.7,883.7,400.5,883.7,400.3z
		 M860.3,330.6c8.2-10.3,20.4-12.2,22.9-12.2v81.9h-30.5c0,0,0-46.8,0-46.9c0-3.5,1.2-8.9,1.2-9c1.2-5.3,3.3-9.6,5.8-13
		C859.8,331.2,860.2,330.7,860.3,330.6z M832.2,331.4h0.4h26.3c-2.4,3.5-4.4,7.7-5.6,13h-84.6c-2.2-5.9-7.8-11.8-9.5-13H832.2z
		 M831.8,324.8v5.8h-73.4c-2.6-2.3-9.3-5.7-9.4-5.8H831.8z M823.3,322.3v1.7h-75.8c-5.1-2.3-9-3-9.1-3s-0.2,0-0.3,0.1
		c-0.1,0.1-0.1,0.2-0.1,0.3v2.8h-4.7v-4.8h25.3h70.1C828.7,319.4,823.5,322.1,823.3,322.3z M738.1,442.2v171.9l-15.5-15.9V448.4h0.1
		L738.1,442.2z M722.9,447.5v-28.2l15.1-9.1v5.3v4.9v7v14L722.9,447.5z M722.6,418.7v-82.2l10.5-11.5h5v6.5v65.1v3.5v8.5v0.8
		L722.6,418.7z M732.5,256.9l-8.1,8.4V261l8.1-8V256.9z M733.1,318.7v-61.9v-1.2v-0.4v-0.4V253c0.4,0.1,0.9,0.2,1.6,0.4
		c0.2,0,0.3,0.1,0.4,0.1c0.2,0,0.3,0.1,0.4,0.1c0.9,0.3,2.1,0.7,3.3,1.2c0.2,0.2,0.5,0.3,0.8,0.4c0.3,0.2,0.5,0.3,0.8,0.4
		c1.8,0.8,3.8,1.9,5.7,3.3c0.2,0.2,0.3,0.3,0.5,0.4c0.2,0.2,0.3,0.3,0.5,0.4c4.9,3.9,11.2,11.1,11.2,24.3c0,9.3,0,34.7,0,34.7H733.1
		z M758.9,302.4v-5.9h49v5.9H758.9z M807.9,303.2v13.9v0.4v0.4v0.8h-49v-0.8v-0.4v-0.4v-13.9H807.9z M758.9,295.8V288h49v7.8H758.9z
		 M758.9,287.2c0,0-0.1-5-0.1-5.7h49.1c0,0.7,0,1.3,0,1.9v3.8H758.9z M758.7,280.9c0-0.5,0-1-0.1-1.5h49.5c-0.2,1-0.2,1-0.2,1.5
		H758.7z M831.8,253.3v65.4h-1.4l-22,0.1v-35.2C808.4,265.8,823.1,255.8,831.8,253.3z M810.2,259.8h8.8c-4.9,4.1-9.5,10.2-10.8,18.8
		h-49.7c-1.2-8.9-5.6-14.8-10.4-18.8H810.2z M809.9,255.8l0.1,3.3h-62.6c-1.8-1.3-3.6-2.4-5.3-3.3h65.5H809.9z M807.4,255h-66.7
		c-2-0.9-3.8-1.5-5.1-1.9c-0.2,0-0.3-0.1-0.4-0.1c-0.2,0-0.3-0.1-0.4-0.1c-0.8-0.2-1.3-0.3-1.6-0.4v-0.4v-1.3h1.6h0.4h0.4h4.9h8.8
		H795v0.4h13.4L807.4,255z M749.6,236.1v-5H795v5H749.6z M795,236.8v11.9v0.4v0.4v0.7h-45.4v-0.7v-0.4v-0.4v-11.9H795z M749.6,230.4
		v-6.6H795v6.6H749.6z M749.6,223.1c0,0,0-4.3,0-4.9h45.6c-0.1,0.9-0.2,4.9-0.2,4.9H749.6z M749.5,217.5c0-0.4,0-0.8-0.1-1.2h46
		c-0.1,0.4-0.1,0.8-0.2,1.2H749.5z M814.7,196.2v54.6h-19.1v-29.5C795.6,203.8,813.1,196.8,814.7,196.2z M801.1,204.5
		c-2.5,2.9-4.6,6.5-5.6,11.1h-46.3c-0.7-4.6-2.5-8.3-4.7-11.1H801.1z M788.3,200.5v3.3h-44.5c-0.9-1.1-1.9-2.1-2.9-2.9
		c-0.1-0.1-0.3-0.2-0.4-0.3l-0.1-0.1h6.5h21.5H788.3z M741.4,142.6c8.6,0,15.6,7.9,15.6,17.6c0,2.9-0.5,5.6-1.7,8.1
		c-0.1,0.2-0.1,0.3,0,0.4c0,0.1,0.2,0.1,0.3,0.1c0.6-0.1,1.2-0.1,1.7-0.1c8,0,14.9,5.4,16.9,13.2c0.3,1.4,0.5,2.9,0.5,4.3
		c0,2.7-0.7,5.3-1.7,7.8h-40.8v-27.5c1,0.9,2.3,1.5,3.7,1.5c2.8,0,5.1-2.3,5.1-5.1s-2.3-5.1-5.1-5.1c-1.5,0-2.8,0.5-3.7,1.5V146h0
		C734.8,143.9,738,142.6,741.4,142.6z M732,160.4c0.8-1.2,2.2-2,3.7-1.9c2.4,0,4.4,2,4.4,4.4c0,2.4-2,4.4-4.4,4.4
		c-1.6,0-2.9-0.8-3.7-2V160.4z M728.8,140.9h2.5V194h-2.5V140.9z M728.8,194.7h46.9v5h-36.1c-4.2-2.9-10.3-4.6-10.8-4.7V194.7z
		 M728.8,195.5C742.3,198.7,749,209,749,219c0,0.4,0,31,0,31h-20.2V195.5z M723.2,146.7L723.2,146.7l2.3-5.6h2.6v8.2v0.8v0.7v44.4
		l-4.9,4.9V146.7z M722.5,201.7l0.6-0.6l5-5v3.9v50.5v0.1l-5.6,5.6V201.7z M723.4,258.9l-0.8-1.8l6.3-6.3h3.6v0.8v0.2l-1.5,1.5
		l-3.6,3.6l-3,3l-0.3,0.3L724,260L723.4,258.9z M722.5,268l10-10v11.1V311v13.5l-10,11V268z M722.5,790.4L722.5,790.4l0-191.2
		l15.6,16c0.4,1.2,0.2,11.3-0.1,17.5c0,0-0.1,8.4,0.1,8.4c2.6,11.1,4,67.4,0.6,71.9c-0.1,0.2-0.2,0.2-0.2,0.2h-0.1
		c-0.2,0-0.4,0.2-0.4,0.4v6.5v6.6c1,6.3,3.1,23.1,1,25.6c-0.1,0.2-0.3,0.2-0.4,0.2h-0.3c-0.2,0-0.4,0.2-0.4,0.4v8.1v29.4v0.4v0.4
		v29.6l-15.2-29.6l-0.2-0.5V790.4z M721.9,791.1l16,31.4c0,0.2,156,0.1,156.1,0l10.2,5.1H734.3v-0.1l-17.7-36.4H721.9z M716.4,868.2
		v-0.4v-0.4v-75.1l17.3,35.7v0.1v31.2v8.1v0.4v0.1v0.2v43.4L716.4,876V868.2z M715.7,868.1v7.8c0,0.1,0,0.2,0,0.2l17.7,37.2l0.1,0.1
		c0.1,0,0.1,0,0.2,0h37.8h0.4h0.4h15h94.1h10h0.4h0.4h13.7c0.2,0,0.4-0.2,0.4-0.4v-19.1v-0.4v-0.4v-13.7l12.1,13.7l0.3,0.4l0.3,0.4
		l22.4,25.4h-49H892h-0.4h-119h-0.4h-0.4h-55.5l-26.6-51.2H715.7z M689.5,869.2l26.2,50.5v3.8l-26.2-50.8V869.2z M689.5,874.4v-0.9
		l26.2,50.8v28.2l-26.2-48.3V874.4z M53.1,904.6h357.2H506h182.9l26.5,48.9h-0.3H506h-95.6H26.9h-0.3L53.1,904.6z M52.5,874.4v29.8
		l-26.2,48.3v-28.2l26.2-50.8V874.4z M52.5,872.7l-26.2,50.8v-3.8l26.2-50.5V872.7z M26.3,876.1c0,0,0-0.1,0-0.2v-7.8h26l-26.6,51.2
		h-55.5h-0.4h-0.4h-119h-0.4h-0.4h-49l22.4-25.4l0.3-0.4l0.3-0.4l12.1-13.7v13.7v0.4v0.4V913c0,0.2,0.2,0.4,0.4,0.4h13.7h0.4h0.4h10
		h94.1h15h0.4h0.4H8.3c0.1,0,0.1,0,0.2,0l0.1-0.1L26.3,876.1z M7.7,859.7v7.8l-164.8,0.1v-7.9L7.7,859.7z M-136.4,858.9v-14.5v-0.3
		V844v-0.3v-0.1v-0.3v-6.7v-0.4v-0.4v-7.5h31.1h0.4h0.4h33.2h0.4h0.4h28.7h0.4h0.4h2.9v15.1v0.4v0.4v14.7H-136.4z M-37.6,858.9
		v-14.8v-0.4v-0.4v-14.9H7.6v30.5L-37.6,858.9z M7.6,868.2v44.5h-37.4h-0.4h-0.4h-14.7v-44.5H7.6z M-45.9,868.2v44.5h-93.3v-44.5
		H-45.9z M-140,868.2L-140,868.2v44.5h-9.7h-0.4h-0.4h-13.2v-18.8v-0.4v-0.4v-14.5v-0.5v-0.5v-9.4h6.2h0.4h0.4h1.3h0.5h0.5H-140z
		 M-137.1,858.9h-26.6v-30.6h26.6V858.9z M-164.2,827.7c-0.1,0.1-0.1,0.1-0.2,0.2v0.1v8h-34.3v-44.5h46.4v30.2L-164.2,827.7z
		 M-164.3,844.5v14.8c0,0.2,0.1,0.4,0.3,0.4h6.2v7.9h-6.2c-0.2,0-0.4,0.2-0.4,0.4v10.5l-13,14.8h-71.1v-48.8H-164.3z M-190.4,893.9
		h12.4l-12.4,14.1V893.9z M25.6,867.4v0.4v0.4v7.8L8.3,911.5v-43.4v-0.2v-0.1v-0.4v-8.1v-31.2V828l17.3-35.7V867.4z M25.4,791.1
		L7.7,827.5v0.1h-169.9l10.2-5.1c0.1,0.1,156.1,0.2,156.1,0l16-31.4H25.4z M-140.6,684.7L-140.6,684.7c0.1,6.8,0.5,12.9,1.1,17.8
		c1.3,11.5,3.2,11.5,3.8,11.5h2.4v1.2v0.4v0.4v3.9h-3.5c-0.2,0-0.4,0.2-0.4,0.4v6.2h-3.5c-0.1,0-0.2,0-0.3,0.1
		c-2.4,2.4-3,12.9-3.2,19.9h-85.3v-61.8H-140.6z M-229.5,683.9v-7.4h88.9c0,0.4,0,5.4,0,7.4H-229.5z M-143.4,464.5v-0.4v-0.4v-8.3
		v-0.1v-0.4v-6.8c0-1.4,0.1-2.8,0.2-4.1c0-0.1,0-0.2,0-0.4c0-0.1,0-0.2,0-0.4c0.3-2.9,0.8-5.6,1.6-8.1c0-0.1,0.1-0.2,0.1-0.4
		c0-0.1,0.1-0.2,0.1-0.4c3.1-9.6,9.3-15.8,14.7-19.5c1.3-0.9,2.7-1.7,4-2.4c0.2-0.1,0.4-0.2,0.7-0.4c0.2-0.1,0.5-0.2,0.7-0.4
		c2.9-1.4,5.1-2.2,7.1-2.9l2.9,1.2v1.8v0.4v0.4v3c0,0.2,0.2,0.4,0.4,0.4h0.7v4.2h-0.7c-0.2,0-0.4,0.2-0.4,0.4l0.1,7v59.3l-32.2,0.1
		L-143.4,464.5L-143.4,464.5z M-212.6,463.9v-8.3h68.5v8.3H-212.6z M-144.1,464.6v22.2h-68.5v-22.2H-144.1z M-212.6,454.9V444h68.7
		c-0.1,1.3-0.2,2.7-0.2,4.1v6.8H-212.6z M-212.6,443.3c0-2.5-0.2-5.3-0.6-8.1h70.9c-0.7,2.5-1.3,5.2-1.6,8.1H-212.6z M-129.7,401.9
		l-1.1-1.1h20.3c0.2,0,0.3-0.1,0.3-0.3H3.3v7.8v0.4v0.4v0.3h-113.9L-129.7,401.9z M-118.6,406.8h-7.6v-2.9L-118.6,406.8z M3.5,632.3
		h-108.2h-0.4h-0.4h-3.9h-0.4h-0.4h-26.1c0.3-1.4,1-4.8,3.7-9.1c2.6-4.8,8.5-7.9,10.7-7.9c0.5-0.1,125.3,0,125.3,0
		C3,617.7,3.3,626.6,3.5,632.3z M4,632.7c-0.3-6.2-0.5-16.3-0.1-17.5l15.6-16v191.2v0.3v0.1l-0.2,0.4L4.1,820.8v-29.6v-0.4v-0.4V761
		v-8.1c0-0.2-0.2-0.4-0.4-0.4H3.4c-0.1,0-0.3,0-0.4-0.2c-2.1-2.5,0-19.3,1-25.6v-6.6v-6.5c0-0.2-0.2-0.4-0.4-0.4H3.5
		c0,0-0.1,0-0.2-0.2c-3.4-4.5-2-60.8,0.6-71.9C4.1,641.1,4,632.7,4,632.7z M-7,250.1c0,0,0-30.7,0-31c0-10.1,6.7-20.4,20.2-23.5
		v54.5H-7z M9.5,253l8.1,8v4.3l-8.1-8.4V253z M19.4,336.5v82.2l-15.5-9.3v-0.8v-8.5v-3.5v-65.1V325h5L19.4,336.5z M-16.3,318.7
		c0,0,0-25.4,0-34.7c0-13.2,6.3-20.4,11.2-24.3c0.2-0.1,0.3-0.2,0.5-0.4c0.2-0.1,0.3-0.2,0.5-0.4c1.9-1.4,3.9-2.5,5.7-3.3
		c0.3-0.1,0.5-0.2,0.8-0.4c0.3-0.1,0.6-0.2,0.8-0.4c1.2-0.5,2.4-0.9,3.3-1.2c0.1,0,0.2-0.1,0.4-0.1c0.1,0,0.2-0.1,0.4-0.1
		c0.7-0.2,1.2-0.3,1.6-0.4v1.8v0.4v0.4v1.2v61.9H-16.3z M19.1,419.3v28.2L4,441.4v-14v-7v-4.9v-5.3L19.1,419.3z M19.3,448.4
		L19.3,448.4l0.1,149.8L3.9,614.1V442.2L19.3,448.4z M-74.5,720.5h0.4h0.4H-55h0.4h0.4h40.9h0.4h0.4h16v5.9h-16h-0.4h-0.4h-43.8
		h-0.4h-0.4h-15.8h-0.4h-0.4h-61.9v-5.9h3.5H-74.5z M-132.6,719.7v-3.8v-0.4v-0.4v-1.2h58.1h0.4h0.4h60.4h0.4h0.4h16v5.8h-16h-0.4
		h-0.4h-40.5h-0.4h-0.4h-19H-74h-0.4H-132.6z M-74.5,726.9L-74.5,726.9l0.4,0.1h0.4h15.4h0.4h0.4h44.2h0.4h0.4H3.4
		c-0.5,3.1-3.3,21.8-1,25.5h-15.1h-0.4h-0.4h-56.8h-0.4h-72.6c0-0.1,0-3.1,0-5.5c0-0.1,0-0.2,0-0.4c0-0.1,0-0.2,0-0.4
		c0.1-6.8,0.7-16.9,2.9-19.3h3.7H-74.5z M3.5,640.6h-140v-7.5h140V640.6z M3.4,420.8v6.3h-113.8v-6.3H3.4z M-109.4,420.1v-4.2h8.6
		v4.2H-109.4z M-100.2,420.1v-4.2H3.4v4.2h-16.1h-0.4h-0.4H-100.2z M-13.3,427.7h0.4h0.4H3.4v186.8h-113.8V427.7H-13.3z M3.4,415.1
		h-114v-4.9h114V415.1z M3.3,399.8h-32.9v-38.2c0-33.1,32-39.6,32.9-39.8V399.8z M-110.1,397v-0.4v-0.4v-18.7h80v22.3h-80V397z
		 M-110.2,376.8v-8.3h80v8.3H-110.2z M-110.2,367.8L-110.2,367.8v-10.9h80.3c-0.1,1.5-0.2,3.1-0.2,4.7v6.2H-110.2z M-110.2,356.2
		c0,0,0-6-0.4-8.1h82.5c-0.8,2.5-1.4,5.2-1.7,8.1H-110.2z M-27.9,347.4h-82.8c-0.1-0.8-0.3-1.6-0.4-2.3H-27
		C-27.3,345.9-27.6,346.6-27.9,347.4z M-111.1,614.5h-10.1c-4.7,0-9.5,4.6-11.3,7.3c-3.6,5-4.6,10.8-4.7,10.9v8.2c0,0.1,0,0.1,0,0.2
		c-0.3,0.4-0.5,1.1-0.8,2h-81.4V491.2h108.2L-111.1,614.5z M-137.4,643.8c0-0.1,0.1-0.2,0.1-0.4c0-0.1,0.1-0.2,0.1-0.4
		c0.3-0.8,0.5-1.4,0.8-1.8h26.2h0.4h0.4h3.9h0.4h0.4h91.4h0.4h0.4H3.3c-2.7,12.1-3.8,65.8-0.5,72h-15.5h-0.4h-0.4h-60.4h-0.4h-0.4
		h-58.5h-2.5c-1.8,0-3.8-10-4.2-28.6c0-0.1,0-0.2,0-0.3s0-0.2,0-0.3c0-2-0.1-4.1-0.1-6.3c0-0.4,0-0.7,0-1.1c0-0.1,0-0.2,0-0.4
		c0-0.1,0-0.2,0-0.4c0.1-11.4,0.6-20.3,1.5-26.4c0-0.1,0-0.2,0.1-0.4c0-0.1,0-0.2,0.1-0.4C-138.1,646.7-137.7,645-137.4,643.8z
		 M-71.4,753.3h0.4h0.4h57.3h0.4h0.4h16v7.4h-16h-0.4h-0.4h-57.4h-0.4h-0.4h-79.6l7.8-7.7L-71.4,753.3z M-71.4,761.3l0.4,0.1h0.4
		h57.3h0.4h0.4h16v29.1v0.4v0.4v30.4h-155.2v-60.4H-71.4z M19.5,268v67.5l-10-11V311v-41.9V258L19.5,268z M13.9,150.8v-0.7v-0.8
		v-8.2h2.6l2.3,5.6v53.4l-4.9-4.9V150.8z M13.9,200v-3.9l5,5l0.6,0.6v54.5l-5.6-5.7V200z M19.4,257.1l-0.8,1.8L18,260l-0.1,0.2
		l-0.3-0.3l-3-3l-3.6-3.6l-1.5-1.5v-0.2v-0.8h3.6L19.4,257.1z M10.7,140.9h2.5V194h-2.5V140.9z M10,160.4v4.9c-0.8,1.2-2.1,2-3.7,2
		c-2.4,0-4.4-2-4.4-4.4c0-2.4,2-4.4,4.4-4.4C7.8,158.4,9.2,159.2,10,160.4z M-32.7,186.2c0-1.4,0.2-2.9,0.5-4.3
		c2-7.8,8.9-13.2,16.9-13.2c0.5,0,1.1,0,1.7,0.1c0.1,0,0.3,0,0.3-0.1c0.1-0.1,0.1-0.2,0-0.4c-1.2-2.5-1.7-5.2-1.7-8.1
		c0-9.7,7-17.6,15.6-17.6c3.4,0,6.6,1.3,9.2,3.4v13.3c-0.9-1-2.2-1.5-3.7-1.5c-2.8,0-5.1,2.3-5.1,5.1c0,2.8,2.3,5.1,5.1,5.1
		c1.4,0,2.7-0.6,3.7-1.5V194H-31C-32,191.5-32.7,188.9-32.7,186.2z M-33.7,194.7h46.9v0.3c-0.5,0.1-6.6,1.8-10.8,4.7h-36.1V194.7z
		 M-46.3,200.5h19.9h21.5h6.5l-0.1,0.1c-0.1,0.1-0.3,0.2-0.4,0.3c-1,0.8-2,1.8-2.9,2.9h-44.5V200.5z M-2.5,204.5
		c-2.2,2.8-4,6.5-4.7,11.1h-46.3c-1-4.6-3.1-8.2-5.6-11.1H-2.5z M-53,236.1v-5h45.4v5H-53z M-7.6,236.8v11.9v0.4v0.4v0.7H-53v-0.7
		v-0.4v-0.4v-11.9H-7.6z M-53,230.4v-6.6h45.4v6.6H-53z M-53,223.1c0,0-0.1-4-0.2-4.9h45.6c0,0.6,0,4.9,0,4.9H-53z M-53.2,217.5
		c-0.1-0.4-0.1-0.8-0.2-1.2h46c-0.1,0.4-0.1,0.8-0.1,1.2H-53.2z M-72.7,250.8L-72.7,250.8v-54.6c1.6,0.6,19.1,7.6,19.1,25.1v29.5
		H-72.7z M-66.4,251.2H-53v-0.4h45.7h8.8h4.9h0.4h0.4h1.6v1.3v0.4c-0.3,0.1-0.8,0.2-1.6,0.4c-0.1,0-0.2,0.1-0.4,0.1
		c-0.1,0-0.2,0.1-0.4,0.1c-1.3,0.4-3.1,1-5.1,1.9h-66.7L-66.4,251.2z M-68,255.8h2.4h65.5c-1.7,0.9-3.5,2-5.3,3.3H-68V255.8z
		 M-68.2,259.8h62.1c-4.8,4-9.2,9.9-10.4,18.8h-49.7c-1.3-8.6-5.9-14.7-10.8-18.8H-68.2z M-65.9,302.4v-5.9h49v5.9H-65.9z
		 M-16.9,303.2v13.9v0.4v0.4v0.8h-49v-0.8v-0.4v-0.4v-13.9H-16.9z M-65.9,295.8V288h49v7.8H-65.9z M-65.9,287.2L-65.9,287.2v-3.8
		c0-0.6,0-1.2,0-1.9h49.1c0,0.7-0.1,5.7-0.1,5.7H-65.9z M-65.9,280.9c0-0.5,0-0.5-0.2-1.5h49.5c-0.1,0.5-0.1,1-0.1,1.5H-65.9z
		 M-89.8,318.7v-65.4c8.7,2.5,23.4,12.5,23.4,30.3v35.2l-22-0.1H-89.8z M-86.7,319.4h70.1H8.7v4.8H4v-2.8c0-0.1,0-0.2-0.1-0.3
		C3.8,321,3.7,321,3.6,321s-4,0.7-9.1,3h-75.8v-1.7C-81.5,322.1-86.7,319.4-86.7,319.4z M-89.7,324.8h82.8c-0.1,0.1-6.8,3.5-9.4,5.8
		h-73.4V324.8z M-90.6,331.4h0.4h73c-1.7,1.2-7.3,7.1-9.5,13h-84.6c-1.2-5.3-3.2-9.5-5.6-13H-90.6z M-141.2,318.4
		c2.5,0,14.7,1.9,22.9,12.2c0.1,0.1,0.5,0.6,0.6,0.8c2.5,3.4,4.6,7.7,5.8,13c0,0.1,1.2,5.5,1.2,9c0,0.1,0,46.9,0,46.9h-30.5V318.4z
		 M-192,333.3c0.1-0.1,0.2-0.5,0.1-0.5c-4.4-3.8-6.9-9.4-6.9-15.2c0-11.1,9.2-20.2,20.4-20.2s20.4,9.1,20.4,20.2
		c0,3.2-0.7,6.2-2.2,9.1c-3.4-0.2-7.7,0.2-12.9,1c2-1.3,3.2-3.6,3.2-6.1c0-4-3.3-7.3-7.3-7.3c-3.6,0-6.7,2.7-7.2,6.2c0,0,0,0,0,0.1
		c0,0.2,0,0.4-0.1,0.6c0,0.2,0,0.3,0,0.5c0,4,3.3,7.3,7.3,7.3c0.6,0,1.1-0.1,1.6-0.2c0.4,0,0.9-0.1,1.4-0.2
		c7.5-1.2,13.2-1.5,17.1-0.8c0.4,0.1,2.9,0.2,5.3,2.6c0.1,0.2,0.3,0.4,0.4,0.6c0,0.1,0.1,0.1,0.1,0.2c0.1,0.2,0.2,0.5,0.2,0.8
		c0.4,1.9-0.8,5-4.2,7.4c-3.1,2.2-11.2,5.9-26.2,0.4c-0.1-0.1-0.3-0.1-0.4-0.2c-2.5-1-5.3-2.2-8.2-3.7c-1.3-0.6-2.5-1.3-3.9-2.1
		L-192,333.3z M-175.7,328c-2.6,0.2-4.6-0.3-6-1.6c-2.2-2-2.1-5.3-2.1-5.8c0.5-3.2,3.2-5.6,6.5-5.6c3.6,0,6.6,3,6.6,6.6
		C-170.6,324.7-172.8,327.3-175.7,328z M-180.7,402.9c-1.5-1.6-3.3-3.7-6-5.9c-12.2-10.5-13.9-35.5-14.1-39.9l13.7,8.8
		c0.6,0.4,1.3,0.8,1.9,1.2c0.2,0.1,0.4,0,0.5-0.1c0.1-0.2,0.1-0.4-0.1-0.5l-1.9-1.2c-15.5-10.7-13.8-29.8-13.4-33l9.6,4.3
		c0.7,0.3,1.3,0.7,2,1c1.1,0.6,2.2,1.1,3.3,1.5c7.5,3.2,13.5,4.3,18.2,4.3c5.2,0,8.7-1.3,10.9-2.6c0.1-0.1,0.3-0.2,0.4-0.3
		c8.6-6.2,4.1-11,4-11.1l-0.1-0.1c-0.1,0-0.1-0.1-0.2-0.1c0.1,0,0.1,0,0.2,0.1c6,2.7,8.3,10.4,8.3,10.4c0.1,0.3,0.2,0.4,0.3,0.4h1.5
		v60.2c0,0.2,0.2,0.4,0.4,0.4h9.7l1.7,1.7l0.1,0.1l3,1.2v3.2h-49.7C-177.9,405.9-179.1,404.6-180.7,402.9z M-207.4,407.5h30.7h49.8
		h0.4h0.4h9.1l2.3,0.9c-2.2,0.8-5,1.9-7.9,3.5h-3.5h-0.4h-0.4h-80.5V407.5z M-207.8,412.6h81.2h2.6c-7,4.1-14.6,10.9-18.1,22h-71.2
		c-1.3-7.8-4.5-16.1-11.7-22H-207.8z M-227.9,486.7h-13.8v-80.2c1.6,0.1,7.8,0.9,14,4.9c0.2,0.1,1.3,0.9,1.5,1.1
		c7.6,5.7,10.9,14.1,12.2,22c0,0.1,0,0.2,0.1,0.4c0,0.1,0,0.2,0.1,0.4c0.4,2.8,0.6,5.6,0.6,8.1c0,0.1,0,0.2,0,0.3v0.1v0.4v10.9v0.4
		v0.4v8.3v0.4v0.4v21.8L-227.9,486.7z M-227.5,487.7h116.3v2.8h-108.5L-227.5,487.7z M-226.4,643.8h6.7h81.6c-0.3,1.2-0.7,2.8-1,5
		h-87.3V643.8z M-226.6,649.5h87.4c-0.1,0.8-0.2,1.6-0.3,2.6c-0.7,6.3-1.1,14.9-1.2,23.8h-88.8C-229.5,672.9-229.7,653-226.6,649.5z
		 M-229.8,747h85.7c0,2.4,0,4.6,0,5.5l-97.4-0.2L-229.8,747z M-242.7,783.6L-242.7,783.6V753h98.6l-8.1,7.7c0,0-0.1,0.1-0.1,0.2
		c0,0,0,0,0,0.1v15.9v0.4v0.4v5.9H-242.7z M-152.3,784.3v3.1h-74.4h-0.5h-0.5h-7.5v-3.1h10.1h0.5h0.5H-152.3z M-238.3,788.1h86.1
		v2.7l-86.1,0.1V788.1z M-242.7,791.6h43.3V836h-43.3V791.6z M-243.4,806.8v29.6c0,0.2,0.2,0.4,0.4,0.4h44h34.6v6.7h-110.4
		L-243.4,806.8z M-275.1,844.4h25.9v48.9l-25.9-0.1V844.4z M-275.1,893.9h26.2h57.8v14.9l-9.3,10.6l-0.1,0.1v4.4v19h-74.6V893.9z
		 M-278,959.1v-15.3h2.5h74.8v15.3H-278z M-202.6,1035v-15.3H8.6L0.2,1035H-202.6z M771.8,1139.6H506h-95.6H-29.8v-21.3h440.1H506
		h265.8V1139.6z M771.6,1117.5H506h-95.6H-29.6l22.4-41.3h417.5H506h243.2L771.6,1117.5z M749,1075.5H506h-95.6H-7v-25.7h417.3H506
		h243V1075.5z M748.7,1049.1H506h-95.6h-417l19.5-35.8h12.9h0.4h0.4h383.8H506h223.2L748.7,1049.1z M944.6,1019.7v15.3H741.8
		l-8.4-15.3H944.6z M1020,959.1h-77.3v-15.3h74.8h2.5V959.1z"/>
	<path class="st0" d="M-114,536.7c-5.9-1.1-20.1-5.1-24.7-17.4c-1.9-5.1-2.7-10.4-2.2-15.3c0-0.1,0-0.2-0.1-0.3
		c-0.1-0.1-0.2-0.1-0.3-0.1h-42.1c-0.1,0-0.2,0.1-0.3,0.1c-0.1,0.1-0.1,0.2-0.1,0.3c0.9,3.2,0.3,14.4-6.3,23.5
		c-5.9,8.2-14.9,12.5-26.7,13c-0.2,0-0.3,0.2-0.3,0.4v55.4c0,0.2,0.1,0.4,0.3,0.4c11.2,0.6,25.9,5.7,30.5,18.3
		c1.9,5.1,2.7,10.4,2.2,15.3c0,0.1,0,0.2,0.1,0.3c0.1,0.1,0.2,0.1,0.3,0.1h42.1c0.1,0,0.2-0.1,0.3-0.1c0.1-0.1,0.1-0.2,0.1-0.3
		c-0.8-3-0.2-12.6,5.2-21.2c4.9-7.9,12.3-12.8,22-14.7c0.2,0,0.3-0.2,0.3-0.4v-56.9C-113.7,536.9-113.8,536.8-114,536.7z
		 M-114.5,593.6c-9.6,1.9-17.3,7.1-22.2,14.9c-5.2,8.4-6,17.7-5.3,21.3h-41.3c0.4-4.9-0.4-10.2-2.3-15.2
		c-4.7-12.7-19.5-18-30.8-18.7v-54.6c11.9-0.6,20.9-5.1,26.9-13.3c6.8-9.4,7.2-20.2,6.6-23.7h41.2c-0.4,4.9,0.4,10.2,2.3,15.2
		c4.6,12.4,18.7,16.6,24.9,17.8V593.6z"/>
	<path class="st0" d="M-12.2,191.7c2.8,0,5.1-2.3,5.1-5.1c0-2.8-2.3-5.1-5.1-5.1s-5.1,2.3-5.1,5.1C-17.3,189.4-15,191.7-12.2,191.7z
		 M-12.2,182.2c2.4,0,4.4,2,4.4,4.4c0,2.4-2,4.4-4.4,4.4c-2.4,0-4.4-2-4.4-4.4C-16.6,184.1-14.6,182.2-12.2,182.2z"/>
	<path class="st0" d="M-106.6,568.4c0.4,0,1.7,0.1,1.9,0.1c10.8,1.5,23.2,6.9,27.3,17.9c1.9,5.1,2.7,10.4,2.2,15.3
		c0,0.1,0,0.2,0.1,0.3c0.1,0.1,0.2,0.1,0.3,0.1h42.1c0.1,0,0.2-0.1,0.3-0.1c0.1-0.1,0.1-0.2,0.1-0.3c-0.4-1.5-0.5-4.9,0.4-9.1
		c0.7-3.4,2.3-8.6,5.8-13.5c3.4-4.8,7.7-8.4,12.9-10.7c0.1-0.1,0.2-0.1,0.4-0.2c0.1-0.1,0.2-0.1,0.4-0.2c3.6-1.5,7.7-2.4,12.1-2.8
		c0.2,0,0.3-0.2,0.3-0.4v-90.6c0-0.2-0.1-0.3-0.3-0.4c-3.9-0.4-8.1-1.3-12.1-2.8c-0.1,0-0.2-0.1-0.4-0.1s-0.2-0.1-0.4-0.1
		c-7.2-2.8-13.7-7.7-16.4-15.1c-1.9-5.1-2.7-10.4-2.2-15.3c0-0.1,0-0.2-0.1-0.3c-0.1-0.1-0.2-0.1-0.3-0.1h-42.1
		c-0.1,0-0.2,0.1-0.3,0.1c-0.1,0.1-0.1,0.2-0.1,0.3c0.4,1.5,0.5,4.9-0.4,9.1c-0.7,3.4-2.3,8.6-5.7,13.5
		c-5.7,8.2-14.4,12.9-25.7,13.8c-0.2,0-0.3,0.2-0.3,0.4v13.1v0.4v0.4v76.8C-106.8,568.1-106.8,568.4-106.6,568.4z M-106.2,477.7
		c11.3-1,20-5.8,25.9-14.1c6.1-8.7,7.1-18.9,6.3-22.8h41.3c-0.4,4.9,0.4,10.2,2.3,15.2c2.9,7.7,9.6,12.7,17.1,15.6
		c0.1,0,0.2,0.1,0.4,0.1c0.1,0,0.2,0.1,0.4,0.1c3.9,1.4,7.9,2.3,11.7,2.7v89.9c-4.3,0.4-8.2,1.3-11.7,2.7c-0.1,0-0.2,0.1-0.4,0.2
		c-0.1,0.1-0.2,0.1-0.4,0.2c-5.5,2.4-10,6.1-13.5,11.1c-6.1,8.7-7.1,18.9-6.4,22.8h-41.3c0.4-4.9-0.4-10.2-2.3-15.2
		c-4.2-11.3-16.9-16.8-28-18.3c-0.1,0-1.2-0.1-1.4-0.1V477.7z"/>
	<path class="st0" d="M-164.2,529.9l-37.6,38.1c-0.1,0.1-0.1,0.2-0.1,0.3s0,0.2,0.1,0.3l37.6,37.1c0,0.1,0.1,0.1,0.2,0.1
		c0.1,0,0.2,0,0.3-0.1l37.6-37.1c0.1-0.1,0.1-0.2,0.1-0.3s0-0.2-0.1-0.3l-37.6-38.1C-163.8,529.8-164.1,529.8-164.2,529.9z
		 M-164.1,604.9l-37.1-36.6l37.1-37.4l37.1,37.4L-164.1,604.9z"/>
	<path class="st0" d="M-51.5,561.1c21,0,38-17,38-38s-17-38-38-38s-38,17-38,38S-72.5,561.1-51.5,561.1z M-51.5,485.8
		c20.6,0,37.3,16.7,37.3,37.3s-16.7,37.3-37.3,37.3s-37.3-16.7-37.3-37.3S-72.1,485.8-51.5,485.8z"/>
	<path class="st0" d="M-51.5,541.1c9.9,0,18-8.1,18-18s-8.1-18-18-18c-9.9,0-18,8.1-18,18C-69.5,533.1-61.5,541.1-51.5,541.1z
		 M-51.5,505.8c9.5,0,17.3,7.8,17.3,17.3s-7.8,17.3-17.3,17.3s-17.3-7.8-17.3-17.3S-61.1,505.8-51.5,505.8z"/>
	<path class="st0" d="M-182.1,567.8v0.3c0,0.2,0,0.2,0.2,0.4l17.7,17.5c0.1,0.1,0.2,0.2,0.3,0.2c0,0,0.2,0,0.4-0.2l17.8-17.6
		c0.1-0.1,0.2-0.2,0.2-0.4s0-0.2-0.2-0.4l-17.8-18.1c-0.1-0.1-0.2-0.1-0.3-0.1s-0.2,0-0.3,0.1L-182.1,567.8z M-163.8,550l16.7,17
		L-163.8,550L-163.8,550z M-146.7,568.1l-17.2,17.1l-17.2-17.1l17.2-17.4L-146.7,568.1z"/>
</g>
</svg>
