<?xml version="1.0" encoding="utf-8"?>
<!-- Generator: Adobe Illustrator 19.0.0, SVG Export Plug-In . SVG Version: 6.00 Build 0)  -->
<svg version="1.1" id="lm-gapura" xmlns="http://www.w3.org/2000/svg" xmlns:xlink="http://www.w3.org/1999/xlink" x="0px" y="0px"
	 viewBox="-37 -86.3 1000 1050" width="1050" height="1050" style="enable-background:new -37 -86.3 1000 1050;" xml:space="preserve">
<style type="text/css">
	.st0{fill:#DEBEBD;}
</style>
<g>
	<path class="st0" d="M966.8,740.6h-2.5v-48.4c0,0,0-50.1,0-50.7l-32.5-38v-14.4c0-0.2-0.2-0.5-0.4-0.5h-4v-2.9
		c0-0.2-0.2-0.6-0.4-0.6h-2.9V582h7.2c0.2,0,0.4-0.2,0.4-0.4v-31c0-0.2-0.2-0.5-0.4-0.6l-12.8-5.8v-30.3v-31.2v-8.1
		c0-1,0.4-23.8-3.1-27.8v-5.6c0-0.2-0.2-0.4-0.4-0.4h-6.7V288.9l7.8-2.9c0.1-0.1,2.2-0.5,2.2-0.6h12c0.2,0,0.4-0.2,0.4-0.4v-80.5
		c0-0.1,0-0.9-0.1-1s-0.2-0.1-0.3-0.1s-7.4,0.3-14.7,5.1c-0.4,0.3-0.6,0.3-1.3,1.1h-18V205c0-0.2-0.2-0.4-0.4-0.4h-29.6
		c1.1-0.9,1.7-1.6,3-3c1.5-1.7,3.3-3.7,5.9-5.9c13.6-11.6,14.4-40.8,14.4-41.1c0-0.1-0.1-0.2-0.2-0.3c-0.1-0.1-0.3-0.1-0.4,0
		l-9.4,6.1c12.2-12.3,9.2-30.3,9.2-30.5s-0.1-0.2-0.2-0.3c-0.1,0-0.2,0-0.3,0l-4.9,2.2c-0.1-0.2-0.1-0.4-0.2-0.4l-2.1-0.5
		c4.3-3.9,6.6-9.3,6.6-15.1c0-11.5-9.5-20.9-21.1-20.9s-21.1,9.4-21.1,20.9c0,3.1,0.7,6.1,2,8.9c-2.1,0.2-10.1,0.8-14,7.6
		c-1.5,2.3-2.3,4.2-2.5,4.9h-1v-21.1c0-0.1,0-0.4-0.1-0.5s-0.4-0.1-0.5-0.1c-0.2,0-14.3,0.7-23.4,12.8h-27.4v-6.1
		c0-0.2-0.2-0.5-0.4-0.5h-7.9v-1.4l6.4-3.2h1.5c0.2,0,0.4-0.2,0.4-0.4V51c0-0.1,0-0.5-0.1-0.6s-0.2-0.1-0.3-0.1
		c-0.2,0-6.2,1.7-12.2,6.5h-9.3v-3.3c0-0.2-0.2-0.4-0.4-0.4h-2.2l1.2-4.2h5.9c0.2,0,0.4-0.2,0.4-0.4V-6.3c0-0.1,0-0.2-0.1-0.3
		c-0.1-0.1-0.2-0.1-0.3-0.1s-7.4,2.3-13.2,8.4h-12.5V-2c0-0.2-0.2-0.4-0.4-0.4h-12.2v-5.3v-0.2c0-0.2-0.2-0.4-0.4-0.4H720
		c1.1-2.5,1.7-5.1,1.7-7.8c0-1.5-0.2-3-0.6-4.5c-2-8.1-9.3-13.7-17.6-13.7c-0.4,0-0.8,0-1.2,0c1.1-2.4,1.6-5.1,1.6-7.8
		c0-10.1-7.3-18.3-16.3-18.3c-3.4,0-6.6,1.2-9.2,3.2v-4.3c0-0.2-0.2-0.4-0.4-0.4h-3.3h-3.2c-0.1,0-0.2,0.1-0.3,0.2l-2.4,5.8v0.1
		v54.1l-0.6,0.6c-0.1,0.1-0.1,0.2-0.1,0.3v55.5v0.1v0.1l1.8,3.7v5.1l-1.7,1.7c-0.1,0.1-0.1,0.2-0.1,0.3V588h-5.8c-0.1,0-0.1,0-0.1,0
		c-0.1,0-0.1,0-0.1,0l-0.1,0.1v0.1v76.7h-26.7c-0.1,0-0.1,0-0.1,0c-0.1,0-0.1,0-0.1,0L635,665v0.1v36.1H291v-36.1V665l-0.1-0.1
		c0,0,0,0-0.1,0c0,0,0,0-0.1,0H264v-76.7v-0.1l-0.1-0.1c0,0,0,0-0.1,0c0,0,0,0-0.1,0h-5.8V65.7c0-0.1,0-0.2-0.1-0.3l-1.7-1.7v-5.1
		l1.8-3.7v-0.1v-0.1V-0.8c0-0.1,0-0.2-0.1-0.3l-0.6-0.6v-54.1v-0.1l-2.4-5.8c-0.1-0.1-0.2-0.2-0.3-0.2h-3.2H248
		c-0.2,0-0.4,0.2-0.4,0.4v4.3c-2.6-2-5.8-3.2-9.2-3.2c-9,0-16.3,8.2-16.3,18.3c0,2.7,0.5,5.4,1.6,7.8c-0.4,0-0.8,0-1.2,0
		c-8.3,0-15.6,5.6-17.6,13.7c-0.4,1.5-0.6,3-0.6,4.5c0,2.7,0.6,5.3,1.7,7.8h-2.5c-0.2,0-0.4,0.2-0.4,0.4v0.2v5.3h-12.2
		c-0.2,0-0.4,0.2-0.4,0.4v3.7H178c-5.8-6.1-13.1-8.4-13.2-8.4s-0.2,0-0.3,0.1c-0.1,0.1-0.1,0.2-0.1,0.3v54.8c0,0.2,0.2,0.4,0.4,0.4
		h5.9l1.2,4.2h-2.2c-0.2,0-0.4,0.2-0.4,0.4v3.3H160c-6-4.8-12-6.5-12.2-6.5c-0.1,0-0.2,0-0.3,0.1c-0.1,0.1-0.1,0.5-0.1,0.6v65.7
		c0,0.2,0.2,0.4,0.4,0.4h1.5l6.4,3.2v1.4h-7.9c-0.2,0-0.4,0.3-0.4,0.5v6.1H120c-9.1-12.1-23.2-12.8-23.4-12.8c-0.1,0-0.4,0-0.5,0.1
		S96,116,96,116.1v21.1h-1c-0.2-0.7-1-2.6-2.5-4.9c-3.9-6.8-11.9-7.4-14-7.6c1.3-2.8,2-5.8,2-8.9c0-11.5-9.5-20.9-21.1-20.9
		s-21.1,9.4-21.1,20.9c0,5.8,2.3,11.2,6.6,15.1l-2.1,0.5c-0.1,0-0.1,0.2-0.2,0.4l-4.9-2.2c-0.1,0-0.2,0-0.3,0
		c-0.1,0.1-0.2,0.1-0.2,0.3s-3,18.2,9.2,30.5l-9.4-6.1c-0.1-0.1-0.3-0.1-0.4,0c-0.1,0.1-0.2,0.2-0.2,0.3c0,0.3,0.8,29.5,14.4,41.1
		c2.6,2.2,4.4,4.2,5.9,5.9c1.3,1.4,1.9,2.1,3,3H30.1c-0.2,0-0.4,0.2-0.4,0.4v4.6h-18c-0.7-0.7-0.9-0.8-1.3-1.1
		c-7.3-4.8-14.6-5.1-14.7-5.1c-0.1,0-0.2,0-0.3,0.1s-0.1,0.9-0.1,1V285c0,0.2,0.2,0.4,0.4,0.4h12c0,0.1,2.1,0.5,2.2,0.6l7.8,2.9
		v151.9H11c-0.2,0-0.4,0.2-0.4,0.4v5.6c-3.5,4-3.1,26.8-3.1,27.8v8.1v31.2v30.3L-5.3,550c-0.2,0.1-0.4,0.4-0.4,0.6v31
		c0,0.2,0.2,0.4,0.4,0.4h7.2v3.1H-1c-0.2,0-0.4,0.4-0.4,0.6v2.9h-4c-0.2,0-0.4,0.3-0.4,0.5v14.4l-32.5,38c0,0.6,0,50.7,0,50.7v48.4
		h-2.5c-0.2,0-0.4,0.2-0.4,0.4v16.7c0,0.2,0.2,0.4,0.4,0.4H37v58.6h-2.5c-0.2,0-0.4,0.2-0.4,0.4v17c0,0.2,0.2,0.4,0.4,0.4h202.3
		l-7,13v26.4L207,915.8v23.1c0,0.2,0.2,0.4,0.4,0.4h511.2c0.2,0,0.4-0.2,0.4-0.4v-23.1l-22.8-41.9v-26.4l-7-13h202.3
		c0.2,0,0.4-0.2,0.4-0.4v-17c0-0.2-0.2-0.4-0.4-0.4H889v-58.6h77.8c0.2,0,0.4-0.2,0.4-0.4V741C967.2,740.8,967,740.6,966.8,740.6z
		 M931.7,634.1v-29.6l31.4,36.7H852.7v-6.7h34.6h44C931.5,634.5,931.7,634.3,931.7,634.1z M963.4,642.1v48.8l-25.9,0.1v-48.9
		L963.4,642.1L963.4,642.1z M865.7,691l-13-14.8v-10.5c0-0.2-0.2-0.4-0.4-0.4h-6.2v-7.9h6.2c0.2,0,0.3-0.2,0.3-0.4v-14.8h84.2V691
		L865.7,691L865.7,691z M878.7,691.6v14.1l-12.4-14.1H878.7z M680.6,665.2v-7.8h164.8v7.9L680.6,665.2z M827.5,665.9v44.5h-93.3
		v-44.5H827.5z M733.6,665.9v44.5h-14.7h-0.4h-0.4h-37.4v-44.5H733.6z M680.7,656.6v-30.5h45.2V641v0.4v0.4v14.8L680.7,656.6z
		 M726.4,656.6v-14.7v-0.4v-0.4V626h2.9h0.4h0.4h28.7h0.4h0.4h33.2h0.4h0.4h31.1v7.5v0.4v0.4v6.7v0.3v0.1v0.3v0.1v0.3v14.5
		L726.4,656.6z M852.5,625.4l-11.9-6v-30.2H887v44.5h-34.3v-8v-0.1C852.6,625.5,852.6,625.5,852.5,625.4z M825.4,656.6V626H852v30.6
		H825.4z M828.3,665.9L828.3,665.9h14.4h0.5h0.5h1.3h0.4h0.4h6.2v9.4v0.5v0.5v14.5v0.4v0.4v18.8h-13.2h-0.4H838h-9.7V665.9z
		 M931,589.3v44.4h-43.3v-44.4H931z M926.6,585.8v2.8l-86.1-0.1v-2.7H926.6z M840.6,585.1V582h71.8h0.5h0.5h10.1v3.1H916h-0.5H915
		H840.6z M931,581.3h-90.4v-5.9V575v-0.4v-15.9c0-0.1,0-0.1,0-0.1c0-0.1-0.1-0.2-0.1-0.2l-8.1-7.7H931V581.3z M684.9,413
		c0,0,124.8-0.1,125.3,0c2.2,0,8.1,3.1,10.7,7.9c2.7,4.3,3.4,7.7,3.7,9.1h-26.1h-0.4h-0.4h-3.9h-0.4H793H684.8
		C685,424.3,685.3,415.4,684.9,413z M718.5,174.5v-8.3h80v8.3H718.5z M798.4,175.2v18.7v0.4v0.4v2.8h-80v-22.3H798.4z M718.4,165.5
		v-6.2c0-1.6-0.1-3.2-0.2-4.7h80.3v10.9L718.4,165.5L718.4,165.5z M718.1,153.9c-0.3-2.9-0.9-5.6-1.7-8.1h82.5
		c-0.4,2.1-0.4,8.1-0.4,8.1H718.1z M716.2,145.1c-0.3-0.8-0.6-1.5-0.9-2.3h84.1c-0.1,0.7-0.3,1.5-0.4,2.3H716.2z M717.9,159.3v38.2
		H685v-78C685.9,119.7,717.9,126.2,717.9,159.3z M798.5,198.2c0,0.2,0.1,0.3,0.3,0.3h20.3l-1.1,1.1l-19.1,7.5H685v-0.3v-0.4V206
		v-7.8L798.5,198.2L798.5,198.2z M814.5,201.6v2.9h-7.6L814.5,201.6z M832.4,261.6v-8.3h68.5v8.3H832.4z M900.9,262.3v22.2h-68.5
		v-22.2H900.9z M832.4,252.6v-6.8c0-1.4-0.1-2.8-0.2-4.1h68.7v10.9L832.4,252.6L832.4,252.6z M832.2,241c-0.3-2.9-0.9-5.6-1.6-8.1
		h70.9c-0.4,2.8-0.6,5.6-0.6,8.1H832.2z M831.5,240.9c0,0.2,0,0.3,0,0.4c0,0.2,0,0.3,0,0.4c0.1,1.3,0.2,2.7,0.2,4.1v6.8v0.4v0.1v8.3
		v0.4v0.4v22.3l-32.2-0.1v-59.3l0.1-7c0-0.2-0.2-0.4-0.4-0.4h-0.7v-4.2h0.7c0.2,0,0.4-0.2,0.4-0.4v-3v-0.4v-0.4v-1.8l2.9-1.2
		c2,0.7,4.2,1.5,7.1,2.9c0.2,0.2,0.5,0.3,0.7,0.4c0.3,0.2,0.5,0.3,0.7,0.4c1.3,0.7,2.7,1.5,4,2.4c5.4,3.7,11.6,9.9,14.7,19.5
		c0,0.2,0.1,0.3,0.1,0.4c0,0.2,0.1,0.3,0.1,0.4C830.7,235.3,831.2,238,831.5,240.9z M820.8,419.5c-1.8-2.7-6.6-7.3-11.3-7.3h-10.1
		l0.1-123.3h108.2v151.9h-81.4c-0.3-0.9-0.5-1.6-0.8-2c0-0.1,0-0.1,0-0.2v-8.2C825.4,430.3,824.4,424.5,820.8,419.5z M798.9,207.9
		v4.9h-114v-4.9H798.9z M797.7,213.6v4.2h-8.6v-4.2H797.7z M788.5,213.6v4.2h-86.7h-0.4H701h-16.1v-4.2H788.5z M798.7,218.5v6.3
		H684.9v-6.3H798.7z M700.8,225.4h0.4h0.4h97.1v186.8H684.9V225.4H700.8z M824.8,430.8v7.5h-140v-7.5H824.8z M700.8,438.9h0.4h0.4
		H793h0.4h0.4h3.9h0.4h0.4h26.2c0.3,0.4,0.5,1,0.8,1.8c0,0.2,0.1,0.3,0.1,0.4c0,0.2,0.1,0.3,0.1,0.4c0.3,1.2,0.7,2.9,0.9,4.8
		c0.1,0.2,0.1,0.3,0.1,0.4c0.1,0.2,0.1,0.3,0.1,0.4c0.9,6.1,1.4,15,1.5,26.4c0,0.2,0,0.3,0,0.4c0,0.2,0,0.3,0,0.4c0,0.4,0,0.7,0,1.1
		c0,2.2-0.1,4.3-0.1,6.3c0,0.1,0,0.2,0,0.3s0,0.2,0,0.3c-0.4,18.6-2.4,28.6-4.2,28.6h-2.5H763h-0.4h-0.4h-60.4h-0.4H701h-15.5
		c3.3-6.2,2.2-59.9-0.5-72L700.8,438.9L700.8,438.9z M917.8,482.4v61.8h-85.3c-0.2-7-0.8-17.5-3.2-19.9c-0.1-0.1-0.2-0.1-0.3-0.1
		h-3.5V518c0-0.2-0.2-0.4-0.4-0.4h-3.5v-3.9v-0.4v-0.4v-1.2h2.4c0.6,0,2.5,0,3.8-11.5c0.6-4.9,1-11,1.1-17.8l0,0L917.8,482.4
		L917.8,482.4z M828.9,481.6c0-2,0-7,0-7.4h88.9v7.4H828.9z M700.8,511.6h0.4h0.4H762h0.4h0.4h58.1v1.2v0.4v0.4v3.8h-58.2h-0.4h-0.4
		h-19h-0.4h-0.4h-40.5h-0.4h-0.4h-16v-5.8L700.8,511.6L700.8,511.6z M684.8,518.2h16h0.4h0.4h40.9h0.4h0.4H762h0.4h0.4h58.4h3.5v5.9
		h-61.9h-0.4H762h-15.8h-0.4h-0.4h-43.8h-0.4h-0.4h-16L684.8,518.2L684.8,518.2z M700.8,524.7h0.4h0.4h44.2h0.4h0.4H762h0.4h0.4
		v-0.1H825h3.7c2.2,2.4,2.8,12.5,2.9,19.3c0,0.2,0,0.3,0,0.4c0,0.2,0,0.3,0,0.4c0,2.4,0,5.4,0,5.5H759h-0.4h-56.8h-0.4H701h-15.1
		c2.3-3.7-0.5-22.4-1-25.5L700.8,524.7L700.8,524.7z M700.8,551h0.4h0.4h57.3h0.4h0.4l71.9-0.3l7.8,7.7h-79.6h-0.4H759h-57.4h-0.4
		h-0.4h-16V551H700.8z M700.8,559.1h0.4h0.4h57.3h0.4h0.4V559H840v60.4H684.8V589v-0.4v-0.4v-29.1H700.8z M929.8,550l-97.4,0.2
		c0-0.9,0-3.1,0-5.5h85.7L929.8,550z M917.8,473.6H829c-0.1-8.9-0.5-17.5-1.2-23.8c-0.1-1-0.2-1.8-0.3-2.6h87.4
		C918,450.7,917.8,470.6,917.8,473.6z M914.7,441.5v5h-87.3c-0.3-2.2-0.7-3.8-1-5H908H914.7z M908,288.2H799.5v-2.8h116.3L908,288.2
		z M914.5,210.2c0.2-0.2,1.3-1,1.5-1.1c6.2-4,12.4-4.8,14-4.9v80.2h-13.8l-14.7,0.1v-21.8v-0.4v-0.4v-8.3v-0.4v-0.4v-10.9v-0.4v-0.1
		c0-0.1,0-0.2,0-0.3c0-2.5,0.2-5.3,0.6-8.1c0.1-0.2,0.1-0.3,0.1-0.4c0.1-0.2,0.1-0.3,0.1-0.4C903.6,224.3,906.9,215.9,914.5,210.2z
		 M896.1,210.3h17.2c-7.2,5.9-10.4,14.2-11.7,22h-71.2c-3.5-11.1-11.1-17.9-18.1-22h2.6H896.1z M895.7,205.2v4.4h-80.5h-0.4h-0.4
		h-3.5c-2.9-1.6-5.7-2.7-7.9-3.5l2.3-0.9h9.1h0.4h0.4H865H895.7z M862.5,126.3c0.5,0.1,1,0.2,1.4,0.2c0.5,0.1,1,0.2,1.6,0.2
		c4,0,7.3-3.3,7.3-7.3c0-0.2,0-0.3,0-0.5c-0.1-0.2-0.1-0.4-0.1-0.6c0-0.1,0-0.1,0-0.1c-0.5-3.5-3.6-6.2-7.2-6.2
		c-4,0-7.3,3.3-7.3,7.3c0,2.5,1.2,4.8,3.2,6.1c-5.2-0.8-9.5-1.2-12.9-1c-1.5-2.9-2.2-5.9-2.2-9.1c0-11.1,9.2-20.2,20.4-20.2
		s20.4,9.1,20.4,20.2c0,5.8-2.5,11.4-6.9,15.2c-0.1,0,0,0.4,0.1,0.5l2,0.5c-1.4,0.8-2.6,1.5-3.9,2.1c-2.9,1.5-5.7,2.7-8.2,3.7
		c-0.1,0.1-0.3,0.1-0.4,0.2c-15,5.5-23.1,1.8-26.2-0.4c-3.4-2.4-4.6-5.5-4.2-7.4c0-0.3,0.1-0.6,0.2-0.8c0-0.1,0.1-0.1,0.1-0.2
		c0.1-0.2,0.3-0.4,0.4-0.6c2.4-2.4,4.9-2.5,5.3-2.6C849.3,124.8,855,125.1,862.5,126.3z M859,119.3c0-3.6,3-6.6,6.6-6.6
		c3.3,0,6,2.4,6.5,5.6c0,0.5,0.1,3.8-2.1,5.8c-1.4,1.3-3.4,1.8-6,1.6C861.1,125,858.9,122.4,859,119.3z M829.6,198.4
		c0.2,0,0.4-0.2,0.4-0.4v-60.2h1.5c0.1,0,0.2-0.1,0.3-0.4c0,0,2.4-7.7,8.3-10.4c0.1,0,0.1-0.1,0.2-0.1c-0.1,0-0.1,0.1-0.2,0.1
		l-0.1,0.1c-0.1,0.1-4.6,4.9,4,11.1c0.1,0.1,0.3,0.2,0.4,0.3c2.2,1.3,5.7,2.6,10.9,2.6c4.7,0,10.7-1.1,18.2-4.3
		c1.1-0.4,2.2-0.9,3.3-1.5c0.7-0.3,1.3-0.7,2-1l9.6-4.3c0.4,3.2,2.1,22.3-13.4,33l-1.9,1.2c-0.2,0.1-0.2,0.3-0.1,0.5
		c0.1,0.1,0.3,0.2,0.5,0.1c0.6-0.4,1.3-0.8,1.9-1.2l13.7-8.8c-0.2,4.4-1.9,29.4-14.1,39.9c-2.7,2.2-4.5,4.3-6,5.9
		c-1.6,1.7-2.8,3-4.2,4h-49.7v-3.2l3-1.2l0.1-0.1l1.7-1.7H829.6z M806,129.1c0.1-0.2,0.5-0.7,0.6-0.8c8.2-10.3,20.4-12.2,22.9-12.2
		V198H799c0,0,0-46.8,0-46.9c0-3.5,1.2-8.9,1.2-9C801.4,136.8,803.5,132.5,806,129.1z M778.5,129.1h0.4h26.3
		c-2.4,3.5-4.4,7.7-5.6,13H715c-2.2-5.9-7.8-11.8-9.5-13H778.5z M778.1,122.5v5.8h-73.4c-2.6-2.3-9.3-5.7-9.4-5.8H778.1z M769.6,120
		v1.7h-75.8c-5.1-2.3-9-3-9.1-3s-0.2,0-0.3,0.1s-0.1,0.2-0.1,0.3v2.8h-4.7v-4.8h25.3H775C775,117.1,769.8,119.8,769.6,120z
		 M684.4,239.9v171.9l-15.5-15.9V246.1h0.1L684.4,239.9z M669.2,245.2V217l15.1-9.1v5.3v4.9v7v14L669.2,245.2z M668.9,216.4v-82.2
		l10.5-11.5h5v6.5v65.1v3.5v8.5v0.8L668.9,216.4z M678.8,54.6l-8.1,8.4v-4.3l8.1-8V54.6z M679.4,116.4V54.5v-1.2v-0.4v-0.4v-1.8
		c0.4,0.1,0.9,0.2,1.6,0.4c0.2,0,0.3,0.1,0.4,0.1c0.2,0,0.3,0.1,0.4,0.1c0.9,0.3,2.1,0.7,3.3,1.2c0.2,0.2,0.5,0.3,0.8,0.4
		c0.3,0.2,0.5,0.3,0.8,0.4c1.8,0.8,3.8,1.9,5.7,3.3c0.2,0.2,0.3,0.3,0.5,0.4c0.2,0.2,0.3,0.3,0.5,0.4c4.9,3.9,11.2,11.1,11.2,24.3
		c0,9.3,0,34.7,0,34.7H679.4z M705.2,100.1v-5.9h49v5.9H705.2z M754.2,100.9v13.9v0.4v0.4v0.8h-49v-0.8v-0.4v-0.4v-13.9H754.2z
		 M705.2,93.5v-7.8h49v7.8H705.2z M705.2,84.9c0,0-0.1-5-0.1-5.7h49.1c0,0.7,0,1.3,0,1.9v3.8L705.2,84.9L705.2,84.9z M705,78.6
		c0-0.5,0-1-0.1-1.5h49.5c-0.2,1-0.2,1-0.2,1.5H705z M778.1,51v65.4h-1.4l-22,0.1V81.3C754.7,63.5,769.4,53.5,778.1,51z M756.5,57.5
		h8.8c-4.9,4.1-9.5,10.2-10.8,18.8h-49.7c-1.2-8.9-5.6-14.8-10.4-18.8H756.5z M756.2,53.5L756.2,53.5l0.1,3.3h-62.6
		c-1.8-1.3-3.6-2.4-5.3-3.3h65.5H756.2z M753.7,52.7H687c-2-0.9-3.8-1.5-5.1-1.9c-0.2,0-0.3-0.1-0.4-0.1c-0.2,0-0.3-0.1-0.4-0.1
		c-0.8-0.2-1.3-0.3-1.6-0.4v-0.4v-1.3h1.6h0.4h0.4h4.9h8.8h45.7v0.4h13.4L753.7,52.7z M695.9,33.8v-5h45.4v5H695.9z M741.3,34.5
		v11.9v0.4v0.4v0.7h-45.4v-0.7v-0.4v-0.4V34.5H741.3z M695.9,28.1v-6.6h45.4v6.6H695.9z M695.9,20.8c0,0,0-4.3,0-4.9h45.6
		c-0.1,0.9-0.2,4.9-0.2,4.9H695.9z M695.8,15.2c0-0.4,0-0.8-0.1-1.2h46c-0.1,0.4-0.1,0.8-0.2,1.2H695.8z M761-6.1v54.6h-19.1V19
		C741.9,1.5,759.4-5.5,761-6.1z M747.4,2.2c-2.5,2.9-4.6,6.5-5.6,11.1h-46.3c-0.7-4.6-2.5-8.3-4.7-11.1H747.4z M734.6-1.8v3.3h-44.5
		c-0.9-1.1-1.9-2.1-2.9-2.9c-0.1-0.1-0.3-0.2-0.4-0.3l-0.1-0.1h6.5h21.5H734.6z M678.5-56.3c2.6-2.1,5.8-3.4,9.2-3.4
		c8.6,0,15.6,7.9,15.6,17.6c0,2.9-0.5,5.6-1.7,8.1c-0.1,0.2-0.1,0.3,0,0.4c0,0.1,0.2,0.1,0.3,0.1c0.6-0.1,1.2-0.1,1.7-0.1
		c8,0,14.9,5.4,16.9,13.2c0.3,1.4,0.5,2.9,0.5,4.3c0,2.7-0.7,5.3-1.7,7.8h-40.8v-27.5c1,0.9,2.3,1.5,3.7,1.5c2.8,0,5.1-2.3,5.1-5.1
		s-2.3-5.1-5.1-5.1c-1.5,0-2.8,0.5-3.7,1.5V-56.3z M678.3-41.9c0.8-1.2,2.2-2,3.7-1.9c2.4,0,4.4,2,4.4,4.4s-2,4.4-4.4,4.4
		c-1.6,0-2.9-0.8-3.7-2V-41.9z M722-7.6v5h-36.1c-4.2-2.9-10.3-4.6-10.8-4.7v-0.3H722z M675.1-61.4h2.5v53.1h-2.5V-61.4z M675.1-6.7
		c13.5,3.1,20.2,13.4,20.2,23.5c0,0.4,0,31,0,31h-20.2V-6.7z M669.5-55.6l2.3-5.6h2.6v8.2v0.8v0.7v44.4l-4.9,4.9L669.5-55.6
		L669.5-55.6z M668.8-0.6l0.6-0.6l5-5v3.9v50.5v0.1l-5.6,5.6V-0.6z M669.7,56.6l-0.8-1.8l6.3-6.3h3.6v0.8v0.2l-1.5,1.5l-3.6,3.6
		l-3,3l-0.3,0.3l-0.1-0.2L669.7,56.6z M668.8,65.7l10-10v11.1v41.9v13.5l-10,11V65.7z M668.8,588.4v-0.3V396.9l15.6,16
		c0.4,1.2,0.2,11.3-0.1,17.5c0,0-0.1,8.4,0.1,8.4c2.6,11.1,4,67.4,0.6,71.9c-0.1,0.2-0.2,0.2-0.2,0.2h-0.1c-0.2,0-0.4,0.2-0.4,0.4
		v6.5v6.6c1,6.3,3.1,23.1,1,25.6c-0.1,0.2-0.3,0.2-0.4,0.2h-0.3c-0.2,0-0.4,0.2-0.4,0.4v8.1v29.4v0.4v0.4v29.6L669,588.9
		L668.8,588.4L668.8,588.4z M668.2,588.8l16,31.4c0,0.2,156,0.1,156.1,0l10.2,5.1H680.6v-0.1l-17.7-36.4H668.2z M662.7,665.9v-0.4
		v-0.4V590l17.3,35.7v0.1V657v8.1v0.4v0.1v0.2v43.4l-17.3-35.5V665.9z M662,665.8v7.8c0,0.1,0,0.2,0,0.2l17.7,37.2l0.1,0.1
		c0.1,0,0.1,0,0.2,0h37.8h0.4h0.4h15h94.1h10h0.4h0.4h13.7c0.2,0,0.4-0.2,0.4-0.4v-19.1v-0.4v-0.4v-13.7l12.1,13.7l0.3,0.4l0.3,0.4
		l22.4,25.4h-49h-0.4h-0.4h-119h-0.4h-0.4h-55.5L636,665.8H662z M667.1,767.6H735h23v49.2h-78.7l-3.2-5.9v-26.3c0-0.1,0-0.1,0-0.1
		c0-0.1,0-0.1,0-0.2L667.1,767.6z M662.2,759.7l13.1,24.4H250.7l13.1-24.4H662.2z M264,759.1V752h398v7.1H264z M662.6,759.3v-7.1
		v-0.7V722h72v18.6v0.4v0.4v15.3v0.4v0.4v9.3h-67.9L662.6,759.3z M259.3,766.8h-67.9v-9.3v-0.4v-0.4v-15.3V741v-0.4V722h72v29.5v0.7
		v7.1L259.3,766.8z M263.5,721.4H37.9v-3.7h225.6L263.5,721.4L263.5,721.4z M103,722v18.7v0.4v0.4v15.3v0.4v0.4v9.3H37.9v-44.8
		L103,722z M103.4,767.6h63.8v49.1H37.9v-49.1H103.4z M103.7,766.9v-9.4v-0.4v-0.4v-15.3V741v-0.4V722h86.9v18.6v0.4v0.4v15.3v0.4
		v0.4v9.3h-23.1L103.7,766.9z M168,767.6h23h67.9l-9,16.7c0,0.1,0,0.1,0,0.2c0,0,0,0,0,0.1v26.3l-3.2,5.9H168L168,767.6L168,767.6z
		 M250.4,784.8L250.4,784.8h12.9h0.4h0.4h397.8h0.4h0.4h12.8h0.1v25.7h-12.8h-0.4H662H264h-0.4h-0.4h-12.8L250.4,784.8L250.4,784.8z
		 M735.4,766.8v-9.3v-0.4v-0.4v-15.3V741v-0.4V722h86.9v18.6v0.4v0.4v15.3v0.4v0.4v9.4l-63.8-0.1H735.4z M758.8,767.6h63.8h65.5
		v49.1H758.8V767.6z M823,766.9v-9.3v-0.4v-0.4v-15.3v-0.4v-0.4V722l65.1,0.1v44.8L823,766.9L823,766.9z M662.5,721.4v-3.7h225.6
		v3.7H662.5z M635.8,666.9l26.2,50.5v3.8l-26.2-50.8V666.9z M635.8,672.1v-0.9L662,722v28.2l-26.2-48.3V672.1z M290.8,702.3h344.4
		l26.5,48.9h-0.3H264.6h-0.3L290.8,702.3z M264,750.2V722l26.2-50.8v0.9v29.8L264,750.2z M290.2,670.4L264,721.2v-3.8l26.2-50.5
		V670.4z M264,673.8c0,0,0-0.1,0-0.2v-7.8h26L263.4,717h-55.5h-0.4h-0.4h-119h-0.4h-0.4h-49l22.4-25.4l0.3-0.4l0.3-0.4l12.1-13.7
		v13.7v0.4v0.4v19.1c0,0.2,0.2,0.4,0.4,0.4h13.7h0.4h0.4h10h94.1h15h0.4h0.4H246c0.1,0,0.1,0,0.2,0l0.1-0.1L264,673.8z M245.4,657.4
		v7.8l-164.8,0.1v-7.9L245.4,657.4z M101.3,656.6v-14.5v-0.3v-0.1v-0.3v-0.1V641v-6.7v-0.4v-0.4V626h31.1h0.4h0.4h33.2h0.4h0.4h28.7
		h0.4h0.4h2.9v15.1v0.4v0.4v14.7L101.3,656.6z M200.1,656.6v-14.8v-0.4V641v-14.9h45.2v30.5L200.1,656.6z M245.3,665.9v44.5h-37.4
		h-0.4h-0.4h-14.7v-44.5H245.3z M191.8,665.9v44.5H98.5v-44.5H191.8z M97.7,665.9L97.7,665.9v44.5H88h-0.4h-0.4H74v-18.8v-0.4v-0.4
		v-14.5v-0.5v-0.5v-9.4h6.2h0.4H81h1.3h0.5h0.5H97.7z M100.6,656.6H74V626h26.6V656.6z M73.5,625.4c-0.1,0.1-0.1,0.1-0.2,0.2v0.1v8
		H39v-44.5h46.4v30.2L73.5,625.4z M73.4,642.2V657c0,0.2,0.1,0.4,0.3,0.4h6.2v7.9h-6.2c-0.2,0-0.4,0.2-0.4,0.4v10.5l-13,14.8h-71.1
		v-48.8L73.4,642.2L73.4,642.2z M47.3,691.6h12.4l-12.4,14.1V691.6z M263.3,665.1v0.4v0.4v7.8L246,709.2v-43.4v-0.2v-0.1v-0.4V657
		v-31.2v-0.1l17.3-35.7V665.1z M257.8,588.8h5.3l-17.7,36.4v0.1H75.5l10.2-5.1c0.1,0.1,156.1,0.2,156.1,0L257.8,588.8z M97.1,482.4
		L97.1,482.4c0.1,6.8,0.5,12.9,1.1,17.8c1.3,11.5,3.2,11.5,3.8,11.5h2.4v1.2v0.4v0.4v3.9h-3.5c-0.2,0-0.4,0.2-0.4,0.4v6.2H97
		c-0.1,0-0.2,0-0.3,0.1c-2.4,2.4-3,12.9-3.2,19.9H8.2v-61.8L97.1,482.4L97.1,482.4z M8.2,481.6v-7.4h88.9c0,0.4,0,5.4,0,7.4H8.2z
		 M25.1,261.6v-8.3h68.5v8.3H25.1z M93.6,262.3v22.2H25.1v-22.2H93.6z M93.6,245.8v6.8H25.1v-10.9h68.7
		C93.7,243,93.6,244.4,93.6,245.8z M25.1,241c0-2.5-0.2-5.3-0.6-8.1h70.9c-0.7,2.5-1.3,5.2-1.6,8.1H25.1z M94.3,262.2v-0.4v-0.4
		v-8.3V253v-0.4v-6.8c0-1.4,0.1-2.8,0.2-4.1c0-0.1,0-0.2,0-0.4c0-0.1,0-0.2,0-0.4c0.3-2.9,0.8-5.6,1.6-8.1c0-0.1,0.1-0.2,0.1-0.4
		c0-0.1,0.1-0.2,0.1-0.4c3.1-9.6,9.3-15.8,14.7-19.5c1.3-0.9,2.7-1.7,4-2.4c0.2-0.1,0.4-0.2,0.7-0.4c0.2-0.1,0.5-0.2,0.7-0.4
		c2.9-1.4,5.1-2.2,7.1-2.9l2.9,1.2v1.8v0.4v0.4v3c0,0.2,0.2,0.4,0.4,0.4h0.7v4.2h-0.7c-0.2,0-0.4,0.2-0.4,0.4l0.1,7v59.3l-32.2,0.1
		V262.2z M108,199.6l-1.1-1.1h20.3c0.2,0,0.3-0.1,0.3-0.3H241v7.8v0.4v0.4v0.3H127.1L108,199.6z M119.1,204.5h-7.6v-2.9L119.1,204.5
		z M241.7,430.4c-0.3-6.2-0.5-16.3-0.1-17.5l15.6-16v191.2v0.3v0.1l-0.2,0.4l-15.2,29.6v-29.6v-0.4v-0.4v-29.4v-8.1
		c0-0.2-0.2-0.4-0.4-0.4h-0.3c-0.1,0-0.3,0-0.4-0.2c-2.1-2.5,0-19.3,1-25.6v-6.6v-6.5c0-0.2-0.2-0.4-0.4-0.4h-0.1c0,0-0.1,0-0.2-0.2
		c-3.4-4.5-2-60.8,0.6-71.9C241.8,438.8,241.7,430.4,241.7,430.4z M257.1,134.2v82.2l-15.5-9.3v-0.8v-8.5v-3.5v-65.1v-6.5h5
		L257.1,134.2z M221.4,116.4c0,0,0-25.4,0-34.7c0-13.2,6.3-20.4,11.2-24.3c0.2-0.1,0.3-0.2,0.5-0.4c0.2-0.1,0.3-0.2,0.5-0.4
		c1.9-1.4,3.9-2.5,5.7-3.3c0.3-0.1,0.5-0.2,0.8-0.4c0.3-0.1,0.6-0.2,0.8-0.4c1.2-0.5,2.4-0.9,3.3-1.2c0.1,0,0.2-0.1,0.4-0.1
		c0.1,0,0.2-0.1,0.4-0.1c0.7-0.2,1.2-0.3,1.6-0.4v1.8v0.4v0.4v1.2v61.9H221.4z M256.8,217v28.2l-15.1-6.1v-14v-7v-4.9v-5.3
		L256.8,217z M257,246.1h0.1v149.8l-15.5,15.9V239.9L257,246.1z M163.2,518.2h0.4h0.4h18.7h0.4h0.4h40.9h0.4h0.4h16v5.9h-16h-0.4
		h-0.4h-43.8h-0.4h-0.4H164h-0.4h-0.4h-61.9v-5.9h3.5H163.2z M105.1,517.4v-3.8v-0.4v-0.4v-1.2h58.1h0.4h0.4h60.4h0.4h0.4h16v5.8
		h-16h-0.4h-0.4h-40.5h-0.4h-0.4h-19h-0.4h-0.4H105.1z M163.2,524.6L163.2,524.6l0.4,0.1h0.4h15.4h0.4h0.4h44.2h0.4h0.4h15.9
		c-0.5,3.1-3.3,21.8-1,25.5H225h-0.4h-0.4h-56.8H167H94.4c0-0.1,0-3.1,0-5.5c0-0.1,0-0.2,0-0.4c0-0.1,0-0.2,0-0.4
		c0.1-6.8,0.7-16.9,2.9-19.3h3.7L163.2,524.6L163.2,524.6z M241.2,438.3h-140v-7.5h140V438.3z M133,430h-0.4h-0.4h-3.9h-0.4h-0.4
		h-26.1c0.3-1.4,1-4.8,3.7-9.1c2.6-4.8,8.5-7.9,10.7-7.9c0.5-0.1,125.3,0,125.3,0c-0.4,2.4-0.1,11.3,0.1,17H133z M241.1,218.5v6.3
		H127.3v-6.3H241.1z M128.3,217.8v-4.2h8.6v4.2H128.3z M137.5,217.8v-4.2h103.6v4.2H225h-0.4h-0.4H137.5z M224.4,225.4h0.4h0.4h15.9
		v186.8H127.3V225.4H224.4z M241.1,212.8h-114v-4.9h114V212.8z M241,197.5h-32.9v-38.2c0-33.1,32-39.6,32.9-39.8V197.5z
		 M127.6,194.7v-0.4v-0.4v-18.7h80v22.3h-80V194.7z M127.5,174.5v-8.3h80v8.3H127.5z M207.6,159.3v6.2h-80.1v-10.9h80.3
		C207.7,156.1,207.6,157.7,207.6,159.3z M127.5,153.9c0,0,0-6-0.4-8.1h82.5c-0.8,2.5-1.4,5.2-1.7,8.1H127.5z M209.8,145.1H127
		c-0.1-0.8-0.3-1.6-0.4-2.3h84.1C210.4,143.6,210.1,144.3,209.8,145.1z M126.6,412.2h-10.1c-4.7,0-9.5,4.6-11.3,7.3
		c-3.6,5-4.6,10.8-4.7,10.9v8.2c0,0.1,0,0.1,0,0.2c-0.3,0.4-0.5,1.1-0.8,2H18.3V288.9h108.2L126.6,412.2z M100.3,441.5
		c0-0.1,0.1-0.2,0.1-0.4c0-0.1,0.1-0.2,0.1-0.4c0.3-0.8,0.5-1.4,0.8-1.8h26.2h0.4h0.4h3.9h0.4h0.4h91.4h0.4h0.4H241
		c-2.7,12.1-3.8,65.8-0.5,72H225h-0.4h-0.4h-60.4h-0.4H163h-58.5H102c-1.8,0-3.8-10-4.2-28.6c0-0.1,0-0.2,0-0.3s0-0.2,0-0.3
		c0-2-0.1-4.1-0.1-6.3c0-0.4,0-0.7,0-1.1c0-0.1,0-0.2,0-0.4c0-0.1,0-0.2,0-0.4c0.1-11.4,0.6-20.3,1.5-26.4c0-0.1,0-0.2,0.1-0.4
		c0-0.1,0-0.2,0.1-0.4C99.6,444.4,100,442.7,100.3,441.5z M166.3,551h0.4h0.4h57.3h0.4h0.4h16v7.4h-16h-0.4h-0.4H167h-0.4h-0.4H86.6
		l7.8-7.7L166.3,551z M166.3,559L166.3,559l0.4,0.1h0.4h57.3h0.4h0.4h16v29.1v0.4v0.4v30.4H86V559H166.3z M257.2,65.7v67.5l-10-11
		v-13.5V66.8V55.7L257.2,65.7z M247.2,54.6v-3.9l8.1,8V63L247.2,54.6z M251.6-51.5v-0.7V-53v-8.2h2.6l2.3,5.6v53.4l-4.9-4.9V-51.5z
		 M251.6,48.2V-2.3v-3.9l5,5l0.6,0.6v54.5L251.6,48.2L251.6,48.2z M257.1,54.8l-0.8,1.8l-0.6,1.1l-0.1,0.2l-0.3-0.3l-3-3l-3.6-3.6
		l-1.5-1.5v-0.2v-0.8h3.6L257.1,54.8z M250.9,47.8h-20.2c0,0,0-30.7,0-31c0-10.1,6.7-20.4,20.2-23.5V47.8z M248.4-61.4h2.5v53.1
		h-2.5V-61.4z M247.7-41.9v4.9c-0.8,1.2-2.1,2-3.7,2c-2.4,0-4.4-2-4.4-4.4s2-4.4,4.4-4.4C245.5-43.9,246.9-43.1,247.7-41.9z
		 M205-16.1c0-1.4,0.2-2.9,0.5-4.3c2-7.8,8.9-13.2,16.9-13.2c0.5,0,1.1,0,1.7,0.1c0.1,0,0.3,0,0.3-0.1c0.1-0.1,0.1-0.2,0-0.4
		c-1.2-2.5-1.7-5.2-1.7-8.1c0-9.7,7-17.6,15.6-17.6c3.4,0,6.6,1.3,9.2,3.4V-43c-0.9-1-2.2-1.5-3.7-1.5c-2.8,0-5.1,2.3-5.1,5.1
		s2.3,5.1,5.1,5.1c1.4,0,2.7-0.6,3.7-1.5v27.5h-40.8C205.7-10.8,205-13.4,205-16.1z M204-7.6h46.9v0.3c-0.5,0.1-6.6,1.8-10.8,4.7
		H204V-7.6z M191.4-1.8h19.9h21.5h6.5l-0.1,0.1c-0.1,0.1-0.3,0.2-0.4,0.3c-1,0.8-2,1.8-2.9,2.9h-44.5V-1.8z M235.2,2.2
		c-2.2,2.8-4,6.5-4.7,11.1h-46.3c-1-4.6-3.1-8.2-5.6-11.1H235.2z M184.7,33.8v-5h45.4v5H184.7z M230.1,34.5v11.9v0.4v0.4v0.7h-45.4
		v-0.7v-0.4v-0.4V34.5H230.1z M184.7,28.1v-6.6h45.4v6.6H184.7z M184.7,20.8c0,0-0.1-4-0.2-4.9h45.6c0,0.6,0,4.9,0,4.9H184.7z
		 M184.5,15.2c-0.1-0.4-0.1-0.8-0.2-1.2h46c-0.1,0.4-0.1,0.8-0.1,1.2H184.5z M165,48.5V-6.1c1.6,0.6,19.1,7.6,19.1,25.1v29.5H165z
		 M171.3,48.9h13.4v-0.4h45.7h8.8h4.9h0.4h0.4h1.6v1.3v0.4c-0.3,0.1-0.8,0.2-1.6,0.4c-0.1,0-0.2,0.1-0.4,0.1c-0.1,0-0.2,0.1-0.4,0.1
		c-1.3,0.4-3.1,1-5.1,1.9h-66.7L171.3,48.9z M169.7,53.5L169.7,53.5h2.4h65.5c-1.7,0.9-3.5,2-5.3,3.3h-62.6V53.5z M169.5,57.5h62.1
		c-4.8,4-9.2,9.9-10.4,18.8h-49.7c-1.3-8.6-5.9-14.7-10.8-18.8H169.5z M171.8,100.1v-5.9h49v5.9H171.8z M220.8,100.9v13.9v0.4v0.4
		v0.8h-49v-0.8v-0.4v-0.4v-13.9H220.8z M171.8,93.5v-7.8h49v7.8H171.8z M171.8,84.9v-3.8c0-0.6,0-1.2,0-1.9h49.1
		c0,0.7-0.1,5.7-0.1,5.7L171.8,84.9L171.8,84.9z M171.8,78.6c0-0.5,0-0.5-0.2-1.5h49.5c-0.1,0.5-0.1,1-0.1,1.5H171.8z M149.3,116.4
		h-1.4V51c8.7,2.5,23.4,12.5,23.4,30.3v35.2L149.3,116.4z M151,117.1h70.1h25.3v4.8h-4.7v-2.8c0-0.1,0-0.2-0.1-0.3
		c-0.1-0.1-0.2-0.1-0.3-0.1s-4,0.7-9.1,3h-75.8V120C156.2,119.8,151,117.1,151,117.1z M147.9,122.5h82.8c-0.1,0.1-6.8,3.5-9.4,5.8
		h-73.4V122.5z M147.1,129.1h0.4h73c-1.7,1.2-7.3,7.1-9.5,13h-84.6c-1.2-5.3-3.2-9.5-5.6-13H147.1z M96.5,116.1
		c2.5,0,14.7,1.9,22.9,12.2c0.1,0.1,0.5,0.6,0.6,0.8c2.5,3.4,4.6,7.7,5.8,13c0,0.1,1.2,5.5,1.2,9c0,0.1,0,46.9,0,46.9H96.5V116.1z
		 M45.7,131c0.1-0.1,0.2-0.5,0.1-0.5c-4.4-3.8-6.9-9.4-6.9-15.2c0-11.1,9.2-20.2,20.4-20.2s20.4,9.1,20.4,20.2
		c0,3.2-0.7,6.2-2.2,9.1c-3.4-0.2-7.7,0.2-12.9,1c2-1.3,3.2-3.6,3.2-6.1c0-4-3.3-7.3-7.3-7.3c-3.6,0-6.7,2.7-7.2,6.2c0,0,0,0,0,0.1
		c0,0.2,0,0.4-0.1,0.6c0,0.2,0,0.3,0,0.5c0,4,3.3,7.3,7.3,7.3c0.6,0,1.1-0.1,1.6-0.2c0.4,0,0.9-0.1,1.4-0.2
		c7.5-1.2,13.2-1.5,17.1-0.8c0.4,0.1,2.9,0.2,5.3,2.6c0.1,0.2,0.3,0.4,0.4,0.6c0,0.1,0.1,0.1,0.1,0.2c0.1,0.2,0.2,0.5,0.2,0.8
		c0.4,1.9-0.8,5-4.2,7.4c-3.1,2.2-11.2,5.9-26.2,0.4c-0.1-0.1-0.3-0.1-0.4-0.2c-2.5-1-5.3-2.2-8.2-3.7c-1.3-0.6-2.5-1.3-3.9-2.1
		L45.7,131z M62,125.7c-2.6,0.2-4.6-0.3-6-1.6c-2.2-2-2.1-5.3-2.1-5.8c0.5-3.2,3.2-5.6,6.5-5.6c3.6,0,6.6,3,6.6,6.6
		C67.1,122.4,64.9,125,62,125.7z M57,200.6c-1.5-1.6-3.3-3.7-6-5.9c-12.2-10.5-13.9-35.5-14.1-39.9l13.7,8.8
		c0.6,0.4,1.3,0.8,1.9,1.2c0.2,0.1,0.4,0,0.5-0.1c0.1-0.2,0.1-0.4-0.1-0.5L51,163c-15.5-10.7-13.8-29.8-13.4-33l9.6,4.3
		c0.7,0.3,1.3,0.7,2,1c1.1,0.6,2.2,1.1,3.3,1.5c7.5,3.2,13.5,4.3,18.2,4.3c5.2,0,8.7-1.3,10.9-2.6c0.1-0.1,0.3-0.2,0.4-0.3
		c8.6-6.2,4.1-11,4-11.1l-0.1-0.1c-0.1,0-0.1-0.1-0.2-0.1c0.1,0,0.1,0,0.2,0.1c6,2.7,8.3,10.4,8.3,10.4c0.1,0.3,0.2,0.4,0.3,0.4H96
		V198c0,0.2,0.2,0.4,0.4,0.4h9.7l1.7,1.7l0.1,0.1l3,1.2v3.2H61.2C59.8,203.6,58.6,202.3,57,200.6z M30.3,205.2H61h49.8h0.4h0.4h9.1
		l2.3,0.9c-2.2,0.8-5,1.9-7.9,3.5h-3.5h-0.4h-0.4H30.3L30.3,205.2L30.3,205.2z M29.9,210.3h81.2h2.6c-7,4.1-14.6,10.9-18.1,22H24.4
		c-1.3-7.8-4.5-16.1-11.7-22H29.9z M9.8,284.4H-4v-80.2c1.6,0.1,7.8,0.9,14,4.9c0.2,0.1,1.3,0.9,1.5,1.1c7.6,5.7,10.9,14.1,12.2,22
		c0,0.1,0,0.2,0.1,0.4c0,0.1,0,0.2,0.1,0.4c0.4,2.8,0.6,5.6,0.6,8.1c0,0.1,0,0.2,0,0.3v0.1v0.4v10.9v0.4v0.4v8.3v0.4v0.4v21.8
		L9.8,284.4z M10.2,285.4h116.3v2.8H18L10.2,285.4z M11.3,441.5H18h81.6c-0.3,1.2-0.7,2.8-1,5H11.3V441.5z M11.1,447.2h87.4
		c-0.1,0.8-0.2,1.6-0.3,2.6c-0.7,6.3-1.1,14.9-1.2,23.8H8.2C8.2,470.6,8,450.7,11.1,447.2z M7.9,544.7h85.7c0,2.4,0,4.6,0,5.5
		L-3.8,550L7.9,544.7z M-5,581.3v-30.6h98.6l-8.1,7.7c0,0-0.1,0.1-0.1,0.2c0,0,0,0,0,0.1v15.9v0.4v0.4v5.9L-5,581.3L-5,581.3z
		 M85.4,582v3.1H11h-0.5H10H2.5V582h10.1h0.5h0.5H85.4z M-0.6,585.8h86.1v2.7l-86.1,0.1L-0.6,585.8L-0.6,585.8z M-5,589.3h43.3v44.4
		H-5V589.3z M-5.7,604.5v29.6c0,0.2,0.2,0.4,0.4,0.4h44h34.6v6.7H-37.1L-5.7,604.5z M-37.4,642.1h25.9V691l-25.9-0.1V642.1z
		 M-37.4,691.6h26.2h57.8v14.9l-9.3,10.6l-0.1,0.1v4.4v19h-74.6V691.6z M-40.3,756.8v-15.3h2.5H37v15.3H-40.3z M35.1,832.7v-15.3
		h211.2l-8.4,15.3H35.1z M718.1,937.3H207.9V916h510.2V937.3z M717.9,915.2H208.1l22.4-41.3h465L717.9,915.2z M695.3,873.2H230.7
		v-25.7h464.6V873.2z M695,846.8H231l19.5-35.8h12.9h0.4h0.4h397.6h0.4h0.4h12.9L695,846.8z M890.9,817.4v15.3H688.1l-8.4-15.3
		H890.9z M888.8,740.6v-19v-4.4l-0.1-0.1l-9.3-10.6v-14.9h57.8h26.2v49H888.8z M966.3,756.8H889v-15.3h74.8h2.5V756.8z"/>
	<path class="st0" d="M123.7,334.4c-5.9-1.1-20.1-5.1-24.7-17.4c-1.9-5.1-2.7-10.4-2.2-15.3c0-0.1,0-0.2-0.1-0.3s-0.2-0.1-0.3-0.1
		H54.3c-0.1,0-0.2,0.1-0.3,0.1c-0.1,0.1-0.1,0.2-0.1,0.3c0.9,3.2,0.3,14.4-6.3,23.5c-5.9,8.2-14.9,12.5-26.7,13
		c-0.2,0-0.3,0.2-0.3,0.4V394c0,0.2,0.1,0.4,0.3,0.4c11.2,0.6,25.9,5.7,30.5,18.3c1.9,5.1,2.7,10.4,2.2,15.3c0,0.1,0,0.2,0.1,0.3
		s0.2,0.1,0.3,0.1h42.1c0.1,0,0.2-0.1,0.3-0.1c0.1-0.1,0.1-0.2,0.1-0.3c-0.8-3-0.2-12.6,5.2-21.2c4.9-7.9,12.3-12.8,22-14.7
		c0.2,0,0.3-0.2,0.3-0.4v-56.9C124,334.6,123.9,334.5,123.7,334.4z M123.2,391.3c-9.6,1.9-17.3,7.1-22.2,14.9
		c-5.2,8.4-6,17.7-5.3,21.3H54.4c0.4-4.9-0.4-10.2-2.3-15.2c-4.7-12.7-19.5-18-30.8-18.7V339c11.9-0.6,20.9-5.1,26.9-13.3
		c6.8-9.4,7.2-20.2,6.6-23.7H96c-0.4,4.9,0.4,10.2,2.3,15.2c4.6,12.4,18.7,16.6,24.9,17.8V391.3z"/>
	<path class="st0" d="M225.5-10.6c2.8,0,5.1-2.3,5.1-5.1s-2.3-5.1-5.1-5.1c-2.8,0-5.1,2.3-5.1,5.1
		C220.4-12.9,222.7-10.6,225.5-10.6z M225.5-20.1c2.4,0,4.4,2,4.4,4.4s-2,4.4-4.4,4.4s-4.4-2-4.4-4.4
		C221.1-18.2,223.1-20.1,225.5-20.1z"/>
	<path class="st0" d="M131.1,366.1c0.4,0,1.7,0.1,1.9,0.1c10.8,1.5,23.2,6.9,27.3,17.9c1.9,5.1,2.7,10.4,2.2,15.3
		c0,0.1,0,0.2,0.1,0.3s0.2,0.1,0.3,0.1H205c0.1,0,0.2-0.1,0.3-0.1c0.1-0.1,0.1-0.2,0.1-0.3c-0.4-1.5-0.5-4.9,0.4-9.1
		c0.7-3.4,2.3-8.6,5.8-13.5c3.4-4.8,7.7-8.4,12.9-10.7c0.1-0.1,0.2-0.1,0.4-0.2c0.1-0.1,0.2-0.1,0.4-0.2c3.6-1.5,7.7-2.4,12.1-2.8
		c0.2,0,0.3-0.2,0.3-0.4v-90.6c0-0.2-0.1-0.3-0.3-0.4c-3.9-0.4-8.1-1.3-12.1-2.8c-0.1,0-0.2-0.1-0.4-0.1c-0.2,0-0.2-0.1-0.4-0.1
		c-7.2-2.8-13.7-7.7-16.4-15.1c-1.9-5.1-2.7-10.4-2.2-15.3c0-0.1,0-0.2-0.1-0.3c-0.1-0.1-0.2-0.1-0.3-0.1h-42.1
		c-0.1,0-0.2,0.1-0.3,0.1c-0.1,0.1-0.1,0.2-0.1,0.3c0.4,1.5,0.5,4.9-0.4,9.1c-0.7,3.4-2.3,8.6-5.7,13.5
		c-5.7,8.2-14.4,12.9-25.7,13.8c-0.2,0-0.3,0.2-0.3,0.4V288v0.4v0.4v76.8C130.9,365.8,130.9,366.1,131.1,366.1z M131.5,275.4
		c11.3-1,20-5.8,25.9-14.1c6.1-8.7,7.1-18.9,6.3-22.8H205c-0.4,4.9,0.4,10.2,2.3,15.2c2.9,7.7,9.6,12.7,17.1,15.6
		c0.1,0,0.2,0.1,0.4,0.1c0.1,0,0.2,0.1,0.4,0.1c3.9,1.4,7.9,2.3,11.7,2.7v89.9c-4.3,0.4-8.2,1.3-11.7,2.7c-0.1,0-0.2,0.1-0.4,0.2
		c-0.1,0.1-0.2,0.1-0.4,0.2c-5.5,2.4-10,6.1-13.5,11.1c-6.1,8.7-7.1,18.9-6.4,22.8h-41.3c0.4-4.9-0.4-10.2-2.3-15.2
		c-4.2-11.3-16.9-16.8-28-18.3c-0.1,0-1.2-0.1-1.4-0.1V275.4z"/>
	<path class="st0" d="M73.5,327.6l-37.6,38.1c-0.1,0.1-0.1,0.2-0.1,0.3s0,0.2,0.1,0.3l37.6,37.1c0,0.1,0.1,0.1,0.2,0.1
		s0.2,0,0.3-0.1l37.6-37.1c0.1-0.1,0.1-0.2,0.1-0.3s0-0.2-0.1-0.3L74,327.6C73.9,327.5,73.6,327.5,73.5,327.6z M73.6,402.6L36.5,366
		l37.1-37.4l37.1,37.4L73.6,402.6z"/>
	<path class="st0" d="M186.2,358.8c21,0,38-17,38-38s-17-38-38-38s-38,17-38,38C148.2,341.7,165.3,358.8,186.2,358.8z
		 M186.2,283.5c20.6,0,37.3,16.7,37.3,37.3s-16.7,37.3-37.3,37.3c-20.6,0-37.3-16.7-37.3-37.3S165.7,283.5,186.2,283.5z"/>
	<path class="st0" d="M186.2,338.8c9.9,0,18-8.1,18-18s-8.1-18-18-18s-18,8.1-18,18C168.2,330.8,176.2,338.8,186.2,338.8z
		 M186.2,303.5c9.5,0,17.3,7.8,17.3,17.3s-7.8,17.3-17.3,17.3s-17.3-7.8-17.3-17.3S176.6,303.5,186.2,303.5z"/>
	<path class="st0" d="M55.8,365.8c0,0.1,0,0.1,0.1,0.2l17.8,17.6c0,0.1,0.1,0.1,0.1,0.1s0.1,0,0.2-0.1L91.8,366
		c0.1-0.1,0.1-0.1,0.1-0.2s0-0.1-0.1-0.2L74,347.5c-0.1-0.1-0.2-0.1-0.3,0l-17.8,18.1C55.8,365.7,55.8,365.7,55.8,365.8z M73.7,348
		l17.6,17.8l-17.6,17.4l-17.6-17.4L73.7,348z"/>
	<path class="st0" d="M829.5,428c0,0.1,0,0.2,0.1,0.3c0.1,0,0.2,0.1,0.3,0.1H872c0.1,0,0.2,0,0.3-0.1s0.1-0.2,0.1-0.3
		c-0.5-4.9,0.3-10.2,2.2-15.3c4.6-12.6,19.3-17.7,30.5-18.3c0.2,0,0.3-0.2,0.3-0.4v-55.4c0-0.2-0.1-0.4-0.3-0.4
		c-11.8-0.5-20.8-4.8-26.7-13c-6.6-9.1-7.2-20.3-6.3-23.5c0-0.1,0-0.2-0.1-0.3c-0.1,0-0.2-0.1-0.3-0.1h-42.1c-0.1,0-0.2,0-0.3,0.1
		s-0.1,0.2-0.1,0.3c0.5,4.9-0.3,10.2-2.2,15.3c-4.6,12.3-18.8,16.3-24.7,17.4c-0.2,0.1-0.3,0.2-0.3,0.4v56.9c0,0.2,0.1,0.4,0.3,0.4
		c9.7,1.9,17.1,6.8,22,14.7C829.7,415.4,830.3,425,829.5,428z M825,406.2c-4.9-7.8-12.6-13-22.2-14.9V335
		c6.2-1.2,20.3-5.4,24.9-17.8c1.9-5,2.7-10.3,2.3-15.2h41.2c-0.6,3.5-0.2,14.3,6.6,23.7c6,8.2,15,12.7,26.9,13.3v54.6
		c-11.3,0.7-26.1,6-30.8,18.7c-1.9,5-2.7,10.3-2.3,15.2h-41.3C831,423.9,830.2,414.6,825,406.2z"/>
	<path class="st0" d="M700.5-10.6c2.8,0,5.1-2.3,5.1-5.1c0-2.8-2.3-5.1-5.1-5.1s-5.1,2.3-5.1,5.1
		C695.4-12.9,697.7-10.6,700.5-10.6z M700.5-20.1c2.4,0,4.4,1.9,4.4,4.4c0,2.4-2,4.4-4.4,4.4s-4.4-2-4.4-4.4S698.1-20.1,700.5-20.1z
		"/>
	<path class="st0" d="M700.7,268.7c-4,1.5-8.2,2.4-12.1,2.8c-0.2,0.1-0.3,0.2-0.3,0.4v90.6c0,0.2,0.1,0.4,0.3,0.4
		c4.4,0.4,8.5,1.3,12.1,2.8c0.2,0.1,0.3,0.1,0.4,0.2c0.2,0.1,0.3,0.1,0.4,0.2c5.2,2.3,9.5,5.9,12.9,10.7c3.5,4.9,5.1,10.1,5.8,13.5
		c0.9,4.2,0.8,7.6,0.4,9.1c0,0.1,0,0.2,0.1,0.3c0.1,0,0.2,0.1,0.3,0.1h42.1c0.1,0,0.2,0,0.3-0.1s0.1-0.2,0.1-0.3
		c-0.5-4.9,0.3-10.2,2.2-15.3c4.1-11,16.5-16.4,27.3-17.9c0.2,0,1.5-0.1,1.9-0.1c0.2,0,0.2-0.3,0.2-0.5v-76.8v-0.4V288v-13.1
		c0-0.2-0.1-0.4-0.3-0.4c-11.3-0.9-20-5.6-25.7-13.8c-3.4-4.9-5-10.1-5.7-13.5c-0.9-4.2-0.8-7.6-0.4-9.1c0-0.1,0-0.2-0.1-0.3
		c-0.1,0-0.2-0.1-0.3-0.1h-42.1c-0.1,0-0.2,0-0.3,0.1s-0.1,0.2-0.1,0.3c0.5,4.9-0.3,10.2-2.2,15.3c-2.7,7.4-9.2,12.3-16.4,15.1
		c-0.2,0-0.2,0.1-0.4,0.1C700.9,268.6,700.8,268.7,700.7,268.7z M701.6,269.3c7.5-2.9,14.2-7.9,17.1-15.6c1.9-5,2.7-10.3,2.3-15.2
		h41.3c-0.8,3.9,0.2,14.1,6.3,22.8c5.9,8.3,14.6,13.1,25.9,14.1v90.1c-0.2,0-1.3,0.1-1.4,0.1c-11.1,1.5-23.8,7-28,18.3
		c-1.9,5-2.7,10.3-2.3,15.2h-41.3c0.7-3.9-0.3-14.1-6.4-22.8c-3.5-5-8-8.7-13.5-11.1c-0.2-0.1-0.3-0.1-0.4-0.2
		c-0.2-0.1-0.3-0.2-0.4-0.2c-3.5-1.4-7.4-2.3-11.7-2.7v-89.9c3.8-0.4,7.8-1.3,11.7-2.7c0.2,0,0.3-0.1,0.4-0.1
		C701.4,269.4,701.5,269.3,701.6,269.3z"/>
	<path class="st0" d="M852.3,403.5c0.1,0,0.2,0,0.2-0.1l37.6-37.1c0.1-0.1,0.1-0.2,0.1-0.3s0-0.2-0.1-0.3l-37.6-38.1
		c-0.1-0.1-0.4-0.1-0.5,0l-37.6,38.1c-0.1,0.1-0.1,0.2-0.1,0.3s0,0.2,0.1,0.3l37.6,37.1C852.1,403.5,852.2,403.5,852.3,403.5z
		 M852.4,328.6l37.1,37.4l-37.1,36.6L815.3,366L852.4,328.6z"/>
	<path class="st0" d="M739.8,358.8c21,0,38-17,38-38s-17-38-38-38s-38,17-38,38C701.8,341.7,718.8,358.8,739.8,358.8z
		 M739.8,283.5c20.6,0,37.3,16.7,37.3,37.3s-16.7,37.3-37.3,37.3s-37.3-16.7-37.3-37.3S719.2,283.5,739.8,283.5z"/>
	<path class="st0" d="M739.8,338.8c10,0,18-8,18-18c0-9.9-8.1-18-18-18s-18,8.1-18,18S729.9,338.8,739.8,338.8z M739.8,303.5
		c9.6,0,17.3,7.8,17.3,17.3s-7.8,17.3-17.3,17.3s-17.3-7.8-17.3-17.3S730.3,303.5,739.8,303.5z"/>
	<path class="st0" d="M870.2,365.8c0-0.1,0-0.1-0.1-0.2l-17.8-18.1c-0.1-0.1-0.2-0.1-0.3,0l-17.8,18.1c-0.1,0.1-0.1,0.1-0.1,0.2
		s0,0.1,0.1,0.2l17.8,17.6c0.1,0.1,0.1,0.1,0.2,0.1s0.1,0,0.1-0.1l17.8-17.6C870.2,365.9,870.2,365.8,870.2,365.8z M852.3,383.1
		l-17.6-17.3l17.6-17.8l17.6,17.8L852.3,383.1z"/>
</g>
</svg>
