<?xml version="1.0" encoding="utf-8"?>
<!-- Generator: Adobe Illustrator 19.0.0, SVG Export Plug-In . SVG Version: 6.00 Build 0)  -->
<svg version="1.1" id="lm-gapura" xmlns="http://www.w3.org/2000/svg" xmlns:xlink="http://www.w3.org/1999/xlink" x="0px" y="0px"
	 viewBox="77 116 768 1050" style="enable-background:new 77 116 768 1050;" xml:space="preserve">
<style type="text/css">
	.st0{fill:#DEBEBD;}
</style>
<g>
	<path class="st0" d="M912.8,630.3c0,0.1,0,0.2,0.1,0.3c0.1,0,0.2,0.1,0.3,0.1h42.1c0.1,0,0.2,0,0.3-0.1s0.1-0.2,0.1-0.3
		c-0.5-4.9,0.3-10.2,2.2-15.3c4.6-12.6,19.3-17.7,30.5-18.3c0.2,0,0.3-0.2,0.3-0.4v-55.4c0-0.2-0.1-0.4-0.3-0.4
		c-11.8-0.5-20.8-4.8-26.7-13c-6.6-9.1-7.2-20.3-6.3-23.5c0-0.1,0-0.2-0.1-0.3c-0.1,0-0.2-0.1-0.3-0.1h-42.1c-0.1,0-0.2,0-0.3,0.1
		c-0.1,0.1-0.1,0.2-0.1,0.3c0.5,4.9-0.3,10.2-2.2,15.3c-4.6,12.3-18.8,16.3-24.7,17.4c-0.2,0.1-0.3,0.2-0.3,0.4V594
		c0,0.2,0.1,0.4,0.3,0.4c9.7,1.9,17.1,6.8,22,14.7C913,617.7,913.6,627.3,912.8,630.3z M908.3,608.5c-4.9-7.8-12.6-13-22.2-14.9
		v-56.3c6.2-1.2,20.3-5.4,24.9-17.8c1.9-5,2.7-10.3,2.3-15.2h41.2c-0.6,3.5-0.2,14.3,6.6,23.7c6,8.2,15,12.7,26.9,13.3v54.6
		c-11.3,0.7-26.1,6-30.8,18.7c-1.9,5-2.7,10.3-2.3,15.2h-41.3C914.3,626.2,913.5,616.9,908.3,608.5z"/>
	<path class="st0" d="M782.7,191.7c2.8,0,5.1-2.3,5.1-5.1c0-2.8-2.3-5.1-5.1-5.1c-2.8,0-5.1,2.3-5.1,5.1
		C777.6,189.4,779.9,191.7,782.7,191.7z M782.7,182.2c2.4,0,4.4,1.9,4.4,4.4c0,2.4-2,4.4-4.4,4.4s-4.4-2-4.4-4.4
		C778.3,184.2,780.3,182.2,782.7,182.2z"/>
	<path class="st0" d="M784,471c-4,1.5-8.2,2.4-12.1,2.8c-0.2,0.1-0.3,0.2-0.3,0.4v90.6c0,0.2,0.1,0.4,0.3,0.4
		c4.4,0.4,8.5,1.3,12.1,2.8c0.2,0.1,0.3,0.1,0.4,0.2c0.2,0.1,0.3,0.1,0.4,0.2c5.2,2.3,9.5,5.9,12.9,10.7c3.5,4.9,5.1,10.1,5.8,13.5
		c0.9,4.2,0.8,7.6,0.4,9.1c0,0.1,0,0.2,0.1,0.3c0.1,0,0.2,0.1,0.3,0.1h42.1c0.1,0,0.2,0,0.3-0.1c0.1-0.1,0.1-0.2,0.1-0.3
		c-0.5-4.9,0.3-10.2,2.2-15.3c4.1-11,16.5-16.4,27.3-17.9c0.2,0,1.5-0.1,1.9-0.1c0.2,0,0.2-0.3,0.2-0.5v-76.8v-0.4v-0.4v-13.1
		c0-0.2-0.1-0.4-0.3-0.4c-11.3-0.9-20-5.6-25.7-13.8c-3.4-4.9-5-10.1-5.7-13.5c-0.9-4.2-0.8-7.6-0.4-9.1c0-0.1,0-0.2-0.1-0.3
		c-0.1,0-0.2-0.1-0.3-0.1h-42.1c-0.1,0-0.2,0-0.3,0.1c-0.1,0.1-0.1,0.2-0.1,0.3c0.5,4.9-0.3,10.2-2.2,15.3
		c-2.7,7.4-9.2,12.3-16.4,15.1c-0.2,0-0.2,0.1-0.4,0.1C784.2,470.9,784.1,471,784,471z M784.9,471.6c7.5-2.9,14.2-7.9,17.1-15.6
		c1.9-5,2.7-10.3,2.3-15.2h41.3c-0.8,3.9,0.2,14.1,6.3,22.8c5.9,8.3,14.6,13.1,25.9,14.1v90.1c-0.2,0-1.3,0.1-1.4,0.1
		c-11.1,1.5-23.8,7-28,18.3c-1.9,5-2.7,10.3-2.3,15.2h-41.3c0.7-3.9-0.3-14.1-6.4-22.8c-3.5-5-8-8.7-13.5-11.1
		c-0.2-0.1-0.3-0.1-0.4-0.2c-0.2-0.1-0.3-0.2-0.4-0.2c-3.5-1.4-7.4-2.3-11.7-2.7v-89.9c3.8-0.4,7.8-1.3,11.7-2.7
		c0.2,0,0.3-0.1,0.4-0.1C784.7,471.7,784.8,471.6,784.9,471.6z"/>
	<path class="st0" d="M935.6,605.9c0.1,0,0.2,0,0.2-0.1l37.6-37.1c0.1-0.1,0.1-0.2,0.1-0.3s0-0.2-0.1-0.3L935.8,530
		c-0.1-0.1-0.4-0.1-0.5,0l-37.6,38.1c-0.1,0.1-0.1,0.2-0.1,0.3s0,0.2,0.1,0.3l37.6,37.1C935.4,605.9,935.5,605.9,935.6,605.9z
		 M935.7,530.9l37.1,37.4l-37.1,36.6l-37.1-36.6L935.7,530.9z"/>
	<path class="st0" d="M823.1,561.1c21,0,38-17,38-38s-17-38-38-38s-38,17-38,38S802.1,561.1,823.1,561.1z M823.1,485.8
		c20.6,0,37.3,16.7,37.3,37.3s-16.7,37.3-37.3,37.3s-37.3-16.7-37.3-37.3S802.5,485.8,823.1,485.8z"/>
	<path class="st0" d="M823.1,541.1c10,0,18-8,18-18c0-9.9-8.1-18-18-18s-18,8.1-18,18S813.2,541.1,823.1,541.1z M823.1,505.8
		c9.6,0,17.3,7.8,17.3,17.3s-7.8,17.3-17.3,17.3s-17.3-7.8-17.3-17.3S813.6,505.8,823.1,505.8z"/>
	<path class="st0" d="M936,586l17.7-17.5c0.2-0.2,0.2-0.3,0.2-0.4c0-0.2,0-0.2-0.2-0.4l-17.8-18.1c-0.1-0.1-0.2-0.1-0.3-0.1
		s-0.2,0-0.3,0.1l-17.8,18.1c-0.1,0.1-0.2,0.2-0.2,0.4s0,0.2,0.2,0.4l17.8,17.6c0.1,0.1,0.2,0.2,0.4,0.2
		C935.8,586.2,936,586.2,936,586z M935.6,585.2l-17.2-17.1l17.2-17.4l17.2,17.4L935.6,585.2z"/>
	<path class="st0" d="M1050.1,942.9h-2.5v-48.4c0,0,0-50.1,0-50.7l-32.5-38v-14.4c0-0.2-0.2-0.5-0.4-0.5h-4V788
		c0-0.2-0.2-0.6-0.4-0.6h-2.9v-3.1h7.2c0.2,0,0.4-0.2,0.4-0.4v-31c0-0.2-0.2-0.5-0.4-0.6l-12.8-5.8v-30.3V685v-8.1
		c0-1,0.4-23.8-3.1-27.8v-5.6c0-0.2-0.2-0.4-0.4-0.4h-6.7V491.2l7.8-2.9c0.1-0.1,2.2-0.5,2.2-0.6h12c0.2,0,0.4-0.2,0.4-0.4v-80.5
		c0-0.1,0-0.9-0.1-1c-0.1-0.1-0.2-0.1-0.3-0.1s-7.4,0.3-14.7,5.1c-0.4,0.3-0.6,0.3-1.3,1.1h-18v-4.6c0-0.2-0.2-0.4-0.4-0.4h-29.6
		c1.1-0.9,1.7-1.6,3-3c1.5-1.7,3.3-3.7,5.9-5.9c13.6-11.6,14.4-40.8,14.4-41.1c0-0.1-0.1-0.2-0.2-0.3c-0.1-0.1-0.3-0.1-0.4,0
		l-9.4,6.1c12.2-12.3,9.2-30.3,9.2-30.5s-0.1-0.2-0.2-0.3c-0.1,0-0.2,0-0.3,0l-4.9,2.2c-0.1-0.2-0.1-0.4-0.2-0.4l-2.1-0.5
		c4.3-3.9,6.6-9.3,6.6-15.1c0-11.5-9.5-20.9-21.1-20.9c-11.6,0-21.1,9.4-21.1,20.9c0,3.1,0.7,6.1,2,8.9c-2.1,0.2-10.1,0.8-14,7.6
		c-1.5,2.3-2.3,4.2-2.5,4.9h-1v-21.1c0-0.1,0-0.4-0.1-0.5c-0.1-0.1-0.4-0.1-0.5-0.1c-0.2,0-14.3,0.7-23.4,12.8h-27.4v-6.1
		c0-0.2-0.2-0.5-0.4-0.5h-7.9v-1.4l6.4-3.2h1.5c0.2,0,0.4-0.2,0.4-0.4v-65.7c0-0.1,0-0.5-0.1-0.6c-0.1-0.1-0.2-0.1-0.3-0.1
		c-0.2,0-6.2,1.7-12.2,6.5H840v-3.3c0-0.2-0.2-0.4-0.4-0.4h-2.2l1.2-4.2h5.9c0.2,0,0.4-0.2,0.4-0.4V196c0-0.1,0-0.2-0.1-0.3
		c-0.1-0.1-0.2-0.1-0.3-0.1c-0.1,0-7.4,2.3-13.2,8.4h-12.5v-3.7c0-0.2-0.2-0.4-0.4-0.4h-12.2v-5.3v-0.2c0-0.2-0.2-0.4-0.4-0.4h-2.5
		c1.1-2.5,1.7-5.1,1.7-7.8c0-1.5-0.2-3-0.6-4.5c-2-8.1-9.3-13.7-17.6-13.7c-0.4,0-0.8,0-1.2,0c1.1-2.4,1.6-5.1,1.6-7.8
		c0-10.1-7.3-18.3-16.3-18.3c-3.4,0-6.6,1.2-9.2,3.2v-4.3c0-0.2-0.2-0.4-0.4-0.4H758h-3.2c-0.1,0-0.2,0.1-0.3,0.2l-2.4,5.8v0.1v54.1
		l-0.6,0.6c-0.1,0.1-0.1,0.2-0.1,0.3V257v0.1v0.1l1.8,3.7v5.1l-1.7,1.7c-0.1,0.1-0.1,0.2-0.1,0.3v522.3h-5.8c-0.1,0-0.1,0-0.1,0
		c-0.1,0-0.1,0-0.1,0l-0.1,0.1v0.1v76.7h-26.7c-0.1,0-0.1,0-0.1,0c-0.1,0-0.1,0-0.1,0l-0.1,0.1v0.1v36.1H203.7v-36.1v-0.1l-0.1-0.1
		c0,0,0,0-0.1,0c0,0,0,0-0.1,0h-26.7v-76.7v-0.1l-0.1-0.1c0,0,0,0-0.1,0c0,0,0,0-0.1,0h-5.8V268c0-0.1,0-0.2-0.1-0.3l-1.7-1.7v-5.1
		l1.8-3.7v-0.1V257v-55.5c0-0.1,0-0.2-0.1-0.3l-0.6-0.6v-54.1v-0.1l-2.4-5.8c-0.1-0.1-0.2-0.2-0.3-0.2H164h-3.3
		c-0.2,0-0.4,0.2-0.4,0.4v4.3c-2.6-2-5.8-3.2-9.2-3.2c-9,0-16.3,8.2-16.3,18.3c0,2.7,0.5,5.4,1.6,7.8c-0.4,0-0.8,0-1.2,0
		c-8.3,0-15.6,5.6-17.6,13.7c-0.4,1.5-0.6,3-0.6,4.5c0,2.7,0.6,5.3,1.7,7.8h-2.5c-0.2,0-0.4,0.2-0.4,0.4v0.2v5.3h-12.2
		c-0.2,0-0.4,0.2-0.4,0.4v3.7H90.7c-5.8-6.1-13.1-8.4-13.2-8.4c-0.1,0-0.2,0-0.3,0.1c-0.1,0.1-0.1,0.2-0.1,0.3v54.8
		c0,0.2,0.2,0.4,0.4,0.4h5.9l1.2,4.2h-2.2c-0.2,0-0.4,0.2-0.4,0.4v3.3h-9.3c-6-4.8-12-6.5-12.2-6.5c-0.1,0-0.2,0-0.3,0.1
		c-0.1,0.1-0.1,0.5-0.1,0.6V319c0,0.2,0.2,0.4,0.4,0.4H62l6.4,3.2v1.4h-7.9c-0.2,0-0.4,0.3-0.4,0.5v6.1H32.7
		c-9.1-12.1-23.2-12.8-23.4-12.8c-0.1,0-0.4,0-0.5,0.1c-0.1,0.1-0.1,0.4-0.1,0.5v21.1h-1c-0.2-0.7-1-2.6-2.5-4.9
		c-3.9-6.8-11.9-7.4-14-7.6c1.3-2.8,2-5.8,2-8.9c0-11.5-9.5-20.9-21.1-20.9c-11.6,0-21.1,9.4-21.1,20.9c0,5.8,2.3,11.2,6.6,15.1
		l-2.1,0.5c-0.1,0-0.1,0.2-0.2,0.4l-4.9-2.2c-0.1,0-0.2,0-0.3,0c-0.1,0.1-0.2,0.1-0.2,0.3c0,0.2-3,18.2,9.2,30.5l-9.4-6.1
		c-0.1-0.1-0.3-0.1-0.4,0c-0.1,0.1-0.2,0.2-0.2,0.3c0,0.3,0.8,29.5,14.4,41.1c2.6,2.2,4.4,4.2,5.9,5.9c1.3,1.4,1.9,2.1,3,3h-29.6
		c-0.2,0-0.4,0.2-0.4,0.4v4.6h-18c-0.7-0.7-0.9-0.8-1.3-1.1c-7.3-4.8-14.6-5.1-14.7-5.1c-0.1,0-0.2,0-0.3,0.1
		c-0.1,0.1-0.1,0.9-0.1,1v80.5c0,0.2,0.2,0.4,0.4,0.4h12c0,0.1,2.1,0.5,2.2,0.6l7.8,2.9v151.9h-6.7c-0.2,0-0.4,0.2-0.4,0.4v5.6
		c-3.5,4-3.1,26.8-3.1,27.8v8.1v31.2v30.3l-12.8,5.8c-0.2,0.1-0.4,0.4-0.4,0.6v31c0,0.2,0.2,0.4,0.4,0.4h7.2v3.1h-2.9
		c-0.2,0-0.4,0.4-0.4,0.6v2.9h-4c-0.2,0-0.4,0.3-0.4,0.5v14.4l-32.5,38c0,0.6,0,50.7,0,50.7v48.4h-2.5c-0.2,0-0.4,0.2-0.4,0.4V960
		c0,0.2,0.2,0.4,0.4,0.4h77.8v58.6h-2.5c-0.2,0-0.4,0.2-0.4,0.4v17c0,0.2,0.2,0.4,0.4,0.4h202.3l-7,13v26.4l-22.8,41.9v23.1
		c0,0.2,0.2,0.4,0.4,0.4h681.9c0.2,0,0.4-0.2,0.4-0.4v-23.1l-22.8-41.9v-26.4l-7-13h202.3c0.2,0,0.4-0.2,0.4-0.4v-17
		c0-0.2-0.2-0.4-0.4-0.4h-2.5v-58.6h77.8c0.2,0,0.4-0.2,0.4-0.4v-16.7C1050.5,943.1,1050.3,942.9,1050.1,942.9z M972,919.4
		l-9.3-10.6v-14.9h57.8h26.2v49h-74.6v-19L972,919.4z M750.4,969.9h67.9h23v49.2h-78.7l-3.2-5.9v-26.3c0-0.1,0-0.1,0-0.1
		c0-0.1,0-0.1,0-0.2L750.4,969.9z M745.5,962l13.1,24.4H163.4l13.1-24.4H745.5z M176.7,961.4v-7.1h568.7v7.1H176.7z M745.9,961.6
		v-7.1v-0.7v-29.5h72v18.6v0.4v0.4V959v0.4v0.4v9.3H750L745.9,961.6z M172,969.1h-67.9v-9.3v-0.4V959v-15.3v-0.4v-0.4v-18.6h72v29.5
		v0.7v7.1L172,969.1z M176.2,923.7H-49.4V920h225.6V923.7z M15.7,924.3V943v0.4v0.4v15.3v0.4v0.4v9.3h-65.1v-44.8L15.7,924.3z
		 M16.1,969.9h63.8v49.1H-49.4v-49.1H16.1z M16.4,969.2v-9.4v-0.4V959v-15.3v-0.4v-0.4v-18.6h86.9v18.6v0.4v0.4V959v0.4v0.4v9.3
		H80.2L16.4,969.2z M80.7,969.9h23h67.9l-9,16.7c0,0.1,0,0.1,0,0.2c0,0,0,0,0,0.1v26.3l-3.2,5.9H80.7V969.9z M163.1,987.1h595.8h0.1
		v25.7H163.1V987.1z M818.7,969.1L818.7,969.1v-9.3v-0.4V959v-15.3v-0.4v-0.4v-18.6h86.9v18.6v0.4v0.4V959v0.4v0.4v9.4l-63.8-0.1
		H818.7z M842.1,969.9h63.8h65.5v49.1H842.1V969.9z M906.3,969.2v-9.3v-0.4v-0.4v-15.3v-0.4V943v-18.7l65.1,0.1v44.8H906.3z
		 M745.8,923.7V920h225.6v3.7H745.8z M949,893.3L949,893.3l-13-14.8V868c0-0.2-0.2-0.4-0.4-0.4h-6.2v-7.9h6.2c0.2,0,0.3-0.2,0.3-0.4
		v-14.8h84.2v48.8H949z M962,893.9V908l-12.4-14.1H962z M763.9,867.5v-7.8h164.8v7.9L763.9,867.5z M910.8,868.2v44.5h-93.3v-44.5
		H910.8z M816.9,868.2v44.5h-14.7h-0.4h-0.4H764v-44.5H816.9z M764,858.9v-30.5h45.2v14.9v0.4v0.4v14.8L764,858.9z M809.7,858.9
		v-14.7v-0.4v-0.4v-15.1h2.9h0.4h0.4h28.7h0.4h0.4h33.2h0.4h0.4H908v7.5v0.4v0.4v6.7v0.3v0.1v0.3v0.1v0.3v14.5L809.7,858.9z
		 M935.8,827.7l-11.9-6v-30.2h46.4V836H936v-8v-0.1C935.9,827.8,935.9,827.8,935.8,827.7z M908.7,858.9v-30.6h26.6v30.6H908.7z
		 M911.6,868.2H926h0.5h0.5h1.3h0.4h0.4h6.2v9.4v0.5v0.5v14.5v0.4v0.4v18.8h-13.2h-0.4h-0.4h-9.7V868.2z M1020.8,893.3v-48.9h25.9
		v48.8L1020.8,893.3z M1015,836.4v-29.6l31.4,36.7H936v-6.7h34.6h44C1014.8,836.8,1015,836.6,1015,836.4z M1014.3,791.6V836H971
		v-44.4H1014.3z M1009.9,788.1v2.8l-86.1-0.1v-2.7H1009.9z M923.9,787.4v-3.1h71.8h0.5h0.5h10.1v3.1h-7.5h-0.5h-0.5H923.9z
		 M1014.3,783.6h-90.4v-5.9v-0.4v-0.4V761c0-0.1,0-0.1,0-0.1c0-0.1-0.1-0.2-0.1-0.2l-8.1-7.7h98.6V783.6z M768.2,615.3
		c0,0,124.8-0.1,125.3,0c2.2,0,8.1,3.1,10.7,7.9c2.7,4.3,3.4,7.7,3.7,9.1h-26.1h-0.4H881h-3.9h-0.4h-0.4H768.1
		C768.3,626.6,768.6,617.7,768.2,615.3z M801.8,376.8v-8.3h80v8.3H801.8z M881.7,377.5v18.7v0.4v0.4v2.8h-80v-22.3H881.7z
		 M801.7,367.8v-6.2c0-1.6-0.1-3.2-0.2-4.7h80.3v10.9H801.7z M801.4,356.2c-0.3-2.9-0.9-5.6-1.7-8.1h82.5c-0.4,2.1-0.4,8.1-0.4,8.1
		H801.4z M799.5,347.4c-0.3-0.8-0.6-1.5-0.9-2.3h84.1c-0.1,0.7-0.3,1.5-0.4,2.3H799.5z M801.2,361.6v38.2h-32.9v-78
		C769.2,322,801.2,328.5,801.2,361.6z M881.8,400.5c0,0.2,0.1,0.3,0.3,0.3h20.3l-1.1,1.1l-19.1,7.5H768.3v-0.3v-0.4v-0.4v-7.8H881.8
		z M897.8,403.9v2.9h-7.6L897.8,403.9z M915.7,463.9v-8.3h68.5v8.3H915.7z M984.2,464.6v22.2h-68.5v-22.2H984.2z M915.7,454.9v-6.8
		c0-1.4-0.1-2.8-0.2-4.1h68.7v10.9H915.7z M915.5,443.3c-0.3-2.9-0.9-5.6-1.6-8.1h70.9c-0.4,2.8-0.6,5.6-0.6,8.1H915.5z
		 M914.8,443.2c0,0.2,0,0.3,0,0.4c0,0.2,0,0.3,0,0.4c0.1,1.3,0.2,2.7,0.2,4.1v6.8v0.4v0.1v8.3v0.4v0.4v22.3l-32.2-0.1v-59.3l0.1-7
		c0-0.2-0.2-0.4-0.4-0.4h-0.7v-4.2h0.7c0.2,0,0.4-0.2,0.4-0.4v-3V412v-0.4v-1.8l2.9-1.2c2,0.7,4.2,1.5,7.1,2.9
		c0.2,0.2,0.5,0.3,0.7,0.4c0.3,0.2,0.5,0.3,0.7,0.4c1.3,0.7,2.7,1.5,4,2.4c5.4,3.7,11.6,9.9,14.7,19.5c0,0.2,0.1,0.3,0.1,0.4
		c0,0.2,0.1,0.3,0.1,0.4C914,437.6,914.5,440.3,914.8,443.2z M904.1,621.8c-1.8-2.7-6.6-7.3-11.3-7.3h-10.1l0.1-123.3H991v151.9
		h-81.4c-0.3-0.9-0.5-1.6-0.8-2c0-0.1,0-0.1,0-0.2v-8.2C908.7,632.6,907.7,626.8,904.1,621.8z M768.2,427.1v-6.3H882v6.3H768.2z
		 M882,427.7v186.8H768.2V427.7h15.9h0.4h0.4H882z M872.4,420.1v-4.2h8.6v4.2H872.4z M882.2,410.2v4.9h-114v-4.9H882.2z
		 M871.8,415.9v4.2h-86.7h-0.4h-0.4h-16.1v-4.2H871.8z M768.1,633.1h140v7.5h-140V633.1z M784.1,641.2L784.1,641.2l0.4,0h0.4h91.4
		h0.4h0.4h3.9h0.4h0.4H908c0.3,0.4,0.5,1,0.8,1.8c0,0.2,0.1,0.3,0.1,0.4c0,0.2,0.1,0.3,0.1,0.4c0.3,1.2,0.7,2.9,0.9,4.8
		c0.1,0.2,0.1,0.3,0.1,0.4c0.1,0.2,0.1,0.3,0.1,0.4c0.9,6.1,1.4,15,1.5,26.4c0,0.2,0,0.3,0,0.4c0,0.2,0,0.3,0,0.4c0,0.4,0,0.7,0,1.1
		c0,2.2-0.1,4.3-0.1,6.3c0,0.1,0,0.2,0,0.3s0,0.2,0,0.3c-0.4,18.6-2.4,28.6-4.2,28.6h-2.5h-58.5h-0.4h-0.4h-60.4h-0.4h-0.4h-15.5
		c3.3-6.2,2.2-59.9-0.5-72H784.1z M1001.1,684.7v61.8h-85.3c-0.2-7-0.8-17.5-3.2-19.9c-0.1-0.1-0.2-0.1-0.3-0.1h-3.5v-6.2
		c0-0.2-0.2-0.4-0.4-0.4h-3.5V716v-0.4v-0.4V714h2.4c0.6,0,2.5,0,3.8-11.5c0.6-4.9,1-11,1.1-17.8H1001.1z M912.2,683.9
		c0-2,0-7,0-7.4h88.9v7.4H912.2z M784.1,713.9L784.1,713.9l0.4,0h0.4h60.4h0.4h0.4h58.1v1.2v0.4v0.4v3.8H846h-0.4h-0.4h-19h-0.4
		h-0.4h-40.5h-0.4h-0.4h-16v-5.8H784.1z M784.1,720.5h0.4h0.4h40.9h0.4h0.4h18.7h0.4h0.4h58.4h3.5v5.9h-61.9h-0.4h-0.4h-15.8h-0.4
		h-0.4h-43.8h-0.4h-0.4h-16v-5.9H784.1z M784.1,727L784.1,727l0.4,0h0.4h44.2h0.4h0.4h15.4h0.4h0.4v-0.1h62.2h3.7
		c2.2,2.4,2.8,12.5,2.9,19.3c0,0.2,0,0.3,0,0.4c0,0.2,0,0.3,0,0.4c0,2.4,0,5.4,0,5.5h-72.6h-0.4h-56.8h-0.4h-0.4h-15.1
		c2.3-3.7-0.5-22.4-1-25.5H784.1z M784.1,753.3h0.4h0.4h57.3h0.4h0.4l71.9-0.3l7.8,7.7h-79.6h-0.4h-0.4h-57.4h-0.4h-0.4h-16v-7.4
		H784.1z M768.1,791.3v-0.4v-0.4v-29.1h16h0.4h0.4h57.3h0.4h0.4v-0.1h80.3v60.4H768.1V791.3z M1013.1,752.3l-97.4,0.2
		c0-0.9,0-3.1,0-5.5h85.7L1013.1,752.3z M1001.1,675.9h-88.8c-0.1-8.9-0.5-17.5-1.2-23.8c-0.1-1-0.2-1.8-0.3-2.6h87.4
		C1001.3,653,1001.1,672.9,1001.1,675.9z M998,643.8v5h-87.3c-0.3-2.2-0.7-3.8-1-5h81.6H998z M991.3,490.5H882.8v-2.8h116.3
		L991.3,490.5z M997.8,412.5c0.2-0.2,1.3-1,1.5-1.1c6.2-4,12.4-4.8,14-4.9v80.2h-13.8l-14.7,0.1V465v-0.4v-0.4v-8.3v-0.4v-0.4v-10.9
		v-0.4v-0.1c0-0.1,0-0.2,0-0.3c0-2.5,0.2-5.3,0.6-8.1c0.1-0.2,0.1-0.3,0.1-0.4c0.1-0.2,0.1-0.3,0.1-0.4
		C986.9,426.6,990.2,418.2,997.8,412.5z M979.4,412.6h17.2c-7.2,5.9-10.4,14.2-11.7,22h-71.2c-3.5-11.1-11.1-17.9-18.1-22h2.6H979.4
		z M979,407.5v4.4h-80.5h-0.4h-0.4h-3.5c-2.9-1.6-5.7-2.7-7.9-3.5l2.3-0.9h9.1h0.4h0.4h49.8H979z M945.8,328.6
		c0.5,0.1,1,0.2,1.4,0.2c0.5,0.1,1,0.2,1.6,0.2c4,0,7.3-3.3,7.3-7.3c0-0.2,0-0.3,0-0.5c-0.1-0.2-0.1-0.4-0.1-0.6c0-0.1,0-0.1,0-0.1
		c-0.5-3.5-3.6-6.2-7.2-6.2c-4,0-7.3,3.3-7.3,7.3c0,2.5,1.2,4.8,3.2,6.1c-5.2-0.8-9.5-1.2-12.9-1c-1.5-2.9-2.2-5.9-2.2-9.1
		c0-11.1,9.2-20.2,20.4-20.2c11.2,0,20.4,9.1,20.4,20.2c0,5.8-2.5,11.4-6.9,15.2c-0.1,0,0,0.4,0.1,0.5l2,0.5
		c-1.4,0.8-2.6,1.5-3.9,2.1c-2.9,1.5-5.7,2.7-8.2,3.7c-0.1,0.1-0.3,0.1-0.4,0.2c-15,5.5-23.1,1.8-26.2-0.4c-3.4-2.4-4.6-5.5-4.2-7.4
		c0-0.3,0.1-0.6,0.2-0.8c0-0.1,0.1-0.1,0.1-0.2c0.1-0.2,0.3-0.4,0.4-0.6c2.4-2.4,4.9-2.5,5.3-2.6
		C932.6,327.1,938.3,327.4,945.8,328.6z M942.3,321.6c0-3.6,3-6.6,6.6-6.6c3.3,0,6,2.4,6.5,5.6c0,0.5,0.1,3.8-2.1,5.8
		c-1.4,1.3-3.4,1.8-6,1.6C944.4,327.3,942.2,324.7,942.3,321.6z M913.3,400.3v-60.2h1.5c0.1,0,0.2-0.1,0.3-0.4c0,0,2.4-7.7,8.3-10.4
		l-0.1,0.1c-0.1,0.1-4.6,4.9,4,11.1c0.1,0.1,0.3,0.2,0.4,0.3c2.2,1.3,5.7,2.6,10.9,2.6c4.7,0,10.7-1.1,18.2-4.3
		c1.1-0.4,2.2-0.9,3.3-1.5c0.7-0.3,1.3-0.7,2-1l9.6-4.3c0.4,3.2,2.1,22.3-13.4,33l-1.9,1.2c-0.2,0.1-0.2,0.3-0.1,0.5
		c0.1,0.1,0.3,0.2,0.5,0.1c0.6-0.4,1.3-0.8,1.9-1.2l13.7-8.8c-0.2,4.4-1.9,29.4-14.1,39.9c-2.7,2.2-4.5,4.3-6,5.9
		c-1.6,1.7-2.8,3-4.2,4h-49.7v-3.2l3-1.2l0.1-0.1l1.7-1.7h9.7C913.1,400.7,913.3,400.5,913.3,400.3z M889.9,330.6
		c8.2-10.3,20.4-12.2,22.9-12.2v81.9h-30.5c0,0,0-46.8,0-46.9c0-3.5,1.2-8.9,1.2-9c1.2-5.3,3.3-9.6,5.8-13
		C889.4,331.2,889.8,330.7,889.9,330.6z M861.8,331.4h0.4h26.3c-2.4,3.5-4.4,7.7-5.6,13h-84.6c-2.2-5.9-7.8-11.8-9.5-13H861.8z
		 M861.4,324.8v5.8H788c-2.6-2.3-9.3-5.7-9.4-5.8H861.4z M852.9,322.3v1.7h-75.8c-5.1-2.3-9-3-9.1-3s-0.2,0-0.3,0.1
		c-0.1,0.1-0.1,0.2-0.1,0.3v2.8h-4.7v-4.8h25.3h70.1C858.3,319.4,853.1,322.1,852.9,322.3z M767.7,442.2v171.9l-15.5-15.9V448.4h0.1
		L767.7,442.2z M752.5,447.5v-28.2l15.1-9.1v5.3v4.9v7v14L752.5,447.5z M752.2,418.7v-82.2l10.5-11.5h5v6.5v65.1v3.5v8.5v0.8
		L752.2,418.7z M762.1,256.9l-8.1,8.4V261l8.1-8V256.9z M762.7,318.7v-61.9v-1.2v-0.4v-0.4V253c0.4,0.1,0.9,0.2,1.6,0.4
		c0.2,0,0.3,0.1,0.4,0.1c0.2,0,0.3,0.1,0.4,0.1c0.9,0.3,2.1,0.7,3.3,1.2c0.2,0.2,0.5,0.3,0.8,0.4c0.3,0.2,0.5,0.3,0.8,0.4
		c1.8,0.8,3.8,1.9,5.7,3.3c0.2,0.2,0.3,0.3,0.5,0.4c0.2,0.2,0.3,0.3,0.5,0.4c4.9,3.9,11.2,11.1,11.2,24.3c0,9.3,0,34.7,0,34.7H762.7
		z M788.5,302.4v-5.9h49v5.9H788.5z M837.5,303.2v13.9v0.4v0.4v0.8h-49v-0.8v-0.4v-0.4v-13.9H837.5z M788.5,295.8V288h49v7.8H788.5z
		 M788.5,287.2c0,0-0.1-5-0.1-5.7h49.1c0,0.7,0,1.3,0,1.9v3.8H788.5z M788.3,280.9c0-0.5,0-1-0.1-1.5h49.5c-0.2,1-0.2,1-0.2,1.5
		H788.3z M861.4,253.3v65.4H860l-22,0.1v-35.2C838,265.8,852.7,255.8,861.4,253.3z M839.8,259.8h8.8c-4.9,4.1-9.5,10.2-10.8,18.8
		h-49.7c-1.2-8.9-5.6-14.8-10.4-18.8H839.8z M839.5,255.8l0.1,3.3H777c-1.8-1.3-3.6-2.4-5.3-3.3h65.5H839.5z M837,255h-66.7
		c-2-0.9-3.8-1.5-5.1-1.9c-0.2,0-0.3-0.1-0.4-0.1c-0.2,0-0.3-0.1-0.4-0.1c-0.8-0.2-1.3-0.3-1.6-0.4v-0.4v-1.3h1.6h0.4h0.4h4.9h8.8
		h45.7v0.4H838L837,255z M779.2,236.1v-5h45.4v5H779.2z M824.6,236.8v11.9v0.4v0.4v0.7h-45.4v-0.7v-0.4v-0.4v-11.9H824.6z
		 M779.2,230.4v-6.6h45.4v6.6H779.2z M779.2,223.1c0,0,0-4.3,0-4.9h45.6c-0.1,0.9-0.2,4.9-0.2,4.9H779.2z M779.1,217.5
		c0-0.4,0-0.8-0.1-1.2h46c-0.1,0.4-0.1,0.8-0.2,1.2H779.1z M844.3,196.2v54.6h-19.1v-29.5C825.2,203.8,842.7,196.8,844.3,196.2z
		 M830.7,204.5c-2.5,2.9-4.6,6.5-5.6,11.1h-46.3c-0.7-4.6-2.5-8.3-4.7-11.1H830.7z M817.9,200.5v3.3h-44.5c-0.9-1.1-1.9-2.1-2.9-2.9
		c-0.1-0.1-0.3-0.2-0.4-0.3l-0.1-0.1h6.5H798H817.9z M771,142.6c8.6,0,15.6,7.9,15.6,17.6c0,2.9-0.5,5.6-1.7,8.1
		c-0.1,0.2-0.1,0.3,0,0.4c0,0.1,0.2,0.1,0.3,0.1c0.6-0.1,1.2-0.1,1.7-0.1c8,0,14.9,5.4,16.9,13.2c0.3,1.4,0.5,2.9,0.5,4.3
		c0,2.7-0.7,5.3-1.7,7.8h-40.8v-27.5c1,0.9,2.3,1.5,3.7,1.5c2.8,0,5.1-2.3,5.1-5.1s-2.3-5.1-5.1-5.1c-1.5,0-2.8,0.5-3.7,1.5V146h0
		C764.4,143.9,767.6,142.6,771,142.6z M761.6,160.4c0.8-1.2,2.2-2,3.7-1.9c2.4,0,4.4,2,4.4,4.4c0,2.4-2,4.4-4.4,4.4
		c-1.6,0-2.9-0.8-3.7-2V160.4z M758.4,140.9h2.5V194h-2.5V140.9z M758.4,194.7h46.9v5h-36.1c-4.2-2.9-10.3-4.6-10.8-4.7V194.7z
		 M758.4,195.5c13.5,3.2,20.2,13.5,20.2,23.5c0,0.4,0,31,0,31h-20.2V195.5z M752.8,146.7L752.8,146.7l2.3-5.6h2.6v8.2v0.8v0.7v44.4
		l-4.9,4.9V146.7z M752.1,201.7l0.6-0.6l5-5v3.9v50.5v0.1l-5.6,5.6V201.7z M753,258.9l-0.8-1.8l6.3-6.3h3.6v0.8v0.2l-1.5,1.5
		l-3.6,3.6l-3,3l-0.3,0.3l-0.1-0.2L753,258.9z M752.1,268l10-10v11.1V311v13.5l-10,11V268z M752.1,790.4L752.1,790.4l0-191.2
		l15.6,16c0.4,1.2,0.2,11.3-0.1,17.5c0,0-0.1,8.4,0.1,8.4c2.6,11.1,4,67.4,0.6,71.9c-0.1,0.2-0.2,0.2-0.2,0.2H768
		c-0.2,0-0.4,0.2-0.4,0.4v6.5v6.6c1,6.3,3.1,23.1,1,25.6c-0.1,0.2-0.3,0.2-0.4,0.2h-0.3c-0.2,0-0.4,0.2-0.4,0.4v8.1v29.4v0.4v0.4
		v29.6l-15.2-29.6l-0.2-0.5V790.4z M751.5,791.1l16,31.4c0,0.2,156,0.1,156.1,0l10.2,5.1H763.9v-0.1l-17.7-36.4H751.5z M746,868.2
		v-0.4v-0.4v-75.1l17.3,35.7v0.1v31.2v8.1v0.4v0.1v0.2v43.4L746,876V868.2z M745.3,868.1v7.8c0,0.1,0,0.2,0,0.2l17.7,37.2l0.1,0.1
		c0.1,0,0.1,0,0.2,0h37.8h0.4h0.4h15H911h10h0.4h0.4h13.7c0.2,0,0.4-0.2,0.4-0.4v-19.1v-0.4v-0.4v-13.7l12.1,13.7l0.3,0.4l0.3,0.4
		l22.4,25.4h-49h-0.4h-0.4h-119h-0.4h-0.4h-55.5l-26.6-51.2H745.3z M719.1,869.2l26.2,50.5v3.8l-26.2-50.8V869.2z M719.1,874.4v-0.9
		l26.2,50.8v28.2l-26.2-48.3V874.4z M203.5,904.6h515.1l26.5,48.9h-0.3H177.3H177L203.5,904.6z M202.9,874.4v29.8l-26.2,48.3v-28.2
		l26.2-50.8V874.4z M202.9,872.7l-26.2,50.8v-3.8l26.2-50.5V872.7z M176.7,876.1c0,0,0-0.1,0-0.2v-7.8h26l-26.6,51.2h-55.5h-0.4
		h-0.4H0.8H0.4H0h-49l22.4-25.4l0.3-0.4l0.3-0.4l12.1-13.7v13.7v0.4v0.4V913c0,0.2,0.2,0.4,0.4,0.4H0.2h0.4H1h10h94.1h15h0.4h0.4
		h37.8c0.1,0,0.1,0,0.2,0l0.1-0.1L176.7,876.1z M158.1,859.7v7.8l-164.8,0.1v-7.9L158.1,859.7z M14,858.9v-14.5v-0.3V844v-0.3v-0.1
		v-0.3v-6.7v-0.4v-0.4v-7.5h31.1h0.4h0.4h33.2h0.4h0.4h28.7h0.4h0.4h2.9v15.1v0.4v0.4v14.7H14z M112.8,858.9v-14.8v-0.4v-0.4v-14.9
		H158v30.5L112.8,858.9z M158,868.2v44.5h-37.4h-0.4h-0.4h-14.7v-44.5H158z M104.5,868.2v44.5H11.2v-44.5H104.5z M10.4,868.2
		L10.4,868.2v44.5H0.7H0.3h-0.4h-13.2v-18.8v-0.4v-0.4v-14.5v-0.5v-0.5v-9.4h6.2h0.4h0.4H-5h0.5H-4H10.4z M13.3,858.9h-26.6v-30.6
		h26.6V858.9z M-13.8,827.7c-0.1,0.1-0.1,0.1-0.2,0.2v0.1v8h-34.3v-44.5h46.4v30.2L-13.8,827.7z M-13.9,844.5v14.8
		c0,0.2,0.1,0.4,0.3,0.4h6.2v7.9h-6.2c-0.2,0-0.4,0.2-0.4,0.4v10.5l-13,14.8h-71.1v-48.8H-13.9z M-40,893.9h12.4L-40,908V893.9z
		 M176,867.4v0.4v0.4v7.8l-17.3,35.5v-43.4v-0.2v-0.1v-0.4v-8.1v-31.2V828l17.3-35.7V867.4z M175.8,791.1l-17.7,36.4v0.1H-11.8
		l10.2-5.1c0.1,0.1,156.1,0.2,156.1,0l16-31.4H175.8z M9.8,684.7L9.8,684.7c0.1,6.8,0.5,12.9,1.1,17.8c1.3,11.5,3.2,11.5,3.8,11.5
		h2.4v1.2v0.4v0.4v3.9h-3.5c-0.2,0-0.4,0.2-0.4,0.4v6.2H9.7c-0.1,0-0.2,0-0.3,0.1c-2.4,2.4-3,12.9-3.2,19.9h-85.3v-61.8H9.8z
		 M-79.1,683.9v-7.4H9.8c0,0.4,0,5.4,0,7.4H-79.1z M7,464.5v-0.4v-0.4v-8.3v-0.1v-0.4v-6.8c0-1.4,0.1-2.8,0.2-4.1c0-0.1,0-0.2,0-0.4
		c0-0.1,0-0.2,0-0.4c0.3-2.9,0.8-5.6,1.6-8.1c0-0.1,0.1-0.2,0.1-0.4c0-0.1,0.1-0.2,0.1-0.4c3.1-9.6,9.3-15.8,14.7-19.5
		c1.3-0.9,2.7-1.7,4-2.4c0.2-0.1,0.4-0.2,0.7-0.4c0.2-0.1,0.5-0.2,0.7-0.4c2.9-1.4,5.1-2.2,7.1-2.9l2.9,1.2v1.8v0.4v0.4v3
		c0,0.2,0.2,0.4,0.4,0.4h0.7v4.2h-0.7c-0.2,0-0.4,0.2-0.4,0.4l0.1,7v59.3L7,486.9L7,464.5L7,464.5z M-62.2,463.9v-8.3H6.3v8.3H-62.2
		z M6.3,464.6v22.2h-68.5v-22.2H6.3z M-62.2,454.9V444H6.5c-0.1,1.3-0.2,2.7-0.2,4.1v6.8H-62.2z M-62.2,443.3c0-2.5-0.2-5.3-0.6-8.1
		H8.1c-0.7,2.5-1.3,5.2-1.6,8.1H-62.2z M20.7,401.9l-1.1-1.1h20.3c0.2,0,0.3-0.1,0.3-0.3h113.5v7.8v0.4v0.4v0.3H39.8L20.7,401.9z
		 M31.8,406.8h-7.6v-2.9L31.8,406.8z M153.9,632.3H45.7h-0.4h-0.4H41h-0.4h-0.4H14.1c0.3-1.4,1-4.8,3.7-9.1
		c2.6-4.8,8.5-7.9,10.7-7.9c0.5-0.1,125.3,0,125.3,0C153.4,617.7,153.7,626.6,153.9,632.3z M154.4,632.7c-0.3-6.2-0.5-16.3-0.1-17.5
		l15.6-16v191.2v0.3v0.1l-0.2,0.4l-15.2,29.6v-29.6v-0.4v-0.4V761v-8.1c0-0.2-0.2-0.4-0.4-0.4h-0.3c-0.1,0-0.3,0-0.4-0.2
		c-2.1-2.5,0-19.3,1-25.6v-6.6v-6.5c0-0.2-0.2-0.4-0.4-0.4h-0.1c0,0-0.1,0-0.2-0.2c-3.4-4.5-2-60.8,0.6-71.9
		C154.5,641.1,154.4,632.7,154.4,632.7z M143.4,250.1c0,0,0-30.7,0-31c0-10.1,6.7-20.4,20.2-23.5v54.5H143.4z M159.9,253l8.1,8v4.3
		l-8.1-8.4V253z M169.8,336.5v82.2l-15.5-9.3v-0.8v-8.5v-3.5v-65.1V325h5L169.8,336.5z M134.1,318.7c0,0,0-25.4,0-34.7
		c0-13.2,6.3-20.4,11.2-24.3c0.2-0.1,0.3-0.2,0.5-0.4c0.2-0.1,0.3-0.2,0.5-0.4c1.9-1.4,3.9-2.5,5.7-3.3c0.3-0.1,0.5-0.2,0.8-0.4
		c0.3-0.1,0.6-0.2,0.8-0.4c1.2-0.5,2.4-0.9,3.3-1.2c0.1,0,0.2-0.1,0.4-0.1c0.1,0,0.2-0.1,0.4-0.1c0.7-0.2,1.2-0.3,1.6-0.4v1.8v0.4
		v0.4v1.2v61.9H134.1z M169.5,419.3v28.2l-15.1-6.1v-14v-7v-4.9v-5.3L169.5,419.3z M169.7,448.4L169.7,448.4l0.1,149.8l-15.5,15.9
		V442.2L169.7,448.4z M75.9,720.5h0.4h0.4h18.7h0.4h0.4h40.9h0.4h0.4h16v5.9h-16h-0.4h-0.4H93.3h-0.4h-0.4H76.7h-0.4h-0.4H14v-5.9
		h3.5H75.9z M17.8,719.7v-3.8v-0.4v-0.4v-1.2h58.1h0.4h0.4h60.4h0.4h0.4h16v5.8h-16h-0.4h-0.4H96.6h-0.4h-0.4h-19h-0.4H76H17.8z
		 M75.9,726.9L75.9,726.9l0.4,0.1h0.4h15.4h0.4h0.4h44.2h0.4h0.4h15.9c-0.5,3.1-3.3,21.8-1,25.5h-15.1h-0.4h-0.4H80.1h-0.4H7.1
		c0-0.1,0-3.1,0-5.5c0-0.1,0-0.2,0-0.4c0-0.1,0-0.2,0-0.4c0.1-6.8,0.7-16.9,2.9-19.3h3.7H75.9z M153.9,640.6h-140v-7.5h140V640.6z
		 M153.8,420.8v6.3H40v-6.3H153.8z M41,420.1v-4.2h8.6v4.2H41z M50.2,420.1v-4.2h103.6v4.2h-16.1h-0.4h-0.4H50.2z M137.1,427.7h0.4
		h0.4h15.9v186.8H40V427.7H137.1z M153.8,415.1h-114v-4.9h114V415.1z M153.7,399.8h-32.9v-38.2c0-33.1,32-39.6,32.9-39.8V399.8z
		 M40.3,397v-0.4v-0.4v-18.7h80v22.3h-80V397z M40.2,376.8v-8.3h80v8.3H40.2z M40.2,367.8L40.2,367.8v-10.9h80.3
		c-0.1,1.5-0.2,3.1-0.2,4.7v6.2H40.2z M40.2,356.2c0,0,0-6-0.4-8.1h82.5c-0.8,2.5-1.4,5.2-1.7,8.1H40.2z M122.5,347.4H39.7
		c-0.1-0.8-0.3-1.6-0.4-2.3h84.1C123.1,345.9,122.8,346.6,122.5,347.4z M39.3,614.5H29.2c-4.7,0-9.5,4.6-11.3,7.3
		c-3.6,5-4.6,10.8-4.7,10.9v8.2c0,0.1,0,0.1,0,0.2c-0.3,0.4-0.5,1.1-0.8,2H-69V491.2H39.2L39.3,614.5z M13,643.8
		c0-0.1,0.1-0.2,0.1-0.4c0-0.1,0.1-0.2,0.1-0.4c0.3-0.8,0.5-1.4,0.8-1.8h26.2h0.4H41h3.9h0.4h0.4h91.4h0.4h0.4h15.8
		c-2.7,12.1-3.8,65.8-0.5,72h-15.5h-0.4h-0.4H76.5h-0.4h-0.4H17.2h-2.5c-1.8,0-3.8-10-4.2-28.6c0-0.1,0-0.2,0-0.3s0-0.2,0-0.3
		c0-2-0.1-4.1-0.1-6.3c0-0.4,0-0.7,0-1.1c0-0.1,0-0.2,0-0.4c0-0.1,0-0.2,0-0.4c0.1-11.4,0.6-20.3,1.5-26.4c0-0.1,0-0.2,0.1-0.4
		c0-0.1,0-0.2,0.1-0.4C12.3,646.7,12.7,645,13,643.8z M79,753.3h0.4h0.4h57.3h0.4h0.4h16v7.4h-16h-0.4h-0.4H79.7h-0.4h-0.4H-0.7
		l7.8-7.7L79,753.3z M79,761.3l0.4,0.1h0.4h57.3h0.4h0.4h16v29.1v0.4v0.4v30.4H-1.3v-60.4H79z M169.9,268v67.5l-10-11V311v-41.9V258
		L169.9,268z M164.3,150.8v-0.7v-0.8v-8.2h2.6l2.3,5.6v53.4l-4.9-4.9V150.8z M164.3,200v-3.9l5,5l0.6,0.6v54.5l-5.6-5.7V200z
		 M169.8,257.1l-0.8,1.8l-0.6,1.1l-0.1,0.2l-0.3-0.3l-3-3l-3.6-3.6l-1.5-1.5v-0.2v-0.8h3.6L169.8,257.1z M161.1,140.9h2.5V194h-2.5
		V140.9z M160.4,160.4v4.9c-0.8,1.2-2.1,2-3.7,2c-2.4,0-4.4-2-4.4-4.4c0-2.4,2-4.4,4.4-4.4C158.2,158.4,159.6,159.2,160.4,160.4z
		 M117.7,186.2c0-1.4,0.2-2.9,0.5-4.3c2-7.8,8.9-13.2,16.9-13.2c0.5,0,1.1,0,1.7,0.1c0.1,0,0.3,0,0.3-0.1c0.1-0.1,0.1-0.2,0-0.4
		c-1.2-2.5-1.7-5.2-1.7-8.1c0-9.7,7-17.6,15.6-17.6c3.4,0,6.6,1.3,9.2,3.4v13.3c-0.9-1-2.2-1.5-3.7-1.5c-2.8,0-5.1,2.3-5.1,5.1
		c0,2.8,2.3,5.1,5.1,5.1c1.4,0,2.7-0.6,3.7-1.5V194h-40.8C118.4,191.5,117.7,188.9,117.7,186.2z M116.7,194.7h46.9v0.3
		c-0.5,0.1-6.6,1.8-10.8,4.7h-36.1V194.7z M104.1,200.5H124h21.5h6.5l-0.1,0.1c-0.1,0.1-0.3,0.2-0.4,0.3c-1,0.8-2,1.8-2.9,2.9h-44.5
		V200.5z M147.9,204.5c-2.2,2.8-4,6.5-4.7,11.1H96.9c-1-4.6-3.1-8.2-5.6-11.1H147.9z M97.4,236.1v-5h45.4v5H97.4z M142.8,236.8v11.9
		v0.4v0.4v0.7H97.4v-0.7v-0.4v-0.4v-11.9H142.8z M97.4,230.4v-6.6h45.4v6.6H97.4z M97.4,223.1c0,0-0.1-4-0.2-4.9h45.6
		c0,0.6,0,4.9,0,4.9H97.4z M97.2,217.5c-0.1-0.4-0.1-0.8-0.2-1.2h46c-0.1,0.4-0.1,0.8-0.1,1.2H97.2z M77.7,250.8L77.7,250.8v-54.6
		c1.6,0.6,19.1,7.6,19.1,25.1v29.5H77.7z M84,251.2h13.4v-0.4h45.7h8.8h4.9h0.4h0.4h1.6v1.3v0.4c-0.3,0.1-0.8,0.2-1.6,0.4
		c-0.1,0-0.2,0.1-0.4,0.1c-0.1,0-0.2,0.1-0.4,0.1c-1.3,0.4-3.1,1-5.1,1.9H85L84,251.2z M82.4,255.8h2.4h65.5c-1.7,0.9-3.5,2-5.3,3.3
		H82.4V255.8z M82.2,259.8h62.1c-4.8,4-9.2,9.9-10.4,18.8H84.2c-1.3-8.6-5.9-14.7-10.8-18.8H82.2z M84.5,302.4v-5.9h49v5.9H84.5z
		 M133.5,303.2v13.9v0.4v0.4v0.8h-49v-0.8v-0.4v-0.4v-13.9H133.5z M84.5,295.8V288h49v7.8H84.5z M84.5,287.2L84.5,287.2v-3.8
		c0-0.6,0-1.2,0-1.9h49.1c0,0.7-0.1,5.7-0.1,5.7H84.5z M84.5,280.9c0-0.5,0-0.5-0.2-1.5h49.5c-0.1,0.5-0.1,1-0.1,1.5H84.5z
		 M60.6,318.7v-65.4c8.7,2.5,23.4,12.5,23.4,30.3v35.2l-22-0.1H60.6z M63.7,319.4h70.1h25.3v4.8h-4.7v-2.8c0-0.1,0-0.2-0.1-0.3
		c-0.1-0.1-0.2-0.1-0.3-0.1s-4,0.7-9.1,3H69.1v-1.7C68.9,322.1,63.7,319.4,63.7,319.4z M60.7,324.8h82.8c-0.1,0.1-6.8,3.5-9.4,5.8
		H60.7V324.8z M59.8,331.4h0.4h73c-1.7,1.2-7.3,7.1-9.5,13H39.1c-1.2-5.3-3.2-9.5-5.6-13H59.8z M9.2,318.4c2.5,0,14.7,1.9,22.9,12.2
		c0.1,0.1,0.5,0.6,0.6,0.8c2.5,3.4,4.6,7.7,5.8,13c0,0.1,1.2,5.5,1.2,9c0,0.1,0,46.9,0,46.9H9.2V318.4z M-41.6,333.3
		c0.1-0.1,0.2-0.5,0.1-0.5c-4.4-3.8-6.9-9.4-6.9-15.2c0-11.1,9.2-20.2,20.4-20.2s20.4,9.1,20.4,20.2c0,3.2-0.7,6.2-2.2,9.1
		c-3.4-0.2-7.7,0.2-12.9,1c2-1.3,3.2-3.6,3.2-6.1c0-4-3.3-7.3-7.3-7.3c-3.6,0-6.7,2.7-7.2,6.2c0,0,0,0,0,0.1c0,0.2,0,0.4-0.1,0.6
		c0,0.2,0,0.3,0,0.5c0,4,3.3,7.3,7.3,7.3c0.6,0,1.1-0.1,1.6-0.2c0.4,0,0.9-0.1,1.4-0.2c7.5-1.2,13.2-1.5,17.1-0.8
		c0.4,0.1,2.9,0.2,5.3,2.6c0.1,0.2,0.3,0.4,0.4,0.6c0,0.1,0.1,0.1,0.1,0.2c0.1,0.2,0.2,0.5,0.2,0.8c0.4,1.9-0.8,5-4.2,7.4
		c-3.1,2.2-11.2,5.9-26.2,0.4c-0.1-0.1-0.3-0.1-0.4-0.2c-2.5-1-5.3-2.2-8.2-3.7c-1.3-0.6-2.5-1.3-3.9-2.1L-41.6,333.3z M-25.3,328
		c-2.6,0.2-4.6-0.3-6-1.6c-2.2-2-2.1-5.3-2.1-5.8c0.5-3.2,3.2-5.6,6.5-5.6c3.6,0,6.6,3,6.6,6.6C-20.2,324.7-22.4,327.3-25.3,328z
		 M-30.3,402.9c-1.5-1.6-3.3-3.7-6-5.9c-12.2-10.5-13.9-35.5-14.1-39.9l13.7,8.8c0.6,0.4,1.3,0.8,1.9,1.2c0.2,0.1,0.4,0,0.5-0.1
		c0.1-0.2,0.1-0.4-0.1-0.5l-1.9-1.2c-15.5-10.7-13.8-29.8-13.4-33l9.6,4.3c0.7,0.3,1.3,0.7,2,1c1.1,0.6,2.2,1.1,3.3,1.5
		c7.5,3.2,13.5,4.3,18.2,4.3c5.2,0,8.7-1.3,10.9-2.6c0.1-0.1,0.3-0.2,0.4-0.3c8.6-6.2,4.1-11,4-11.1l-0.1-0.1
		c-0.1,0-0.1-0.1-0.2-0.1c0.1,0,0.1,0,0.2,0.1c6,2.7,8.3,10.4,8.3,10.4c0.1,0.3,0.2,0.4,0.3,0.4h1.5v60.2c0,0.2,0.2,0.4,0.4,0.4h9.7
		l1.7,1.7l0.1,0.1l3,1.2v3.2h-49.7C-27.5,405.9-28.7,404.6-30.3,402.9z M-57,407.5h30.7h49.8h0.4h0.4h9.1l2.3,0.9
		c-2.2,0.8-5,1.9-7.9,3.5h-3.5h-0.4h-0.4H-57V407.5z M-57.4,412.6h81.2h2.6c-7,4.1-14.6,10.9-18.1,22h-71.2
		c-1.3-7.8-4.5-16.1-11.7-22H-57.4z M-77.5,486.7h-13.8v-80.2c1.6,0.1,7.8,0.9,14,4.9c0.2,0.1,1.3,0.9,1.5,1.1
		c7.6,5.7,10.9,14.1,12.2,22c0,0.1,0,0.2,0.1,0.4c0,0.1,0,0.2,0.1,0.4c0.4,2.8,0.6,5.6,0.6,8.1c0,0.1,0,0.2,0,0.3v0.1v0.4v10.9v0.4
		v0.4v8.3v0.4v0.4v21.8L-77.5,486.7z M-77.1,487.7H39.2v2.8H-69.3L-77.1,487.7z M-76,643.8h6.7h81.6c-0.3,1.2-0.7,2.8-1,5H-76V643.8
		z M-76.2,649.5h87.4c-0.1,0.8-0.2,1.6-0.3,2.6c-0.7,6.3-1.1,14.9-1.2,23.8h-88.8C-79.1,672.9-79.3,653-76.2,649.5z M-79.4,747H6.3
		c0,2.4,0,4.6,0,5.5l-97.4-0.2L-79.4,747z M-92.3,783.6L-92.3,783.6V753H6.3l-8.1,7.7c0,0-0.1,0.1-0.1,0.2c0,0,0,0,0,0.1v15.9v0.4
		v0.4v5.9H-92.3z M-1.9,784.3v3.1h-74.4h-0.5h-0.5h-7.5v-3.1h10.1h0.5h0.5H-1.9z M-87.9,788.1h86.1v2.7l-86.1,0.1V788.1z
		 M-92.3,791.6H-49V836h-43.3V791.6z M-93,806.8v29.6c0,0.2,0.2,0.4,0.4,0.4h44H-14v6.7h-110.4L-93,806.8z M-124.7,844.4h25.9v48.9
		l-25.9-0.1V844.4z M-124.7,893.9h26.2h57.8v14.9l-9.3,10.6l-0.1,0.1v4.4v19h-74.6V893.9z M-127.6,959.1v-15.3h2.5h74.8v15.3H-127.6
		z M-52.2,1035v-15.3H159l-8.4,15.3H-52.2z M801.4,1139.6H120.6v-21.3h680.9V1139.6z M801.2,1117.5H120.8l22.4-41.3h635.7
		L801.2,1117.5z M778.6,1075.5H143.4v-25.7h635.3V1075.5z M778.3,1049.1H143.7l19.5-35.8h12.9h0.4h582.4L778.3,1049.1z
		 M974.2,1019.7v15.3H771.4l-8.4-15.3H974.2z M1049.6,959.1h-77.3v-15.3h74.8h2.5V959.1z"/>
	<path class="st0" d="M36.4,536.7c-5.9-1.1-20.1-5.1-24.7-17.4C9.8,514.2,9,508.9,9.5,504c0-0.1,0-0.2-0.1-0.3
		c-0.1-0.1-0.2-0.1-0.3-0.1H-33c-0.1,0-0.2,0.1-0.3,0.1c-0.1,0.1-0.1,0.2-0.1,0.3c0.9,3.2,0.3,14.4-6.3,23.5
		c-5.9,8.2-14.9,12.5-26.7,13c-0.2,0-0.3,0.2-0.3,0.4v55.4c0,0.2,0.1,0.4,0.3,0.4c11.2,0.6,25.9,5.7,30.5,18.3
		c1.9,5.1,2.7,10.4,2.2,15.3c0,0.1,0,0.2,0.1,0.3c0.1,0.1,0.2,0.1,0.3,0.1H8.8c0.1,0,0.2-0.1,0.3-0.1c0.1-0.1,0.1-0.2,0.1-0.3
		c-0.8-3-0.2-12.6,5.2-21.2c4.9-7.9,12.3-12.8,22-14.7c0.2,0,0.3-0.2,0.3-0.4v-56.9C36.7,536.9,36.6,536.8,36.4,536.7z M35.9,593.6
		c-9.6,1.9-17.3,7.1-22.2,14.9c-5.2,8.4-6,17.7-5.3,21.3h-41.3c0.4-4.9-0.4-10.2-2.3-15.2c-4.7-12.7-19.5-18-30.8-18.7v-54.6
		c11.9-0.6,20.9-5.1,26.9-13.3c6.8-9.4,7.2-20.2,6.6-23.7H8.7c-0.4,4.9,0.4,10.2,2.3,15.2c4.6,12.4,18.7,16.6,24.9,17.8V593.6z"/>
	<path class="st0" d="M138.2,191.7c2.8,0,5.1-2.3,5.1-5.1c0-2.8-2.3-5.1-5.1-5.1s-5.1,2.3-5.1,5.1
		C133.1,189.4,135.4,191.7,138.2,191.7z M138.2,182.2c2.4,0,4.4,2,4.4,4.4c0,2.4-2,4.4-4.4,4.4c-2.4,0-4.4-2-4.4-4.4
		C133.8,184.1,135.8,182.2,138.2,182.2z"/>
	<path class="st0" d="M43.8,568.4c0.4,0,1.7,0.1,1.9,0.1c10.8,1.5,23.2,6.9,27.3,17.9c1.9,5.1,2.7,10.4,2.2,15.3
		c0,0.1,0,0.2,0.1,0.3c0.1,0.1,0.2,0.1,0.3,0.1h42.1c0.1,0,0.2-0.1,0.3-0.1c0.1-0.1,0.1-0.2,0.1-0.3c-0.4-1.5-0.5-4.9,0.4-9.1
		c0.7-3.4,2.3-8.6,5.8-13.5c3.4-4.8,7.7-8.4,12.9-10.7c0.1-0.1,0.2-0.1,0.4-0.2c0.1-0.1,0.2-0.1,0.4-0.2c3.6-1.5,7.7-2.4,12.1-2.8
		c0.2,0,0.3-0.2,0.3-0.4v-90.6c0-0.2-0.1-0.3-0.3-0.4c-3.9-0.4-8.1-1.3-12.1-2.8c-0.1,0-0.2-0.1-0.4-0.1s-0.2-0.1-0.4-0.1
		c-7.2-2.8-13.7-7.7-16.4-15.1c-1.9-5.1-2.7-10.4-2.2-15.3c0-0.1,0-0.2-0.1-0.3c-0.1-0.1-0.2-0.1-0.3-0.1H76.1
		c-0.1,0-0.2,0.1-0.3,0.1c-0.1,0.1-0.1,0.2-0.1,0.3c0.4,1.5,0.5,4.9-0.4,9.1c-0.7,3.4-2.3,8.6-5.7,13.5
		c-5.7,8.2-14.4,12.9-25.7,13.8c-0.2,0-0.3,0.2-0.3,0.4v13.1v0.4v0.4v76.8C43.6,568.1,43.6,568.4,43.8,568.4z M44.2,477.7
		c11.3-1,20-5.8,25.9-14.1c6.1-8.7,7.1-18.9,6.3-22.8h41.3c-0.4,4.9,0.4,10.2,2.3,15.2c2.9,7.7,9.6,12.7,17.1,15.6
		c0.1,0,0.2,0.1,0.4,0.1c0.1,0,0.2,0.1,0.4,0.1c3.9,1.4,7.9,2.3,11.7,2.7v89.9c-4.3,0.4-8.2,1.3-11.7,2.7c-0.1,0-0.2,0.1-0.4,0.2
		c-0.1,0.1-0.2,0.1-0.4,0.2c-5.5,2.4-10,6.1-13.5,11.1c-6.1,8.7-7.1,18.9-6.4,22.8H75.9c0.4-4.9-0.4-10.2-2.3-15.2
		c-4.2-11.3-16.9-16.8-28-18.3c-0.1,0-1.2-0.1-1.4-0.1V477.7z"/>
	<path class="st0" d="M-13.8,529.9L-51.4,568c-0.1,0.1-0.1,0.2-0.1,0.3s0,0.2,0.1,0.3l37.6,37.1c0,0.1,0.1,0.1,0.2,0.1
		c0.1,0,0.2,0,0.3-0.1l37.6-37.1c0.1-0.1,0.1-0.2,0.1-0.3s0-0.2-0.1-0.3l-37.6-38.1C-13.4,529.8-13.7,529.8-13.8,529.9z
		 M-13.7,604.9l-37.1-36.6l37.1-37.4l37.1,37.4L-13.7,604.9z"/>
	<path class="st0" d="M98.9,561.1c21,0,38-17,38-38s-17-38-38-38s-38,17-38,38S77.9,561.1,98.9,561.1z M98.9,485.8
		c20.6,0,37.3,16.7,37.3,37.3s-16.7,37.3-37.3,37.3s-37.3-16.7-37.3-37.3S78.3,485.8,98.9,485.8z"/>
	<path class="st0" d="M98.9,541.1c9.9,0,18-8.1,18-18s-8.1-18-18-18c-9.9,0-18,8.1-18,18C80.9,533.1,88.9,541.1,98.9,541.1z
		 M98.9,505.8c9.5,0,17.3,7.8,17.3,17.3s-7.8,17.3-17.3,17.3s-17.3-7.8-17.3-17.3S89.3,505.8,98.9,505.8z"/>
	<path class="st0" d="M-31.7,567.8v0.3c0,0.2,0,0.2,0.2,0.4l17.7,17.5c0.1,0.1,0.2,0.2,0.3,0.2c0,0,0.2,0,0.4-0.2l17.8-17.6
		c0.1-0.1,0.2-0.2,0.2-0.4s0-0.2-0.2-0.4l-17.8-18.1c-0.1-0.1-0.2-0.1-0.3-0.1s-0.2,0-0.3,0.1L-31.7,567.8z M-13.4,550l16.7,17
		L-13.4,550L-13.4,550z M3.7,568.1l-17.2,17.1l-17.2-17.1l17.2-17.4L3.7,568.1z"/>
</g>
</svg>
