<?xml version="1.0" encoding="utf-8"?>
<!-- Generator: Adobe Illustrator 19.0.0, SVG Export Plug-In . SVG Version: 6.00 Build 0)  -->
<svg version="1.1" id="lm-gapura" xmlns="http://www.w3.org/2000/svg" xmlns:xlink="http://www.w3.org/1999/xlink" x="0px" y="0px"
	 viewBox="0 118.8 1480 1050" style="enable-background:new 0 118.8 1480 1050;" xml:space="preserve">
<style type="text/css">
	.st0{fill:#DEBEBD;}
</style>
<g>
	<path class="st0" d="M169.9,539.5c-5.9-1.1-20.1-5.1-24.7-17.4c-1.9-5.1-2.7-10.4-2.2-15.3c0-0.1,0-0.2-0.1-0.3s-0.2-0.1-0.3-0.1
		h-42.1c-0.1,0-0.2,0.1-0.3,0.1c-0.1,0.1-0.1,0.2-0.1,0.3c0.9,3.2,0.3,14.4-6.3,23.5c-5.9,8.2-14.9,12.5-26.7,13
		c-0.2,0-0.3,0.2-0.3,0.4v55.4c0,0.2,0.1,0.4,0.3,0.4c11.2,0.6,25.9,5.7,30.5,18.3c1.9,5.1,2.7,10.4,2.2,15.3c0,0.1,0,0.2,0.1,0.3
		s0.2,0.1,0.3,0.1h42.1c0.1,0,0.2-0.1,0.3-0.1c0.1-0.1,0.1-0.2,0.1-0.3c-0.8-3-0.2-12.6,5.2-21.2c4.9-7.9,12.3-12.8,22-14.7
		c0.2,0,0.3-0.2,0.3-0.4v-56.9C170.2,539.7,170.1,539.6,169.9,539.5z M169.4,596.4c-9.6,1.9-17.3,7.1-22.2,14.9
		c-5.2,8.4-6,17.7-5.3,21.3h-41.3c0.4-4.9-0.4-10.2-2.3-15.2c-4.7-12.7-19.5-18-30.8-18.7v-54.6c11.9-0.6,20.9-5.1,26.9-13.3
		c6.8-9.4,7.2-20.2,6.6-23.7h41.2c-0.4,4.9,0.4,10.2,2.3,15.2c4.6,12.4,18.7,16.6,24.9,17.8L169.4,596.4L169.4,596.4z"/>
	<path class="st0" d="M271.7,194.5c2.8,0,5.1-2.3,5.1-5.1s-2.3-5.1-5.1-5.1c-2.8,0-5.1,2.3-5.1,5.1S268.9,194.5,271.7,194.5z
		 M271.7,185c2.4,0,4.4,2,4.4,4.4s-2,4.4-4.4,4.4s-4.4-2-4.4-4.4C267.3,186.9,269.3,185,271.7,185z"/>
	<path class="st0" d="M177.3,571.2c0.4,0,1.7,0.1,1.9,0.1c10.8,1.5,23.2,6.9,27.3,17.9c1.9,5.1,2.7,10.4,2.2,15.3
		c0,0.1,0,0.2,0.1,0.3s0.2,0.1,0.3,0.1h42.1c0.1,0,0.2-0.1,0.3-0.1c0.1-0.1,0.1-0.2,0.1-0.3c-0.4-1.5-0.5-4.9,0.4-9.1
		c0.7-3.4,2.3-8.6,5.8-13.5c3.4-4.8,7.7-8.4,12.9-10.7c0.1-0.1,0.2-0.1,0.4-0.2c0.1-0.1,0.2-0.1,0.4-0.2c3.6-1.5,7.7-2.4,12.1-2.8
		c0.2,0,0.3-0.2,0.3-0.4V477c0-0.2-0.1-0.3-0.3-0.4c-3.9-0.4-8.1-1.3-12.1-2.8c-0.1,0-0.2-0.1-0.4-0.1c-0.2,0-0.2-0.1-0.4-0.1
		c-7.2-2.8-13.7-7.7-16.4-15.1c-1.9-5.1-2.7-10.4-2.2-15.3c0-0.1,0-0.2-0.1-0.3c-0.1-0.1-0.2-0.1-0.3-0.1h-42.1
		c-0.1,0-0.2,0.1-0.3,0.1c-0.1,0.1-0.1,0.2-0.1,0.3c0.4,1.5,0.5,4.9-0.4,9.1c-0.7,3.4-2.3,8.6-5.7,13.5
		c-5.7,8.2-14.4,12.9-25.7,13.8c-0.2,0-0.3,0.2-0.3,0.4v13.1v0.4v0.4v76.8C177.1,570.9,177.1,571.2,177.3,571.2z M177.7,480.5
		c11.3-1,20-5.8,25.9-14.1c6.1-8.7,7.1-18.9,6.3-22.8h41.3c-0.4,4.9,0.4,10.2,2.3,15.2c2.9,7.7,9.6,12.7,17.1,15.6
		c0.1,0,0.2,0.1,0.4,0.1c0.1,0,0.2,0.1,0.4,0.1c3.9,1.4,7.9,2.3,11.7,2.7v89.9c-4.3,0.4-8.2,1.3-11.7,2.7c-0.1,0-0.2,0.1-0.4,0.2
		c-0.1,0.1-0.2,0.1-0.4,0.2c-5.5,2.4-10,6.1-13.5,11.1c-6.1,8.7-7.1,18.9-6.4,22.8h-41.3c0.4-4.9-0.4-10.2-2.3-15.2
		c-4.2-11.3-16.9-16.8-28-18.3c-0.1,0-1.2-0.1-1.4-0.1L177.7,480.5L177.7,480.5z"/>
	<path class="st0" d="M119.7,532.7l-37.6,38.1c-0.1,0.1-0.1,0.2-0.1,0.3s0,0.2,0.1,0.3l37.6,37.1c0,0.1,0.1,0.1,0.2,0.1
		s0.2,0,0.3-0.1l37.6-37.1c0.1-0.1,0.1-0.2,0.1-0.3s0-0.2-0.1-0.3l-37.6-38.1C120.1,532.6,119.8,532.6,119.7,532.7z M119.8,607.7
		l-37.1-36.6l37.1-37.4l37.1,37.4L119.8,607.7z"/>
	<path class="st0" d="M232.4,563.9c21,0,38-17,38-38s-17-38-38-38s-38,17-38,38S211.4,563.9,232.4,563.9z M232.4,488.6
		c20.6,0,37.3,16.7,37.3,37.3s-16.7,37.3-37.3,37.3s-37.3-16.7-37.3-37.3S211.8,488.6,232.4,488.6z"/>
	<path class="st0" d="M232.4,543.9c9.9,0,18-8.1,18-18s-8.1-18-18-18s-18,8.1-18,18C214.4,535.9,222.4,543.9,232.4,543.9z
		 M232.4,508.6c9.5,0,17.3,7.8,17.3,17.3s-7.8,17.3-17.3,17.3s-17.3-7.8-17.3-17.3S222.8,508.6,232.4,508.6z"/>
	<path class="st0" d="M120,589c-0.1,0-0.3-0.1-0.3-0.2l-17.8-17.5c-0.1-0.1-0.2-0.2-0.2-0.4v-0.3l18-18.2c0.1-0.1,0.2-0.1,0.3-0.1
		c0.1,0,0.2,0,0.3,0.1l17.8,18.1c0.1,0.1,0.2,0.2,0.2,0.4s0,0.2-0.2,0.4l-17.8,17.6C120.2,589,120,589,120,589z M102.7,570.9
		l17.2,17.1l17.2-17.1l-17.2-17.4L102.7,570.9z M120,552.9L120,552.9l16.8,17L120,552.9L120,552.9z"/>
	<path class="st0" d="M1337.3,633.1c0,0.1,0,0.2,0.1,0.3c0.1,0,0.2,0.1,0.3,0.1h42.1c0.1,0,0.2,0,0.3-0.1s0.1-0.2,0.1-0.3
		c-0.5-4.9,0.3-10.2,2.2-15.3c4.6-12.6,19.3-17.7,30.5-18.3c0.2,0,0.3-0.2,0.3-0.4v-55.4c0-0.2-0.1-0.4-0.3-0.4
		c-11.8-0.5-20.8-4.8-26.7-13c-6.6-9.1-7.2-20.3-6.3-23.5c0-0.1,0-0.2-0.1-0.3c-0.1,0-0.2-0.1-0.3-0.1h-42.1c-0.1,0-0.2,0-0.3,0.1
		s-0.1,0.2-0.1,0.3c0.5,4.9-0.3,10.2-2.2,15.3c-4.6,12.3-18.8,16.3-24.7,17.4c-0.2,0.1-0.3,0.2-0.3,0.4v56.9c0,0.2,0.1,0.4,0.3,0.4
		c9.7,1.9,17.1,6.8,22,14.7C1337.5,620.5,1338.1,630.1,1337.3,633.1z M1332.8,611.3c-4.9-7.8-12.6-13-22.2-14.9v-56.3
		c6.2-1.2,20.3-5.4,24.9-17.8c1.9-5,2.7-10.3,2.3-15.2h41.2c-0.6,3.5-0.2,14.3,6.6,23.7c6,8.2,15,12.7,26.9,13.3v54.6
		c-11.3,0.7-26.1,6-30.8,18.7c-1.9,5-2.7,10.3-2.3,15.2h-41.3C1338.8,629,1338,619.7,1332.8,611.3z"/>
	<path class="st0" d="M1208.3,194.5c2.8,0,5.1-2.3,5.1-5.1s-2.3-5.1-5.1-5.1c-2.8,0-5.1,2.3-5.1,5.1S1205.5,194.5,1208.3,194.5z
		 M1208.3,185c2.4,0,4.4,1.9,4.4,4.4c0,2.4-2,4.4-4.4,4.4s-4.4-2-4.4-4.4S1205.9,185,1208.3,185z"/>
	<path class="st0" d="M1208.5,473.8c-4,1.5-8.2,2.4-12.1,2.8c-0.2,0.1-0.3,0.2-0.3,0.4v90.6c0,0.2,0.1,0.4,0.3,0.4
		c4.4,0.4,8.5,1.3,12.1,2.8c0.2,0.1,0.3,0.1,0.4,0.2c0.2,0.1,0.3,0.1,0.4,0.2c5.2,2.3,9.5,5.9,12.9,10.7c3.5,4.9,5.1,10.1,5.8,13.5
		c0.9,4.2,0.8,7.6,0.4,9.1c0,0.1,0,0.2,0.1,0.3c0.1,0,0.2,0.1,0.3,0.1h42.1c0.1,0,0.2,0,0.3-0.1c0.1-0.1,0.1-0.2,0.1-0.3
		c-0.5-4.9,0.3-10.2,2.2-15.3c4.1-11,16.5-16.4,27.3-17.9c0.2,0,1.5-0.1,1.9-0.1c0.2,0,0.2-0.3,0.2-0.5v-76.8v-0.4v-0.4V480
		c0-0.2-0.1-0.4-0.3-0.4c-11.3-0.9-20-5.6-25.7-13.8c-3.4-4.9-5-10.1-5.7-13.5c-0.9-4.2-0.8-7.6-0.4-9.1c0-0.1,0-0.2-0.1-0.3
		c-0.1,0-0.2-0.1-0.3-0.1h-42.1c-0.1,0-0.2,0-0.3,0.1c-0.1,0.1-0.1,0.2-0.1,0.3c0.5,4.9-0.3,10.2-2.2,15.3
		c-2.7,7.4-9.2,12.3-16.4,15.1c-0.2,0-0.2,0.1-0.4,0.1C1208.7,473.7,1208.6,473.8,1208.5,473.8z M1209.4,474.4
		c7.5-2.9,14.2-7.9,17.1-15.6c1.9-5,2.7-10.3,2.3-15.2h41.3c-0.8,3.9,0.2,14.1,6.3,22.8c5.9,8.3,14.6,13.1,25.9,14.1v90.1
		c-0.2,0-1.3,0.1-1.4,0.1c-11.1,1.5-23.8,7-28,18.3c-1.9,5-2.7,10.3-2.3,15.2h-41.3c0.7-3.9-0.3-14.1-6.4-22.8
		c-3.5-5-8-8.7-13.5-11.1c-0.2-0.1-0.3-0.1-0.4-0.2c-0.2-0.1-0.3-0.2-0.4-0.2c-3.5-1.4-7.4-2.3-11.7-2.7v-89.9
		c3.8-0.4,7.8-1.3,11.7-2.7c0.2,0,0.3-0.1,0.4-0.1C1209.2,474.5,1209.3,474.4,1209.4,474.4z"/>
	<path class="st0" d="M1360.1,608.7c0.1,0,0.2,0,0.2-0.1l37.6-37.1c0.1-0.1,0.1-0.2,0.1-0.3s0-0.2-0.1-0.3l-37.6-38.1
		c-0.1-0.1-0.4-0.1-0.5,0l-37.6,38.1c-0.1,0.1-0.1,0.2-0.1,0.3s0,0.2,0.1,0.3l37.6,37.1C1359.9,608.7,1360,608.7,1360.1,608.7z
		 M1360.2,533.7l37.1,37.4l-37.1,36.6l-37.1-36.6L1360.2,533.7z"/>
	<path class="st0" d="M1247.6,563.9c21,0,38-17,38-38s-17-38-38-38s-38,17-38,38S1226.6,563.9,1247.6,563.9z M1247.6,488.6
		c20.6,0,37.3,16.7,37.3,37.3s-16.7,37.3-37.3,37.3s-37.3-16.7-37.3-37.3S1227,488.6,1247.6,488.6z"/>
	<path class="st0" d="M1247.6,543.9c10,0,18-8,18-18c0-9.9-8.1-18-18-18s-18,8.1-18,18S1237.7,543.9,1247.6,543.9z M1247.6,508.6
		c9.6,0,17.3,7.8,17.3,17.3s-7.8,17.3-17.3,17.3s-17.3-7.8-17.3-17.3S1238.1,508.6,1247.6,508.6z"/>
	<path class="st0" d="M1360.1,589c-0.2,0-0.2,0-0.4-0.2l-17.8-17.6c-0.1-0.1-0.2-0.2-0.2-0.4s0-0.2,0.2-0.4l17.8-18.1
		c0.1-0.1,0.2-0.1,0.3-0.1s0.2,0,0.3,0.1l17.8,18.1c0.1,0.1,0.2,0.2,0.2,0.4c0,0,0,0.2-0.2,0.4l-17.7,17.5
		C1360.4,589,1360.3,589,1360.1,589z M1342.9,570.9l17.2,17.1l17.2-17.1l-17.2-17.4L1342.9,570.9z"/>
	<path class="st0" d="M1474.6,945.7h-2.5v-48.4c0,0,0-50.1,0-50.7l-32.5-38v-14.4c0-0.2-0.2-0.5-0.4-0.5h-4v-2.9
		c0-0.2-0.2-0.6-0.4-0.6h-2.9v-3.1h7.2c0.2,0,0.4-0.2,0.4-0.4v-31c0-0.2-0.2-0.5-0.4-0.6l-12.8-5.8V719v-31.2v-8.1
		c0-1,0.4-23.8-3.1-27.8v-5.6c0-0.2-0.2-0.4-0.4-0.4h-6.7V494l7.8-2.9c0.1-0.1,2.2-0.5,2.2-0.6h12c0.2,0,0.4-0.2,0.4-0.4v-80.5
		c0-0.1,0-0.9-0.1-1s-0.2-0.1-0.3-0.1s-7.4,0.3-14.7,5.1c-0.4,0.3-0.6,0.3-1.3,1.1h-18v-4.6c0-0.2-0.2-0.4-0.4-0.4h-29.6
		c1.1-0.9,1.7-1.6,3-3c1.5-1.7,3.3-3.7,5.9-5.9c13.6-11.6,14.4-40.8,14.4-41.1c0-0.1-0.1-0.2-0.2-0.3c-0.1-0.1-0.3-0.1-0.4,0
		l-9.4,6.1c12.2-12.3,9.2-30.3,9.2-30.5s-0.1-0.2-0.2-0.3c-0.1,0-0.2,0-0.3,0l-4.9,2.2c-0.1-0.2-0.1-0.4-0.2-0.4l-2.1-0.5
		c4.3-3.9,6.6-9.3,6.6-15.1c0-11.5-9.5-20.9-21.1-20.9s-21.1,9.4-21.1,20.9c0,3.1,0.7,6.1,2,8.9c-2.1,0.2-10.1,0.8-14,7.6
		c-1.5,2.3-2.3,4.2-2.5,4.9h-1v-21.1c0-0.1,0-0.4-0.1-0.5s-0.4-0.1-0.5-0.1c-0.2,0-14.3,0.7-23.4,12.8h-27.4v-6.1
		c0-0.2-0.2-0.5-0.4-0.5h-7.9v-1.4l6.4-3.2h1.5c0.2,0,0.4-0.2,0.4-0.4v-65.7c0-0.1,0-0.5-0.1-0.6s-0.2-0.1-0.3-0.1
		c-0.2,0-6.2,1.7-12.2,6.5h-9.3v-3.3c0-0.2-0.2-0.4-0.4-0.4h-2.2l1.2-4.2h5.9c0.2,0,0.4-0.2,0.4-0.4v-54.8c0-0.1,0-0.2-0.1-0.3
		s-0.2-0.1-0.3-0.1c-0.1,0-7.4,2.3-13.2,8.4h-12.5v-3.7c0-0.2-0.2-0.4-0.4-0.4h-12.2v-5.3v-0.2c0-0.2-0.2-0.4-0.4-0.4h-2.5
		c1.1-2.5,1.7-5.1,1.7-7.8c0-1.5-0.2-3-0.6-4.5c-2-8.1-9.3-13.7-17.6-13.7c-0.4,0-0.8,0-1.2,0c1.1-2.4,1.6-5.1,1.6-7.8
		c0-10.1-7.3-18.3-16.3-18.3c-3.4,0-6.6,1.2-9.2,3.2v-4.3c0-0.2-0.2-0.4-0.4-0.4h-3.3h-3.2c-0.1,0-0.2,0.1-0.3,0.2l-2.4,5.8v0.1
		v54.1l-0.6,0.6c-0.1,0.1-0.1,0.2-0.1,0.3v55.5v0.1v0.1l1.8,3.7v5.1l-1.7,1.7c-0.1,0.1-0.1,0.2-0.1,0.3v522.3h-5.8
		c-0.1,0-0.1,0-0.1,0c-0.1,0-0.1,0-0.1,0l-0.1,0.1v0.1V870h-26.7c-0.1,0-0.1,0-0.1,0c-0.1,0-0.1,0-0.1,0l-0.1,0.1v0.1v36.1H337.2
		v-36.1v-0.1l-0.1-0.1c0,0,0,0-0.1,0c0,0,0,0-0.1,0h-26.7v-76.7v-0.1l-0.1-0.1c0,0,0,0-0.1,0c0,0,0,0-0.1,0h-5.8V270.8
		c0-0.1,0-0.2-0.1-0.3l-1.7-1.7v-5.1l1.8-3.7v-0.1v-0.1v-55.5c0-0.1,0-0.2-0.1-0.3l-0.6-0.6v-54.1v-0.1l-2.4-5.8
		c-0.1-0.1-0.2-0.2-0.3-0.2h-3.2h-3.3c-0.2,0-0.4,0.2-0.4,0.4v4.3c-2.6-2-5.8-3.2-9.2-3.2c-9,0-16.3,8.2-16.3,18.3
		c0,2.7,0.5,5.4,1.6,7.8c-0.4,0-0.8,0-1.2,0c-8.3,0-15.6,5.6-17.6,13.7c-0.4,1.5-0.6,3-0.6,4.5c0,2.7,0.6,5.3,1.7,7.8h-2.5
		c-0.2,0-0.4,0.2-0.4,0.4v0.2v5.3h-12.2c-0.2,0-0.4,0.2-0.4,0.4v3.7h-12.5c-5.8-6.1-13.1-8.4-13.2-8.4c-0.1,0-0.2,0-0.3,0.1
		s-0.1,0.2-0.1,0.3v54.8c0,0.2,0.2,0.4,0.4,0.4h5.9l1.2,4.2h-2.2c-0.2,0-0.4,0.2-0.4,0.4v3.3h-9.3c-6-4.8-12-6.5-12.2-6.5
		c-0.1,0-0.2,0-0.3,0.1s-0.1,0.5-0.1,0.6v65.7c0,0.2,0.2,0.4,0.4,0.4h1.5l6.4,3.2v1.4H194c-0.2,0-0.4,0.3-0.4,0.5v6.1h-27.4
		c-9.1-12.1-23.2-12.8-23.4-12.8c-0.1,0-0.4,0-0.5,0.1s-0.1,0.4-0.1,0.5v21.1h-1c-0.2-0.7-1-2.6-2.5-4.9c-3.9-6.8-11.9-7.4-14-7.6
		c1.3-2.8,2-5.8,2-8.9c0-11.5-9.5-20.9-21.1-20.9s-21.1,9.4-21.1,20.9c0,5.8,2.3,11.2,6.6,15.1l-2.1,0.5c-0.1,0-0.1,0.2-0.2,0.4
		l-4.9-2.2c-0.1,0-0.2,0-0.3,0c-0.1,0.1-0.2,0.1-0.2,0.3s-3,18.2,9.2,30.5l-9.4-6.1c-0.1-0.1-0.3-0.1-0.4,0s-0.2,0.2-0.2,0.3
		c0,0.3,0.8,29.5,14.4,41.1c2.6,2.2,4.4,4.2,5.9,5.9c1.3,1.4,1.9,2.1,3,3H76.3c-0.2,0-0.4,0.2-0.4,0.4v4.6h-18
		c-0.7-0.7-0.9-0.8-1.3-1.1c-7.3-4.8-14.6-5.1-14.7-5.1s-0.2,0-0.3,0.1s-0.1,0.9-0.1,1v80.5c0,0.2,0.2,0.4,0.4,0.4h12
		c0,0.1,2.1,0.5,2.2,0.6l7.8,2.9v151.9h-6.7c-0.2,0-0.4,0.2-0.4,0.4v5.6c-3.5,4-3.1,26.8-3.1,27.8v8.1V719v30.3l-12.8,5.8
		c-0.2,0.1-0.4,0.4-0.4,0.6v31c0,0.2,0.2,0.4,0.4,0.4h7.2v3.1h-2.9c-0.2,0-0.4,0.4-0.4,0.6v2.9h-4c-0.2,0-0.4,0.3-0.4,0.5v14.4
		l-32.5,38c0,0.6,0,50.7,0,50.7v48.4H5.4c-0.2,0-0.4,0.2-0.4,0.4v16.7c0,0.2,0.2,0.4,0.4,0.4h77.8v58.6h-2.5c-0.2,0-0.4,0.2-0.4,0.4
		v17c0,0.2,0.2,0.4,0.4,0.4H283l-7,13v26.4l-22.8,41.9v23.1c0,0.2,0.2,0.4,0.4,0.4h972.8c0.2,0,0.4-0.2,0.4-0.4v-23.1L1204,1079
		v-26.4l-7-13h202.3c0.2,0,0.4-0.2,0.4-0.4v-17c0-0.2-0.2-0.4-0.4-0.4h-2.5v-58.6h77.8c0.2,0,0.4-0.2,0.4-0.4v-16.7
		C1475,945.9,1474.8,945.7,1474.6,945.7z M1439.5,839.2v-29.6l31.4,36.7h-110.4v-6.7h34.6h44
		C1439.3,839.6,1439.5,839.4,1439.5,839.2z M1471.2,847.2V896l-25.9,0.1v-48.9L1471.2,847.2L1471.2,847.2z M1373.5,896.1l-13-14.8
		v-10.5c0-0.2-0.2-0.4-0.4-0.4h-6.2v-7.9h6.2c0.2,0,0.3-0.2,0.3-0.4v-14.8h84.2v48.8H1373.5z M1386.5,896.7v14.1l-12.4-14.1H1386.5z
		 M1188.4,870.3v-7.8h164.8v7.9L1188.4,870.3z M1335.3,871v44.5H1242V871H1335.3z M1241.4,871v44.5h-14.7h-0.4h-0.4h-37.4V871
		H1241.4z M1188.5,861.7v-30.5h45.2v14.9v0.4v0.4v14.8L1188.5,861.7z M1234.2,861.7V847v-0.4v-0.4v-15.1h2.9h0.4h0.4h28.7h0.4h0.4
		h33.2h0.4h0.4h31.1v7.5v0.4v0.4v6.7v0.3v0.1v0.3v0.1v0.3v14.5L1234.2,861.7z M1360.3,830.5l-11.9-6v-30.2h46.4v44.5h-34.3v-8v-0.1
		C1360.4,830.6,1360.4,830.6,1360.3,830.5z M1333.2,861.7v-30.6h26.6v30.6H1333.2z M1336.1,871L1336.1,871h14.4h0.5h0.5h1.3h0.4h0.4
		h6.2v9.4v0.5v0.5v14.5v0.4v0.4v18.8h-13.2h-0.4h-0.4h-9.7L1336.1,871L1336.1,871z M1438.8,794.4v44.4h-43.3v-44.4H1438.8z
		 M1434.4,790.9v2.8l-86.1-0.1v-2.7H1434.4z M1348.4,790.2v-3.1h71.8h0.5h0.5h10.1v3.1h-7.5h-0.5h-0.5H1348.4z M1438.8,786.4h-90.4
		v-5.9v-0.4v-0.4v-15.9c0-0.1,0-0.1,0-0.1c0-0.1-0.1-0.2-0.1-0.2l-8.1-7.7h98.6V786.4z M1226.3,379.6v-8.3h80v8.3H1226.3z
		 M1306.2,380.3V399v0.4v0.4v2.8h-80v-22.3H1306.2z M1226.2,370.6v-6.2c0-1.6-0.1-3.2-0.2-4.7h80.3v10.9L1226.2,370.6L1226.2,370.6z
		 M1225.9,359c-0.3-2.9-0.9-5.6-1.7-8.1h82.5c-0.4,2.1-0.4,8.1-0.4,8.1H1225.9z M1224,350.2c-0.3-0.8-0.6-1.5-0.9-2.3h84.1
		c-0.1,0.7-0.3,1.5-0.4,2.3H1224z M1225.7,364.4v38.2h-32.9v-78C1193.7,324.8,1225.7,331.3,1225.7,364.4z M1306.3,403.3
		c0,0.2,0.1,0.3,0.3,0.3h20.3l-1.1,1.1l-19.1,7.5h-113.9v-0.3v-0.4v-0.4v-7.8H1306.3z M1322.3,406.7v2.9h-7.6L1322.3,406.7z
		 M1340.2,466.7v-8.3h68.5v8.3H1340.2z M1408.7,467.4v22.2h-68.5v-22.2L1408.7,467.4L1408.7,467.4z M1340.2,457.7v-6.8
		c0-1.4-0.1-2.8-0.2-4.1h68.7v10.9H1340.2z M1340,446.1c-0.3-2.9-0.9-5.6-1.6-8.1h70.9c-0.4,2.8-0.6,5.6-0.6,8.1H1340z M1339.3,446
		c0,0.2,0,0.3,0,0.4c0,0.2,0,0.3,0,0.4c0.1,1.3,0.2,2.7,0.2,4.1v6.8v0.4v0.1v8.3v0.4v0.4v22.3l-32.2-0.1v-59.3l0.1-7
		c0-0.2-0.2-0.4-0.4-0.4h-0.7v-4.2h0.7c0.2,0,0.4-0.2,0.4-0.4v-3v-0.4v-0.4v-1.8l2.9-1.2c2,0.7,4.2,1.5,7.1,2.9
		c0.2,0.2,0.5,0.3,0.7,0.4c0.3,0.2,0.5,0.3,0.7,0.4c1.3,0.7,2.7,1.5,4,2.4c5.4,3.7,11.6,9.9,14.7,19.5c0,0.2,0.1,0.3,0.1,0.4
		c0,0.2,0.1,0.3,0.1,0.4C1338.5,440.4,1339,443.1,1339.3,446z M1328.6,624.6c-1.8-2.7-6.6-7.3-11.3-7.3h-10.1l0.1-123.3h108.2v151.9
		h-81.4c-0.3-0.9-0.5-1.6-0.8-2c0-0.1,0-0.1,0-0.2v-8.2C1333.2,635.4,1332.2,629.6,1328.6,624.6z M1192.7,429.9v-6.3h113.8v6.3
		H1192.7z M1306.5,430.5v186.8h-113.8V430.5h15.9h0.4h0.4H1306.5z M1296.9,422.9v-4.2h8.6v4.2H1296.9z M1306.7,413v4.9h-114V413
		H1306.7z M1296.3,418.7v4.2h-86.7h-0.4h-0.4h-16.1v-4.2H1296.3z M1192.7,618.1c0,0,124.8-0.1,125.3,0c2.2,0,8.1,3.1,10.7,7.9
		c2.7,4.3,3.4,7.7,3.7,9.1h-26.1h-0.4h-0.4h-3.9h-0.4h-0.4h-108.2C1192.8,629.4,1193.1,620.5,1192.7,618.1z M1332.6,635.9v7.5h-140
		v-7.5H1332.6z M1208.6,644h0.4h0.4h91.4h0.4h0.4h3.9h0.4h0.4h26.2c0.3,0.4,0.5,1,0.8,1.8c0,0.2,0.1,0.3,0.1,0.4
		c0,0.2,0.1,0.3,0.1,0.4c0.3,1.2,0.7,2.9,0.9,4.8c0.1,0.2,0.1,0.3,0.1,0.4c0.1,0.2,0.1,0.3,0.1,0.4c0.9,6.1,1.4,15,1.5,26.4
		c0,0.2,0,0.3,0,0.4c0,0.2,0,0.3,0,0.4c0,0.4,0,0.7,0,1.1c0,2.2-0.1,4.3-0.1,6.3c0,0.1,0,0.2,0,0.3s0,0.2,0,0.3
		c-0.4,18.6-2.4,28.6-4.2,28.6h-2.5h-58.5h-0.4h-0.4h-60.4h-0.4h-0.4h-15.5c3.3-6.2,2.2-59.9-0.5-72L1208.6,644L1208.6,644z
		 M1425.6,687.5v61.8h-85.3c-0.2-7-0.8-17.5-3.2-19.9c-0.1-0.1-0.2-0.1-0.3-0.1h-3.5v-6.2c0-0.2-0.2-0.4-0.4-0.4h-3.5v-3.9v-0.4V718
		v-1.2h2.4c0.6,0,2.5,0,3.8-11.5c0.6-4.9,1-11,1.1-17.8l0,0L1425.6,687.5L1425.6,687.5z M1336.7,686.7c0-2,0-7,0-7.4h88.9v7.4
		H1336.7z M1208.6,716.7h0.4h0.4h60.4h0.4h0.4h58.1v1.2v0.4v0.4v3.8h-58.2h-0.4h-0.4h-19h-0.4h-0.4h-40.5h-0.4h-0.4h-16v-5.8
		L1208.6,716.7L1208.6,716.7z M1192.6,723.3h16h0.4h0.4h40.9h0.4h0.4h18.7h0.4h0.4h58.4h3.5v5.9h-61.9h-0.4h-0.4H1254h-0.4h-0.4
		h-43.8h-0.4h-0.4h-16L1192.6,723.3L1192.6,723.3z M1208.6,729.8h0.4h0.4h44.2h0.4h0.4h15.4h0.4h0.4v-0.1h62.2h3.7
		c2.2,2.4,2.8,12.5,2.9,19.3c0,0.2,0,0.3,0,0.4c0,0.2,0,0.3,0,0.4c0,2.4,0,5.4,0,5.5h-72.6h-0.4h-56.8h-0.4h-0.4h-15.1
		c2.3-3.7-0.5-22.4-1-25.5L1208.6,729.8L1208.6,729.8z M1208.6,756.1h0.4h0.4h57.3h0.4h0.4l71.9-0.3l7.8,7.7h-79.6h-0.4h-0.4h-57.4
		h-0.4h-0.4h-16v-7.4H1208.6z M1208.6,764.2h0.4h0.4h57.3h0.4h0.4v-0.1h80.3v60.4h-155.2v-30.4v-0.4v-0.4v-29.1H1208.6z
		 M1437.6,755.1l-97.4,0.2c0-0.9,0-3.1,0-5.5h85.7L1437.6,755.1z M1425.6,678.7h-88.8c-0.1-8.9-0.5-17.5-1.2-23.8
		c-0.1-1-0.2-1.8-0.3-2.6h87.4C1425.8,655.8,1425.6,675.7,1425.6,678.7z M1422.5,646.6v5h-87.3c-0.3-2.2-0.7-3.8-1-5h81.6H1422.5z
		 M1415.8,493.3h-108.5v-2.8h116.3L1415.8,493.3z M1422.3,415.3c0.2-0.2,1.3-1,1.5-1.1c6.2-4,12.4-4.8,14-4.9v80.2H1424l-14.7,0.1
		v-21.8v-0.4V467v-8.3v-0.4v-0.4V447v-0.4v-0.1c0-0.1,0-0.2,0-0.3c0-2.5,0.2-5.3,0.6-8.1c0.1-0.2,0.1-0.3,0.1-0.4
		c0.1-0.2,0.1-0.3,0.1-0.4C1411.4,429.4,1414.7,421,1422.3,415.3z M1403.9,415.4h17.2c-7.2,5.9-10.4,14.2-11.7,22h-71.2
		c-3.5-11.1-11.1-17.9-18.1-22h2.6H1403.9z M1403.5,410.3v4.4H1323h-0.4h-0.4h-3.5c-2.9-1.6-5.7-2.7-7.9-3.5l2.3-0.9h9.1h0.4h0.4
		h49.8H1403.5z M1370.3,331.4c0.5,0.1,1,0.2,1.4,0.2c0.5,0.1,1,0.2,1.6,0.2c4,0,7.3-3.3,7.3-7.3c0-0.2,0-0.3,0-0.5
		c-0.1-0.2-0.1-0.4-0.1-0.6c0-0.1,0-0.1,0-0.1c-0.5-3.5-3.6-6.2-7.2-6.2c-4,0-7.3,3.3-7.3,7.3c0,2.5,1.2,4.8,3.2,6.1
		c-5.2-0.8-9.5-1.2-12.9-1c-1.5-2.9-2.2-5.9-2.2-9.1c0-11.1,9.2-20.2,20.4-20.2s20.4,9.1,20.4,20.2c0,5.8-2.5,11.4-6.9,15.2
		c-0.1,0,0,0.4,0.1,0.5l2,0.5c-1.4,0.8-2.6,1.5-3.9,2.1c-2.9,1.5-5.7,2.7-8.2,3.7c-0.1,0.1-0.3,0.1-0.4,0.2
		c-15,5.5-23.1,1.8-26.2-0.4c-3.4-2.4-4.6-5.5-4.2-7.4c0-0.3,0.1-0.6,0.2-0.8c0-0.1,0.1-0.1,0.1-0.2c0.1-0.2,0.3-0.4,0.4-0.6
		c2.4-2.4,4.9-2.5,5.3-2.6C1357.1,329.9,1362.8,330.2,1370.3,331.4z M1366.8,324.4c0-3.6,3-6.6,6.6-6.6c3.3,0,6,2.4,6.5,5.6
		c0,0.5,0.1,3.8-2.1,5.8c-1.4,1.3-3.4,1.8-6,1.6C1368.9,330.1,1366.7,327.5,1366.8,324.4z M1337.4,403.5c0.2,0,0.4-0.2,0.4-0.4
		v-60.2h1.5c0.1,0,0.2-0.1,0.3-0.4c0,0,2.4-7.7,8.3-10.4c0.1,0,0.1-0.1,0.2-0.1c-0.1,0-0.1,0.1-0.2,0.1l-0.1,0.1
		c-0.1,0.1-4.6,4.9,4,11.1c0.1,0.1,0.3,0.2,0.4,0.3c2.2,1.3,5.7,2.6,10.9,2.6c4.7,0,10.7-1.1,18.2-4.3c1.1-0.4,2.2-0.9,3.3-1.5
		c0.7-0.3,1.3-0.7,2-1l9.6-4.3c0.4,3.2,2.1,22.3-13.4,33l-1.9,1.2c-0.2,0.1-0.2,0.3-0.1,0.5c0.1,0.1,0.3,0.2,0.5,0.1
		c0.6-0.4,1.3-0.8,1.9-1.2l13.7-8.8c-0.2,4.4-1.9,29.4-14.1,39.9c-2.7,2.2-4.5,4.3-6,5.9c-1.6,1.7-2.8,3-4.2,4h-49.7v-3.2l3-1.2
		l0.1-0.1l1.7-1.7H1337.4z M1313.8,334.2c0.1-0.2,0.5-0.7,0.6-0.8c8.2-10.3,20.4-12.2,22.9-12.2v81.9h-30.5c0,0,0-46.8,0-46.9
		c0-3.5,1.2-8.9,1.2-9C1309.2,341.9,1311.3,337.6,1313.8,334.2z M1286.3,334.2h0.4h26.3c-2.4,3.5-4.4,7.7-5.6,13h-84.6
		c-2.2-5.9-7.8-11.8-9.5-13H1286.3z M1285.9,327.6v5.8h-73.4c-2.6-2.3-9.3-5.7-9.4-5.8H1285.9z M1277.4,325.1v1.7h-75.8
		c-5.1-2.3-9-3-9.1-3s-0.2,0-0.3,0.1c-0.1,0.1-0.1,0.2-0.1,0.3v2.8h-4.7v-4.8h25.3h70.1C1282.8,322.2,1277.6,324.9,1277.4,325.1z
		 M1192.2,445v171.9l-15.5-15.9V451.2h0.1L1192.2,445z M1177,450.3v-28.2l15.1-9.1v5.3v4.9v7v14L1177,450.3z M1176.7,421.5v-82.2
		l10.5-11.5h5v6.5v65.1v3.5v8.5v0.8L1176.7,421.5z M1186.6,259.7l-8.1,8.4v-4.3l8.1-8V259.7z M1187.2,321.5v-61.9v-1.2V258v-0.4
		v-1.8c0.4,0.1,0.9,0.2,1.6,0.4c0.2,0,0.3,0.1,0.4,0.1c0.2,0,0.3,0.1,0.4,0.1c0.9,0.3,2.1,0.7,3.3,1.2c0.2,0.2,0.5,0.3,0.8,0.4
		c0.3,0.2,0.5,0.3,0.8,0.4c1.8,0.8,3.8,1.9,5.7,3.3c0.2,0.2,0.3,0.3,0.5,0.4c0.2,0.2,0.3,0.3,0.5,0.4c4.9,3.9,11.2,11.1,11.2,24.3
		c0,9.3,0,34.7,0,34.7H1187.2z M1213,290c0,0-0.1-5-0.1-5.7h49.1c0,0.7,0,1.3,0,1.9v3.8L1213,290L1213,290z M1213,305.2v-5.9h49v5.9
		H1213z M1262,306v13.9v0.4v0.4v0.8h-49v-0.8v-0.4v-0.4V306H1262z M1213,298.6v-7.8h49v7.8H1213z M1212.8,283.7c0-0.5,0-1-0.1-1.5
		h49.5c-0.2,1-0.2,1-0.2,1.5H1212.8z M1285.9,256.1v65.4h-1.4l-22,0.1v-35.2C1262.5,268.6,1277.2,258.6,1285.9,256.1z M1264.3,262.6
		h8.8c-4.9,4.1-9.5,10.2-10.8,18.8h-49.7c-1.2-8.9-5.6-14.8-10.4-18.8H1264.3z M1264,258.6L1264,258.6l0.1,3.3h-62.6
		c-1.8-1.3-3.6-2.4-5.3-3.3h65.5H1264z M1261.5,257.8h-66.7c-2-0.9-3.8-1.5-5.1-1.9c-0.2,0-0.3-0.1-0.4-0.1c-0.2,0-0.3-0.1-0.4-0.1
		c-0.8-0.2-1.3-0.3-1.6-0.4v-0.4v-1.3h1.6h0.4h0.4h4.9h8.8h45.7v0.4h13.4L1261.5,257.8z M1203.7,238.9v-5h45.4v5H1203.7z
		 M1249.1,239.6v11.9v0.4v0.4v0.7h-45.4v-0.7v-0.4v-0.4v-11.9L1249.1,239.6L1249.1,239.6z M1203.7,233.2v-6.6h45.4v6.6H1203.7z
		 M1203.7,225.9c0,0,0-4.3,0-4.9h45.6c-0.1,0.9-0.2,4.9-0.2,4.9H1203.7z M1203.6,220.3c0-0.4,0-0.8-0.1-1.2h46
		c-0.1,0.4-0.1,0.8-0.2,1.2H1203.6z M1268.8,199v54.6h-19.1v-29.5C1249.7,206.6,1267.2,199.6,1268.8,199z M1255.2,207.3
		c-2.5,2.9-4.6,6.5-5.6,11.1h-46.3c-0.7-4.6-2.5-8.3-4.7-11.1H1255.2z M1242.4,203.3v3.3h-44.5c-0.9-1.1-1.9-2.1-2.9-2.9
		c-0.1-0.1-0.3-0.2-0.4-0.3l-0.1-0.1h6.5h21.5H1242.4z M1186.3,148.8c2.6-2.1,5.8-3.4,9.2-3.4c8.6,0,15.6,7.9,15.6,17.6
		c0,2.9-0.5,5.6-1.7,8.1c-0.1,0.2-0.1,0.3,0,0.4c0,0.1,0.2,0.1,0.3,0.1c0.6-0.1,1.2-0.1,1.7-0.1c8,0,14.9,5.4,16.9,13.2
		c0.3,1.4,0.5,2.9,0.5,4.3c0,2.7-0.7,5.3-1.7,7.8h-40.8v-27.5c1,0.9,2.3,1.5,3.7,1.5c2.8,0,5.1-2.3,5.1-5.1s-2.3-5.1-5.1-5.1
		c-1.5,0-2.8,0.5-3.7,1.5V148.8z M1186.1,163.2c0.8-1.2,2.2-2,3.7-1.9c2.4,0,4.4,2,4.4,4.4s-2,4.4-4.4,4.4c-1.6,0-2.9-0.8-3.7-2
		V163.2z M1229.8,197.5v5h-36.1c-4.2-2.9-10.3-4.6-10.8-4.7v-0.3H1229.8L1229.8,197.5z M1182.9,143.7h2.5v53.1h-2.5V143.7z
		 M1203.1,221.8c0,0.4,0,31,0,31h-20.2v-54.5C1196.4,201.5,1203.1,211.8,1203.1,221.8z M1177.3,149.5l2.3-5.6h2.6v8.2v0.8v0.7V198
		l-4.9,4.9V149.5z M1176.6,204.5l0.6-0.6l5-5v3.9v50.5v0.1l-5.6,5.6V204.5z M1177.5,261.7l-0.8-1.8l6.3-6.3h3.6v0.8v0.2l-1.5,1.5
		l-3.6,3.6l-3,3l-0.3,0.3l-0.1-0.2L1177.5,261.7z M1176.6,270.8l10-10v11.1v41.9v13.5l-10,11V270.8z M1176.6,793.5v-0.3V602l15.6,16
		c0.4,1.2,0.2,11.3-0.1,17.5c0,0-0.1,8.4,0.1,8.4c2.6,11.1,4,67.4,0.6,71.9c-0.1,0.2-0.2,0.2-0.2,0.2h-0.1c-0.2,0-0.4,0.2-0.4,0.4
		v6.5v6.6c1,6.3,3.1,23.1,1,25.6c-0.1,0.2-0.3,0.2-0.4,0.2h-0.3c-0.2,0-0.4,0.2-0.4,0.4v8.1v29.4v0.4v0.4v29.6l-15.2-29.6
		L1176.6,793.5L1176.6,793.5z M1176,793.9l16,31.4c0,0.2,156,0.1,156.1,0l10.2,5.1h-169.9v-0.1l-17.7-36.4H1176z M1170.5,871v-0.4
		v-0.4v-75.1l17.3,35.7v0.1v31.2v8.1v0.4v0.1v0.2v43.4l-17.3-35.5V871z M1169.8,870.9v7.8c0,0.1,0,0.2,0,0.2l17.7,37.2l0.1,0.1
		c0.1,0,0.1,0,0.2,0h37.8h0.4h0.4h15h94.1h10h0.4h0.4h13.7c0.2,0,0.4-0.2,0.4-0.4v-19.1v-0.4v-0.4v-13.7l12.1,13.7l0.3,0.4l0.3,0.4
		l22.4,25.4h-49h-0.4h-0.4h-119h-0.4h-0.4h-55.5l-26.6-51.2L1169.8,870.9L1169.8,870.9z M1174.9,972.7h67.9h23v49.2h-78.7l-3.2-5.9
		v-26.3c0-0.1,0-0.1,0-0.1c0-0.1,0-0.1,0-0.2L1174.9,972.7z M1170,964.8l13.1,24.4H296.9l13.1-24.4H1170z M310.2,964.2v-7.1h859.6
		v7.1H310.2z M1170.4,964.4v-7.1v-0.7v-29.5h72v18.6v0.4v0.4v15.3v0.4v0.4v9.3h-67.9L1170.4,964.4z M305.5,971.9h-67.9v-9.3v-0.4
		v-0.4v-15.3v-0.4v-0.4v-18.6h72v29.5v0.7v7.1L305.5,971.9z M309.7,926.5H84.1v-3.7h225.6V926.5z M149.2,927.1v18.7v0.4v0.4v15.3
		v0.4v0.4v9.3H84.1v-44.8L149.2,927.1z M149.6,972.7h63.8v49.1H84.1v-49.1H149.6z M149.9,972v-9.4v-0.4v-0.4v-15.3v-0.4v-0.4v-18.6
		h86.9v18.6v0.4v0.4v15.3v0.4v0.4v9.3h-23.1L149.9,972z M214.2,972.7h23h67.9l-9,16.7c0,0.1,0,0.1,0,0.2c0,0,0,0,0,0.1v26.3
		l-3.2,5.9h-78.7V972.7z M296.6,989.9L296.6,989.9h12.9h0.4h0.4h859.4h0.4h0.4h12.8h0.1v25.7h-12.8h-0.4h-0.4H310.2h-0.4h-0.4h-12.8
		L296.6,989.9L296.6,989.9z M1243.2,971.9v-9.3v-0.4v-0.4v-15.3v-0.4v-0.4v-18.6h86.9v18.6v0.4v0.4v15.3v0.4v0.4v9.4l-63.8-0.1
		L1243.2,971.9L1243.2,971.9z M1266.6,972.7h63.8h65.5v49.1h-129.3V972.7z M1330.8,972v-9.3v-0.4v-0.4v-15.3v-0.4v-0.4v-18.7
		l65.1,0.1V972L1330.8,972L1330.8,972z M1170.3,926.5v-3.7h225.6v3.7H1170.3z M1143.6,872l26.2,50.5v3.8l-26.2-50.8V872z
		 M1143.6,877.2v-0.9l26.2,50.8v28.2l-26.2-48.3V877.2z M337,907.4h806l26.5,48.9h-0.3H310.8h-0.3L337,907.4z M310.2,955.3v-28.2
		l26.2-50.8v0.9V907L310.2,955.3z M336.4,875.5l-26.2,50.8v-3.8l26.2-50.5L336.4,875.5L336.4,875.5z M310.2,878.9c0,0,0-0.1,0-0.2
		v-7.8h26l-26.6,51.2h-55.5h-0.4h-0.4h-119h-0.4h-0.4h-49l22.4-25.4l0.3-0.4l0.3-0.4l12.1-13.7v13.7v0.4v0.4v19.1
		c0,0.2,0.2,0.4,0.4,0.4h13.7h0.4h0.4h10h94.1h15h0.4h0.4h37.8c0.1,0,0.1,0,0.2,0l0.1-0.1L310.2,878.9z M291.6,862.5v7.8l-164.8,0.1
		v-7.9L291.6,862.5z M147.5,861.7v-14.5v-0.3v-0.1v-0.3v-0.1v-0.3v-6.7V839v-0.4v-7.5h31.1h0.4h0.4h33.2h0.4h0.4h28.7h0.4h0.4h2.9
		v15.1v0.4v0.4v14.7L147.5,861.7z M246.3,861.7v-14.8v-0.4v-0.4v-14.9h45.2v30.5L246.3,861.7z M291.5,871v44.5h-37.4h-0.4h-0.4
		h-14.7V871H291.5z M238,871v44.5h-93.3V871H238z M143.9,871L143.9,871v44.5h-9.7h-0.4h-0.4h-13.2v-18.8v-0.4v-0.4v-14.5v-0.5v-0.5
		V871h6.2h0.4h0.4h1.3h0.5h0.5L143.9,871L143.9,871z M146.8,861.7h-26.6v-30.6h26.6V861.7z M119.7,830.5c-0.1,0.1-0.1,0.1-0.2,0.2
		v0.1v8H85.2v-44.5h46.4v30.2L119.7,830.5z M119.6,847.3v14.8c0,0.2,0.1,0.4,0.3,0.4h6.2v7.9h-6.2c-0.2,0-0.4,0.2-0.4,0.4v10.5
		l-13,14.8H35.4v-48.8H119.6z M93.5,896.7h12.4l-12.4,14.1V896.7z M309.5,870.2v0.4v0.4v7.8l-17.3,35.5v-43.4v-0.2v-0.1v-0.4v-8.1
		v-31.2v-0.1l17.3-35.7V870.2z M304,793.9h5.3l-17.7,36.4v0.1H121.7l10.2-5.1c0.1,0.1,156.1,0.2,156.1,0L304,793.9z M143.3,687.5
		L143.3,687.5c0.1,6.8,0.5,12.9,1.1,17.8c1.3,11.5,3.2,11.5,3.8,11.5h2.4v1.2v0.4v0.4v3.9h-3.5c-0.2,0-0.4,0.2-0.4,0.4v6.2h-3.5
		c-0.1,0-0.2,0-0.3,0.1c-2.4,2.4-3,12.9-3.2,19.9H54.4v-61.8L143.3,687.5L143.3,687.5z M54.4,686.7v-7.4h88.9c0,0.4,0,5.4,0,7.4
		H54.4z M71.3,466.7v-8.3h68.5v8.3H71.3z M139.8,467.4v22.2H71.3v-22.2L139.8,467.4L139.8,467.4z M139.8,450.9v6.8H71.3v-10.9H140
		C139.9,448.1,139.8,449.5,139.8,450.9z M71.3,446.1c0-2.5-0.2-5.3-0.6-8.1h70.9c-0.7,2.5-1.3,5.2-1.6,8.1H71.3z M140.5,467.3v-0.4
		v-0.4v-8.3v-0.1v-0.4v-6.8c0-1.4,0.1-2.8,0.2-4.1c0-0.1,0-0.2,0-0.4c0-0.1,0-0.2,0-0.4c0.3-2.9,0.8-5.6,1.6-8.1
		c0-0.1,0.1-0.2,0.1-0.4c0-0.1,0.1-0.2,0.1-0.4c3.1-9.6,9.3-15.8,14.7-19.5c1.3-0.9,2.7-1.7,4-2.4c0.2-0.1,0.4-0.2,0.7-0.4
		c0.2-0.1,0.5-0.2,0.7-0.4c2.9-1.4,5.1-2.2,7.1-2.9l2.9,1.2v1.8v0.4v0.4v3c0,0.2,0.2,0.4,0.4,0.4h0.7v4.2H173
		c-0.2,0-0.4,0.2-0.4,0.4l0.1,7v59.3l-32.2,0.1L140.5,467.3L140.5,467.3z M154.2,404.7l-1.1-1.1h20.3c0.2,0,0.3-0.1,0.3-0.3h113.5
		v7.8v0.4v0.4v0.3H173.3L154.2,404.7z M165.3,409.6h-7.6v-2.9L165.3,409.6z M287.9,635.5c-0.3-6.2-0.5-16.3-0.1-17.5l15.6-16v191.2
		v0.3v0.1l-0.2,0.4L288,823.6V794v-0.4v-0.4v-29.4v-8.1c0-0.2-0.2-0.4-0.4-0.4h-0.3c-0.1,0-0.3,0-0.4-0.2c-2.1-2.5,0-19.3,1-25.6
		v-6.6v-6.5c0-0.2-0.2-0.4-0.4-0.4h-0.1c0,0-0.1,0-0.2-0.2c-3.4-4.5-2-60.8,0.6-71.9C288,643.9,287.9,635.5,287.9,635.5z
		 M303.3,339.3v82.2l-15.5-9.3v-0.8v-8.5v-3.5v-65.1v-6.5h5L303.3,339.3z M267.6,321.5c0,0,0-25.4,0-34.7c0-13.2,6.3-20.4,11.2-24.3
		c0.2-0.1,0.3-0.2,0.5-0.4c0.2-0.1,0.3-0.2,0.5-0.4c1.9-1.4,3.9-2.5,5.7-3.3c0.3-0.1,0.5-0.2,0.8-0.4c0.3-0.1,0.6-0.2,0.8-0.4
		c1.2-0.5,2.4-0.9,3.3-1.2c0.1,0,0.2-0.1,0.4-0.1c0.1,0,0.2-0.1,0.4-0.1c0.7-0.2,1.2-0.3,1.6-0.4v1.8v0.4v0.4v1.2v61.9H267.6z
		 M303,422.1v28.2l-15.1-6.1v-14v-7v-4.9V413L303,422.1z M303.2,451.2h0.1V601l-15.5,15.9V445L303.2,451.2z M209.4,723.3h0.4h0.4
		h18.7h0.4h0.4h40.9h0.4h0.4h16v5.9h-16H271h-0.4h-43.8h-0.4H226h-15.8h-0.4h-0.4h-61.9v-5.9h3.5H209.4z M151.3,722.5v-3.8v-0.4
		v-0.4v-1.2h58.1h0.4h0.4h60.4h0.4h0.4h16v5.8h-16H271h-0.4h-40.5h-0.4h-0.4h-19h-0.4h-0.4L151.3,722.5L151.3,722.5z M209.4,729.7
		L209.4,729.7l0.4,0.1h0.4h15.4h0.4h0.4h44.2h0.4h0.4h15.9c-0.5,3.1-3.3,21.8-1,25.5h-15.1h-0.4h-0.4h-56.8h-0.4h-72.6
		c0-0.1,0-3.1,0-5.5c0-0.1,0-0.2,0-0.4c0-0.1,0-0.2,0-0.4c0.1-6.8,0.7-16.9,2.9-19.3h3.7L209.4,729.7L209.4,729.7z M287.4,643.4
		h-140v-7.5h140V643.4z M179.2,635.1h-0.4h-0.4h-3.9h-0.4h-0.4h-26.1c0.3-1.4,1-4.8,3.7-9.1c2.6-4.8,8.5-7.9,10.7-7.9
		c0.5-0.1,125.3,0,125.3,0c-0.4,2.4-0.1,11.3,0.1,17H179.2z M287.3,423.6v6.3H173.5v-6.3H287.3z M174.5,422.9v-4.2h8.6v4.2H174.5z
		 M183.7,422.9v-4.2h103.6v4.2h-16.1h-0.4h-0.4H183.7z M270.6,430.5h0.4h0.4h15.9v186.8H173.5V430.5H270.6z M287.3,417.9h-114V413
		h114V417.9z M287.2,402.6h-32.9v-38.2c0-33.1,32-39.6,32.9-39.8V402.6z M173.8,399.8v-0.4V399v-18.7h80v22.3h-80V399.8z
		 M173.7,379.6v-8.3h80v8.3H173.7z M253.8,364.4v6.2h-80.1v-10.9H254C253.9,361.2,253.8,362.8,253.8,364.4z M173.7,359
		c0,0,0-6-0.4-8.1h82.5c-0.8,2.5-1.4,5.2-1.7,8.1H173.7z M256,350.2h-82.8c-0.1-0.8-0.3-1.6-0.4-2.3h84.1
		C256.6,348.7,256.3,349.4,256,350.2z M172.8,617.3h-10.1c-4.7,0-9.5,4.6-11.3,7.3c-3.6,5-4.6,10.8-4.7,10.9v8.2c0,0.1,0,0.1,0,0.2
		c-0.3,0.4-0.5,1.1-0.8,2H64.5V494h108.2L172.8,617.3z M146.5,646.6c0-0.1,0.1-0.2,0.1-0.4c0-0.1,0.1-0.2,0.1-0.4
		c0.3-0.8,0.5-1.4,0.8-1.8h26.2h0.4h0.4h3.9h0.4h0.4h91.4h0.4h0.4h15.8c-2.7,12.1-3.8,65.8-0.5,72h-15.5h-0.4h-0.4H210h-0.4h-0.4
		h-58.5h-2.5c-1.8,0-3.8-10-4.2-28.6c0-0.1,0-0.2,0-0.3s0-0.2,0-0.3c0-2-0.1-4.1-0.1-6.3c0-0.4,0-0.7,0-1.1c0-0.1,0-0.2,0-0.4
		c0-0.1,0-0.2,0-0.4c0.1-11.4,0.6-20.3,1.5-26.4c0-0.1,0-0.2,0.1-0.4c0-0.1,0-0.2,0.1-0.4C145.8,649.5,146.2,647.8,146.5,646.6z
		 M212.5,756.1h0.4h0.4h57.3h0.4h0.4h16v7.4h-16H271h-0.4h-57.4h-0.4h-0.4h-79.6l7.8-7.7L212.5,756.1z M212.5,764.1L212.5,764.1
		l0.4,0.1h0.4h57.3h0.4h0.4h16v29.1v0.4v0.4v30.4H132.2v-60.4L212.5,764.1L212.5,764.1z M303.4,270.8v67.5l-10-11v-13.5v-41.9v-11.1
		L303.4,270.8z M293.4,259.7v-3.9l8.1,8v4.3L293.4,259.7z M297.8,153.6v-0.7v-0.8v-8.2h2.6l2.3,5.6v53.4l-4.9-4.9V153.6z
		 M297.8,253.3v-50.5v-3.9l5,5l0.6,0.6V259L297.8,253.3L297.8,253.3z M303.3,259.9l-0.8,1.8l-0.6,1.1l-0.1,0.2l-0.3-0.3l-3-3
		l-3.6-3.6l-1.5-1.5v-0.2v-0.8h3.6L303.3,259.9z M297.1,252.9h-20.2c0,0,0-30.7,0-31c0-10.1,6.7-20.4,20.2-23.5V252.9z M294.6,143.7
		h2.5v53.1h-2.5V143.7z M293.9,163.2v4.9c-0.8,1.2-2.1,2-3.7,2c-2.4,0-4.4-2-4.4-4.4s2-4.4,4.4-4.4
		C291.7,161.2,293.1,162,293.9,163.2z M251.2,189c0-1.4,0.2-2.9,0.5-4.3c2-7.8,8.9-13.2,16.9-13.2c0.5,0,1.1,0,1.7,0.1
		c0.1,0,0.3,0,0.3-0.1c0.1-0.1,0.1-0.2,0-0.4c-1.2-2.5-1.7-5.2-1.7-8.1c0-9.7,7-17.6,15.6-17.6c3.4,0,6.6,1.3,9.2,3.4v13.3
		c-0.9-1-2.2-1.5-3.7-1.5c-2.8,0-5.1,2.3-5.1,5.1s2.3,5.1,5.1,5.1c1.4,0,2.7-0.6,3.7-1.5v27.5h-40.8
		C251.9,194.3,251.2,191.7,251.2,189z M250.2,197.5h46.9v0.3c-0.5,0.1-6.6,1.8-10.8,4.7h-36.1L250.2,197.5L250.2,197.5z
		 M237.6,203.3h19.9H279h6.5l-0.1,0.1c-0.1,0.1-0.3,0.2-0.4,0.3c-1,0.8-2,1.8-2.9,2.9h-44.5V203.3z M281.4,207.3
		c-2.2,2.8-4,6.5-4.7,11.1h-46.3c-1-4.6-3.1-8.2-5.6-11.1H281.4z M230.9,238.9v-5h45.4v5H230.9z M276.3,239.6v11.9v0.4v0.4v0.7
		h-45.4v-0.7v-0.4v-0.4v-11.9L276.3,239.6L276.3,239.6z M230.9,233.2v-6.6h45.4v6.6H230.9z M230.9,225.9c0,0-0.1-4-0.2-4.9h45.6
		c0,0.6,0,4.9,0,4.9H230.9z M230.7,220.3c-0.1-0.4-0.1-0.8-0.2-1.2h46c-0.1,0.4-0.1,0.8-0.1,1.2H230.7z M211.2,253.6V199
		c1.6,0.6,19.1,7.6,19.1,25.1v29.5H211.2z M217.5,254h13.4v-0.4h45.7h8.8h4.9h0.4h0.4h1.6v1.3v0.4c-0.3,0.1-0.8,0.2-1.6,0.4
		c-0.1,0-0.2,0.1-0.4,0.1c-0.1,0-0.2,0.1-0.4,0.1c-1.3,0.4-3.1,1-5.1,1.9h-66.7L217.5,254z M215.9,258.6L215.9,258.6h2.4h65.5
		c-1.7,0.9-3.5,2-5.3,3.3h-62.6V258.6z M215.7,262.6h62.1c-4.8,4-9.2,9.9-10.4,18.8h-49.7c-1.3-8.6-5.9-14.7-10.8-18.8H215.7z
		 M218,305.2v-5.9h49v5.9H218z M267,306v13.9v0.4v0.4v0.8h-49v-0.8v-0.4v-0.4V306H267z M218,298.6v-7.8h49v7.8H218z M218,290v-3.8
		c0-0.6,0-1.2,0-1.9h49.1c0,0.7-0.1,5.7-0.1,5.7L218,290L218,290z M218,283.7c0-0.5,0-0.5-0.2-1.5h49.5c-0.1,0.5-0.1,1-0.1,1.5H218z
		 M195.5,321.5h-1.4v-65.4c8.7,2.5,23.4,12.5,23.4,30.3v35.2L195.5,321.5z M197.2,322.2h70.1h25.3v4.8h-4.7v-2.8
		c0-0.1,0-0.2-0.1-0.3c-0.1-0.1-0.2-0.1-0.3-0.1s-4,0.7-9.1,3h-75.8v-1.7C202.4,324.9,197.2,322.2,197.2,322.2z M194.1,327.6H277
		c-0.1,0.1-6.8,3.5-9.4,5.8h-73.4v-5.8H194.1z M193.3,334.2h0.4h73c-1.7,1.2-7.3,7.1-9.5,13h-84.6c-1.2-5.3-3.2-9.5-5.6-13H193.3z
		 M142.7,321.2c2.5,0,14.7,1.9,22.9,12.2c0.1,0.1,0.5,0.6,0.6,0.8c2.5,3.4,4.6,7.7,5.8,13c0,0.1,1.2,5.5,1.2,9c0,0.1,0,46.9,0,46.9
		h-30.5V321.2z M91.9,336.1c0.1-0.1,0.2-0.5,0.1-0.5c-4.4-3.8-6.9-9.4-6.9-15.2c0-11.1,9.2-20.2,20.4-20.2s20.4,9.1,20.4,20.2
		c0,3.2-0.7,6.2-2.2,9.1c-3.4-0.2-7.7,0.2-12.9,1c2-1.3,3.2-3.6,3.2-6.1c0-4-3.3-7.3-7.3-7.3c-3.6,0-6.7,2.7-7.2,6.2c0,0,0,0,0,0.1
		c0,0.2,0,0.4-0.1,0.6c0,0.2,0,0.3,0,0.5c0,4,3.3,7.3,7.3,7.3c0.6,0,1.1-0.1,1.6-0.2c0.4,0,0.9-0.1,1.4-0.2
		c7.5-1.2,13.2-1.5,17.1-0.8c0.4,0.1,2.9,0.2,5.3,2.6c0.1,0.2,0.3,0.4,0.4,0.6c0,0.1,0.1,0.1,0.1,0.2c0.1,0.2,0.2,0.5,0.2,0.8
		c0.4,1.9-0.8,5-4.2,7.4c-3.1,2.2-11.2,5.9-26.2,0.4c-0.1-0.1-0.3-0.1-0.4-0.2c-2.5-1-5.3-2.2-8.2-3.7c-1.3-0.6-2.5-1.3-3.9-2.1
		L91.9,336.1z M108.2,330.8c-2.6,0.2-4.6-0.3-6-1.6c-2.2-2-2.1-5.3-2.1-5.8c0.5-3.2,3.2-5.6,6.5-5.6c3.6,0,6.6,3,6.6,6.6
		C113.3,327.5,111.1,330.1,108.2,330.8z M103.2,405.7c-1.5-1.6-3.3-3.7-6-5.9c-12.2-10.5-13.9-35.5-14.1-39.9l13.7,8.8
		c0.6,0.4,1.3,0.8,1.9,1.2c0.2,0.1,0.4,0,0.5-0.1c0.1-0.2,0.1-0.4-0.1-0.5l-1.9-1.2c-15.5-10.7-13.8-29.8-13.4-33l9.6,4.3
		c0.7,0.3,1.3,0.7,2,1c1.1,0.6,2.2,1.1,3.3,1.5c7.5,3.2,13.5,4.3,18.2,4.3c5.2,0,8.7-1.3,10.9-2.6c0.1-0.1,0.3-0.2,0.4-0.3
		c8.6-6.2,4.1-11,4-11.1l-0.1-0.1c-0.1,0-0.1-0.1-0.2-0.1c0.1,0,0.1,0,0.2,0.1c6,2.7,8.3,10.4,8.3,10.4c0.1,0.3,0.2,0.4,0.3,0.4h1.5
		v60.2c0,0.2,0.2,0.4,0.4,0.4h9.7l1.7,1.7l0.1,0.1l3,1.2v3.2h-49.7C106,408.7,104.8,407.4,103.2,405.7z M76.5,410.3h30.7H157h0.4
		h0.4h9.1l2.3,0.9c-2.2,0.8-5,1.9-7.9,3.5h-3.5h-0.4H157H76.5V410.3z M76.1,415.4h81.2h2.6c-7,4.1-14.6,10.9-18.1,22H70.6
		c-1.3-7.8-4.5-16.1-11.7-22H76.1z M56,489.5H42.2v-80.2c1.6,0.1,7.8,0.9,14,4.9c0.2,0.1,1.3,0.9,1.5,1.1c7.6,5.7,10.9,14.1,12.2,22
		c0,0.1,0,0.2,0.1,0.4c0,0.1,0,0.2,0.1,0.4c0.4,2.8,0.6,5.6,0.6,8.1c0,0.1,0,0.2,0,0.3v0.1v0.4v10.9v0.4v0.4v8.3v0.4v0.4v21.8
		L56,489.5z M56.4,490.5h116.3v2.8H64.2L56.4,490.5z M57.5,646.6h6.7h81.6c-0.3,1.2-0.7,2.8-1,5H57.5V646.6z M57.3,652.3h87.4
		c-0.1,0.8-0.2,1.6-0.3,2.6c-0.7,6.3-1.1,14.9-1.2,23.8H54.4C54.4,675.7,54.2,655.8,57.3,652.3z M54.1,749.8h85.7c0,2.4,0,4.6,0,5.5
		l-97.4-0.2L54.1,749.8z M41.2,786.4v-30.6h98.6l-8.1,7.7c0,0-0.1,0.1-0.1,0.2c0,0,0,0,0,0.1v15.9v0.4v0.4v5.9L41.2,786.4
		L41.2,786.4z M131.6,787.1v3.1H57.2h-0.5h-0.5h-7.5v-3.1h10.1h0.5h0.5H131.6z M45.6,790.9h86.1v2.7l-86.1,0.1V790.9z M41.2,794.4
		h43.3v44.4H41.2V794.4z M40.5,809.6v29.6c0,0.2,0.2,0.4,0.4,0.4h44h34.6v6.7H9.1L40.5,809.6z M8.8,847.2h25.9v48.9L8.8,896
		C8.8,896,8.8,847.2,8.8,847.2z M8.8,896.7H35h57.8v14.9l-9.3,10.6l-0.1,0.1v4.4v19H8.8V896.7z M5.9,961.9v-15.3h2.5h74.8v15.3H5.9z
		 M81.3,1037.8v-15.3h211.2l-8.4,15.3H81.3z M1225.9,1142.4H254.1v-21.3h971.8V1142.4z M1225.7,1120.3H254.3l22.4-41.3h926.6
		L1225.7,1120.3z M1203.1,1078.3H276.9v-25.7h926.2V1078.3z M1202.8,1051.9H277.2l19.5-35.8h12.9h0.4h0.4h859.2h0.4h0.4h12.9
		L1202.8,1051.9z M1398.7,1022.5v15.3h-202.8l-8.4-15.3H1398.7z M1396.6,945.7v-19v-4.4l-0.1-0.1l-9.3-10.6v-14.9h57.8h26.2v49
		H1396.6z M1474.1,961.9h-77.3v-15.3h74.8h2.5V961.9z"/>
</g>
</svg>
