<?xml version="1.0" encoding="utf-8"?>
<!-- Generator: Adobe Illustrator 19.0.0, SVG Export Plug-In . SVG Version: 6.00 Build 0)  -->
<svg version="1.1" id="lm-gapura" xmlns="http://www.w3.org/2000/svg" xmlns:xlink="http://www.w3.org/1999/xlink" x="0px" y="0px"
	 viewBox="317 -86.3 1050 1050" width="1050" height="1050" style="enable-background:new 317 -86.3 1050 1050;" xml:space="preserve">
<style type="text/css">
	.st0{fill:#DEBEBD;}
</style>
<g>
	<path class="st0" d="M1345.8,740.6h-2.5v-48.4c0,0,0-50.1,0-50.7l-32.5-38v-14.4c0-0.2-0.2-0.5-0.4-0.5h-4v-2.9
		c0-0.2-0.2-0.6-0.4-0.6h-2.9V582h7.2c0.2,0,0.4-0.2,0.4-0.4v-31c0-0.2-0.2-0.5-0.4-0.6l-12.8-5.8v-30.3v-31.2v-8.1
		c0-1,0.4-23.8-3.1-27.8v-5.6c0-0.2-0.2-0.4-0.4-0.4h-6.7V288.9l7.8-2.9c0.1-0.1,2.2-0.5,2.2-0.6h12c0.2,0,0.4-0.2,0.4-0.4v-80.5
		c0-0.1,0-0.9-0.1-1s-0.2-0.1-0.3-0.1c-0.1,0-7.4,0.3-14.7,5.1c-0.4,0.3-0.6,0.3-1.3,1.1h-18V205c0-0.2-0.2-0.4-0.4-0.4h-29.6
		c1.1-0.9,1.7-1.6,3-3c1.5-1.7,3.3-3.7,5.9-5.9c13.6-11.6,14.4-40.8,14.4-41.1c0-0.1-0.1-0.2-0.2-0.3c-0.1-0.1-0.3-0.1-0.4,0
		l-9.4,6.1c12.2-12.3,9.2-30.3,9.2-30.5s-0.1-0.2-0.2-0.3c-0.1,0-0.2,0-0.3,0l-4.9,2.2c-0.1-0.2-0.1-0.4-0.2-0.4l-2.1-0.5
		c4.3-3.9,6.6-9.3,6.6-15.1c0-11.5-9.5-20.9-21.1-20.9s-21.1,9.4-21.1,20.9c0,3.1,0.7,6.1,2,8.9c-2.1,0.2-10.1,0.8-14,7.6
		c-1.5,2.3-2.3,4.2-2.5,4.9h-1v-21.1c0-0.1,0-0.4-0.1-0.5s-0.4-0.1-0.5-0.1c-0.2,0-14.3,0.7-23.4,12.8h-27.4v-6.1
		c0-0.2-0.2-0.5-0.4-0.5h-7.9v-1.4l6.4-3.2h1.5c0.2,0,0.4-0.2,0.4-0.4V51c0-0.1,0-0.5-0.1-0.6s-0.2-0.1-0.3-0.1
		c-0.2,0-6.2,1.7-12.2,6.5h-9.3v-3.3c0-0.2-0.2-0.4-0.4-0.4h-2.2l1.2-4.2h5.9c0.2,0,0.4-0.2,0.4-0.4V-6.3c0-0.1,0-0.2-0.1-0.3
		s-0.2-0.1-0.3-0.1c-0.1,0-7.4,2.3-13.2,8.4h-12.5V-2c0-0.2-0.2-0.4-0.4-0.4h-12.2v-5.3v-0.2c0-0.2-0.2-0.4-0.4-0.4h-2.5
		c1.1-2.5,1.7-5.1,1.7-7.8c0-1.5-0.2-3-0.6-4.5c-2-8.1-9.3-13.7-17.6-13.7c-0.4,0-0.8,0-1.2,0c1.1-2.4,1.6-5.1,1.6-7.8
		c0-10.1-7.3-18.3-16.3-18.3c-3.4,0-6.6,1.2-9.2,3.2v-4.3c0-0.2-0.2-0.4-0.4-0.4h-3.3h-3.2c-0.1,0-0.2,0.1-0.3,0.2l-2.4,5.8v0.1
		v54.1l-0.6,0.6c-0.1,0.1-0.1,0.2-0.1,0.3v55.5v0.1v0.1l1.8,3.7v5.1l-1.7,1.7c-0.1,0.1-0.1,0.2-0.1,0.3V588h-5.8c-0.1,0-0.1,0-0.1,0
		c-0.1,0-0.1,0-0.1,0l-0.1,0.1v0.1v76.7h-26.7c-0.1,0-0.1,0-0.1,0c-0.1,0-0.1,0-0.1,0l-0.1,0.1v0.1v36.1H670v-36.1V665l-0.1-0.1
		c0,0,0,0-0.1,0c0,0,0,0-0.1,0H643v-76.7v-0.1l-0.1-0.1c0,0,0,0-0.1,0c0,0,0,0-0.1,0h-5.8V65.7c0-0.1,0-0.2-0.1-0.3l-1.7-1.7v-5.1
		l1.8-3.7v-0.1v-0.1V-0.8c0-0.1,0-0.2-0.1-0.3l-0.6-0.6v-54.1v-0.1l-2.4-5.8c-0.1-0.1-0.2-0.2-0.3-0.2h-3.2H627
		c-0.2,0-0.4,0.2-0.4,0.4v4.3c-2.6-2-5.8-3.2-9.2-3.2c-9,0-16.3,8.2-16.3,18.3c0,2.7,0.5,5.4,1.6,7.8c-0.4,0-0.8,0-1.2,0
		c-8.3,0-15.6,5.6-17.6,13.7c-0.4,1.5-0.6,3-0.6,4.5c0,2.7,0.6,5.3,1.7,7.8h-2.5c-0.2,0-0.4,0.2-0.4,0.4v0.2v5.3h-12.2
		c-0.2,0-0.4,0.2-0.4,0.4v3.7H557c-5.8-6.1-13.1-8.4-13.2-8.4c-0.1,0-0.2,0-0.3,0.1s-0.1,0.2-0.1,0.3v54.8c0,0.2,0.2,0.4,0.4,0.4
		h5.9l1.2,4.2h-2.2c-0.2,0-0.4,0.2-0.4,0.4v3.3H539c-6-4.8-12-6.5-12.2-6.5c-0.1,0-0.2,0-0.3,0.1s-0.1,0.5-0.1,0.6v65.7
		c0,0.2,0.2,0.4,0.4,0.4h1.5l6.4,3.2v1.4h-7.9c-0.2,0-0.4,0.3-0.4,0.5v6.1H499c-9.1-12.1-23.2-12.8-23.4-12.8c-0.1,0-0.4,0-0.5,0.1
		c-0.1,0.1-0.1,0.4-0.1,0.5v21.1h-1c-0.2-0.7-1-2.6-2.5-4.9c-3.9-6.8-11.9-7.4-14-7.6c1.3-2.8,2-5.8,2-8.9
		c0-11.5-9.5-20.9-21.1-20.9c-11.6,0-21.1,9.4-21.1,20.9c0,5.8,2.3,11.2,6.6,15.1l-2.1,0.5c-0.1,0-0.1,0.2-0.2,0.4l-4.9-2.2
		c-0.1,0-0.2,0-0.3,0c-0.1,0.1-0.2,0.1-0.2,0.3s-3,18.2,9.2,30.5l-9.4-6.1c-0.1-0.1-0.3-0.1-0.4,0c-0.1,0.1-0.2,0.2-0.2,0.3
		c0,0.3,0.8,29.5,14.4,41.1c2.6,2.2,4.4,4.2,5.9,5.9c1.3,1.4,1.9,2.1,3,3h-29.6c-0.2,0-0.4,0.2-0.4,0.4v4.6h-18
		c-0.7-0.7-0.9-0.8-1.3-1.1c-7.3-4.8-14.6-5.1-14.7-5.1c-0.1,0-0.2,0-0.3,0.1c-0.1,0.1-0.1,0.9-0.1,1V285c0,0.2,0.2,0.4,0.4,0.4h12
		c0,0.1,2.1,0.5,2.2,0.6l7.8,2.9v151.9H390c-0.2,0-0.4,0.2-0.4,0.4v5.6c-3.5,4-3.1,26.8-3.1,27.8v8.1v31.2v30.3l-12.8,5.8
		c-0.2,0.1-0.4,0.4-0.4,0.6v31c0,0.2,0.2,0.4,0.4,0.4h7.2v3.1H378c-0.2,0-0.4,0.4-0.4,0.6v2.9h-4c-0.2,0-0.4,0.3-0.4,0.5v14.4
		l-32.5,38c0,0.6,0,50.7,0,50.7v48.4h-2.5c-0.2,0-0.4,0.2-0.4,0.4v16.7c0,0.2,0.2,0.4,0.4,0.4H416v58.6h-2.5c-0.2,0-0.4,0.2-0.4,0.4
		v17c0,0.2,0.2,0.4,0.4,0.4h202.3l-7,13v26.4L586,915.8v23.1c0,0.2,0.2,0.4,0.4,0.4h511.2c0.2,0,0.4-0.2,0.4-0.4v-23.1l-22.8-41.9
		v-26.4l-7-13h202.3c0.2,0,0.4-0.2,0.4-0.4v-17c0-0.2-0.2-0.4-0.4-0.4h-2.5v-58.6h77.8c0.2,0,0.4-0.2,0.4-0.4V741
		C1346.2,740.8,1346,740.6,1345.8,740.6z M1310.7,634.1v-29.6l31.4,36.7h-110.4v-6.7h34.6h44
		C1310.5,634.5,1310.7,634.3,1310.7,634.1z M1342.4,642.1v48.8l-25.9,0.1v-48.9H1342.4L1342.4,642.1z M1244.7,691l-13-14.8v-10.5
		c0-0.2-0.2-0.4-0.4-0.4h-6.2v-7.9h6.2c0.2,0,0.3-0.2,0.3-0.4v-14.8h84.2V691H1244.7z M1257.7,691.6v14.1l-12.4-14.1H1257.7z
		 M1059.6,665.2v-7.8h164.8v7.9L1059.6,665.2z M1206.5,665.9v44.5h-93.3v-44.5H1206.5z M1112.6,665.9v44.5h-14.7h-0.4h-0.4h-37.4
		v-44.5H1112.6z M1059.7,656.6v-30.5h45.2V641v0.4v0.4v14.8L1059.7,656.6z M1105.4,656.6v-14.7v-0.4v-0.4V626h2.9h0.4h0.4h28.7h0.4
		h0.4h33.2h0.4h0.4h31.1v7.5v0.4v0.4v6.7v0.3v0.1v0.3v0.1v0.3v14.5H1105.4z M1231.5,625.4l-11.9-6v-30.2h46.4v44.5h-34.3v-8v-0.1
		C1231.6,625.5,1231.6,625.5,1231.5,625.4z M1204.4,656.6V626h26.6v30.6H1204.4z M1207.3,665.9L1207.3,665.9h14.4h0.5h0.5h1.3h0.4
		h0.4h6.2v9.4v0.5v0.5v14.5v0.4v0.4v18.8h-13.2h-0.4h-0.4h-9.7L1207.3,665.9L1207.3,665.9z M1310,589.3v44.4h-43.3v-44.4H1310z
		 M1305.6,585.8v2.8l-86.1-0.1v-2.7H1305.6z M1219.6,585.1V582h71.8h0.5h0.5h10.1v3.1h-7.5h-0.5h-0.5H1219.6z M1310,581.3h-90.4
		v-5.9V575v-0.4v-15.9c0-0.1,0-0.1,0-0.1c0-0.1-0.1-0.2-0.1-0.2l-8.1-7.7h98.6V581.3z M1063.9,413c0,0,124.8-0.1,125.3,0
		c2.2,0,8.1,3.1,10.7,7.9c2.7,4.3,3.4,7.7,3.7,9.1h-26.1h-0.4h-0.4h-3.9h-0.4h-0.4h-108.2C1064,424.3,1064.3,415.4,1063.9,413z
		 M1097.5,174.5v-8.3h80v8.3H1097.5z M1177.4,175.2v18.7v0.4v0.4v2.8h-80v-22.3H1177.4z M1097.4,165.5v-6.2c0-1.6-0.1-3.2-0.2-4.7
		h80.3v10.9L1097.4,165.5L1097.4,165.5z M1097.1,153.9c-0.3-2.9-0.9-5.6-1.7-8.1h82.5c-0.4,2.1-0.4,8.1-0.4,8.1H1097.1z
		 M1095.2,145.1c-0.3-0.8-0.6-1.5-0.9-2.3h84.1c-0.1,0.7-0.3,1.5-0.4,2.3H1095.2z M1096.9,159.3v38.2H1064v-78
		C1064.9,119.7,1096.9,126.2,1096.9,159.3z M1177.5,198.2c0,0.2,0.1,0.3,0.3,0.3h20.3l-1.1,1.1l-19.1,7.5H1064v-0.3v-0.4V206v-7.8
		H1177.5z M1193.5,201.6v2.9h-7.6L1193.5,201.6z M1211.4,261.6v-8.3h68.5v8.3H1211.4z M1279.9,262.3v22.2h-68.5v-22.2H1279.9z
		 M1211.4,252.6v-6.8c0-1.4-0.1-2.8-0.2-4.1h68.7v10.9H1211.4z M1211.2,241c-0.3-2.9-0.9-5.6-1.6-8.1h70.9c-0.4,2.8-0.6,5.6-0.6,8.1
		H1211.2z M1210.5,240.9c0,0.2,0,0.3,0,0.4c0,0.2,0,0.3,0,0.4c0.1,1.3,0.2,2.7,0.2,4.1v6.8v0.4v0.1v8.3v0.4v0.4v22.3l-32.2-0.1
		v-59.3l0.1-7c0-0.2-0.2-0.4-0.4-0.4h-0.7v-4.2h0.7c0.2,0,0.4-0.2,0.4-0.4v-3v-0.4v-0.4v-1.8l2.9-1.2c2,0.7,4.2,1.5,7.1,2.9
		c0.2,0.2,0.5,0.3,0.7,0.4c0.3,0.2,0.5,0.3,0.7,0.4c1.3,0.7,2.7,1.5,4,2.4c5.4,3.7,11.6,9.9,14.7,19.5c0,0.2,0.1,0.3,0.1,0.4
		c0,0.2,0.1,0.3,0.1,0.4C1209.7,235.3,1210.2,238,1210.5,240.9z M1199.8,419.5c-1.8-2.7-6.6-7.3-11.3-7.3h-10.1l0.1-123.3h108.2
		v151.9h-81.4c-0.3-0.9-0.5-1.6-0.8-2c0-0.1,0-0.1,0-0.2v-8.2C1204.4,430.3,1203.4,424.5,1199.8,419.5z M1177.9,207.9v4.9h-114v-4.9
		H1177.9z M1176.7,213.6v4.2h-8.6v-4.2H1176.7z M1167.5,213.6v4.2h-86.7h-0.4h-0.4h-16.1v-4.2H1167.5z M1177.7,218.5v6.3h-113.8
		v-6.3H1177.7z M1079.8,225.4h0.4h0.4h97.1v186.8h-113.8V225.4H1079.8z M1203.8,430.8v7.5h-140v-7.5H1203.8z M1079.8,438.9h0.4h0.4
		h91.4h0.4h0.4h3.9h0.4h0.4h26.2c0.3,0.4,0.5,1,0.8,1.8c0,0.2,0.1,0.3,0.1,0.4c0,0.2,0.1,0.3,0.1,0.4c0.3,1.2,0.7,2.9,0.9,4.8
		c0.1,0.2,0.1,0.3,0.1,0.4c0.1,0.2,0.1,0.3,0.1,0.4c0.9,6.1,1.4,15,1.5,26.4c0,0.2,0,0.3,0,0.4c0,0.2,0,0.3,0,0.4c0,0.4,0,0.7,0,1.1
		c0,2.2-0.1,4.3-0.1,6.3c0,0.1,0,0.2,0,0.3s0,0.2,0,0.3c-0.4,18.6-2.4,28.6-4.2,28.6h-2.5H1142h-0.4h-0.4h-60.4h-0.4h-0.4h-15.5
		c3.3-6.2,2.2-59.9-0.5-72L1079.8,438.9L1079.8,438.9z M1296.8,482.4v61.8h-85.3c-0.2-7-0.8-17.5-3.2-19.9c-0.1-0.1-0.2-0.1-0.3-0.1
		h-3.5V518c0-0.2-0.2-0.4-0.4-0.4h-3.5v-3.9v-0.4v-0.4v-1.2h2.4c0.6,0,2.5,0,3.8-11.5c0.6-4.9,1-11,1.1-17.8l0,0L1296.8,482.4
		L1296.8,482.4z M1207.9,481.6c0-2,0-7,0-7.4h88.9v7.4H1207.9z M1079.8,511.6h0.4h0.4h60.4h0.4h0.4h58.1v1.2v0.4v0.4v3.8h-58.2h-0.4
		h-0.4h-19h-0.4h-0.4h-40.5h-0.4h-0.4h-16v-5.8L1079.8,511.6L1079.8,511.6z M1063.8,518.2h16h0.4h0.4h40.9h0.4h0.4h18.7h0.4h0.4
		h58.4h3.5v5.9h-61.9h-0.4h-0.4h-15.8h-0.4h-0.4h-43.8h-0.4h-0.4h-16L1063.8,518.2L1063.8,518.2z M1079.8,524.7h0.4h0.4h44.2h0.4
		h0.4h15.4h0.4h0.4v-0.1h62.2h3.7c2.2,2.4,2.8,12.5,2.9,19.3c0,0.2,0,0.3,0,0.4c0,0.2,0,0.3,0,0.4c0,2.4,0,5.4,0,5.5H1138h-0.4
		h-56.8h-0.4h-0.4h-15.1c2.3-3.7-0.5-22.4-1-25.5L1079.8,524.7L1079.8,524.7z M1079.8,551h0.4h0.4h57.3h0.4h0.4l71.9-0.3l7.8,7.7
		h-79.6h-0.4h-0.4h-57.4h-0.4h-0.4h-16V551H1079.8z M1079.8,559.1h0.4h0.4h57.3h0.4h0.4V559h80.3v60.4h-155.2V589v-0.4v-0.4v-29.1
		H1079.8z M1308.8,550l-97.4,0.2c0-0.9,0-3.1,0-5.5h85.7L1308.8,550z M1296.8,473.6H1208c-0.1-8.9-0.5-17.5-1.2-23.8
		c-0.1-1-0.2-1.8-0.3-2.6h87.4C1297,450.7,1296.8,470.6,1296.8,473.6z M1293.7,441.5v5h-87.3c-0.3-2.2-0.7-3.8-1-5h81.6H1293.7z
		 M1287,288.2h-108.5v-2.8h116.3L1287,288.2z M1293.5,210.2c0.2-0.2,1.3-1,1.5-1.1c6.2-4,12.4-4.8,14-4.9v80.2h-13.8l-14.7,0.1
		v-21.8v-0.4v-0.4v-8.3v-0.4v-0.4v-10.9v-0.4v-0.1c0-0.1,0-0.2,0-0.3c0-2.5,0.2-5.3,0.6-8.1c0.1-0.2,0.1-0.3,0.1-0.4
		c0.1-0.2,0.1-0.3,0.1-0.4C1282.6,224.3,1285.9,215.9,1293.5,210.2z M1275.1,210.3h17.2c-7.2,5.9-10.4,14.2-11.7,22h-71.2
		c-3.5-11.1-11.1-17.9-18.1-22h2.6H1275.1z M1274.7,205.2v4.4h-80.5h-0.4h-0.4h-3.5c-2.9-1.6-5.7-2.7-7.9-3.5l2.3-0.9h9.1h0.4h0.4
		h49.8H1274.7z M1241.5,126.3c0.5,0.1,1,0.2,1.4,0.2c0.5,0.1,1,0.2,1.6,0.2c4,0,7.3-3.3,7.3-7.3c0-0.2,0-0.3,0-0.5
		c-0.1-0.2-0.1-0.4-0.1-0.6c0-0.1,0-0.1,0-0.1c-0.5-3.5-3.6-6.2-7.2-6.2c-4,0-7.3,3.3-7.3,7.3c0,2.5,1.2,4.8,3.2,6.1
		c-5.2-0.8-9.5-1.2-12.9-1c-1.5-2.9-2.2-5.9-2.2-9.1c0-11.1,9.2-20.2,20.4-20.2s20.4,9.1,20.4,20.2c0,5.8-2.5,11.4-6.9,15.2
		c-0.1,0,0,0.4,0.1,0.5l2,0.5c-1.4,0.8-2.6,1.5-3.9,2.1c-2.9,1.5-5.7,2.7-8.2,3.7c-0.1,0.1-0.3,0.1-0.4,0.2
		c-15,5.5-23.1,1.8-26.2-0.4c-3.4-2.4-4.6-5.5-4.2-7.4c0-0.3,0.1-0.6,0.2-0.8c0-0.1,0.1-0.1,0.1-0.2c0.1-0.2,0.3-0.4,0.4-0.6
		c2.4-2.4,4.9-2.5,5.3-2.6C1228.3,124.8,1234,125.1,1241.5,126.3z M1238,119.3c0-3.6,3-6.6,6.6-6.6c3.3,0,6,2.4,6.5,5.6
		c0,0.5,0.1,3.8-2.1,5.8c-1.4,1.3-3.4,1.8-6,1.6C1240.1,125,1237.9,122.4,1238,119.3z M1208.6,198.4c0.2,0,0.4-0.2,0.4-0.4v-60.2
		h1.5c0.1,0,0.2-0.1,0.3-0.4c0,0,2.4-7.7,8.3-10.4c0.1,0,0.1-0.1,0.2-0.1c-0.1,0-0.1,0.1-0.2,0.1l-0.1,0.1c-0.1,0.1-4.6,4.9,4,11.1
		c0.1,0.1,0.3,0.2,0.4,0.3c2.2,1.3,5.7,2.6,10.9,2.6c4.7,0,10.7-1.1,18.2-4.3c1.1-0.4,2.2-0.9,3.3-1.5c0.7-0.3,1.3-0.7,2-1l9.6-4.3
		c0.4,3.2,2.1,22.3-13.4,33l-1.9,1.2c-0.2,0.1-0.2,0.3-0.1,0.5c0.1,0.1,0.3,0.2,0.5,0.1c0.6-0.4,1.3-0.8,1.9-1.2l13.7-8.8
		c-0.2,4.4-1.9,29.4-14.1,39.9c-2.7,2.2-4.5,4.3-6,5.9c-1.6,1.7-2.8,3-4.2,4h-49.7v-3.2l3-1.2l0.1-0.1l1.7-1.7H1208.6z M1185,129.1
		c0.1-0.2,0.5-0.7,0.6-0.8c8.2-10.3,20.4-12.2,22.9-12.2V198H1178c0,0,0-46.8,0-46.9c0-3.5,1.2-8.9,1.2-9
		C1180.4,136.8,1182.5,132.5,1185,129.1z M1157.5,129.1h0.4h26.3c-2.4,3.5-4.4,7.7-5.6,13H1094c-2.2-5.9-7.8-11.8-9.5-13H1157.5z
		 M1157.1,122.5v5.8h-73.4c-2.6-2.3-9.3-5.7-9.4-5.8H1157.1z M1148.6,120v1.7h-75.8c-5.1-2.3-9-3-9.1-3s-0.2,0-0.3,0.1
		s-0.1,0.2-0.1,0.3v2.8h-4.7v-4.8h25.3h70.1C1154,117.1,1148.8,119.8,1148.6,120z M1063.4,239.9v171.9l-15.5-15.9V246.1h0.1
		L1063.4,239.9z M1048.2,245.2V217l15.1-9.1v5.3v4.9v7v14L1048.2,245.2z M1047.9,216.4v-82.2l10.5-11.5h5v6.5v65.1v3.5v8.5v0.8
		L1047.9,216.4z M1057.8,54.6l-8.1,8.4v-4.3l8.1-8V54.6z M1058.4,116.4V54.5v-1.2v-0.4v-0.4v-1.8c0.4,0.1,0.9,0.2,1.6,0.4
		c0.2,0,0.3,0.1,0.4,0.1c0.2,0,0.3,0.1,0.4,0.1c0.9,0.3,2.1,0.7,3.3,1.2c0.2,0.2,0.5,0.3,0.8,0.4c0.3,0.2,0.5,0.3,0.8,0.4
		c1.8,0.8,3.8,1.9,5.7,3.3c0.2,0.2,0.3,0.3,0.5,0.4c0.2,0.2,0.3,0.3,0.5,0.4c4.9,3.9,11.2,11.1,11.2,24.3c0,9.3,0,34.7,0,34.7
		H1058.4z M1084.2,100.1v-5.9h49v5.9H1084.2z M1133.2,100.9v13.9v0.4v0.4v0.8h-49v-0.8v-0.4v-0.4v-13.9H1133.2z M1084.2,93.5v-7.8
		h49v7.8H1084.2z M1084.2,84.9c0,0-0.1-5-0.1-5.7h49.1c0,0.7,0,1.3,0,1.9v3.8L1084.2,84.9L1084.2,84.9z M1084,78.6
		c0-0.5,0-1-0.1-1.5h49.5c-0.2,1-0.2,1-0.2,1.5H1084z M1157.1,51v65.4h-1.4l-22,0.1V81.3C1133.7,63.5,1148.4,53.5,1157.1,51z
		 M1135.5,57.5h8.8c-4.9,4.1-9.5,10.2-10.8,18.8h-49.7c-1.2-8.9-5.6-14.8-10.4-18.8H1135.5z M1135.2,53.5L1135.2,53.5l0.1,3.3h-62.6
		c-1.8-1.3-3.6-2.4-5.3-3.3h65.5H1135.2z M1132.7,52.7H1066c-2-0.9-3.8-1.5-5.1-1.9c-0.2,0-0.3-0.1-0.4-0.1c-0.2,0-0.3-0.1-0.4-0.1
		c-0.8-0.2-1.3-0.3-1.6-0.4v-0.4v-1.3h1.6h0.4h0.4h4.9h8.8h45.7v0.4h13.4L1132.7,52.7z M1074.9,33.8v-5h45.4v5H1074.9z M1120.3,34.5
		v11.9v0.4v0.4v0.7h-45.4v-0.7v-0.4v-0.4V34.5L1120.3,34.5L1120.3,34.5z M1074.9,28.1v-6.6h45.4v6.6H1074.9z M1074.9,20.8
		c0,0,0-4.3,0-4.9h45.6c-0.1,0.9-0.2,4.9-0.2,4.9H1074.9z M1074.8,15.2c0-0.4,0-0.8-0.1-1.2h46c-0.1,0.4-0.1,0.8-0.2,1.2H1074.8z
		 M1140-6.1v54.6h-19.1V19C1120.9,1.5,1138.4-5.5,1140-6.1z M1126.4,2.2c-2.5,2.9-4.6,6.5-5.6,11.1h-46.3c-0.7-4.6-2.5-8.3-4.7-11.1
		H1126.4z M1113.6-1.8v3.3h-44.5c-0.9-1.1-1.9-2.1-2.9-2.9c-0.1-0.1-0.3-0.2-0.4-0.3l-0.1-0.1h6.5h21.5H1113.6z M1057.5-56.3
		c2.6-2.1,5.8-3.4,9.2-3.4c8.6,0,15.6,7.9,15.6,17.6c0,2.9-0.5,5.6-1.7,8.1c-0.1,0.2-0.1,0.3,0,0.4c0,0.1,0.2,0.1,0.3,0.1
		c0.6-0.1,1.2-0.1,1.7-0.1c8,0,14.9,5.4,16.9,13.2c0.3,1.4,0.5,2.9,0.5,4.3c0,2.7-0.7,5.3-1.7,7.8h-40.8v-27.5
		c1,0.9,2.3,1.5,3.7,1.5c2.8,0,5.1-2.3,5.1-5.1s-2.3-5.1-5.1-5.1c-1.5,0-2.8,0.5-3.7,1.5V-56.3z M1057.3-41.9c0.8-1.2,2.2-2,3.7-1.9
		c2.4,0,4.4,2,4.4,4.4s-2,4.4-4.4,4.4c-1.6,0-2.9-0.8-3.7-2V-41.9z M1101-7.6v5h-36.1c-4.2-2.9-10.3-4.6-10.8-4.7v-0.3L1101-7.6
		L1101-7.6z M1054.1-61.4h2.5v53.1h-2.5V-61.4z M1054.1-6.7c13.5,3.1,20.2,13.4,20.2,23.5c0,0.4,0,31,0,31h-20.2V-6.7z M1048.5-55.6
		l2.3-5.6h2.6v8.2v0.8v0.7v44.4l-4.9,4.9L1048.5-55.6L1048.5-55.6z M1047.8-0.6l0.6-0.6l5-5v3.9v50.5v0.1l-5.6,5.6V-0.6z
		 M1048.7,56.6l-0.8-1.8l6.3-6.3h3.6v0.8v0.2l-1.5,1.5l-3.6,3.6l-3,3l-0.3,0.3l-0.1-0.2L1048.7,56.6z M1047.8,65.7l10-10v11.1v41.9
		v13.5l-10,11V65.7z M1047.8,588.4v-0.3V396.9l15.6,16c0.4,1.2,0.2,11.3-0.1,17.5c0,0-0.1,8.4,0.1,8.4c2.6,11.1,4,67.4,0.6,71.9
		c-0.1,0.2-0.2,0.2-0.2,0.2h-0.1c-0.2,0-0.4,0.2-0.4,0.4v6.5v6.6c1,6.3,3.1,23.1,1,25.6c-0.1,0.2-0.3,0.2-0.4,0.2h-0.3
		c-0.2,0-0.4,0.2-0.4,0.4v8.1v29.4v0.4v0.4v29.6l-15.2-29.6L1047.8,588.4L1047.8,588.4z M1047.2,588.8l16,31.4
		c0,0.2,156,0.1,156.1,0l10.2,5.1h-169.9v-0.1l-17.7-36.4H1047.2z M1041.7,665.9v-0.4v-0.4V590l17.3,35.7v0.1V657v8.1v0.4v0.1v0.2
		v43.4l-17.3-35.5V665.9z M1041,665.8v7.8c0,0.1,0,0.2,0,0.2l17.7,37.2l0.1,0.1c0.1,0,0.1,0,0.2,0h37.8h0.4h0.4h15h94.1h10h0.4h0.4
		h13.7c0.2,0,0.4-0.2,0.4-0.4v-19.1v-0.4v-0.4v-13.7l12.1,13.7l0.3,0.4l0.3,0.4l22.4,25.4h-49h-0.4h-0.4h-119h-0.4h-0.4h-55.5
		l-26.6-51.2H1041z M1046.1,767.6h67.9h23v49.2h-78.7l-3.2-5.9v-26.3c0-0.1,0-0.1,0-0.1c0-0.1,0-0.1,0-0.2L1046.1,767.6z
		 M1041.2,759.7l13.1,24.4H629.7l13.1-24.4H1041.2z M643,759.1V752h398v7.1H643z M1041.6,759.3v-7.1v-0.7V722h72v18.6v0.4v0.4v15.3
		v0.4v0.4v9.3h-67.9L1041.6,759.3z M638.3,766.8h-67.9v-9.3v-0.4v-0.4v-15.3V741v-0.4V722h72v29.5v0.7v7.1L638.3,766.8z
		 M642.5,721.4H416.9v-3.7h225.6V721.4z M482,722v18.7v0.4v0.4v15.3v0.4v0.4v9.3h-65.1v-44.8L482,722z M482.4,767.6h63.8v49.1H416.9
		v-49.1H482.4z M482.7,766.9v-9.4v-0.4v-0.4v-15.3V741v-0.4V722h86.9v18.6v0.4v0.4v15.3v0.4v0.4v9.3h-23.1L482.7,766.9z M547,767.6
		h23h67.9l-9,16.7c0,0.1,0,0.1,0,0.2c0,0,0,0,0,0.1v26.3l-3.2,5.9H547V767.6z M629.4,784.8L629.4,784.8h12.9h0.4h0.4h397.8h0.4h0.4
		h12.8h0.1v25.7h-12.8h-0.4h-0.4H643h-0.4h-0.4h-12.8L629.4,784.8L629.4,784.8z M1114.4,766.8v-9.3v-0.4v-0.4v-15.3V741v-0.4V722
		h86.9v18.6v0.4v0.4v15.3v0.4v0.4v9.4l-63.8-0.1H1114.4z M1137.8,767.6h63.8h65.5v49.1h-129.3V767.6z M1202,766.9v-9.3v-0.4v-0.4
		v-15.3v-0.4v-0.4V722l65.1,0.1v44.8L1202,766.9L1202,766.9z M1041.5,721.4v-3.7h225.6v3.7H1041.5z M1014.8,666.9l26.2,50.5v3.8
		l-26.2-50.8V666.9z M1014.8,672.1v-0.9L1041,722v28.2l-26.2-48.3V672.1z M669.8,702.3h344.4l26.5,48.9h-0.3H643.6h-0.3L669.8,702.3
		z M643,750.2V722l26.2-50.8v0.9v29.8L643,750.2z M669.2,670.4L643,721.2v-3.8l26.2-50.5V670.4z M643,673.8c0,0,0-0.1,0-0.2v-7.8h26
		L642.4,717h-55.5h-0.4h-0.4h-119h-0.4h-0.4h-49l22.4-25.4l0.3-0.4l0.3-0.4l12.1-13.7v13.7v0.4v0.4v19.1c0,0.2,0.2,0.4,0.4,0.4h13.7
		h0.4h0.4h10h94.1h15h0.4h0.4H625c0.1,0,0.1,0,0.2,0l0.1-0.1L643,673.8z M624.4,657.4v7.8l-164.8,0.1v-7.9L624.4,657.4z
		 M480.3,656.6v-14.5v-0.3v-0.1v-0.3v-0.1V641v-6.7v-0.4v-0.4V626h31.1h0.4h0.4h33.2h0.4h0.4h28.7h0.4h0.4h2.9v15.1v0.4v0.4v14.7
		L480.3,656.6z M579.1,656.6v-14.8v-0.4V641v-14.9h45.2v30.5H579.1z M624.3,665.9v44.5h-37.4h-0.4h-0.4h-14.7v-44.5H624.3z
		 M570.8,665.9v44.5h-93.3v-44.5H570.8z M476.7,665.9L476.7,665.9v44.5H467h-0.4h-0.4H453v-18.8v-0.4v-0.4v-14.5v-0.5v-0.5v-9.4h6.2
		h0.4h0.4h1.3h0.5h0.5L476.7,665.9L476.7,665.9z M479.6,656.6H453V626h26.6V656.6z M452.5,625.4c-0.1,0.1-0.1,0.1-0.2,0.2v0.1v8H418
		v-44.5h46.4v30.2L452.5,625.4z M452.4,642.2V657c0,0.2,0.1,0.4,0.3,0.4h6.2v7.9h-6.2c-0.2,0-0.4,0.2-0.4,0.4v10.5l-13,14.8h-71.1
		v-48.8H452.4z M426.3,691.6h12.4l-12.4,14.1V691.6z M642.3,665.1v0.4v0.4v7.8L625,709.2v-43.4v-0.2v-0.1v-0.4V657v-31.2v-0.1
		l17.3-35.7V665.1z M636.8,588.8h5.3l-17.7,36.4v0.1H454.5l10.2-5.1c0.1,0.1,156.1,0.2,156.1,0L636.8,588.8z M476.1,482.4
		L476.1,482.4c0.1,6.8,0.5,12.9,1.1,17.8c1.3,11.5,3.2,11.5,3.8,11.5h2.4v1.2v0.4v0.4v3.9h-3.5c-0.2,0-0.4,0.2-0.4,0.4v6.2H476
		c-0.1,0-0.2,0-0.3,0.1c-2.4,2.4-3,12.9-3.2,19.9h-85.3v-61.8L476.1,482.4L476.1,482.4z M387.2,481.6v-7.4h88.9c0,0.4,0,5.4,0,7.4
		H387.2z M404.1,261.6v-8.3h68.5v8.3H404.1z M472.6,262.3v22.2h-68.5v-22.2H472.6z M472.6,245.8v6.8h-68.5v-10.9h68.7
		C472.7,243,472.6,244.4,472.6,245.8z M404.1,241c0-2.5-0.2-5.3-0.6-8.1h70.9c-0.7,2.5-1.3,5.2-1.6,8.1H404.1z M473.3,262.2v-0.4
		v-0.4v-8.3V253v-0.4v-6.8c0-1.4,0.1-2.8,0.2-4.1c0-0.1,0-0.2,0-0.4c0-0.1,0-0.2,0-0.4c0.3-2.9,0.8-5.6,1.6-8.1
		c0-0.1,0.1-0.2,0.1-0.4c0-0.1,0.1-0.2,0.1-0.4c3.1-9.6,9.3-15.8,14.7-19.5c1.3-0.9,2.7-1.7,4-2.4c0.2-0.1,0.4-0.2,0.7-0.4
		c0.2-0.1,0.5-0.2,0.7-0.4c2.9-1.4,5.1-2.2,7.1-2.9l2.9,1.2v1.8v0.4v0.4v3c0,0.2,0.2,0.4,0.4,0.4h0.7v4.2h-0.7
		c-0.2,0-0.4,0.2-0.4,0.4l0.1,7v59.3l-32.2,0.1L473.3,262.2L473.3,262.2z M487,199.6l-1.1-1.1h20.3c0.2,0,0.3-0.1,0.3-0.3H620v7.8
		v0.4v0.4v0.3H506.1L487,199.6z M498.1,204.5h-7.6v-2.9L498.1,204.5z M620.7,430.4c-0.3-6.2-0.5-16.3-0.1-17.5l15.6-16v191.2v0.3
		v0.1l-0.2,0.4l-15.2,29.6v-29.6v-0.4v-0.4v-29.4v-8.1c0-0.2-0.2-0.4-0.4-0.4h-0.3c-0.1,0-0.3,0-0.4-0.2c-2.1-2.5,0-19.3,1-25.6
		v-6.6v-6.5c0-0.2-0.2-0.4-0.4-0.4h-0.1c0,0-0.1,0-0.2-0.2c-3.4-4.5-2-60.8,0.6-71.9C620.8,438.8,620.7,430.4,620.7,430.4z
		 M636.1,134.2v82.2l-15.5-9.3v-0.8v-8.5v-3.5v-65.1v-6.5h5L636.1,134.2z M600.4,116.4c0,0,0-25.4,0-34.7c0-13.2,6.3-20.4,11.2-24.3
		c0.2-0.1,0.3-0.2,0.5-0.4c0.2-0.1,0.3-0.2,0.5-0.4c1.9-1.4,3.9-2.5,5.7-3.3c0.3-0.1,0.5-0.2,0.8-0.4c0.3-0.1,0.6-0.2,0.8-0.4
		c1.2-0.5,2.4-0.9,3.3-1.2c0.1,0,0.2-0.1,0.4-0.1c0.1,0,0.2-0.1,0.4-0.1c0.7-0.2,1.2-0.3,1.6-0.4v1.8v0.4v0.4v1.2v61.9H600.4z
		 M635.8,217v28.2l-15.1-6.1v-14v-7v-4.9v-5.3L635.8,217z M636,246.1L636,246.1l0.1,149.8l-15.5,15.9V239.9L636,246.1z M542.2,518.2
		h0.4h0.4h18.7h0.4h0.4h40.9h0.4h0.4h16v5.9h-16h-0.4h-0.4h-43.8h-0.4h-0.4H543h-0.4h-0.4h-61.9v-5.9h3.5H542.2z M484.1,517.4v-3.8
		v-0.4v-0.4v-1.2h58.1h0.4h0.4h60.4h0.4h0.4h16v5.8h-16h-0.4h-0.4h-40.5h-0.4h-0.4h-19h-0.4h-0.4L484.1,517.4L484.1,517.4z
		 M542.2,524.6L542.2,524.6l0.4,0.1h0.4h15.4h0.4h0.4h44.2h0.4h0.4h15.9c-0.5,3.1-3.3,21.8-1,25.5H604h-0.4h-0.4h-56.8H546h-72.6
		c0-0.1,0-3.1,0-5.5c0-0.1,0-0.2,0-0.4c0-0.1,0-0.2,0-0.4c0.1-6.8,0.7-16.9,2.9-19.3h3.7H542.2L542.2,524.6z M620.2,438.3h-140v-7.5
		h140V438.3z M512,430h-0.4h-0.4h-3.9h-0.4h-0.4h-26.1c0.3-1.4,1-4.8,3.7-9.1c2.6-4.8,8.5-7.9,10.7-7.9c0.5-0.1,125.3,0,125.3,0
		c-0.4,2.4-0.1,11.3,0.1,17H512z M620.1,218.5v6.3H506.3v-6.3H620.1z M507.3,217.8v-4.2h8.6v4.2H507.3z M516.5,217.8v-4.2h103.6v4.2
		H604h-0.4h-0.4H516.5z M603.4,225.4h0.4h0.4h15.9v186.8H506.3V225.4H603.4z M620.1,212.8h-114v-4.9h114V212.8z M620,197.5h-32.9
		v-38.2c0-33.1,32-39.6,32.9-39.8V197.5z M506.6,194.7v-0.4v-0.4v-18.7h80v22.3h-80V194.7z M506.5,174.5v-8.3h80v8.3H506.5z
		 M586.6,159.3v6.2h-80.1v-10.9h80.3C586.7,156.1,586.6,157.7,586.6,159.3z M506.5,153.9c0,0,0-6-0.4-8.1h82.5
		c-0.8,2.5-1.4,5.2-1.7,8.1H506.5z M588.8,145.1H506c-0.1-0.8-0.3-1.6-0.4-2.3h84.1C589.4,143.6,589.1,144.3,588.8,145.1z
		 M505.6,412.2h-10.1c-4.7,0-9.5,4.6-11.3,7.3c-3.6,5-4.6,10.8-4.7,10.9v8.2c0,0.1,0,0.1,0,0.2c-0.3,0.4-0.5,1.1-0.8,2h-81.4V288.9
		h108.2L505.6,412.2z M479.3,441.5c0-0.1,0.1-0.2,0.1-0.4c0-0.1,0.1-0.2,0.1-0.4c0.3-0.8,0.5-1.4,0.8-1.8h26.2h0.4h0.4h3.9h0.4h0.4
		h91.4h0.4h0.4H620c-2.7,12.1-3.8,65.8-0.5,72H604h-0.4h-0.4h-60.4h-0.4H542h-58.5H481c-1.8,0-3.8-10-4.2-28.6c0-0.1,0-0.2,0-0.3
		s0-0.2,0-0.3c0-2-0.1-4.1-0.1-6.3c0-0.4,0-0.7,0-1.1c0-0.1,0-0.2,0-0.4c0-0.1,0-0.2,0-0.4c0.1-11.4,0.6-20.3,1.5-26.4
		c0-0.1,0-0.2,0.1-0.4c0-0.1,0-0.2,0.1-0.4C478.6,444.4,479,442.7,479.3,441.5z M545.3,551h0.4h0.4h57.3h0.4h0.4h16v7.4h-16h-0.4
		h-0.4H546h-0.4h-0.4h-79.6l7.8-7.7L545.3,551z M545.3,559L545.3,559l0.4,0.1h0.4h57.3h0.4h0.4h16v29.1v0.4v0.4v30.4H465V559H545.3
		L545.3,559z M636.2,65.7v67.5l-10-11v-13.5V66.8V55.7L636.2,65.7z M626.2,54.6v-3.9l8.1,8V63L626.2,54.6z M630.6-51.5v-0.7V-53
		v-8.2h2.6l2.3,5.6v53.4l-4.9-4.9L630.6-51.5L630.6-51.5z M630.6,48.2V-2.3v-3.9l5,5l0.6,0.6v54.5L630.6,48.2L630.6,48.2z
		 M636.1,54.8l-0.8,1.8l-0.6,1.1l-0.1,0.2l-0.3-0.3l-3-3l-3.6-3.6l-1.5-1.5v-0.2v-0.8h3.6L636.1,54.8z M629.9,47.8h-20.2
		c0,0,0-30.7,0-31c0-10.1,6.7-20.4,20.2-23.5V47.8z M627.4-61.4h2.5v53.1h-2.5V-61.4z M626.7-41.9v4.9c-0.8,1.2-2.1,2-3.7,2
		c-2.4,0-4.4-2-4.4-4.4s2-4.4,4.4-4.4C624.5-43.9,625.9-43.1,626.7-41.9z M584-16.1c0-1.4,0.2-2.9,0.5-4.3c2-7.8,8.9-13.2,16.9-13.2
		c0.5,0,1.1,0,1.7,0.1c0.1,0,0.3,0,0.3-0.1c0.1-0.1,0.1-0.2,0-0.4c-1.2-2.5-1.7-5.2-1.7-8.1c0-9.7,7-17.6,15.6-17.6
		c3.4,0,6.6,1.3,9.2,3.4V-43c-0.9-1-2.2-1.5-3.7-1.5c-2.8,0-5.1,2.3-5.1,5.1s2.3,5.1,5.1,5.1c1.4,0,2.7-0.6,3.7-1.5v27.5h-40.8
		C584.7-10.8,584-13.4,584-16.1z M583-7.6h46.9v0.3c-0.5,0.1-6.6,1.8-10.8,4.7H583V-7.6z M570.4-1.8h19.9h21.5h6.5l-0.1,0.1
		c-0.1,0.1-0.3,0.2-0.4,0.3c-1,0.8-2,1.8-2.9,2.9h-44.5L570.4-1.8L570.4-1.8z M614.2,2.2c-2.2,2.8-4,6.5-4.7,11.1h-46.3
		c-1-4.6-3.1-8.2-5.6-11.1H614.2z M563.7,33.8v-5h45.4v5H563.7z M609.1,34.5v11.9v0.4v0.4v0.7h-45.4v-0.7v-0.4v-0.4V34.5L609.1,34.5
		L609.1,34.5z M563.7,28.1v-6.6h45.4v6.6H563.7z M563.7,20.8c0,0-0.1-4-0.2-4.9h45.6c0,0.6,0,4.9,0,4.9H563.7z M563.5,15.2
		c-0.1-0.4-0.1-0.8-0.2-1.2h46c-0.1,0.4-0.1,0.8-0.1,1.2H563.5z M544,48.5V-6.1c1.6,0.6,19.1,7.6,19.1,25.1v29.5H544z M550.3,48.9
		h13.4v-0.4h45.7h8.8h4.9h0.4h0.4h1.6v1.3v0.4c-0.3,0.1-0.8,0.2-1.6,0.4c-0.1,0-0.2,0.1-0.4,0.1c-0.1,0-0.2,0.1-0.4,0.1
		c-1.3,0.4-3.1,1-5.1,1.9h-66.7L550.3,48.9z M548.7,53.5L548.7,53.5h2.4h65.5c-1.7,0.9-3.5,2-5.3,3.3h-62.6V53.5L548.7,53.5z
		 M548.5,57.5h62.1c-4.8,4-9.2,9.9-10.4,18.8h-49.7c-1.3-8.6-5.9-14.7-10.8-18.8H548.5z M550.8,100.1v-5.9h49v5.9H550.8z
		 M599.8,100.9v13.9v0.4v0.4v0.8h-49v-0.8v-0.4v-0.4v-13.9H599.8z M550.8,93.5v-7.8h49v7.8H550.8z M550.8,84.9v-3.8
		c0-0.6,0-1.2,0-1.9h49.1c0,0.7-0.1,5.7-0.1,5.7L550.8,84.9L550.8,84.9z M550.8,78.6c0-0.5,0-0.5-0.2-1.5h49.5
		c-0.1,0.5-0.1,1-0.1,1.5H550.8z M528.3,116.4h-1.4V51c8.7,2.5,23.4,12.5,23.4,30.3v35.2L528.3,116.4z M530,117.1h70.1h25.3v4.8
		h-4.7v-2.8c0-0.1,0-0.2-0.1-0.3c-0.1-0.1-0.2-0.1-0.3-0.1s-4,0.7-9.1,3h-75.8V120C535.2,119.8,530,117.1,530,117.1z M526.9,122.5
		h82.8c-0.1,0.1-6.8,3.5-9.4,5.8h-73.4V122.5L526.9,122.5z M526.1,129.1h0.4h73c-1.7,1.2-7.3,7.1-9.5,13h-84.6
		c-1.2-5.3-3.2-9.5-5.6-13H526.1z M475.5,116.1c2.5,0,14.7,1.9,22.9,12.2c0.1,0.1,0.5,0.6,0.6,0.8c2.5,3.4,4.6,7.7,5.8,13
		c0,0.1,1.2,5.5,1.2,9c0,0.1,0,46.9,0,46.9h-30.5V116.1z M424.7,131c0.1-0.1,0.2-0.5,0.1-0.5c-4.4-3.8-6.9-9.4-6.9-15.2
		c0-11.1,9.2-20.2,20.4-20.2c11.2,0,20.4,9.1,20.4,20.2c0,3.2-0.7,6.2-2.2,9.1c-3.4-0.2-7.7,0.2-12.9,1c2-1.3,3.2-3.6,3.2-6.1
		c0-4-3.3-7.3-7.3-7.3c-3.6,0-6.7,2.7-7.2,6.2c0,0,0,0,0,0.1c0,0.2,0,0.4-0.1,0.6c0,0.2,0,0.3,0,0.5c0,4,3.3,7.3,7.3,7.3
		c0.6,0,1.1-0.1,1.6-0.2c0.4,0,0.9-0.1,1.4-0.2c7.5-1.2,13.2-1.5,17.1-0.8c0.4,0.1,2.9,0.2,5.3,2.6c0.1,0.2,0.3,0.4,0.4,0.6
		c0,0.1,0.1,0.1,0.1,0.2c0.1,0.2,0.2,0.5,0.2,0.8c0.4,1.9-0.8,5-4.2,7.4c-3.1,2.2-11.2,5.9-26.2,0.4c-0.1-0.1-0.3-0.1-0.4-0.2
		c-2.5-1-5.3-2.2-8.2-3.7c-1.3-0.6-2.5-1.3-3.9-2.1L424.7,131z M441,125.7c-2.6,0.2-4.6-0.3-6-1.6c-2.2-2-2.1-5.3-2.1-5.8
		c0.5-3.2,3.2-5.6,6.5-5.6c3.6,0,6.6,3,6.6,6.6C446.1,122.4,443.9,125,441,125.7z M436,200.6c-1.5-1.6-3.3-3.7-6-5.9
		c-12.2-10.5-13.9-35.5-14.1-39.9l13.7,8.8c0.6,0.4,1.3,0.8,1.9,1.2c0.2,0.1,0.4,0,0.5-0.1c0.1-0.2,0.1-0.4-0.1-0.5L430,163
		c-15.5-10.7-13.8-29.8-13.4-33l9.6,4.3c0.7,0.3,1.3,0.7,2,1c1.1,0.6,2.2,1.1,3.3,1.5c7.5,3.2,13.5,4.3,18.2,4.3
		c5.2,0,8.7-1.3,10.9-2.6c0.1-0.1,0.3-0.2,0.4-0.3c8.6-6.2,4.1-11,4-11.1l-0.1-0.1c-0.1,0-0.1-0.1-0.2-0.1c0.1,0,0.1,0,0.2,0.1
		c6,2.7,8.3,10.4,8.3,10.4c0.1,0.3,0.2,0.4,0.3,0.4h1.5V198c0,0.2,0.2,0.4,0.4,0.4h9.7l1.7,1.7l0.1,0.1l3,1.2v3.2h-49.7
		C438.8,203.6,437.6,202.3,436,200.6z M409.3,205.2H440h49.8h0.4h0.4h9.1l2.3,0.9c-2.2,0.8-5,1.9-7.9,3.5h-3.5h-0.4h-0.4h-80.5
		V205.2z M408.9,210.3h81.2h2.6c-7,4.1-14.6,10.9-18.1,22h-71.2c-1.3-7.8-4.5-16.1-11.7-22H408.9z M388.8,284.4H375v-80.2
		c1.6,0.1,7.8,0.9,14,4.9c0.2,0.1,1.3,0.9,1.5,1.1c7.6,5.7,10.9,14.1,12.2,22c0,0.1,0,0.2,0.1,0.4c0,0.1,0,0.2,0.1,0.4
		c0.4,2.8,0.6,5.6,0.6,8.1c0,0.1,0,0.2,0,0.3v0.1v0.4v10.9v0.4v0.4v8.3v0.4v0.4v21.8L388.8,284.4z M389.2,285.4h116.3v2.8H397
		L389.2,285.4z M390.3,441.5h6.7h81.6c-0.3,1.2-0.7,2.8-1,5h-87.3V441.5z M390.1,447.2h87.4c-0.1,0.8-0.2,1.6-0.3,2.6
		c-0.7,6.3-1.1,14.9-1.2,23.8h-88.8C387.2,470.6,387,450.7,390.1,447.2z M386.9,544.7h85.7c0,2.4,0,4.6,0,5.5l-97.4-0.2L386.9,544.7
		z M374,581.3v-30.6h98.6l-8.1,7.7c0,0-0.1,0.1-0.1,0.2c0,0,0,0,0,0.1v15.9v0.4v0.4v5.9L374,581.3L374,581.3z M464.4,582v3.1H390
		h-0.5H389h-7.5V582h10.1h0.5h0.5H464.4z M378.4,585.8h86.1v2.7l-86.1,0.1V585.8z M374,589.3h43.3v44.4H374V589.3z M373.3,604.5
		v29.6c0,0.2,0.2,0.4,0.4,0.4h44h34.6v6.7H341.9L373.3,604.5z M341.6,642.1h25.9V691l-25.9-0.1V642.1z M341.6,691.6h26.2h57.8v14.9
		l-9.3,10.6l-0.1,0.1v4.4v19h-74.6V691.6z M338.7,756.8v-15.3h2.5H416v15.3H338.7z M414.1,832.7v-15.3h211.2l-8.4,15.3H414.1z
		 M1097.1,937.3H586.9V916h510.2V937.3z M1096.9,915.2H587.1l22.4-41.3h465L1096.9,915.2z M1074.3,873.2H609.7v-25.7h464.6
		L1074.3,873.2L1074.3,873.2z M1074,846.8H610l19.5-35.8h12.9h0.4h0.4h397.6h0.4h0.4h12.9L1074,846.8z M1269.9,817.4v15.3h-202.8
		l-8.4-15.3H1269.9z M1267.8,740.6v-19v-4.4l-0.1-0.1l-9.3-10.6v-14.9h57.8h26.2v49H1267.8z M1345.3,756.8H1268v-15.3h74.8h2.5
		V756.8z"/>
	<path class="st0" d="M502.7,334.4c-5.9-1.1-20.1-5.1-24.7-17.4c-1.9-5.1-2.7-10.4-2.2-15.3c0-0.1,0-0.2-0.1-0.3
		c-0.1-0.1-0.2-0.1-0.3-0.1h-42.1c-0.1,0-0.2,0.1-0.3,0.1c-0.1,0.1-0.1,0.2-0.1,0.3c0.9,3.2,0.3,14.4-6.3,23.5
		c-5.9,8.2-14.9,12.5-26.7,13c-0.2,0-0.3,0.2-0.3,0.4V394c0,0.2,0.1,0.4,0.3,0.4c11.2,0.6,25.9,5.7,30.5,18.3
		c1.9,5.1,2.7,10.4,2.2,15.3c0,0.1,0,0.2,0.1,0.3c0.1,0.1,0.2,0.1,0.3,0.1h42.1c0.1,0,0.2-0.1,0.3-0.1c0.1-0.1,0.1-0.2,0.1-0.3
		c-0.8-3-0.2-12.6,5.2-21.2c4.9-7.9,12.3-12.8,22-14.7c0.2,0,0.3-0.2,0.3-0.4v-56.9C503,334.6,502.9,334.5,502.7,334.4z
		 M502.2,391.3c-9.6,1.9-17.3,7.1-22.2,14.9c-5.2,8.4-6,17.7-5.3,21.3h-41.3c0.4-4.9-0.4-10.2-2.3-15.2c-4.7-12.7-19.5-18-30.8-18.7
		V339c11.9-0.6,20.9-5.1,26.9-13.3c6.8-9.4,7.2-20.2,6.6-23.7H475c-0.4,4.9,0.4,10.2,2.3,15.2c4.6,12.4,18.7,16.6,24.9,17.8V391.3
		L502.2,391.3z"/>
	<path class="st0" d="M604.5-10.6c2.8,0,5.1-2.3,5.1-5.1s-2.3-5.1-5.1-5.1c-2.8,0-5.1,2.3-5.1,5.1S601.7-10.6,604.5-10.6z
		 M604.5-20.1c2.4,0,4.4,2,4.4,4.4s-2,4.4-4.4,4.4c-2.4,0-4.4-2-4.4-4.4C600.1-18.2,602.1-20.1,604.5-20.1z"/>
	<path class="st0" d="M510.1,366.1c0.4,0,1.7,0.1,1.9,0.1c10.8,1.5,23.2,6.9,27.3,17.9c1.9,5.1,2.7,10.4,2.2,15.3
		c0,0.1,0,0.2,0.1,0.3c0.1,0.1,0.2,0.1,0.3,0.1H584c0.1,0,0.2-0.1,0.3-0.1c0.1-0.1,0.1-0.2,0.1-0.3c-0.4-1.5-0.5-4.9,0.4-9.1
		c0.7-3.4,2.3-8.6,5.8-13.5c3.4-4.8,7.7-8.4,12.9-10.7c0.1-0.1,0.2-0.1,0.4-0.2c0.1-0.1,0.2-0.1,0.4-0.2c3.6-1.5,7.7-2.4,12.1-2.8
		c0.2,0,0.3-0.2,0.3-0.4v-90.6c0-0.2-0.1-0.3-0.3-0.4c-3.9-0.4-8.1-1.3-12.1-2.8c-0.1,0-0.2-0.1-0.4-0.1s-0.2-0.1-0.4-0.1
		c-7.2-2.8-13.7-7.7-16.4-15.1c-1.9-5.1-2.7-10.4-2.2-15.3c0-0.1,0-0.2-0.1-0.3c-0.1-0.1-0.2-0.1-0.3-0.1h-42.1
		c-0.1,0-0.2,0.1-0.3,0.1c-0.1,0.1-0.1,0.2-0.1,0.3c0.4,1.5,0.5,4.9-0.4,9.1c-0.7,3.4-2.3,8.6-5.7,13.5
		c-5.7,8.2-14.4,12.9-25.7,13.8c-0.2,0-0.3,0.2-0.3,0.4V288v0.4v0.4v76.8C509.9,365.8,509.9,366.1,510.1,366.1z M510.5,275.4
		c11.3-1,20-5.8,25.9-14.1c6.1-8.7,7.1-18.9,6.3-22.8H584c-0.4,4.9,0.4,10.2,2.3,15.2c2.9,7.7,9.6,12.7,17.1,15.6
		c0.1,0,0.2,0.1,0.4,0.1c0.1,0,0.2,0.1,0.4,0.1c3.9,1.4,7.9,2.3,11.7,2.7v89.9c-4.3,0.4-8.2,1.3-11.7,2.7c-0.1,0-0.2,0.1-0.4,0.2
		c-0.1,0.1-0.2,0.1-0.4,0.2c-5.5,2.4-10,6.1-13.5,11.1c-6.1,8.7-7.1,18.9-6.4,22.8h-41.3c0.4-4.9-0.4-10.2-2.3-15.2
		c-4.2-11.3-16.9-16.8-28-18.3c-0.1,0-1.2-0.1-1.4-0.1V275.4z"/>
	<path class="st0" d="M452.5,327.6l-37.6,38.1c-0.1,0.1-0.1,0.2-0.1,0.3s0,0.2,0.1,0.3l37.6,37.1c0,0.1,0.1,0.1,0.2,0.1
		c0.1,0,0.2,0,0.3-0.1l37.6-37.1c0.1-0.1,0.1-0.2,0.1-0.3s0-0.2-0.1-0.3L453,327.6C452.9,327.5,452.6,327.5,452.5,327.6z
		 M452.6,402.6L415.5,366l37.1-37.4l37.1,37.4L452.6,402.6z"/>
	<path class="st0" d="M565.2,358.8c21,0,38-17,38-38s-17-38-38-38s-38,17-38,38S544.3,358.8,565.2,358.8z M565.2,283.5
		c20.6,0,37.3,16.7,37.3,37.3s-16.7,37.3-37.3,37.3s-37.3-16.7-37.3-37.3S544.7,283.5,565.2,283.5z"/>
	<path class="st0" d="M565.2,338.8c9.9,0,18-8.1,18-18s-8.1-18-18-18c-9.9,0-18,8.1-18,18C547.2,330.8,555.2,338.8,565.2,338.8z
		 M565.2,303.5c9.5,0,17.3,7.8,17.3,17.3s-7.8,17.3-17.3,17.3s-17.3-7.8-17.3-17.3S555.6,303.5,565.2,303.5z"/>
	<path class="st0" d="M434.8,365.8c0,0.1,0,0.1,0.1,0.2l17.8,17.6c0,0.1,0.1,0.1,0.1,0.1s0.1,0,0.2-0.1l17.8-17.6
		c0.1-0.1,0.1-0.1,0.1-0.2s0-0.1-0.1-0.2L453,347.5c-0.1-0.1-0.2-0.1-0.3,0l-17.8,18.1C434.8,365.7,434.8,365.7,434.8,365.8z
		 M452.7,348l17.6,17.8l-17.6,17.4l-17.6-17.4L452.7,348z"/>
	<path class="st0" d="M1208.5,428c0,0.1,0,0.2,0.1,0.3c0.1,0,0.2,0.1,0.3,0.1h42.1c0.1,0,0.2,0,0.3-0.1s0.1-0.2,0.1-0.3
		c-0.5-4.9,0.3-10.2,2.2-15.3c4.6-12.6,19.3-17.7,30.5-18.3c0.2,0,0.3-0.2,0.3-0.4v-55.4c0-0.2-0.1-0.4-0.3-0.4
		c-11.8-0.5-20.8-4.8-26.7-13c-6.6-9.1-7.2-20.3-6.3-23.5c0-0.1,0-0.2-0.1-0.3c-0.1,0-0.2-0.1-0.3-0.1h-42.1c-0.1,0-0.2,0-0.3,0.1
		s-0.1,0.2-0.1,0.3c0.5,4.9-0.3,10.2-2.2,15.3c-4.6,12.3-18.8,16.3-24.7,17.4c-0.2,0.1-0.3,0.2-0.3,0.4v56.9c0,0.2,0.1,0.4,0.3,0.4
		c9.7,1.9,17.1,6.8,22,14.7C1208.7,415.4,1209.3,425,1208.5,428z M1204,406.2c-4.9-7.8-12.6-13-22.2-14.9V335
		c6.2-1.2,20.3-5.4,24.9-17.8c1.9-5,2.7-10.3,2.3-15.2h41.2c-0.6,3.5-0.2,14.3,6.6,23.7c6,8.2,15,12.7,26.9,13.3v54.6
		c-11.3,0.7-26.1,6-30.8,18.7c-1.9,5-2.7,10.3-2.3,15.2h-41.3C1210,423.9,1209.2,414.6,1204,406.2z"/>
	<path class="st0" d="M1079.5-10.6c2.8,0,5.1-2.3,5.1-5.1s-2.3-5.1-5.1-5.1c-2.8,0-5.1,2.3-5.1,5.1S1076.7-10.6,1079.5-10.6z
		 M1079.5-20.1c2.4,0,4.4,1.9,4.4,4.4c0,2.4-2,4.4-4.4,4.4s-4.4-2-4.4-4.4S1077.1-20.1,1079.5-20.1z"/>
	<path class="st0" d="M1079.7,268.7c-4,1.5-8.2,2.4-12.1,2.8c-0.2,0.1-0.3,0.2-0.3,0.4v90.6c0,0.2,0.1,0.4,0.3,0.4
		c4.4,0.4,8.5,1.3,12.1,2.8c0.2,0.1,0.3,0.1,0.4,0.2c0.2,0.1,0.3,0.1,0.4,0.2c5.2,2.3,9.5,5.9,12.9,10.7c3.5,4.9,5.1,10.1,5.8,13.5
		c0.9,4.2,0.8,7.6,0.4,9.1c0,0.1,0,0.2,0.1,0.3c0.1,0,0.2,0.1,0.3,0.1h42.1c0.1,0,0.2,0,0.3-0.1c0.1-0.1,0.1-0.2,0.1-0.3
		c-0.5-4.9,0.3-10.2,2.2-15.3c4.1-11,16.5-16.4,27.3-17.9c0.2,0,1.5-0.1,1.9-0.1c0.2,0,0.2-0.3,0.2-0.5v-76.8v-0.4V288v-13.1
		c0-0.2-0.1-0.4-0.3-0.4c-11.3-0.9-20-5.6-25.7-13.8c-3.4-4.9-5-10.1-5.7-13.5c-0.9-4.2-0.8-7.6-0.4-9.1c0-0.1,0-0.2-0.1-0.3
		c-0.1,0-0.2-0.1-0.3-0.1h-42.1c-0.1,0-0.2,0-0.3,0.1s-0.1,0.2-0.1,0.3c0.5,4.9-0.3,10.2-2.2,15.3c-2.7,7.4-9.2,12.3-16.4,15.1
		c-0.2,0-0.2,0.1-0.4,0.1C1079.9,268.6,1079.8,268.7,1079.7,268.7z M1080.6,269.3c7.5-2.9,14.2-7.9,17.1-15.6
		c1.9-5,2.7-10.3,2.3-15.2h41.3c-0.8,3.9,0.2,14.1,6.3,22.8c5.9,8.3,14.6,13.1,25.9,14.1v90.1c-0.2,0-1.3,0.1-1.4,0.1
		c-11.1,1.5-23.8,7-28,18.3c-1.9,5-2.7,10.3-2.3,15.2h-41.3c0.7-3.9-0.3-14.1-6.4-22.8c-3.5-5-8-8.7-13.5-11.1
		c-0.2-0.1-0.3-0.1-0.4-0.2c-0.2-0.1-0.3-0.2-0.4-0.2c-3.5-1.4-7.4-2.3-11.7-2.7v-89.9c3.8-0.4,7.8-1.3,11.7-2.7
		c0.2,0,0.3-0.1,0.4-0.1C1080.4,269.4,1080.5,269.3,1080.6,269.3z"/>
	<path class="st0" d="M1231.3,403.6c0.1,0,0.2,0,0.2-0.1l37.6-37.1c0.1-0.1,0.1-0.2,0.1-0.3s0-0.2-0.1-0.3l-37.6-38.1
		c-0.1-0.1-0.4-0.1-0.5,0l-37.6,38.1c-0.1,0.1-0.1,0.2-0.1,0.3s0,0.2,0.1,0.3l37.6,37.1C1231.1,403.6,1231.2,403.6,1231.3,403.6z
		 M1231.4,328.6l37.1,37.4l-37.1,36.6l-37.1-36.6L1231.4,328.6z"/>
	<path class="st0" d="M1118.8,358.8c21,0,38-17,38-38s-17-38-38-38s-38,17-38,38C1080.8,341.8,1097.8,358.8,1118.8,358.8z
		 M1118.8,283.5c20.6,0,37.3,16.7,37.3,37.3s-16.7,37.3-37.3,37.3c-20.6,0-37.3-16.7-37.3-37.3S1098.2,283.5,1118.8,283.5z"/>
	<path class="st0" d="M1118.8,338.8c10,0,18-8,18-18c0-9.9-8.1-18-18-18s-18,8.1-18,18S1108.9,338.8,1118.8,338.8z M1118.8,303.5
		c9.6,0,17.3,7.8,17.3,17.3s-7.8,17.3-17.3,17.3s-17.3-7.8-17.3-17.3S1109.3,303.5,1118.8,303.5z"/>
	<path class="st0" d="M1249.2,365.8c0-0.1,0-0.1-0.1-0.2l-17.8-18.1c-0.1-0.1-0.2-0.1-0.3,0l-17.8,18.1c-0.1,0.1-0.1,0.1-0.1,0.2
		s0,0.1,0.1,0.2l17.8,17.6c0.1,0.1,0.1,0.1,0.2,0.1s0.1,0,0.1-0.1l17.8-17.6C1249.2,365.9,1249.2,365.8,1249.2,365.8z M1231.3,383.2
		l-17.6-17.4l17.6-17.8l17.6,17.8L1231.3,383.2z"/>
</g>
</svg>
